<?xml version="1.0" encoding="utf-8"?>
<svg xmlns="http://www.w3.org/2000/svg" xmlns:xlink="http://www.w3.org/1999/xlink" width="600" height="400" viewBox="0 0 2400 1600">
<defs>
  <clipPath id="clip630">
    <rect x="0" y="0" width="2400" height="1600"/>
  </clipPath>
</defs>
<path clip-path="url(#clip630)" d="M0 1600 L2400 1600 L2400 0 L0 0  Z" fill="#ffffff" fill-rule="evenodd" fill-opacity="1"/>
<defs>
  <clipPath id="clip631">
    <rect x="219" y="123" width="2134" height="1301"/>
  </clipPath>
</defs>
<path clip-path="url(#clip630)" d="M219.38 1423.18 L2352.76 1423.18 L2352.76 123.472 L219.38 123.472  Z" fill="#ffffff" fill-rule="evenodd" fill-opacity="1"/>
<polyline clip-path="url(#clip631)" style="stroke:#000000; stroke-linecap:round; stroke-linejoin:round; stroke-width:2; stroke-opacity:0.1; fill:none" points="530.396,1423.18 530.396,123.472 "/>
<polyline clip-path="url(#clip631)" style="stroke:#000000; stroke-linecap:round; stroke-linejoin:round; stroke-width:2; stroke-opacity:0.1; fill:none" points="883.251,1423.18 883.251,123.472 "/>
<polyline clip-path="url(#clip631)" style="stroke:#000000; stroke-linecap:round; stroke-linejoin:round; stroke-width:2; stroke-opacity:0.1; fill:none" points="1236.11,1423.18 1236.11,123.472 "/>
<polyline clip-path="url(#clip631)" style="stroke:#000000; stroke-linecap:round; stroke-linejoin:round; stroke-width:2; stroke-opacity:0.1; fill:none" points="1588.96,1423.18 1588.96,123.472 "/>
<polyline clip-path="url(#clip631)" style="stroke:#000000; stroke-linecap:round; stroke-linejoin:round; stroke-width:2; stroke-opacity:0.1; fill:none" points="1941.82,1423.18 1941.82,123.472 "/>
<polyline clip-path="url(#clip631)" style="stroke:#000000; stroke-linecap:round; stroke-linejoin:round; stroke-width:2; stroke-opacity:0.1; fill:none" points="2294.67,1423.18 2294.67,123.472 "/>
<polyline clip-path="url(#clip631)" style="stroke:#000000; stroke-linecap:round; stroke-linejoin:round; stroke-width:2; stroke-opacity:0.1; fill:none" points="219.38,1423.18 2352.76,1423.18 "/>
<polyline clip-path="url(#clip631)" style="stroke:#000000; stroke-linecap:round; stroke-linejoin:round; stroke-width:2; stroke-opacity:0.1; fill:none" points="219.38,1051.83 2352.76,1051.83 "/>
<polyline clip-path="url(#clip631)" style="stroke:#000000; stroke-linecap:round; stroke-linejoin:round; stroke-width:2; stroke-opacity:0.1; fill:none" points="219.38,680.49 2352.76,680.49 "/>
<polyline clip-path="url(#clip631)" style="stroke:#000000; stroke-linecap:round; stroke-linejoin:round; stroke-width:2; stroke-opacity:0.1; fill:none" points="219.38,309.145 2352.76,309.145 "/>
<polyline clip-path="url(#clip630)" style="stroke:#000000; stroke-linecap:round; stroke-linejoin:round; stroke-width:4; stroke-opacity:1; fill:none" points="219.38,1423.18 2352.76,1423.18 "/>
<polyline clip-path="url(#clip630)" style="stroke:#000000; stroke-linecap:round; stroke-linejoin:round; stroke-width:4; stroke-opacity:1; fill:none" points="530.396,1423.18 530.396,1404.28 "/>
<polyline clip-path="url(#clip630)" style="stroke:#000000; stroke-linecap:round; stroke-linejoin:round; stroke-width:4; stroke-opacity:1; fill:none" points="883.251,1423.18 883.251,1404.28 "/>
<polyline clip-path="url(#clip630)" style="stroke:#000000; stroke-linecap:round; stroke-linejoin:round; stroke-width:4; stroke-opacity:1; fill:none" points="1236.11,1423.18 1236.11,1404.28 "/>
<polyline clip-path="url(#clip630)" style="stroke:#000000; stroke-linecap:round; stroke-linejoin:round; stroke-width:4; stroke-opacity:1; fill:none" points="1588.96,1423.18 1588.96,1404.28 "/>
<polyline clip-path="url(#clip630)" style="stroke:#000000; stroke-linecap:round; stroke-linejoin:round; stroke-width:4; stroke-opacity:1; fill:none" points="1941.82,1423.18 1941.82,1404.28 "/>
<polyline clip-path="url(#clip630)" style="stroke:#000000; stroke-linecap:round; stroke-linejoin:round; stroke-width:4; stroke-opacity:1; fill:none" points="2294.67,1423.18 2294.67,1404.28 "/>
<path clip-path="url(#clip630)" d="M508.278 1454.1 Q504.667 1454.1 502.839 1457.66 Q501.033 1461.2 501.033 1468.33 Q501.033 1475.44 502.839 1479.01 Q504.667 1482.55 508.278 1482.55 Q511.913 1482.55 513.718 1479.01 Q515.547 1475.44 515.547 1468.33 Q515.547 1461.2 513.718 1457.66 Q511.913 1454.1 508.278 1454.1 M508.278 1450.39 Q514.088 1450.39 517.144 1455 Q520.223 1459.58 520.223 1468.33 Q520.223 1477.06 517.144 1481.67 Q514.088 1486.25 508.278 1486.25 Q502.468 1486.25 499.389 1481.67 Q496.334 1477.06 496.334 1468.33 Q496.334 1459.58 499.389 1455 Q502.468 1450.39 508.278 1450.39 Z" fill="#000000" fill-rule="nonzero" fill-opacity="1" /><path clip-path="url(#clip630)" d="M528.44 1479.7 L533.324 1479.7 L533.324 1485.58 L528.44 1485.58 L528.44 1479.7 Z" fill="#000000" fill-rule="nonzero" fill-opacity="1" /><path clip-path="url(#clip630)" d="M543.556 1451.02 L561.912 1451.02 L561.912 1454.96 L547.838 1454.96 L547.838 1463.43 Q548.857 1463.08 549.875 1462.92 Q550.894 1462.73 551.912 1462.73 Q557.699 1462.73 561.079 1465.9 Q564.459 1469.08 564.459 1474.49 Q564.459 1480.07 560.986 1483.17 Q557.514 1486.25 551.195 1486.25 Q549.019 1486.25 546.75 1485.88 Q544.505 1485.51 542.098 1484.77 L542.098 1480.07 Q544.181 1481.2 546.403 1481.76 Q548.625 1482.32 551.102 1482.32 Q555.107 1482.32 557.445 1480.21 Q559.783 1478.1 559.783 1474.49 Q559.783 1470.88 557.445 1468.77 Q555.107 1466.67 551.102 1466.67 Q549.227 1466.67 547.352 1467.08 Q545.5 1467.5 543.556 1468.38 L543.556 1451.02 Z" fill="#000000" fill-rule="nonzero" fill-opacity="1" /><path clip-path="url(#clip630)" d="M850.404 1481.64 L858.043 1481.64 L858.043 1455.28 L849.733 1456.95 L849.733 1452.69 L857.997 1451.02 L862.673 1451.02 L862.673 1481.64 L870.312 1481.64 L870.312 1485.58 L850.404 1485.58 L850.404 1481.64 Z" fill="#000000" fill-rule="nonzero" fill-opacity="1" /><path clip-path="url(#clip630)" d="M879.756 1479.7 L884.64 1479.7 L884.64 1485.58 L879.756 1485.58 L879.756 1479.7 Z" fill="#000000" fill-rule="nonzero" fill-opacity="1" /><path clip-path="url(#clip630)" d="M904.825 1454.1 Q901.214 1454.1 899.385 1457.66 Q897.58 1461.2 897.58 1468.33 Q897.58 1475.44 899.385 1479.01 Q901.214 1482.55 904.825 1482.55 Q908.459 1482.55 910.265 1479.01 Q912.094 1475.44 912.094 1468.33 Q912.094 1461.2 910.265 1457.66 Q908.459 1454.1 904.825 1454.1 M904.825 1450.39 Q910.635 1450.39 913.691 1455 Q916.77 1459.58 916.77 1468.33 Q916.77 1477.06 913.691 1481.67 Q910.635 1486.25 904.825 1486.25 Q899.015 1486.25 895.936 1481.67 Q892.881 1477.06 892.881 1468.33 Q892.881 1459.58 895.936 1455 Q899.015 1450.39 904.825 1450.39 Z" fill="#000000" fill-rule="nonzero" fill-opacity="1" /><path clip-path="url(#clip630)" d="M1203.76 1481.64 L1211.4 1481.64 L1211.4 1455.28 L1203.09 1456.95 L1203.09 1452.69 L1211.35 1451.02 L1216.03 1451.02 L1216.03 1481.64 L1223.66 1481.64 L1223.66 1485.58 L1203.76 1485.58 L1203.76 1481.64 Z" fill="#000000" fill-rule="nonzero" fill-opacity="1" /><path clip-path="url(#clip630)" d="M1233.11 1479.7 L1237.99 1479.7 L1237.99 1485.58 L1233.11 1485.58 L1233.11 1479.7 Z" fill="#000000" fill-rule="nonzero" fill-opacity="1" /><path clip-path="url(#clip630)" d="M1248.22 1451.02 L1266.58 1451.02 L1266.58 1454.96 L1252.51 1454.96 L1252.51 1463.43 Q1253.53 1463.08 1254.54 1462.92 Q1255.56 1462.73 1256.58 1462.73 Q1262.37 1462.73 1265.75 1465.9 Q1269.13 1469.08 1269.13 1474.49 Q1269.13 1480.07 1265.65 1483.17 Q1262.18 1486.25 1255.86 1486.25 Q1253.69 1486.25 1251.42 1485.88 Q1249.17 1485.51 1246.77 1484.77 L1246.77 1480.07 Q1248.85 1481.2 1251.07 1481.76 Q1253.29 1482.32 1255.77 1482.32 Q1259.78 1482.32 1262.11 1480.21 Q1264.45 1478.1 1264.45 1474.49 Q1264.45 1470.88 1262.11 1468.77 Q1259.78 1466.67 1255.77 1466.67 Q1253.9 1466.67 1252.02 1467.08 Q1250.17 1467.5 1248.22 1468.38 L1248.22 1451.02 Z" fill="#000000" fill-rule="nonzero" fill-opacity="1" /><path clip-path="url(#clip630)" d="M1560.2 1481.64 L1576.52 1481.64 L1576.52 1485.58 L1554.58 1485.58 L1554.58 1481.64 Q1557.24 1478.89 1561.82 1474.26 Q1566.43 1469.61 1567.61 1468.27 Q1569.85 1465.74 1570.73 1464.01 Q1571.64 1462.25 1571.64 1460.56 Q1571.64 1457.8 1569.69 1456.07 Q1567.77 1454.33 1564.67 1454.33 Q1562.47 1454.33 1560.01 1455.09 Q1557.58 1455.86 1554.81 1457.41 L1554.81 1452.69 Q1557.63 1451.55 1560.08 1450.97 Q1562.54 1450.39 1564.57 1450.39 Q1569.95 1450.39 1573.14 1453.08 Q1576.33 1455.77 1576.33 1460.26 Q1576.33 1462.39 1575.52 1464.31 Q1574.74 1466.2 1572.63 1468.8 Q1572.05 1469.47 1568.95 1472.69 Q1565.85 1475.88 1560.2 1481.64 Z" fill="#000000" fill-rule="nonzero" fill-opacity="1" /><path clip-path="url(#clip630)" d="M1586.33 1479.7 L1591.22 1479.7 L1591.22 1485.58 L1586.33 1485.58 L1586.33 1479.7 Z" fill="#000000" fill-rule="nonzero" fill-opacity="1" /><path clip-path="url(#clip630)" d="M1611.4 1454.1 Q1607.79 1454.1 1605.96 1457.66 Q1604.16 1461.2 1604.16 1468.33 Q1604.16 1475.44 1605.96 1479.01 Q1607.79 1482.55 1611.4 1482.55 Q1615.04 1482.55 1616.84 1479.01 Q1618.67 1475.44 1618.67 1468.33 Q1618.67 1461.2 1616.84 1457.66 Q1615.04 1454.1 1611.4 1454.1 M1611.4 1450.39 Q1617.21 1450.39 1620.27 1455 Q1623.35 1459.58 1623.35 1468.33 Q1623.35 1477.06 1620.27 1481.67 Q1617.21 1486.25 1611.4 1486.25 Q1605.59 1486.25 1602.51 1481.67 Q1599.46 1477.06 1599.46 1468.33 Q1599.46 1459.58 1602.51 1455 Q1605.59 1450.39 1611.4 1450.39 Z" fill="#000000" fill-rule="nonzero" fill-opacity="1" /><path clip-path="url(#clip630)" d="M1913.55 1481.64 L1929.87 1481.64 L1929.87 1485.58 L1907.93 1485.58 L1907.93 1481.64 Q1910.59 1478.89 1915.17 1474.26 Q1919.78 1469.61 1920.96 1468.27 Q1923.21 1465.74 1924.09 1464.01 Q1924.99 1462.25 1924.99 1460.56 Q1924.99 1457.8 1923.04 1456.07 Q1921.12 1454.33 1918.02 1454.33 Q1915.82 1454.33 1913.37 1455.09 Q1910.94 1455.86 1908.16 1457.41 L1908.16 1452.69 Q1910.98 1451.55 1913.44 1450.97 Q1915.89 1450.39 1917.93 1450.39 Q1923.3 1450.39 1926.49 1453.08 Q1929.69 1455.77 1929.69 1460.26 Q1929.69 1462.39 1928.88 1464.31 Q1928.09 1466.2 1925.98 1468.8 Q1925.4 1469.47 1922.3 1472.69 Q1919.2 1475.88 1913.55 1481.64 Z" fill="#000000" fill-rule="nonzero" fill-opacity="1" /><path clip-path="url(#clip630)" d="M1939.69 1479.7 L1944.57 1479.7 L1944.57 1485.58 L1939.69 1485.58 L1939.69 1479.7 Z" fill="#000000" fill-rule="nonzero" fill-opacity="1" /><path clip-path="url(#clip630)" d="M1954.8 1451.02 L1973.16 1451.02 L1973.16 1454.96 L1959.08 1454.96 L1959.08 1463.43 Q1960.1 1463.08 1961.12 1462.92 Q1962.14 1462.73 1963.16 1462.73 Q1968.95 1462.73 1972.33 1465.9 Q1975.71 1469.08 1975.71 1474.49 Q1975.71 1480.07 1972.23 1483.17 Q1968.76 1486.25 1962.44 1486.25 Q1960.27 1486.25 1958 1485.88 Q1955.75 1485.51 1953.34 1484.77 L1953.34 1480.07 Q1955.43 1481.2 1957.65 1481.76 Q1959.87 1482.32 1962.35 1482.32 Q1966.35 1482.32 1968.69 1480.21 Q1971.03 1478.1 1971.03 1474.49 Q1971.03 1470.88 1968.69 1468.77 Q1966.35 1466.67 1962.35 1466.67 Q1960.47 1466.67 1958.6 1467.08 Q1956.75 1467.5 1954.8 1468.38 L1954.8 1451.02 Z" fill="#000000" fill-rule="nonzero" fill-opacity="1" /><path clip-path="url(#clip630)" d="M2275.98 1466.95 Q2279.34 1467.66 2281.21 1469.93 Q2283.11 1472.2 2283.11 1475.53 Q2283.11 1480.65 2279.59 1483.45 Q2276.07 1486.25 2269.59 1486.25 Q2267.41 1486.25 2265.1 1485.81 Q2262.81 1485.39 2260.35 1484.54 L2260.35 1480.02 Q2262.3 1481.16 2264.61 1481.74 Q2266.93 1482.32 2269.45 1482.32 Q2273.85 1482.32 2276.14 1480.58 Q2278.46 1478.84 2278.46 1475.53 Q2278.46 1472.48 2276.3 1470.77 Q2274.17 1469.03 2270.35 1469.03 L2266.33 1469.03 L2266.33 1465.19 L2270.54 1465.19 Q2273.99 1465.19 2275.82 1463.82 Q2277.65 1462.43 2277.65 1459.84 Q2277.65 1457.18 2275.75 1455.77 Q2273.87 1454.33 2270.35 1454.33 Q2268.43 1454.33 2266.23 1454.75 Q2264.04 1455.16 2261.4 1456.04 L2261.4 1451.88 Q2264.06 1451.14 2266.37 1450.77 Q2268.71 1450.39 2270.77 1450.39 Q2276.1 1450.39 2279.2 1452.83 Q2282.3 1455.23 2282.3 1459.35 Q2282.3 1462.22 2280.66 1464.21 Q2279.01 1466.18 2275.98 1466.95 Z" fill="#000000" fill-rule="nonzero" fill-opacity="1" /><path clip-path="url(#clip630)" d="M2291.97 1479.7 L2296.86 1479.7 L2296.86 1485.58 L2291.97 1485.58 L2291.97 1479.7 Z" fill="#000000" fill-rule="nonzero" fill-opacity="1" /><path clip-path="url(#clip630)" d="M2317.04 1454.1 Q2313.43 1454.1 2311.6 1457.66 Q2309.8 1461.2 2309.8 1468.33 Q2309.8 1475.44 2311.6 1479.01 Q2313.43 1482.55 2317.04 1482.55 Q2320.68 1482.55 2322.48 1479.01 Q2324.31 1475.44 2324.31 1468.33 Q2324.31 1461.2 2322.48 1457.66 Q2320.68 1454.1 2317.04 1454.1 M2317.04 1450.39 Q2322.85 1450.39 2325.91 1455 Q2328.99 1459.58 2328.99 1468.33 Q2328.99 1477.06 2325.91 1481.67 Q2322.85 1486.25 2317.04 1486.25 Q2311.23 1486.25 2308.16 1481.67 Q2305.1 1477.06 2305.1 1468.33 Q2305.1 1459.58 2308.16 1455 Q2311.23 1450.39 2317.04 1450.39 Z" fill="#000000" fill-rule="nonzero" fill-opacity="1" /><path clip-path="url(#clip630)" d="M1296.19 1545.45 L1275.91 1545.45 Q1276.39 1554.96 1278.59 1559 Q1281.33 1563.97 1286.07 1563.97 Q1290.84 1563.97 1293.48 1558.97 Q1295.81 1554.58 1296.19 1545.45 M1296.09 1540.03 Q1295.2 1531 1293.48 1527.81 Q1290.75 1522.78 1286.07 1522.78 Q1281.2 1522.78 1278.62 1527.75 Q1276.58 1531.76 1275.98 1540.03 L1296.09 1540.03 M1286.07 1518.01 Q1293.71 1518.01 1298.07 1524.76 Q1302.43 1531.47 1302.43 1543.38 Q1302.43 1555.25 1298.07 1562 Q1293.71 1568.78 1286.07 1568.78 Q1278.4 1568.78 1274.07 1562 Q1269.71 1555.25 1269.71 1543.38 Q1269.71 1531.47 1274.07 1524.76 Q1278.4 1518.01 1286.07 1518.01 Z" fill="#000000" fill-rule="nonzero" fill-opacity="1" /><polyline clip-path="url(#clip630)" style="stroke:#000000; stroke-linecap:round; stroke-linejoin:round; stroke-width:4; stroke-opacity:1; fill:none" points="219.38,1423.18 219.38,123.472 "/>
<polyline clip-path="url(#clip630)" style="stroke:#000000; stroke-linecap:round; stroke-linejoin:round; stroke-width:4; stroke-opacity:1; fill:none" points="219.38,1423.18 238.278,1423.18 "/>
<polyline clip-path="url(#clip630)" style="stroke:#000000; stroke-linecap:round; stroke-linejoin:round; stroke-width:4; stroke-opacity:1; fill:none" points="219.38,1051.83 238.278,1051.83 "/>
<polyline clip-path="url(#clip630)" style="stroke:#000000; stroke-linecap:round; stroke-linejoin:round; stroke-width:4; stroke-opacity:1; fill:none" points="219.38,680.49 238.278,680.49 "/>
<polyline clip-path="url(#clip630)" style="stroke:#000000; stroke-linecap:round; stroke-linejoin:round; stroke-width:4; stroke-opacity:1; fill:none" points="219.38,309.145 238.278,309.145 "/>
<path clip-path="url(#clip630)" d="M126.205 1408.98 Q122.593 1408.98 120.765 1412.54 Q118.959 1416.08 118.959 1423.21 Q118.959 1430.32 120.765 1433.89 Q122.593 1437.43 126.205 1437.43 Q129.839 1437.43 131.644 1433.89 Q133.473 1430.32 133.473 1423.21 Q133.473 1416.08 131.644 1412.54 Q129.839 1408.98 126.205 1408.98 M126.205 1405.27 Q132.015 1405.27 135.07 1409.88 Q138.149 1414.46 138.149 1423.21 Q138.149 1431.94 135.07 1436.55 Q132.015 1441.13 126.205 1441.13 Q120.394 1441.13 117.316 1436.55 Q114.26 1431.94 114.26 1423.21 Q114.26 1414.46 117.316 1409.88 Q120.394 1405.27 126.205 1405.27 Z" fill="#000000" fill-rule="nonzero" fill-opacity="1" /><path clip-path="url(#clip630)" d="M146.366 1434.58 L151.251 1434.58 L151.251 1440.46 L146.366 1440.46 L146.366 1434.58 Z" fill="#000000" fill-rule="nonzero" fill-opacity="1" /><path clip-path="url(#clip630)" d="M171.436 1408.98 Q167.825 1408.98 165.996 1412.54 Q164.19 1416.08 164.19 1423.21 Q164.19 1430.32 165.996 1433.89 Q167.825 1437.43 171.436 1437.43 Q175.07 1437.43 176.876 1433.89 Q178.704 1430.32 178.704 1423.21 Q178.704 1416.08 176.876 1412.54 Q175.07 1408.98 171.436 1408.98 M171.436 1405.27 Q177.246 1405.27 180.301 1409.88 Q183.38 1414.46 183.38 1423.21 Q183.38 1431.94 180.301 1436.55 Q177.246 1441.13 171.436 1441.13 Q165.626 1441.13 162.547 1436.55 Q159.491 1431.94 159.491 1423.21 Q159.491 1414.46 162.547 1409.88 Q165.626 1405.27 171.436 1405.27 Z" fill="#000000" fill-rule="nonzero" fill-opacity="1" /><path clip-path="url(#clip630)" d="M127.431 1037.63 Q123.82 1037.63 121.992 1041.2 Q120.186 1044.74 120.186 1051.87 Q120.186 1058.98 121.992 1062.54 Q123.82 1066.08 127.431 1066.08 Q131.066 1066.08 132.871 1062.54 Q134.7 1058.98 134.7 1051.87 Q134.7 1044.74 132.871 1041.2 Q131.066 1037.63 127.431 1037.63 M127.431 1033.93 Q133.242 1033.93 136.297 1038.54 Q139.376 1043.12 139.376 1051.87 Q139.376 1060.6 136.297 1065.2 Q133.242 1069.79 127.431 1069.79 Q121.621 1069.79 118.543 1065.2 Q115.487 1060.6 115.487 1051.87 Q115.487 1043.12 118.543 1038.54 Q121.621 1033.93 127.431 1033.93 Z" fill="#000000" fill-rule="nonzero" fill-opacity="1" /><path clip-path="url(#clip630)" d="M147.593 1063.24 L152.478 1063.24 L152.478 1069.11 L147.593 1069.11 L147.593 1063.24 Z" fill="#000000" fill-rule="nonzero" fill-opacity="1" /><path clip-path="url(#clip630)" d="M163.473 1065.18 L171.112 1065.18 L171.112 1038.81 L162.802 1040.48 L162.802 1036.22 L171.065 1034.55 L175.741 1034.55 L175.741 1065.18 L183.38 1065.18 L183.38 1069.11 L163.473 1069.11 L163.473 1065.18 Z" fill="#000000" fill-rule="nonzero" fill-opacity="1" /><path clip-path="url(#clip630)" d="M127.802 666.288 Q124.191 666.288 122.362 669.853 Q120.556 673.395 120.556 680.524 Q120.556 687.631 122.362 691.196 Q124.191 694.737 127.802 694.737 Q131.436 694.737 133.242 691.196 Q135.07 687.631 135.07 680.524 Q135.07 673.395 133.242 669.853 Q131.436 666.288 127.802 666.288 M127.802 662.585 Q133.612 662.585 136.667 667.191 Q139.746 671.774 139.746 680.524 Q139.746 689.251 136.667 693.858 Q133.612 698.441 127.802 698.441 Q121.992 698.441 118.913 693.858 Q115.857 689.251 115.857 680.524 Q115.857 671.774 118.913 667.191 Q121.992 662.585 127.802 662.585 Z" fill="#000000" fill-rule="nonzero" fill-opacity="1" /><path clip-path="url(#clip630)" d="M147.964 691.89 L152.848 691.89 L152.848 697.77 L147.964 697.77 L147.964 691.89 Z" fill="#000000" fill-rule="nonzero" fill-opacity="1" /><path clip-path="url(#clip630)" d="M167.061 693.835 L183.38 693.835 L183.38 697.77 L161.436 697.77 L161.436 693.835 Q164.098 691.08 168.681 686.45 Q173.288 681.798 174.468 680.455 Q176.714 677.932 177.593 676.196 Q178.496 674.437 178.496 672.747 Q178.496 669.992 176.551 668.256 Q174.63 666.52 171.528 666.52 Q169.329 666.52 166.876 667.284 Q164.445 668.048 161.667 669.599 L161.667 664.876 Q164.491 663.742 166.945 663.163 Q169.399 662.585 171.436 662.585 Q176.806 662.585 180.001 665.27 Q183.195 667.955 183.195 672.446 Q183.195 674.575 182.385 676.497 Q181.598 678.395 179.491 680.987 Q178.913 681.659 175.811 684.876 Q172.709 688.071 167.061 693.835 Z" fill="#000000" fill-rule="nonzero" fill-opacity="1" /><path clip-path="url(#clip630)" d="M126.853 294.943 Q123.242 294.943 121.413 298.508 Q119.607 302.05 119.607 309.179 Q119.607 316.286 121.413 319.851 Q123.242 323.392 126.853 323.392 Q130.487 323.392 132.292 319.851 Q134.121 316.286 134.121 309.179 Q134.121 302.05 132.292 298.508 Q130.487 294.943 126.853 294.943 M126.853 291.24 Q132.663 291.24 135.718 295.846 Q138.797 300.429 138.797 309.179 Q138.797 317.906 135.718 322.513 Q132.663 327.096 126.853 327.096 Q121.043 327.096 117.964 322.513 Q114.908 317.906 114.908 309.179 Q114.908 300.429 117.964 295.846 Q121.043 291.24 126.853 291.24 Z" fill="#000000" fill-rule="nonzero" fill-opacity="1" /><path clip-path="url(#clip630)" d="M147.015 320.545 L151.899 320.545 L151.899 326.425 L147.015 326.425 L147.015 320.545 Z" fill="#000000" fill-rule="nonzero" fill-opacity="1" /><path clip-path="url(#clip630)" d="M176.251 307.79 Q179.607 308.508 181.482 310.777 Q183.38 313.045 183.38 316.378 Q183.38 321.494 179.862 324.295 Q176.343 327.096 169.862 327.096 Q167.686 327.096 165.371 326.656 Q163.079 326.239 160.626 325.383 L160.626 320.869 Q162.57 322.003 164.885 322.582 Q167.2 323.161 169.723 323.161 Q174.121 323.161 176.413 321.425 Q178.727 319.689 178.727 316.378 Q178.727 313.323 176.575 311.61 Q174.445 309.874 170.626 309.874 L166.598 309.874 L166.598 306.031 L170.811 306.031 Q174.26 306.031 176.089 304.666 Q177.917 303.277 177.917 300.684 Q177.917 298.022 176.019 296.61 Q174.144 295.175 170.626 295.175 Q168.704 295.175 166.505 295.591 Q164.306 296.008 161.667 296.888 L161.667 292.721 Q164.329 291.98 166.644 291.61 Q168.982 291.24 171.042 291.24 Q176.366 291.24 179.468 293.67 Q182.57 296.078 182.57 300.198 Q182.57 303.068 180.926 305.059 Q179.283 307.027 176.251 307.79 Z" fill="#000000" fill-rule="nonzero" fill-opacity="1" /><path clip-path="url(#clip630)" d="M14.479 1027.09 L14.479 1021.24 L64.0042 1021.24 L64.0042 1027.09 L14.479 1027.09 Z" fill="#000000" fill-rule="nonzero" fill-opacity="1" /><path clip-path="url(#clip630)" d="M32.4621 995.171 Q32.4621 999.881 36.1542 1002.62 Q39.8145 1005.36 46.212 1005.36 Q52.6095 1005.36 56.3017 1002.65 Q59.9619 999.913 59.9619 995.171 Q59.9619 990.492 56.2698 987.755 Q52.5777 985.018 46.212 985.018 Q39.8781 985.018 36.186 987.755 Q32.4621 990.492 32.4621 995.171 M27.4968 995.171 Q27.4968 987.532 32.4621 983.172 Q37.4273 978.811 46.212 978.811 Q54.9649 978.811 59.9619 983.172 Q64.9272 987.532 64.9272 995.171 Q64.9272 1002.84 59.9619 1007.2 Q54.9649 1011.53 46.212 1011.53 Q37.4273 1011.53 32.4621 1007.2 Q27.4968 1002.84 27.4968 995.171 Z" fill="#000000" fill-rule="nonzero" fill-opacity="1" /><path clip-path="url(#clip630)" d="M29.7248 943.449 L35.1993 943.449 Q33.8307 945.932 33.1623 948.447 Q32.4621 950.929 32.4621 953.475 Q32.4621 959.173 36.0905 962.324 Q39.6872 965.475 46.212 965.475 Q52.7369 965.475 56.3653 962.324 Q59.9619 959.173 59.9619 953.475 Q59.9619 950.929 59.2935 948.447 Q58.5933 945.932 57.2247 943.449 L62.6355 943.449 Q63.7814 945.9 64.3543 948.542 Q64.9272 951.152 64.9272 954.112 Q64.9272 962.165 59.8664 966.907 Q54.8057 971.65 46.212 971.65 Q37.491 971.65 32.4939 966.875 Q27.4968 962.069 27.4968 953.73 Q27.4968 951.025 28.0697 948.447 Q28.6108 945.868 29.7248 943.449 Z" fill="#000000" fill-rule="nonzero" fill-opacity="1" /><path clip-path="url(#clip630)" d="M46.0847 917.064 Q46.0847 924.161 47.7079 926.899 Q49.3312 929.636 53.2461 929.636 Q56.3653 929.636 58.2114 927.599 Q60.0256 925.53 60.0256 921.997 Q60.0256 917.127 56.5881 914.199 Q53.1188 911.239 47.3897 911.239 L46.0847 911.239 L46.0847 917.064 M43.6657 905.383 L64.0042 905.383 L64.0042 911.239 L58.5933 911.239 Q61.8398 913.244 63.3994 916.236 Q64.9272 919.228 64.9272 923.557 Q64.9272 929.031 61.8716 932.278 Q58.7843 935.492 53.6281 935.492 Q47.6125 935.492 44.5569 931.482 Q41.5014 927.44 41.5014 919.451 L41.5014 911.239 L40.9285 911.239 Q36.8862 911.239 34.6901 913.913 Q32.4621 916.554 32.4621 921.36 Q32.4621 924.416 33.1941 927.312 Q33.9262 930.209 35.3903 932.882 L29.9795 932.882 Q28.7381 929.668 28.1334 926.644 Q27.4968 923.62 27.4968 920.756 Q27.4968 913.021 31.5072 909.202 Q35.5176 905.383 43.6657 905.383 Z" fill="#000000" fill-rule="nonzero" fill-opacity="1" /><path clip-path="url(#clip630)" d="M14.479 893.32 L14.479 887.463 L64.0042 887.463 L64.0042 893.32 L14.479 893.32 Z" fill="#000000" fill-rule="nonzero" fill-opacity="1" /><path clip-path="url(#clip630)" d="M14.479 836.442 L19.3487 836.442 L19.3487 842.044 Q19.3487 845.195 20.6219 846.436 Q21.895 847.646 25.2052 847.646 L28.3562 847.646 L28.3562 838.002 L32.9077 838.002 L32.9077 847.646 L64.0042 847.646 L64.0042 853.534 L32.9077 853.534 L32.9077 859.136 L28.3562 859.136 L28.3562 853.534 L25.8736 853.534 Q19.9216 853.534 17.2162 850.765 Q14.479 847.996 14.479 841.98 L14.479 836.442 Z" fill="#000000" fill-rule="nonzero" fill-opacity="1" /><path clip-path="url(#clip630)" d="M28.3562 831.54 L28.3562 825.684 L64.0042 825.684 L64.0042 831.54 L28.3562 831.54 M14.479 831.54 L14.479 825.684 L21.895 825.684 L21.895 831.54 L14.479 831.54 Z" fill="#000000" fill-rule="nonzero" fill-opacity="1" /><path clip-path="url(#clip630)" d="M14.479 813.43 L14.479 807.573 L64.0042 807.573 L64.0042 813.43 L14.479 813.43 Z" fill="#000000" fill-rule="nonzero" fill-opacity="1" /><path clip-path="url(#clip630)" d="M14.479 795.32 L14.479 789.463 L64.0042 789.463 L64.0042 795.32 L14.479 795.32 Z" fill="#000000" fill-rule="nonzero" fill-opacity="1" /><path clip-path="url(#clip630)" d="M28.3562 777.209 L28.3562 771.353 L64.0042 771.353 L64.0042 777.209 L28.3562 777.209 M14.479 777.209 L14.479 771.353 L21.895 771.353 L21.895 777.209 L14.479 777.209 Z" fill="#000000" fill-rule="nonzero" fill-opacity="1" /><path clip-path="url(#clip630)" d="M42.4881 729.466 L64.0042 729.466 L64.0042 735.323 L42.679 735.323 Q37.6183 735.323 35.1038 737.296 Q32.5894 739.269 32.5894 743.216 Q32.5894 747.959 35.6131 750.696 Q38.6368 753.433 43.8567 753.433 L64.0042 753.433 L64.0042 759.321 L28.3562 759.321 L28.3562 753.433 L33.8944 753.433 Q30.6797 751.332 29.0883 748.5 Q27.4968 745.635 27.4968 741.911 Q27.4968 735.768 31.3163 732.617 Q35.1038 729.466 42.4881 729.466 Z" fill="#000000" fill-rule="nonzero" fill-opacity="1" /><path clip-path="url(#clip630)" d="M45.7664 694.328 Q39.4007 694.328 35.8996 696.969 Q32.3984 699.579 32.3984 704.322 Q32.3984 709.032 35.8996 711.674 Q39.4007 714.284 45.7664 714.284 Q52.1003 714.284 55.6014 711.674 Q59.1026 709.032 59.1026 704.322 Q59.1026 699.579 55.6014 696.969 Q52.1003 694.328 45.7664 694.328 M59.58 688.471 Q68.683 688.471 73.1071 692.513 Q77.5631 696.556 77.5631 704.895 Q77.5631 707.982 77.0857 710.719 Q76.6401 713.457 75.6852 716.035 L69.9879 716.035 Q71.3884 713.457 72.0568 710.942 Q72.7252 708.428 72.7252 705.818 Q72.7252 700.057 69.7015 697.192 Q66.7096 694.328 60.6303 694.328 L57.7339 694.328 Q60.885 696.142 62.4446 698.975 Q64.0042 701.807 64.0042 705.754 Q64.0042 712.311 59.0071 716.321 Q54.01 720.331 45.7664 720.331 Q37.491 720.331 32.4939 716.321 Q27.4968 712.311 27.4968 705.754 Q27.4968 701.807 29.0564 698.975 Q30.616 696.142 33.7671 694.328 L28.3562 694.328 L28.3562 688.471 L59.58 688.471 Z" fill="#000000" fill-rule="nonzero" fill-opacity="1" /><path clip-path="url(#clip630)" d="M64.0042 627.87 L28.3562 638.755 L28.3562 632.453 L58.275 623.254 Q54.3283 619.435 48.8538 616.252 Q44.7479 613.833 41.1831 613.706 Q39.4962 613.642 36.3133 614.406 Q32.5257 615.297 28.3562 618.671 L28.3562 612.751 L28.3562 612.751 Q31.1889 610.555 35.1357 609.091 Q38.7641 607.754 41.2468 607.754 Q47.4851 607.754 53.0551 612.083 Q60.312 617.716 64.0042 621.631 L64.0042 627.87 Z" fill="#000000" fill-rule="nonzero" fill-opacity="1" /><path clip-path="url(#clip630)" d="M14.5426 584.487 Q21.8632 588.752 29.0246 590.821 Q36.186 592.89 43.5384 592.89 Q50.8908 592.89 58.1159 590.821 Q65.3091 588.72 72.5979 584.487 L72.5979 589.58 Q65.1182 594.354 57.8931 596.741 Q50.668 599.097 43.5384 599.097 Q36.4406 599.097 29.2474 596.741 Q22.0542 594.386 14.5426 589.58 L14.5426 584.487 Z" fill="#000000" fill-rule="nonzero" fill-opacity="1" /><path clip-path="url(#clip630)" d="M41.4059 549.189 L41.4059 569.464 Q50.9226 568.987 54.9649 566.791 Q59.9301 564.053 59.9301 559.311 Q59.9301 554.537 54.933 551.895 Q50.5407 549.571 41.4059 549.189 M35.995 549.285 Q26.9557 550.176 23.7729 551.895 Q18.744 554.632 18.744 559.311 Q18.744 564.181 23.7092 566.759 Q27.7196 568.796 35.995 569.401 L35.995 549.285 M13.9697 559.311 Q13.9697 551.672 20.7174 547.312 Q27.4332 542.951 39.337 542.951 Q51.2091 542.951 57.9567 547.312 Q64.7362 551.672 64.7362 559.311 Q64.7362 566.982 57.9567 571.31 Q51.2091 575.671 39.337 575.671 Q27.4332 575.671 20.7174 571.31 Q13.9697 566.982 13.9697 559.311 Z" fill="#000000" fill-rule="nonzero" fill-opacity="1" /><path clip-path="url(#clip630)" d="M14.5426 534.166 L14.5426 529.074 Q22.0542 524.3 29.2474 521.944 Q36.4406 519.557 43.5384 519.557 Q50.668 519.557 57.8931 521.944 Q65.1182 524.3 72.5979 529.074 L72.5979 534.166 Q65.3091 529.933 58.1159 527.864 Q50.8908 525.764 43.5384 525.764 Q36.186 525.764 29.0246 527.864 Q21.8632 529.933 14.5426 534.166 Z" fill="#000000" fill-rule="nonzero" fill-opacity="1" /><path clip-path="url(#clip630)" d="M711.609 72.576 L697.755 27.2059 L705.776 27.2059 L717.483 65.2844 Q722.344 60.2613 726.395 53.2937 Q729.474 48.068 729.636 43.531 Q729.717 41.384 728.745 37.3331 Q727.61 32.5126 723.316 27.2059 L730.851 27.2059 L730.851 27.2059 Q733.646 30.8112 735.51 35.8343 Q737.211 40.4523 737.211 43.612 Q737.211 51.5518 731.702 58.6409 Q724.532 67.877 719.549 72.576 L711.609 72.576 Z" fill="#000000" fill-rule="nonzero" fill-opacity="1" /><path clip-path="url(#clip630)" d="M776.262 34.9026 L828.194 34.9026 L828.194 41.7081 L776.262 41.7081 L776.262 34.9026 M776.262 51.4303 L828.194 51.4303 L828.194 58.3168 L776.262 58.3168 L776.262 51.4303 Z" fill="#000000" fill-rule="nonzero" fill-opacity="1" /><path clip-path="url(#clip630)" d="M879.276 65.6895 L907.835 65.6895 L907.835 72.576 L869.433 72.576 L869.433 65.6895 Q874.091 60.8689 882.112 52.7671 Q890.173 44.6248 892.239 42.2752 Q896.169 37.8598 897.708 34.8216 Q899.288 31.7429 899.288 28.7857 Q899.288 23.9651 895.885 20.927 Q892.523 17.8888 887.094 17.8888 Q883.246 17.8888 878.952 19.2256 Q874.699 20.5624 869.838 23.2765 L869.838 15.0127 Q874.78 13.0277 879.074 12.015 Q883.368 11.0023 886.932 11.0023 Q896.331 11.0023 901.921 15.7013 Q907.511 20.4004 907.511 28.2591 Q907.511 31.9859 906.093 35.3482 Q904.716 38.6699 901.03 43.2069 Q900.017 44.3817 894.589 50.0125 Q889.16 55.6027 879.276 65.6895 Z" fill="#000000" fill-rule="nonzero" fill-opacity="1" /><path clip-path="url(#clip630)" d="M937.204 12.096 L944.091 12.096 L923.026 80.2727 L916.139 80.2727 L937.204 12.096 Z" fill="#000000" fill-rule="nonzero" fill-opacity="1" /><path clip-path="url(#clip630)" d="M953.205 71.3202 L953.205 63.8666 Q956.284 65.3249 959.444 66.0946 Q962.603 66.8642 965.642 66.8642 Q973.743 66.8642 977.997 61.436 Q982.291 55.9673 982.898 44.8678 Q980.549 48.3516 976.944 50.215 Q973.338 52.0784 968.963 52.0784 Q959.889 52.0784 954.583 46.6097 Q949.316 41.1005 949.316 31.5808 Q949.316 22.2638 954.826 16.633 Q960.335 11.0023 969.49 11.0023 Q979.982 11.0023 985.491 19.0636 Q991.041 27.0843 991.041 42.3968 Q991.041 56.6965 984.235 65.2439 Q977.47 73.7508 966.006 73.7508 Q962.927 73.7508 959.768 73.1431 Q956.608 72.5355 953.205 71.3202 M969.49 45.678 Q974.999 45.678 978.199 41.9107 Q981.44 38.1433 981.44 31.5808 Q981.44 25.0589 978.199 21.2916 Q974.999 17.4837 969.49 17.4837 Q963.981 17.4837 960.74 21.2916 Q957.54 25.0589 957.54 31.5808 Q957.54 38.1433 960.74 41.9107 Q963.981 45.678 969.49 45.678 Z" fill="#000000" fill-rule="nonzero" fill-opacity="1" /><path clip-path="url(#clip630)" d="M1060.92 49.3643 Q1060.92 41.2625 1057.56 36.8065 Q1054.23 32.3505 1048.2 32.3505 Q1042.2 32.3505 1038.84 36.8065 Q1035.52 41.2625 1035.52 49.3643 Q1035.52 57.4256 1038.84 61.8816 Q1042.2 66.3376 1048.2 66.3376 Q1054.23 66.3376 1057.56 61.8816 Q1060.92 57.4256 1060.92 49.3643 M1068.37 66.9452 Q1068.37 78.5308 1063.23 84.1616 Q1058.08 89.8329 1047.47 89.8329 Q1043.54 89.8329 1040.06 89.2252 Q1036.57 88.6581 1033.29 87.4428 L1033.29 80.1917 Q1036.57 81.9741 1039.77 82.8248 Q1042.97 83.6755 1046.3 83.6755 Q1053.63 83.6755 1057.27 79.8271 Q1060.92 76.0193 1060.92 68.282 L1060.92 64.5957 Q1058.61 68.6061 1055 70.5911 Q1051.4 72.576 1046.38 72.576 Q1038.03 72.576 1032.93 66.2161 Q1027.82 59.8562 1027.82 49.3643 Q1027.82 38.832 1032.93 32.472 Q1038.03 26.1121 1046.38 26.1121 Q1051.4 26.1121 1055 28.0971 Q1058.61 30.082 1060.92 34.0924 L1060.92 27.2059 L1068.37 27.2059 L1068.37 66.9452 Z" fill="#000000" fill-rule="nonzero" fill-opacity="1" /><path clip-path="url(#clip630)" d="M1110.02 34.1734 Q1108.76 33.4443 1107.26 33.1202 Q1105.8 32.7556 1104.02 32.7556 Q1097.7 32.7556 1094.3 36.8875 Q1090.94 40.9789 1090.94 48.6757 L1090.94 72.576 L1083.44 72.576 L1083.44 27.2059 L1090.94 27.2059 L1090.94 34.2544 Q1093.29 30.1225 1097.05 28.1376 Q1100.82 26.1121 1106.21 26.1121 Q1106.98 26.1121 1107.91 26.2337 Q1108.84 26.3147 1109.98 26.5172 L1110.02 34.1734 Z" fill="#000000" fill-rule="nonzero" fill-opacity="1" /><path clip-path="url(#clip630)" d="M1133.59 32.4315 Q1127.6 32.4315 1124.11 37.1306 Q1120.63 41.7891 1120.63 49.9314 Q1120.63 58.0738 1124.07 62.7728 Q1127.56 67.4314 1133.59 67.4314 Q1139.55 67.4314 1143.03 62.7323 Q1146.51 58.0333 1146.51 49.9314 Q1146.51 41.8701 1143.03 37.1711 Q1139.55 32.4315 1133.59 32.4315 M1133.59 26.1121 Q1143.31 26.1121 1148.86 32.4315 Q1154.41 38.7509 1154.41 49.9314 Q1154.41 61.0714 1148.86 67.4314 Q1143.31 73.7508 1133.59 73.7508 Q1123.83 73.7508 1118.28 67.4314 Q1112.77 61.0714 1112.77 49.9314 Q1112.77 38.7509 1118.28 32.4315 Q1123.83 26.1121 1133.59 26.1121 Z" fill="#000000" fill-rule="nonzero" fill-opacity="1" /><path clip-path="url(#clip630)" d="M1166 54.671 L1166 27.2059 L1173.45 27.2059 L1173.45 54.3874 Q1173.45 60.8284 1175.96 64.0691 Q1178.48 67.2693 1183.5 67.2693 Q1189.53 67.2693 1193.02 63.421 Q1196.54 59.5726 1196.54 52.9291 L1196.54 27.2059 L1204 27.2059 L1204 72.576 L1196.54 72.576 L1196.54 65.6084 Q1193.83 69.7404 1190.22 71.7658 Q1186.66 73.7508 1181.92 73.7508 Q1174.1 73.7508 1170.05 68.8897 Q1166 64.0286 1166 54.671 M1184.75 26.1121 L1184.75 26.1121 Z" fill="#000000" fill-rule="nonzero" fill-opacity="1" /><path clip-path="url(#clip630)" d="M1257.06 45.1919 L1257.06 72.576 L1249.61 72.576 L1249.61 45.4349 Q1249.61 38.994 1247.1 35.7938 Q1244.59 32.5936 1239.56 32.5936 Q1233.53 32.5936 1230.04 36.4419 Q1226.56 40.2903 1226.56 46.9338 L1226.56 72.576 L1219.07 72.576 L1219.07 27.2059 L1226.56 27.2059 L1226.56 34.2544 Q1229.23 30.163 1232.84 28.1376 Q1236.48 26.1121 1241.22 26.1121 Q1249.04 26.1121 1253.05 30.9732 Q1257.06 35.7938 1257.06 45.1919 Z" fill="#000000" fill-rule="nonzero" fill-opacity="1" /><path clip-path="url(#clip630)" d="M1301.79 34.0924 L1301.79 9.54393 L1309.24 9.54393 L1309.24 72.576 L1301.79 72.576 L1301.79 65.7705 Q1299.44 69.8214 1295.83 71.8063 Q1292.27 73.7508 1287.24 73.7508 Q1279.02 73.7508 1273.83 67.1883 Q1268.69 60.6258 1268.69 49.9314 Q1268.69 39.2371 1273.83 32.6746 Q1279.02 26.1121 1287.24 26.1121 Q1292.27 26.1121 1295.83 28.0971 Q1299.44 30.0415 1301.79 34.0924 M1276.39 49.9314 Q1276.39 58.1548 1279.75 62.8538 Q1283.15 67.5124 1289.07 67.5124 Q1294.98 67.5124 1298.38 62.8538 Q1301.79 58.1548 1301.79 49.9314 Q1301.79 41.7081 1298.38 37.0496 Q1294.98 32.3505 1289.07 32.3505 Q1283.15 32.3505 1279.75 37.0496 Q1276.39 41.7081 1276.39 49.9314 Z" fill="#000000" fill-rule="nonzero" fill-opacity="1" /><path clip-path="url(#clip630)" d="M1379.89 28.5427 L1379.89 35.5912 Q1376.73 33.9709 1373.32 33.1607 Q1369.92 32.3505 1366.28 32.3505 Q1360.73 32.3505 1357.93 34.0519 Q1355.18 35.7533 1355.18 39.156 Q1355.18 41.7486 1357.16 43.2475 Q1359.15 44.7058 1365.14 46.0426 L1367.69 46.6097 Q1375.63 48.3111 1378.96 51.4303 Q1382.32 54.509 1382.32 60.0587 Q1382.32 66.3781 1377.29 70.0644 Q1372.31 73.7508 1363.56 73.7508 Q1359.92 73.7508 1355.95 73.0216 Q1352.02 72.3329 1347.64 70.9151 L1347.64 63.2184 Q1351.77 65.3654 1355.78 66.4591 Q1359.79 67.5124 1363.72 67.5124 Q1368.99 67.5124 1371.83 65.73 Q1374.66 63.9071 1374.66 60.6258 Q1374.66 57.5877 1372.6 55.9673 Q1370.57 54.3469 1363.64 52.8481 L1361.05 52.2405 Q1354.12 50.7821 1351.04 47.7845 Q1347.97 44.7463 1347.97 39.4801 Q1347.97 33.0797 1352.5 29.5959 Q1357.04 26.1121 1365.38 26.1121 Q1369.52 26.1121 1373.16 26.7198 Q1376.81 27.3274 1379.89 28.5427 Z" fill="#000000" fill-rule="nonzero" fill-opacity="1" /><path clip-path="url(#clip630)" d="M1401.56 14.324 L1401.56 27.2059 L1416.91 27.2059 L1416.91 32.9987 L1401.56 32.9987 L1401.56 57.6282 Q1401.56 63.1779 1403.06 64.7578 Q1404.6 66.3376 1409.26 66.3376 L1416.91 66.3376 L1416.91 72.576 L1409.26 72.576 Q1400.63 72.576 1397.35 69.3758 Q1394.07 66.1351 1394.07 57.6282 L1394.07 32.9987 L1388.6 32.9987 L1388.6 27.2059 L1394.07 27.2059 L1394.07 14.324 L1401.56 14.324 Z" fill="#000000" fill-rule="nonzero" fill-opacity="1" /><path clip-path="url(#clip630)" d="M1447.33 49.7694 Q1438.3 49.7694 1434.82 51.8354 Q1431.33 53.9013 1431.33 58.8839 Q1431.33 62.8538 1433.93 65.2034 Q1436.56 67.5124 1441.06 67.5124 Q1447.25 67.5124 1450.98 63.1374 Q1454.75 58.7219 1454.75 51.4303 L1454.75 49.7694 L1447.33 49.7694 M1462.2 46.6907 L1462.2 72.576 L1454.75 72.576 L1454.75 65.6895 Q1452.2 69.8214 1448.39 71.8063 Q1444.58 73.7508 1439.07 73.7508 Q1432.1 73.7508 1427.97 69.8619 Q1423.88 65.9325 1423.88 59.3701 Q1423.88 51.7138 1428.98 47.825 Q1434.13 43.9361 1444.3 43.9361 L1454.75 43.9361 L1454.75 43.2069 Q1454.75 38.0623 1451.34 35.2672 Q1447.98 32.4315 1441.87 32.4315 Q1437.98 32.4315 1434.29 33.3632 Q1430.6 34.295 1427.2 36.1584 L1427.2 29.2718 Q1431.29 27.692 1435.14 26.9223 Q1438.99 26.1121 1442.64 26.1121 Q1452.48 26.1121 1457.34 31.2163 Q1462.2 36.3204 1462.2 46.6907 Z" fill="#000000" fill-rule="nonzero" fill-opacity="1" /><path clip-path="url(#clip630)" d="M1484.93 14.324 L1484.93 27.2059 L1500.28 27.2059 L1500.28 32.9987 L1484.93 32.9987 L1484.93 57.6282 Q1484.93 63.1779 1486.43 64.7578 Q1487.97 66.3376 1492.62 66.3376 L1500.28 66.3376 L1500.28 72.576 L1492.62 72.576 Q1484 72.576 1480.71 69.3758 Q1477.43 66.1351 1477.43 57.6282 L1477.43 32.9987 L1471.96 32.9987 L1471.96 27.2059 L1477.43 27.2059 L1477.43 14.324 L1484.93 14.324 Z" fill="#000000" fill-rule="nonzero" fill-opacity="1" /><path clip-path="url(#clip630)" d="M1548.89 48.0275 L1548.89 51.6733 L1514.62 51.6733 Q1515.11 59.3701 1519.24 63.421 Q1523.41 67.4314 1530.82 67.4314 Q1535.12 67.4314 1539.13 66.3781 Q1543.18 65.3249 1547.15 63.2184 L1547.15 70.267 Q1543.14 71.9684 1538.93 72.8596 Q1534.71 73.7508 1530.38 73.7508 Q1519.52 73.7508 1513.16 67.4314 Q1506.84 61.1119 1506.84 50.3365 Q1506.84 39.1965 1512.84 32.6746 Q1518.87 26.1121 1529.08 26.1121 Q1538.24 26.1121 1543.54 32.0264 Q1548.89 37.9003 1548.89 48.0275 M1541.44 45.84 Q1541.36 39.7232 1537.99 36.0774 Q1534.67 32.4315 1529.16 32.4315 Q1522.92 32.4315 1519.16 35.9558 Q1515.43 39.4801 1514.86 45.8805 L1541.44 45.84 Z" fill="#000000" fill-rule="nonzero" fill-opacity="1" /><path clip-path="url(#clip630)" d="M1605.4 9.62495 Q1599.97 18.942 1597.34 28.0566 Q1594.71 37.1711 1594.71 46.5287 Q1594.71 55.8863 1597.34 65.0818 Q1600.01 74.2369 1605.4 83.5134 L1598.92 83.5134 Q1592.84 73.9938 1589.8 64.7983 Q1586.81 55.6027 1586.81 46.5287 Q1586.81 37.4952 1589.8 28.3401 Q1592.8 19.1851 1598.92 9.62495 L1605.4 9.62495 Z" fill="#000000" fill-rule="nonzero" fill-opacity="1" /><path clip-path="url(#clip630)" d="M1620.19 12.096 L1631.21 12.096 L1658.02 62.6918 L1658.02 12.096 L1665.96 12.096 L1665.96 72.576 L1654.94 72.576 L1628.13 21.9802 L1628.13 72.576 L1620.19 72.576 L1620.19 12.096 Z" fill="#000000" fill-rule="nonzero" fill-opacity="1" /><path clip-path="url(#clip630)" d="M1709.27 34.9026 L1761.2 34.9026 L1761.2 41.7081 L1709.27 41.7081 L1709.27 34.9026 M1709.27 51.4303 L1761.2 51.4303 L1761.2 58.3168 L1709.27 58.3168 L1709.27 51.4303 Z" fill="#000000" fill-rule="nonzero" fill-opacity="1" /><path clip-path="url(#clip630)" d="M1822.73 43.8551 Q1816.9 43.8551 1813.54 46.9743 Q1810.21 50.0935 1810.21 55.5622 Q1810.21 61.0309 1813.54 64.1501 Q1816.9 67.2693 1822.73 67.2693 Q1828.57 67.2693 1831.93 64.1501 Q1835.29 60.9904 1835.29 55.5622 Q1835.29 50.0935 1831.93 46.9743 Q1828.61 43.8551 1822.73 43.8551 M1814.55 40.3713 Q1809.28 39.075 1806.33 35.4697 Q1803.41 31.8644 1803.41 26.6793 Q1803.41 19.4281 1808.55 15.2152 Q1813.74 11.0023 1822.73 11.0023 Q1831.77 11.0023 1836.91 15.2152 Q1842.05 19.4281 1842.05 26.6793 Q1842.05 31.8644 1839.1 35.4697 Q1836.18 39.075 1830.96 40.3713 Q1836.87 41.7486 1840.15 45.759 Q1843.47 49.7694 1843.47 55.5622 Q1843.47 64.3527 1838.08 69.0517 Q1832.74 73.7508 1822.73 73.7508 Q1812.73 73.7508 1807.34 69.0517 Q1801.99 64.3527 1801.99 55.5622 Q1801.99 49.7694 1805.31 45.759 Q1808.63 41.7486 1814.55 40.3713 M1811.55 27.4489 Q1811.55 32.148 1814.47 34.7811 Q1817.43 37.4142 1822.73 37.4142 Q1828 37.4142 1830.96 34.7811 Q1833.95 32.148 1833.95 27.4489 Q1833.95 22.7499 1830.96 20.1168 Q1828 17.4837 1822.73 17.4837 Q1817.43 17.4837 1814.47 20.1168 Q1811.55 22.7499 1811.55 27.4489 Z" fill="#000000" fill-rule="nonzero" fill-opacity="1" /><path clip-path="url(#clip630)" d="M1855.79 9.62495 L1862.27 9.62495 Q1868.35 19.1851 1871.34 28.3401 Q1874.38 37.4952 1874.38 46.5287 Q1874.38 55.6027 1871.34 64.7983 Q1868.35 73.9938 1862.27 83.5134 L1855.79 83.5134 Q1861.17 74.2369 1863.81 65.0818 Q1866.48 55.8863 1866.48 46.5287 Q1866.48 37.1711 1863.81 28.0566 Q1861.17 18.942 1855.79 9.62495 Z" fill="#000000" fill-rule="nonzero" fill-opacity="1" /><polyline clip-path="url(#clip631)" style="stroke:#009af9; stroke-linecap:round; stroke-linejoin:round; stroke-width:8; stroke-opacity:1; fill:none" points="279.759,660.685 424.831,547.796 500.932,675.538 562.522,527.991 616.122,423.024 664.481,527 709.081,551.014 750.836,549.776 790.356,603.25 828.077,745.351 864.32,735.944 899.333,612.657 933.313,638.899 966.419,658.704 998.783,579.484 1030.52,654.743 1061.72,698.562 1092.47,623.055 1122.85,644.841 1152.93,478.478 1182.76,555.718 1212.41,496.798 1241.92,577.503 1271.36,596.071 1300.77,621.075 1330.21,628.997 1359.73,597.556 1389.38,419.063 1419.21,554.48 1449.28,652.763 1479.66,563.64 1510.42,613.152 1541.62,510.166 1573.35,621.075 1605.72,642.613 1638.82,758.225 1672.8,640.88 1707.82,678.509 1744.06,497.54 1781.78,676.529 1821.3,621.075 1863.06,482.439 1907.66,524.03 1956.01,632.958 2009.61,662.665 2071.2,599.289 2147.31,597.308 2292.38,543.587 "/>
<circle clip-path="url(#clip631)" cx="279.759" cy="660.685" r="10.8" fill="#009af9" fill-rule="evenodd" fill-opacity="1" stroke="#000000" stroke-opacity="1" stroke-width="3.2"/>
<circle clip-path="url(#clip631)" cx="424.831" cy="547.796" r="10.8" fill="#009af9" fill-rule="evenodd" fill-opacity="1" stroke="#000000" stroke-opacity="1" stroke-width="3.2"/>
<circle clip-path="url(#clip631)" cx="500.932" cy="675.538" r="10.8" fill="#009af9" fill-rule="evenodd" fill-opacity="1" stroke="#000000" stroke-opacity="1" stroke-width="3.2"/>
<circle clip-path="url(#clip631)" cx="562.522" cy="527.991" r="10.8" fill="#009af9" fill-rule="evenodd" fill-opacity="1" stroke="#000000" stroke-opacity="1" stroke-width="3.2"/>
<circle clip-path="url(#clip631)" cx="616.122" cy="423.024" r="10.8" fill="#009af9" fill-rule="evenodd" fill-opacity="1" stroke="#000000" stroke-opacity="1" stroke-width="3.2"/>
<circle clip-path="url(#clip631)" cx="664.481" cy="527" r="10.8" fill="#009af9" fill-rule="evenodd" fill-opacity="1" stroke="#000000" stroke-opacity="1" stroke-width="3.2"/>
<circle clip-path="url(#clip631)" cx="709.081" cy="551.014" r="10.8" fill="#009af9" fill-rule="evenodd" fill-opacity="1" stroke="#000000" stroke-opacity="1" stroke-width="3.2"/>
<circle clip-path="url(#clip631)" cx="750.836" cy="549.776" r="10.8" fill="#009af9" fill-rule="evenodd" fill-opacity="1" stroke="#000000" stroke-opacity="1" stroke-width="3.2"/>
<circle clip-path="url(#clip631)" cx="790.356" cy="603.25" r="10.8" fill="#009af9" fill-rule="evenodd" fill-opacity="1" stroke="#000000" stroke-opacity="1" stroke-width="3.2"/>
<circle clip-path="url(#clip631)" cx="828.077" cy="745.351" r="10.8" fill="#009af9" fill-rule="evenodd" fill-opacity="1" stroke="#000000" stroke-opacity="1" stroke-width="3.2"/>
<circle clip-path="url(#clip631)" cx="864.32" cy="735.944" r="10.8" fill="#009af9" fill-rule="evenodd" fill-opacity="1" stroke="#000000" stroke-opacity="1" stroke-width="3.2"/>
<circle clip-path="url(#clip631)" cx="899.333" cy="612.657" r="10.8" fill="#009af9" fill-rule="evenodd" fill-opacity="1" stroke="#000000" stroke-opacity="1" stroke-width="3.2"/>
<circle clip-path="url(#clip631)" cx="933.313" cy="638.899" r="10.8" fill="#009af9" fill-rule="evenodd" fill-opacity="1" stroke="#000000" stroke-opacity="1" stroke-width="3.2"/>
<circle clip-path="url(#clip631)" cx="966.419" cy="658.704" r="10.8" fill="#009af9" fill-rule="evenodd" fill-opacity="1" stroke="#000000" stroke-opacity="1" stroke-width="3.2"/>
<circle clip-path="url(#clip631)" cx="998.783" cy="579.484" r="10.8" fill="#009af9" fill-rule="evenodd" fill-opacity="1" stroke="#000000" stroke-opacity="1" stroke-width="3.2"/>
<circle clip-path="url(#clip631)" cx="1030.52" cy="654.743" r="10.8" fill="#009af9" fill-rule="evenodd" fill-opacity="1" stroke="#000000" stroke-opacity="1" stroke-width="3.2"/>
<circle clip-path="url(#clip631)" cx="1061.72" cy="698.562" r="10.8" fill="#009af9" fill-rule="evenodd" fill-opacity="1" stroke="#000000" stroke-opacity="1" stroke-width="3.2"/>
<circle clip-path="url(#clip631)" cx="1092.47" cy="623.055" r="10.8" fill="#009af9" fill-rule="evenodd" fill-opacity="1" stroke="#000000" stroke-opacity="1" stroke-width="3.2"/>
<circle clip-path="url(#clip631)" cx="1122.85" cy="644.841" r="10.8" fill="#009af9" fill-rule="evenodd" fill-opacity="1" stroke="#000000" stroke-opacity="1" stroke-width="3.2"/>
<circle clip-path="url(#clip631)" cx="1152.93" cy="478.478" r="10.8" fill="#009af9" fill-rule="evenodd" fill-opacity="1" stroke="#000000" stroke-opacity="1" stroke-width="3.2"/>
<circle clip-path="url(#clip631)" cx="1182.76" cy="555.718" r="10.8" fill="#009af9" fill-rule="evenodd" fill-opacity="1" stroke="#000000" stroke-opacity="1" stroke-width="3.2"/>
<circle clip-path="url(#clip631)" cx="1212.41" cy="496.798" r="10.8" fill="#009af9" fill-rule="evenodd" fill-opacity="1" stroke="#000000" stroke-opacity="1" stroke-width="3.2"/>
<circle clip-path="url(#clip631)" cx="1241.92" cy="577.503" r="10.8" fill="#009af9" fill-rule="evenodd" fill-opacity="1" stroke="#000000" stroke-opacity="1" stroke-width="3.2"/>
<circle clip-path="url(#clip631)" cx="1271.36" cy="596.071" r="10.8" fill="#009af9" fill-rule="evenodd" fill-opacity="1" stroke="#000000" stroke-opacity="1" stroke-width="3.2"/>
<circle clip-path="url(#clip631)" cx="1300.77" cy="621.075" r="10.8" fill="#009af9" fill-rule="evenodd" fill-opacity="1" stroke="#000000" stroke-opacity="1" stroke-width="3.2"/>
<circle clip-path="url(#clip631)" cx="1330.21" cy="628.997" r="10.8" fill="#009af9" fill-rule="evenodd" fill-opacity="1" stroke="#000000" stroke-opacity="1" stroke-width="3.2"/>
<circle clip-path="url(#clip631)" cx="1359.73" cy="597.556" r="10.8" fill="#009af9" fill-rule="evenodd" fill-opacity="1" stroke="#000000" stroke-opacity="1" stroke-width="3.2"/>
<circle clip-path="url(#clip631)" cx="1389.38" cy="419.063" r="10.8" fill="#009af9" fill-rule="evenodd" fill-opacity="1" stroke="#000000" stroke-opacity="1" stroke-width="3.2"/>
<circle clip-path="url(#clip631)" cx="1419.21" cy="554.48" r="10.8" fill="#009af9" fill-rule="evenodd" fill-opacity="1" stroke="#000000" stroke-opacity="1" stroke-width="3.2"/>
<circle clip-path="url(#clip631)" cx="1449.28" cy="652.763" r="10.8" fill="#009af9" fill-rule="evenodd" fill-opacity="1" stroke="#000000" stroke-opacity="1" stroke-width="3.2"/>
<circle clip-path="url(#clip631)" cx="1479.66" cy="563.64" r="10.8" fill="#009af9" fill-rule="evenodd" fill-opacity="1" stroke="#000000" stroke-opacity="1" stroke-width="3.2"/>
<circle clip-path="url(#clip631)" cx="1510.42" cy="613.152" r="10.8" fill="#009af9" fill-rule="evenodd" fill-opacity="1" stroke="#000000" stroke-opacity="1" stroke-width="3.2"/>
<circle clip-path="url(#clip631)" cx="1541.62" cy="510.166" r="10.8" fill="#009af9" fill-rule="evenodd" fill-opacity="1" stroke="#000000" stroke-opacity="1" stroke-width="3.2"/>
<circle clip-path="url(#clip631)" cx="1573.35" cy="621.075" r="10.8" fill="#009af9" fill-rule="evenodd" fill-opacity="1" stroke="#000000" stroke-opacity="1" stroke-width="3.2"/>
<circle clip-path="url(#clip631)" cx="1605.72" cy="642.613" r="10.8" fill="#009af9" fill-rule="evenodd" fill-opacity="1" stroke="#000000" stroke-opacity="1" stroke-width="3.2"/>
<circle clip-path="url(#clip631)" cx="1638.82" cy="758.225" r="10.8" fill="#009af9" fill-rule="evenodd" fill-opacity="1" stroke="#000000" stroke-opacity="1" stroke-width="3.2"/>
<circle clip-path="url(#clip631)" cx="1672.8" cy="640.88" r="10.8" fill="#009af9" fill-rule="evenodd" fill-opacity="1" stroke="#000000" stroke-opacity="1" stroke-width="3.2"/>
<circle clip-path="url(#clip631)" cx="1707.82" cy="678.509" r="10.8" fill="#009af9" fill-rule="evenodd" fill-opacity="1" stroke="#000000" stroke-opacity="1" stroke-width="3.2"/>
<circle clip-path="url(#clip631)" cx="1744.06" cy="497.54" r="10.8" fill="#009af9" fill-rule="evenodd" fill-opacity="1" stroke="#000000" stroke-opacity="1" stroke-width="3.2"/>
<circle clip-path="url(#clip631)" cx="1781.78" cy="676.529" r="10.8" fill="#009af9" fill-rule="evenodd" fill-opacity="1" stroke="#000000" stroke-opacity="1" stroke-width="3.2"/>
<circle clip-path="url(#clip631)" cx="1821.3" cy="621.075" r="10.8" fill="#009af9" fill-rule="evenodd" fill-opacity="1" stroke="#000000" stroke-opacity="1" stroke-width="3.2"/>
<circle clip-path="url(#clip631)" cx="1863.06" cy="482.439" r="10.8" fill="#009af9" fill-rule="evenodd" fill-opacity="1" stroke="#000000" stroke-opacity="1" stroke-width="3.2"/>
<circle clip-path="url(#clip631)" cx="1907.66" cy="524.03" r="10.8" fill="#009af9" fill-rule="evenodd" fill-opacity="1" stroke="#000000" stroke-opacity="1" stroke-width="3.2"/>
<circle clip-path="url(#clip631)" cx="1956.01" cy="632.958" r="10.8" fill="#009af9" fill-rule="evenodd" fill-opacity="1" stroke="#000000" stroke-opacity="1" stroke-width="3.2"/>
<circle clip-path="url(#clip631)" cx="2009.61" cy="662.665" r="10.8" fill="#009af9" fill-rule="evenodd" fill-opacity="1" stroke="#000000" stroke-opacity="1" stroke-width="3.2"/>
<circle clip-path="url(#clip631)" cx="2071.2" cy="599.289" r="10.8" fill="#009af9" fill-rule="evenodd" fill-opacity="1" stroke="#000000" stroke-opacity="1" stroke-width="3.2"/>
<circle clip-path="url(#clip631)" cx="2147.31" cy="597.308" r="10.8" fill="#009af9" fill-rule="evenodd" fill-opacity="1" stroke="#000000" stroke-opacity="1" stroke-width="3.2"/>
<circle clip-path="url(#clip631)" cx="2292.38" cy="543.587" r="10.8" fill="#009af9" fill-rule="evenodd" fill-opacity="1" stroke="#000000" stroke-opacity="1" stroke-width="3.2"/>
<polyline clip-path="url(#clip631)" style="stroke:#e26f46; stroke-linecap:round; stroke-linejoin:round; stroke-width:4; stroke-opacity:1; fill:none" stroke-dasharray="16, 10" points="-1914,597.969 4486.13,597.969 "/>
<path clip-path="url(#clip630)" d="M1840.07 322.316 L2281.64 322.316 L2281.64 166.796 L1840.07 166.796  Z" fill="#ffffff" fill-rule="evenodd" fill-opacity="1"/>
<polyline clip-path="url(#clip630)" style="stroke:#000000; stroke-linecap:round; stroke-linejoin:round; stroke-width:4; stroke-opacity:1; fill:none" points="1840.07,322.316 2281.64,322.316 2281.64,166.796 1840.07,166.796 1840.07,322.316 "/>
<polyline clip-path="url(#clip630)" style="stroke:#009af9; stroke-linecap:round; stroke-linejoin:round; stroke-width:8; stroke-opacity:1; fill:none" points="1863.77,218.636 2006,218.636 "/>
<circle clip-path="url(#clip630)" cx="1934.88" cy="218.636" r="19.7486" fill="#009af9" fill-rule="evenodd" fill-opacity="1" stroke="#000000" stroke-opacity="1" stroke-width="5.85143"/>
<path clip-path="url(#clip630)" d="M2050.05 214.967 Q2051.64 212.096 2053.87 210.731 Q2056.09 209.365 2059.1 209.365 Q2063.15 209.365 2065.35 212.212 Q2067.55 215.036 2067.55 220.268 L2067.55 235.916 L2063.26 235.916 L2063.26 220.407 Q2063.26 216.68 2061.94 214.874 Q2060.63 213.069 2057.92 213.069 Q2054.61 213.069 2052.69 215.268 Q2050.76 217.467 2050.76 221.263 L2050.76 235.916 L2046.48 235.916 L2046.48 220.407 Q2046.48 216.657 2045.16 214.874 Q2043.84 213.069 2041.09 213.069 Q2037.82 213.069 2035.9 215.291 Q2033.98 217.49 2033.98 221.263 L2033.98 235.916 L2029.7 235.916 L2029.7 209.99 L2033.98 209.99 L2033.98 214.018 Q2035.44 211.633 2037.48 210.499 Q2039.51 209.365 2042.32 209.365 Q2045.14 209.365 2047.11 210.8 Q2049.1 212.235 2050.05 214.967 Z" fill="#000000" fill-rule="nonzero" fill-opacity="1" /><path clip-path="url(#clip630)" d="M2098.22 221.888 L2098.22 223.971 L2078.63 223.971 Q2078.91 228.369 2081.27 230.684 Q2083.66 232.976 2087.89 232.976 Q2090.35 232.976 2092.64 232.374 Q2094.95 231.772 2097.22 230.569 L2097.22 234.596 Q2094.93 235.568 2092.52 236.078 Q2090.12 236.587 2087.64 236.587 Q2081.44 236.587 2077.8 232.976 Q2074.19 229.365 2074.19 223.207 Q2074.19 216.842 2077.62 213.115 Q2081.07 209.365 2086.9 209.365 Q2092.13 209.365 2095.16 212.745 Q2098.22 216.101 2098.22 221.888 M2093.96 220.638 Q2093.91 217.143 2091.99 215.059 Q2090.09 212.976 2086.94 212.976 Q2083.38 212.976 2081.23 214.99 Q2079.1 217.004 2078.77 220.661 L2093.96 220.638 Z" fill="#000000" fill-rule="nonzero" fill-opacity="1" /><path clip-path="url(#clip630)" d="M2116.99 222.883 Q2111.83 222.883 2109.84 224.064 Q2107.85 225.244 2107.85 228.092 Q2107.85 230.36 2109.33 231.703 Q2110.83 233.022 2113.4 233.022 Q2116.94 233.022 2119.07 230.522 Q2121.23 227.999 2121.23 223.832 L2121.23 222.883 L2116.99 222.883 M2125.49 221.124 L2125.49 235.916 L2121.23 235.916 L2121.23 231.981 Q2119.77 234.342 2117.59 235.476 Q2115.42 236.587 2112.27 236.587 Q2108.29 236.587 2105.93 234.365 Q2103.59 232.119 2103.59 228.369 Q2103.59 223.994 2106.5 221.772 Q2109.44 219.55 2115.25 219.55 L2121.23 219.55 L2121.23 219.133 Q2121.23 216.194 2119.28 214.596 Q2117.36 212.976 2113.87 212.976 Q2111.64 212.976 2109.54 213.508 Q2107.43 214.041 2105.49 215.106 L2105.49 211.17 Q2107.82 210.268 2110.02 209.828 Q2112.22 209.365 2114.31 209.365 Q2119.93 209.365 2122.71 212.282 Q2125.49 215.198 2125.49 221.124 Z" fill="#000000" fill-rule="nonzero" fill-opacity="1" /><path clip-path="url(#clip630)" d="M2150.79 210.754 L2150.79 214.782 Q2148.98 213.856 2147.04 213.393 Q2145.09 212.93 2143.01 212.93 Q2139.84 212.93 2138.24 213.902 Q2136.67 214.874 2136.67 216.819 Q2136.67 218.3 2137.8 219.157 Q2138.94 219.99 2142.36 220.754 L2143.82 221.078 Q2148.36 222.05 2150.25 223.832 Q2152.18 225.592 2152.18 228.763 Q2152.18 232.374 2149.31 234.481 Q2146.46 236.587 2141.46 236.587 Q2139.38 236.587 2137.11 236.17 Q2134.86 235.777 2132.36 234.967 L2132.36 230.569 Q2134.72 231.795 2137.01 232.42 Q2139.31 233.022 2141.55 233.022 Q2144.56 233.022 2146.18 232.004 Q2147.8 230.962 2147.8 229.087 Q2147.8 227.351 2146.62 226.425 Q2145.46 225.499 2141.5 224.643 L2140.02 224.295 Q2136.06 223.462 2134.31 221.749 Q2132.55 220.013 2132.55 217.004 Q2132.55 213.346 2135.14 211.356 Q2137.73 209.365 2142.5 209.365 Q2144.86 209.365 2146.94 209.712 Q2149.03 210.059 2150.79 210.754 Z" fill="#000000" fill-rule="nonzero" fill-opacity="1" /><path clip-path="url(#clip630)" d="M2158.52 225.684 L2158.52 209.99 L2162.78 209.99 L2162.78 225.522 Q2162.78 229.203 2164.21 231.055 Q2165.65 232.883 2168.52 232.883 Q2171.97 232.883 2173.96 230.684 Q2175.97 228.485 2175.97 224.689 L2175.97 209.99 L2180.23 209.99 L2180.23 235.916 L2175.97 235.916 L2175.97 231.934 Q2174.42 234.295 2172.36 235.453 Q2170.32 236.587 2167.62 236.587 Q2163.15 236.587 2160.83 233.809 Q2158.52 231.031 2158.52 225.684 M2169.24 209.365 L2169.24 209.365 Z" fill="#000000" fill-rule="nonzero" fill-opacity="1" /><path clip-path="url(#clip630)" d="M2204.03 213.971 Q2203.31 213.555 2202.45 213.37 Q2201.62 213.161 2200.6 213.161 Q2196.99 213.161 2195.05 215.522 Q2193.12 217.86 2193.12 222.258 L2193.12 235.916 L2188.84 235.916 L2188.84 209.99 L2193.12 209.99 L2193.12 214.018 Q2194.47 211.657 2196.62 210.522 Q2198.77 209.365 2201.85 209.365 Q2202.29 209.365 2202.82 209.434 Q2203.36 209.481 2204 209.596 L2204.03 213.971 Z" fill="#000000" fill-rule="nonzero" fill-opacity="1" /><path clip-path="url(#clip630)" d="M2229.63 221.888 L2229.63 223.971 L2210.05 223.971 Q2210.32 228.369 2212.68 230.684 Q2215.07 232.976 2219.31 232.976 Q2221.76 232.976 2224.05 232.374 Q2226.37 231.772 2228.63 230.569 L2228.63 234.596 Q2226.34 235.568 2223.93 236.078 Q2221.53 236.587 2219.05 236.587 Q2212.85 236.587 2209.21 232.976 Q2205.6 229.365 2205.6 223.207 Q2205.6 216.842 2209.03 213.115 Q2212.48 209.365 2218.31 209.365 Q2223.54 209.365 2226.57 212.745 Q2229.63 216.101 2229.63 221.888 M2225.37 220.638 Q2225.32 217.143 2223.4 215.059 Q2221.5 212.976 2218.36 212.976 Q2214.79 212.976 2212.64 214.99 Q2210.51 217.004 2210.18 220.661 L2225.37 220.638 Z" fill="#000000" fill-rule="nonzero" fill-opacity="1" /><path clip-path="url(#clip630)" d="M2253.68 213.925 L2253.68 199.897 L2257.94 199.897 L2257.94 235.916 L2253.68 235.916 L2253.68 232.027 Q2252.34 234.342 2250.28 235.476 Q2248.24 236.587 2245.37 236.587 Q2240.67 236.587 2237.71 232.837 Q2234.77 229.087 2234.77 222.976 Q2234.77 216.865 2237.71 213.115 Q2240.67 209.365 2245.37 209.365 Q2248.24 209.365 2250.28 210.499 Q2252.34 211.61 2253.68 213.925 M2239.17 222.976 Q2239.17 227.675 2241.09 230.36 Q2243.03 233.022 2246.41 233.022 Q2249.79 233.022 2251.74 230.36 Q2253.68 227.675 2253.68 222.976 Q2253.68 218.277 2251.74 215.615 Q2249.79 212.93 2246.41 212.93 Q2243.03 212.93 2241.09 215.615 Q2239.17 218.277 2239.17 222.976 Z" fill="#000000" fill-rule="nonzero" fill-opacity="1" /><polyline clip-path="url(#clip630)" style="stroke:#e26f46; stroke-linecap:round; stroke-linejoin:round; stroke-width:4; stroke-opacity:1; fill:none" stroke-dasharray="16, 10" points="1863.77,270.476 2006,270.476 "/>
<path clip-path="url(#clip630)" d="M2037.62 287.756 L2029.7 261.83 L2034.28 261.83 L2040.97 283.589 Q2043.75 280.719 2046.07 276.737 Q2047.82 273.751 2047.92 271.159 Q2047.96 269.932 2047.41 267.617 Q2046.76 264.862 2044.31 261.83 L2048.61 261.83 L2048.61 261.83 Q2050.21 263.89 2051.27 266.76 Q2052.25 269.399 2052.25 271.205 Q2052.25 275.742 2049.1 279.793 Q2045 285.071 2042.15 287.756 L2037.62 287.756 Z" fill="#000000" fill-rule="nonzero" fill-opacity="1" /><path clip-path="url(#clip630)" d="M2074.56 266.228 L2104.24 266.228 L2104.24 270.117 L2074.56 270.117 L2074.56 266.228 M2074.56 275.672 L2104.24 275.672 L2104.24 279.608 L2074.56 279.608 L2074.56 275.672 Z" fill="#000000" fill-rule="nonzero" fill-opacity="1" /><path clip-path="url(#clip630)" d="M2133.43 283.821 L2149.75 283.821 L2149.75 287.756 L2127.8 287.756 L2127.8 283.821 Q2130.46 281.066 2135.05 276.436 Q2139.65 271.784 2140.83 270.441 Q2143.08 267.918 2143.96 266.182 Q2144.86 264.423 2144.86 262.733 Q2144.86 259.978 2142.92 258.242 Q2141 256.506 2137.89 256.506 Q2135.69 256.506 2133.24 257.27 Q2130.81 258.034 2128.03 259.585 L2128.03 254.862 Q2130.86 253.728 2133.31 253.149 Q2135.76 252.571 2137.8 252.571 Q2143.17 252.571 2146.37 255.256 Q2149.56 257.941 2149.56 262.432 Q2149.56 264.561 2148.75 266.483 Q2147.96 268.381 2145.86 270.973 Q2145.28 271.645 2142.18 274.862 Q2139.07 278.057 2133.43 283.821 Z" fill="#000000" fill-rule="nonzero" fill-opacity="1" /><path clip-path="url(#clip630)" d="M2166.53 253.196 L2170.46 253.196 L2158.43 292.154 L2154.49 292.154 L2166.53 253.196 Z" fill="#000000" fill-rule="nonzero" fill-opacity="1" /><path clip-path="url(#clip630)" d="M2175.67 287.038 L2175.67 282.779 Q2177.43 283.612 2179.24 284.052 Q2181.04 284.492 2182.78 284.492 Q2187.41 284.492 2189.84 281.39 Q2192.29 278.265 2192.64 271.922 Q2191.3 273.913 2189.24 274.978 Q2187.18 276.043 2184.68 276.043 Q2179.49 276.043 2176.46 272.918 Q2173.45 269.77 2173.45 264.33 Q2173.45 259.006 2176.6 255.788 Q2179.75 252.571 2184.98 252.571 Q2190.97 252.571 2194.12 257.177 Q2197.29 261.76 2197.29 270.51 Q2197.29 278.682 2193.4 283.566 Q2189.54 288.427 2182.99 288.427 Q2181.23 288.427 2179.42 288.08 Q2177.62 287.733 2175.67 287.038 M2184.98 272.385 Q2188.12 272.385 2189.95 270.233 Q2191.81 268.08 2191.81 264.33 Q2191.81 260.603 2189.95 258.45 Q2188.12 256.274 2184.98 256.274 Q2181.83 256.274 2179.98 258.45 Q2178.15 260.603 2178.15 264.33 Q2178.15 268.08 2179.98 270.233 Q2181.83 272.385 2184.98 272.385 Z" fill="#000000" fill-rule="nonzero" fill-opacity="1" /></svg>
