<?xml version="1.0" encoding="utf-8"?>
<svg xmlns="http://www.w3.org/2000/svg" xmlns:xlink="http://www.w3.org/1999/xlink" width="600" height="400" viewBox="0 0 2400 1600">
<defs>
  <clipPath id="clip050">
    <rect x="0" y="0" width="2400" height="1600"/>
  </clipPath>
</defs>
<path clip-path="url(#clip050)" d="M0 1600 L2400 1600 L2400 0 L0 0  Z" fill="#ffffff" fill-rule="evenodd" fill-opacity="1"/>
<defs>
  <clipPath id="clip051">
    <rect x="219" y="123" width="2134" height="1301"/>
  </clipPath>
</defs>
<path clip-path="url(#clip050)" d="M219.542 1423.18 L2352.76 1423.18 L2352.76 123.472 L219.542 123.472  Z" fill="#ffffff" fill-rule="evenodd" fill-opacity="1"/>
<polyline clip-path="url(#clip051)" style="stroke:#000000; stroke-linecap:round; stroke-linejoin:round; stroke-width:2; stroke-opacity:0.1; fill:none" points="530.535,1423.18 530.535,123.472 "/>
<polyline clip-path="url(#clip051)" style="stroke:#000000; stroke-linecap:round; stroke-linejoin:round; stroke-width:2; stroke-opacity:0.1; fill:none" points="883.363,1423.18 883.363,123.472 "/>
<polyline clip-path="url(#clip051)" style="stroke:#000000; stroke-linecap:round; stroke-linejoin:round; stroke-width:2; stroke-opacity:0.1; fill:none" points="1236.19,1423.18 1236.19,123.472 "/>
<polyline clip-path="url(#clip051)" style="stroke:#000000; stroke-linecap:round; stroke-linejoin:round; stroke-width:2; stroke-opacity:0.1; fill:none" points="1589.02,1423.18 1589.02,123.472 "/>
<polyline clip-path="url(#clip051)" style="stroke:#000000; stroke-linecap:round; stroke-linejoin:round; stroke-width:2; stroke-opacity:0.1; fill:none" points="1941.85,1423.18 1941.85,123.472 "/>
<polyline clip-path="url(#clip051)" style="stroke:#000000; stroke-linecap:round; stroke-linejoin:round; stroke-width:2; stroke-opacity:0.1; fill:none" points="2294.68,1423.18 2294.68,123.472 "/>
<polyline clip-path="url(#clip051)" style="stroke:#000000; stroke-linecap:round; stroke-linejoin:round; stroke-width:2; stroke-opacity:0.1; fill:none" points="219.542,1385.65 2352.76,1385.65 "/>
<polyline clip-path="url(#clip051)" style="stroke:#000000; stroke-linecap:round; stroke-linejoin:round; stroke-width:2; stroke-opacity:0.1; fill:none" points="219.542,993.467 2352.76,993.467 "/>
<polyline clip-path="url(#clip051)" style="stroke:#000000; stroke-linecap:round; stroke-linejoin:round; stroke-width:2; stroke-opacity:0.1; fill:none" points="219.542,601.283 2352.76,601.283 "/>
<polyline clip-path="url(#clip051)" style="stroke:#000000; stroke-linecap:round; stroke-linejoin:round; stroke-width:2; stroke-opacity:0.1; fill:none" points="219.542,209.099 2352.76,209.099 "/>
<polyline clip-path="url(#clip050)" style="stroke:#000000; stroke-linecap:round; stroke-linejoin:round; stroke-width:4; stroke-opacity:1; fill:none" points="219.542,1423.18 2352.76,1423.18 "/>
<polyline clip-path="url(#clip050)" style="stroke:#000000; stroke-linecap:round; stroke-linejoin:round; stroke-width:4; stroke-opacity:1; fill:none" points="530.535,1423.18 530.535,1404.28 "/>
<polyline clip-path="url(#clip050)" style="stroke:#000000; stroke-linecap:round; stroke-linejoin:round; stroke-width:4; stroke-opacity:1; fill:none" points="883.363,1423.18 883.363,1404.28 "/>
<polyline clip-path="url(#clip050)" style="stroke:#000000; stroke-linecap:round; stroke-linejoin:round; stroke-width:4; stroke-opacity:1; fill:none" points="1236.19,1423.18 1236.19,1404.28 "/>
<polyline clip-path="url(#clip050)" style="stroke:#000000; stroke-linecap:round; stroke-linejoin:round; stroke-width:4; stroke-opacity:1; fill:none" points="1589.02,1423.18 1589.02,1404.28 "/>
<polyline clip-path="url(#clip050)" style="stroke:#000000; stroke-linecap:round; stroke-linejoin:round; stroke-width:4; stroke-opacity:1; fill:none" points="1941.85,1423.18 1941.85,1404.28 "/>
<polyline clip-path="url(#clip050)" style="stroke:#000000; stroke-linecap:round; stroke-linejoin:round; stroke-width:4; stroke-opacity:1; fill:none" points="2294.68,1423.18 2294.68,1404.28 "/>
<path clip-path="url(#clip050)" d="M508.417 1454.1 Q504.806 1454.1 502.977 1457.66 Q501.171 1461.2 501.171 1468.33 Q501.171 1475.44 502.977 1479.01 Q504.806 1482.55 508.417 1482.55 Q512.051 1482.55 513.857 1479.01 Q515.685 1475.44 515.685 1468.33 Q515.685 1461.2 513.857 1457.66 Q512.051 1454.1 508.417 1454.1 M508.417 1450.39 Q514.227 1450.39 517.282 1455 Q520.361 1459.58 520.361 1468.33 Q520.361 1477.06 517.282 1481.67 Q514.227 1486.25 508.417 1486.25 Q502.607 1486.25 499.528 1481.67 Q496.472 1477.06 496.472 1468.33 Q496.472 1459.58 499.528 1455 Q502.607 1450.39 508.417 1450.39 Z" fill="#000000" fill-rule="nonzero" fill-opacity="1" /><path clip-path="url(#clip050)" d="M528.579 1479.7 L533.463 1479.7 L533.463 1485.58 L528.579 1485.58 L528.579 1479.7 Z" fill="#000000" fill-rule="nonzero" fill-opacity="1" /><path clip-path="url(#clip050)" d="M543.694 1451.02 L562.051 1451.02 L562.051 1454.96 L547.977 1454.96 L547.977 1463.43 Q548.995 1463.08 550.014 1462.92 Q551.032 1462.73 552.051 1462.73 Q557.838 1462.73 561.217 1465.9 Q564.597 1469.08 564.597 1474.49 Q564.597 1480.07 561.125 1483.17 Q557.653 1486.25 551.333 1486.25 Q549.157 1486.25 546.889 1485.88 Q544.643 1485.51 542.236 1484.77 L542.236 1480.07 Q544.319 1481.2 546.542 1481.76 Q548.764 1482.32 551.241 1482.32 Q555.245 1482.32 557.583 1480.21 Q559.921 1478.1 559.921 1474.49 Q559.921 1470.88 557.583 1468.77 Q555.245 1466.67 551.241 1466.67 Q549.366 1466.67 547.491 1467.08 Q545.639 1467.5 543.694 1468.38 L543.694 1451.02 Z" fill="#000000" fill-rule="nonzero" fill-opacity="1" /><path clip-path="url(#clip050)" d="M850.516 1481.64 L858.155 1481.64 L858.155 1455.28 L849.845 1456.95 L849.845 1452.69 L858.108 1451.02 L862.784 1451.02 L862.784 1481.64 L870.423 1481.64 L870.423 1485.58 L850.516 1485.58 L850.516 1481.64 Z" fill="#000000" fill-rule="nonzero" fill-opacity="1" /><path clip-path="url(#clip050)" d="M879.868 1479.7 L884.752 1479.7 L884.752 1485.58 L879.868 1485.58 L879.868 1479.7 Z" fill="#000000" fill-rule="nonzero" fill-opacity="1" /><path clip-path="url(#clip050)" d="M904.937 1454.1 Q901.326 1454.1 899.497 1457.66 Q897.692 1461.2 897.692 1468.33 Q897.692 1475.44 899.497 1479.01 Q901.326 1482.55 904.937 1482.55 Q908.571 1482.55 910.377 1479.01 Q912.205 1475.44 912.205 1468.33 Q912.205 1461.2 910.377 1457.66 Q908.571 1454.1 904.937 1454.1 M904.937 1450.39 Q910.747 1450.39 913.803 1455 Q916.881 1459.58 916.881 1468.33 Q916.881 1477.06 913.803 1481.67 Q910.747 1486.25 904.937 1486.25 Q899.127 1486.25 896.048 1481.67 Q892.992 1477.06 892.992 1468.33 Q892.992 1459.58 896.048 1455 Q899.127 1450.39 904.937 1450.39 Z" fill="#000000" fill-rule="nonzero" fill-opacity="1" /><path clip-path="url(#clip050)" d="M1203.84 1481.64 L1211.48 1481.64 L1211.48 1455.28 L1203.17 1456.95 L1203.17 1452.69 L1211.43 1451.02 L1216.11 1451.02 L1216.11 1481.64 L1223.75 1481.64 L1223.75 1485.58 L1203.84 1485.58 L1203.84 1481.64 Z" fill="#000000" fill-rule="nonzero" fill-opacity="1" /><path clip-path="url(#clip050)" d="M1233.19 1479.7 L1238.08 1479.7 L1238.08 1485.58 L1233.19 1485.58 L1233.19 1479.7 Z" fill="#000000" fill-rule="nonzero" fill-opacity="1" /><path clip-path="url(#clip050)" d="M1248.31 1451.02 L1266.67 1451.02 L1266.67 1454.96 L1252.59 1454.96 L1252.59 1463.43 Q1253.61 1463.08 1254.63 1462.92 Q1255.65 1462.73 1256.67 1462.73 Q1262.45 1462.73 1265.83 1465.9 Q1269.21 1469.08 1269.21 1474.49 Q1269.21 1480.07 1265.74 1483.17 Q1262.27 1486.25 1255.95 1486.25 Q1253.77 1486.25 1251.5 1485.88 Q1249.26 1485.51 1246.85 1484.77 L1246.85 1480.07 Q1248.93 1481.2 1251.16 1481.76 Q1253.38 1482.32 1255.86 1482.32 Q1259.86 1482.32 1262.2 1480.21 Q1264.54 1478.1 1264.54 1474.49 Q1264.54 1470.88 1262.2 1468.77 Q1259.86 1466.67 1255.86 1466.67 Q1253.98 1466.67 1252.11 1467.08 Q1250.25 1467.5 1248.31 1468.38 L1248.31 1451.02 Z" fill="#000000" fill-rule="nonzero" fill-opacity="1" /><path clip-path="url(#clip050)" d="M1560.26 1481.64 L1576.58 1481.64 L1576.58 1485.58 L1554.63 1485.58 L1554.63 1481.64 Q1557.3 1478.89 1561.88 1474.26 Q1566.48 1469.61 1567.67 1468.27 Q1569.91 1465.74 1570.79 1464.01 Q1571.69 1462.25 1571.69 1460.56 Q1571.69 1457.8 1569.75 1456.07 Q1567.83 1454.33 1564.73 1454.33 Q1562.53 1454.33 1560.07 1455.09 Q1557.64 1455.86 1554.86 1457.41 L1554.86 1452.69 Q1557.69 1451.55 1560.14 1450.97 Q1562.6 1450.39 1564.63 1450.39 Q1570 1450.39 1573.2 1453.08 Q1576.39 1455.77 1576.39 1460.26 Q1576.39 1462.39 1575.58 1464.31 Q1574.79 1466.2 1572.69 1468.8 Q1572.11 1469.47 1569.01 1472.69 Q1565.91 1475.88 1560.26 1481.64 Z" fill="#000000" fill-rule="nonzero" fill-opacity="1" /><path clip-path="url(#clip050)" d="M1586.39 1479.7 L1591.28 1479.7 L1591.28 1485.58 L1586.39 1485.58 L1586.39 1479.7 Z" fill="#000000" fill-rule="nonzero" fill-opacity="1" /><path clip-path="url(#clip050)" d="M1611.46 1454.1 Q1607.85 1454.1 1606.02 1457.66 Q1604.22 1461.2 1604.22 1468.33 Q1604.22 1475.44 1606.02 1479.01 Q1607.85 1482.55 1611.46 1482.55 Q1615.1 1482.55 1616.9 1479.01 Q1618.73 1475.44 1618.73 1468.33 Q1618.73 1461.2 1616.9 1457.66 Q1615.1 1454.1 1611.46 1454.1 M1611.46 1450.39 Q1617.27 1450.39 1620.33 1455 Q1623.41 1459.58 1623.41 1468.33 Q1623.41 1477.06 1620.33 1481.67 Q1617.27 1486.25 1611.46 1486.25 Q1605.65 1486.25 1602.57 1481.67 Q1599.52 1477.06 1599.52 1468.33 Q1599.52 1459.58 1602.57 1455 Q1605.65 1450.39 1611.46 1450.39 Z" fill="#000000" fill-rule="nonzero" fill-opacity="1" /><path clip-path="url(#clip050)" d="M1913.58 1481.64 L1929.9 1481.64 L1929.9 1485.58 L1907.96 1485.58 L1907.96 1481.64 Q1910.62 1478.89 1915.2 1474.26 Q1919.81 1469.61 1920.99 1468.27 Q1923.24 1465.74 1924.12 1464.01 Q1925.02 1462.25 1925.02 1460.56 Q1925.02 1457.8 1923.07 1456.07 Q1921.15 1454.33 1918.05 1454.33 Q1915.85 1454.33 1913.4 1455.09 Q1910.97 1455.86 1908.19 1457.41 L1908.19 1452.69 Q1911.01 1451.55 1913.47 1450.97 Q1915.92 1450.39 1917.96 1450.39 Q1923.33 1450.39 1926.52 1453.08 Q1929.72 1455.77 1929.72 1460.26 Q1929.72 1462.39 1928.91 1464.31 Q1928.12 1466.2 1926.01 1468.8 Q1925.44 1469.47 1922.33 1472.69 Q1919.23 1475.88 1913.58 1481.64 Z" fill="#000000" fill-rule="nonzero" fill-opacity="1" /><path clip-path="url(#clip050)" d="M1939.72 1479.7 L1944.6 1479.7 L1944.6 1485.58 L1939.72 1485.58 L1939.72 1479.7 Z" fill="#000000" fill-rule="nonzero" fill-opacity="1" /><path clip-path="url(#clip050)" d="M1954.83 1451.02 L1973.19 1451.02 L1973.19 1454.96 L1959.12 1454.96 L1959.12 1463.43 Q1960.13 1463.08 1961.15 1462.92 Q1962.17 1462.73 1963.19 1462.73 Q1968.98 1462.73 1972.36 1465.9 Q1975.74 1469.08 1975.74 1474.49 Q1975.74 1480.07 1972.26 1483.17 Q1968.79 1486.25 1962.47 1486.25 Q1960.3 1486.25 1958.03 1485.88 Q1955.78 1485.51 1953.38 1484.77 L1953.38 1480.07 Q1955.46 1481.2 1957.68 1481.76 Q1959.9 1482.32 1962.38 1482.32 Q1966.38 1482.32 1968.72 1480.21 Q1971.06 1478.1 1971.06 1474.49 Q1971.06 1470.88 1968.72 1468.77 Q1966.38 1466.67 1962.38 1466.67 Q1960.5 1466.67 1958.63 1467.08 Q1956.78 1467.5 1954.83 1468.38 L1954.83 1451.02 Z" fill="#000000" fill-rule="nonzero" fill-opacity="1" /><path clip-path="url(#clip050)" d="M2275.98 1466.95 Q2279.34 1467.66 2281.22 1469.93 Q2283.11 1472.2 2283.11 1475.53 Q2283.11 1480.65 2279.59 1483.45 Q2276.08 1486.25 2269.6 1486.25 Q2267.42 1486.25 2265.1 1485.81 Q2262.81 1485.39 2260.36 1484.54 L2260.36 1480.02 Q2262.3 1481.16 2264.62 1481.74 Q2266.93 1482.32 2269.46 1482.32 Q2273.85 1482.32 2276.15 1480.58 Q2278.46 1478.84 2278.46 1475.53 Q2278.46 1472.48 2276.31 1470.77 Q2274.18 1469.03 2270.36 1469.03 L2266.33 1469.03 L2266.33 1465.19 L2270.54 1465.19 Q2273.99 1465.19 2275.82 1463.82 Q2277.65 1462.43 2277.65 1459.84 Q2277.65 1457.18 2275.75 1455.77 Q2273.88 1454.33 2270.36 1454.33 Q2268.44 1454.33 2266.24 1454.75 Q2264.04 1455.16 2261.4 1456.04 L2261.4 1451.88 Q2264.06 1451.14 2266.38 1450.77 Q2268.72 1450.39 2270.78 1450.39 Q2276.1 1450.39 2279.2 1452.83 Q2282.3 1455.23 2282.3 1459.35 Q2282.3 1462.22 2280.66 1464.21 Q2279.02 1466.18 2275.98 1466.95 Z" fill="#000000" fill-rule="nonzero" fill-opacity="1" /><path clip-path="url(#clip050)" d="M2291.98 1479.7 L2296.86 1479.7 L2296.86 1485.58 L2291.98 1485.58 L2291.98 1479.7 Z" fill="#000000" fill-rule="nonzero" fill-opacity="1" /><path clip-path="url(#clip050)" d="M2317.05 1454.1 Q2313.44 1454.1 2311.61 1457.66 Q2309.8 1461.2 2309.8 1468.33 Q2309.8 1475.44 2311.61 1479.01 Q2313.44 1482.55 2317.05 1482.55 Q2320.68 1482.55 2322.49 1479.01 Q2324.32 1475.44 2324.32 1468.33 Q2324.32 1461.2 2322.49 1457.66 Q2320.68 1454.1 2317.05 1454.1 M2317.05 1450.39 Q2322.86 1450.39 2325.91 1455 Q2328.99 1459.58 2328.99 1468.33 Q2328.99 1477.06 2325.91 1481.67 Q2322.86 1486.25 2317.05 1486.25 Q2311.24 1486.25 2308.16 1481.67 Q2305.1 1477.06 2305.1 1468.33 Q2305.1 1459.58 2308.16 1455 Q2311.24 1450.39 2317.05 1450.39 Z" fill="#000000" fill-rule="nonzero" fill-opacity="1" /><path clip-path="url(#clip050)" d="M1296.27 1545.45 L1276 1545.45 Q1276.47 1554.96 1278.67 1559 Q1281.41 1563.97 1286.15 1563.97 Q1290.92 1563.97 1293.57 1558.97 Q1295.89 1554.58 1296.27 1545.45 M1296.18 1540.03 Q1295.28 1531 1293.57 1527.81 Q1290.83 1522.78 1286.15 1522.78 Q1281.28 1522.78 1278.7 1527.75 Q1276.66 1531.76 1276.06 1540.03 L1296.18 1540.03 M1286.15 1518.01 Q1293.79 1518.01 1298.15 1524.76 Q1302.51 1531.47 1302.51 1543.38 Q1302.51 1555.25 1298.15 1562 Q1293.79 1568.78 1286.15 1568.78 Q1278.48 1568.78 1274.15 1562 Q1269.79 1555.25 1269.79 1543.38 Q1269.79 1531.47 1274.15 1524.76 Q1278.48 1518.01 1286.15 1518.01 Z" fill="#000000" fill-rule="nonzero" fill-opacity="1" /><polyline clip-path="url(#clip050)" style="stroke:#000000; stroke-linecap:round; stroke-linejoin:round; stroke-width:4; stroke-opacity:1; fill:none" points="219.542,1423.18 219.542,123.472 "/>
<polyline clip-path="url(#clip050)" style="stroke:#000000; stroke-linecap:round; stroke-linejoin:round; stroke-width:4; stroke-opacity:1; fill:none" points="219.542,1385.65 238.44,1385.65 "/>
<polyline clip-path="url(#clip050)" style="stroke:#000000; stroke-linecap:round; stroke-linejoin:round; stroke-width:4; stroke-opacity:1; fill:none" points="219.542,993.467 238.44,993.467 "/>
<polyline clip-path="url(#clip050)" style="stroke:#000000; stroke-linecap:round; stroke-linejoin:round; stroke-width:4; stroke-opacity:1; fill:none" points="219.542,601.283 238.44,601.283 "/>
<polyline clip-path="url(#clip050)" style="stroke:#000000; stroke-linecap:round; stroke-linejoin:round; stroke-width:4; stroke-opacity:1; fill:none" points="219.542,209.099 238.44,209.099 "/>
<path clip-path="url(#clip050)" d="M127.362 1371.45 Q123.751 1371.45 121.922 1375.01 Q120.117 1378.56 120.117 1385.69 Q120.117 1392.79 121.922 1396.36 Q123.751 1399.9 127.362 1399.9 Q130.996 1399.9 132.802 1396.36 Q134.63 1392.79 134.63 1385.69 Q134.63 1378.56 132.802 1375.01 Q130.996 1371.45 127.362 1371.45 M127.362 1367.75 Q133.172 1367.75 136.228 1372.35 Q139.306 1376.94 139.306 1385.69 Q139.306 1394.41 136.228 1399.02 Q133.172 1403.6 127.362 1403.6 Q121.552 1403.6 118.473 1399.02 Q115.418 1394.41 115.418 1385.69 Q115.418 1376.94 118.473 1372.35 Q121.552 1367.75 127.362 1367.75 Z" fill="#000000" fill-rule="nonzero" fill-opacity="1" /><path clip-path="url(#clip050)" d="M147.524 1397.05 L152.408 1397.05 L152.408 1402.93 L147.524 1402.93 L147.524 1397.05 Z" fill="#000000" fill-rule="nonzero" fill-opacity="1" /><path clip-path="url(#clip050)" d="M162.64 1368.37 L180.996 1368.37 L180.996 1372.31 L166.922 1372.31 L166.922 1380.78 Q167.94 1380.43 168.959 1380.27 Q169.977 1380.08 170.996 1380.08 Q176.783 1380.08 180.163 1383.26 Q183.542 1386.43 183.542 1391.84 Q183.542 1397.42 180.07 1400.52 Q176.598 1403.6 170.278 1403.6 Q168.102 1403.6 165.834 1403.23 Q163.589 1402.86 161.181 1402.12 L161.181 1397.42 Q163.265 1398.56 165.487 1399.11 Q167.709 1399.67 170.186 1399.67 Q174.19 1399.67 176.528 1397.56 Q178.866 1395.45 178.866 1391.84 Q178.866 1388.23 176.528 1386.13 Q174.19 1384.02 170.186 1384.02 Q168.311 1384.02 166.436 1384.44 Q164.584 1384.85 162.64 1385.73 L162.64 1368.37 Z" fill="#000000" fill-rule="nonzero" fill-opacity="1" /><path clip-path="url(#clip050)" d="M126.205 979.266 Q122.593 979.266 120.765 982.831 Q118.959 986.372 118.959 993.502 Q118.959 1000.61 120.765 1004.17 Q122.593 1007.71 126.205 1007.71 Q129.839 1007.71 131.644 1004.17 Q133.473 1000.61 133.473 993.502 Q133.473 986.372 131.644 982.831 Q129.839 979.266 126.205 979.266 M126.205 975.562 Q132.015 975.562 135.07 980.169 Q138.149 984.752 138.149 993.502 Q138.149 1002.23 135.07 1006.84 Q132.015 1011.42 126.205 1011.42 Q120.394 1011.42 117.316 1006.84 Q114.26 1002.23 114.26 993.502 Q114.26 984.752 117.316 980.169 Q120.394 975.562 126.205 975.562 Z" fill="#000000" fill-rule="nonzero" fill-opacity="1" /><path clip-path="url(#clip050)" d="M146.366 1004.87 L151.251 1004.87 L151.251 1010.75 L146.366 1010.75 L146.366 1004.87 Z" fill="#000000" fill-rule="nonzero" fill-opacity="1" /><path clip-path="url(#clip050)" d="M172.014 991.604 Q168.866 991.604 167.015 993.757 Q165.186 995.909 165.186 999.659 Q165.186 1003.39 167.015 1005.56 Q168.866 1007.71 172.014 1007.71 Q175.163 1007.71 176.991 1005.56 Q178.843 1003.39 178.843 999.659 Q178.843 995.909 176.991 993.757 Q175.163 991.604 172.014 991.604 M181.297 976.951 L181.297 981.21 Q179.538 980.377 177.732 979.937 Q175.95 979.497 174.19 979.497 Q169.561 979.497 167.107 982.622 Q164.677 985.747 164.329 992.067 Q165.695 990.053 167.755 988.988 Q169.815 987.9 172.292 987.9 Q177.501 987.9 180.51 991.071 Q183.542 994.22 183.542 999.659 Q183.542 1004.98 180.394 1008.2 Q177.246 1011.42 172.014 1011.42 Q166.019 1011.42 162.848 1006.84 Q159.677 1002.23 159.677 993.502 Q159.677 985.308 163.565 980.447 Q167.454 975.562 174.005 975.562 Q175.764 975.562 177.547 975.91 Q179.352 976.257 181.297 976.951 Z" fill="#000000" fill-rule="nonzero" fill-opacity="1" /><path clip-path="url(#clip050)" d="M127.269 587.082 Q123.658 587.082 121.83 590.647 Q120.024 594.189 120.024 601.318 Q120.024 608.425 121.83 611.989 Q123.658 615.531 127.269 615.531 Q130.904 615.531 132.709 611.989 Q134.538 608.425 134.538 601.318 Q134.538 594.189 132.709 590.647 Q130.904 587.082 127.269 587.082 M127.269 583.378 Q133.08 583.378 136.135 587.985 Q139.214 592.568 139.214 601.318 Q139.214 610.045 136.135 614.651 Q133.08 619.235 127.269 619.235 Q121.459 619.235 118.381 614.651 Q115.325 610.045 115.325 601.318 Q115.325 592.568 118.381 587.985 Q121.459 583.378 127.269 583.378 Z" fill="#000000" fill-rule="nonzero" fill-opacity="1" /><path clip-path="url(#clip050)" d="M147.431 612.684 L152.316 612.684 L152.316 618.563 L147.431 618.563 L147.431 612.684 Z" fill="#000000" fill-rule="nonzero" fill-opacity="1" /><path clip-path="url(#clip050)" d="M161.32 584.003 L183.542 584.003 L183.542 585.994 L170.996 618.563 L166.112 618.563 L177.917 587.939 L161.32 587.939 L161.32 584.003 Z" fill="#000000" fill-rule="nonzero" fill-opacity="1" /><path clip-path="url(#clip050)" d="M126.459 194.898 Q122.848 194.898 121.019 198.463 Q119.214 202.005 119.214 209.134 Q119.214 216.241 121.019 219.805 Q122.848 223.347 126.459 223.347 Q130.093 223.347 131.899 219.805 Q133.728 216.241 133.728 209.134 Q133.728 202.005 131.899 198.463 Q130.093 194.898 126.459 194.898 M126.459 191.194 Q132.269 191.194 135.325 195.801 Q138.404 200.384 138.404 209.134 Q138.404 217.861 135.325 222.467 Q132.269 227.051 126.459 227.051 Q120.649 227.051 117.57 222.467 Q114.515 217.861 114.515 209.134 Q114.515 200.384 117.57 195.801 Q120.649 191.194 126.459 191.194 Z" fill="#000000" fill-rule="nonzero" fill-opacity="1" /><path clip-path="url(#clip050)" d="M146.621 220.5 L151.505 220.5 L151.505 226.379 L146.621 226.379 L146.621 220.5 Z" fill="#000000" fill-rule="nonzero" fill-opacity="1" /><path clip-path="url(#clip050)" d="M171.69 209.968 Q168.357 209.968 166.436 211.75 Q164.538 213.532 164.538 216.657 Q164.538 219.782 166.436 221.565 Q168.357 223.347 171.69 223.347 Q175.024 223.347 176.945 221.565 Q178.866 219.759 178.866 216.657 Q178.866 213.532 176.945 211.75 Q175.047 209.968 171.69 209.968 M167.015 207.977 Q164.005 207.236 162.315 205.176 Q160.649 203.116 160.649 200.153 Q160.649 196.009 163.589 193.602 Q166.552 191.194 171.69 191.194 Q176.852 191.194 179.792 193.602 Q182.732 196.009 182.732 200.153 Q182.732 203.116 181.042 205.176 Q179.376 207.236 176.389 207.977 Q179.769 208.764 181.644 211.056 Q183.542 213.347 183.542 216.657 Q183.542 221.68 180.464 224.366 Q177.408 227.051 171.69 227.051 Q165.973 227.051 162.894 224.366 Q159.839 221.68 159.839 216.657 Q159.839 213.347 161.737 211.056 Q163.635 208.764 167.015 207.977 M165.302 200.593 Q165.302 203.278 166.968 204.782 Q168.658 206.287 171.69 206.287 Q174.7 206.287 176.389 204.782 Q178.102 203.278 178.102 200.593 Q178.102 197.907 176.389 196.403 Q174.7 194.898 171.69 194.898 Q168.658 194.898 166.968 196.403 Q165.302 197.907 165.302 200.593 Z" fill="#000000" fill-rule="nonzero" fill-opacity="1" /><path clip-path="url(#clip050)" d="M33.7671 938.612 L14.479 938.612 L14.479 932.755 L64.0042 932.755 L64.0042 938.612 L58.657 938.612 Q61.8398 940.458 63.3994 943.29 Q64.9272 946.091 64.9272 950.038 Q64.9272 956.499 59.771 960.573 Q54.6147 964.615 46.212 964.615 Q37.8093 964.615 32.6531 960.573 Q27.4968 956.499 27.4968 950.038 Q27.4968 946.091 29.0564 943.29 Q30.5842 940.458 33.7671 938.612 M46.212 958.568 Q52.6732 958.568 56.3653 955.926 Q60.0256 953.253 60.0256 948.606 Q60.0256 943.959 56.3653 941.285 Q52.6732 938.612 46.212 938.612 Q39.7508 938.612 36.0905 941.285 Q32.3984 943.959 32.3984 948.606 Q32.3984 953.253 36.0905 955.926 Q39.7508 958.568 46.212 958.568 Z" fill="#000000" fill-rule="nonzero" fill-opacity="1" /><path clip-path="url(#clip050)" d="M44.7161 890.2 L47.5806 890.2 L47.5806 917.127 Q53.6281 916.745 56.8109 913.499 Q59.9619 910.221 59.9619 904.396 Q59.9619 901.022 59.1344 897.871 Q58.3069 894.688 56.6518 891.569 L62.1899 891.569 Q63.5267 894.72 64.227 898.03 Q64.9272 901.34 64.9272 904.746 Q64.9272 913.276 59.9619 918.273 Q54.9967 923.238 46.5303 923.238 Q37.7774 923.238 32.6531 918.528 Q27.4968 913.785 27.4968 905.765 Q27.4968 898.571 32.1438 894.402 Q36.7589 890.2 44.7161 890.2 M42.9973 896.057 Q38.1912 896.12 35.3266 898.762 Q32.4621 901.372 32.4621 905.701 Q32.4621 910.602 35.2312 913.563 Q38.0002 916.491 43.0292 916.936 L42.9973 896.057 Z" fill="#000000" fill-rule="nonzero" fill-opacity="1" /><path clip-path="url(#clip050)" d="M42.4881 850.956 L64.0042 850.956 L64.0042 856.812 L42.679 856.812 Q37.6183 856.812 35.1038 858.786 Q32.5894 860.759 32.5894 864.706 Q32.5894 869.448 35.6131 872.185 Q38.6368 874.923 43.8567 874.923 L64.0042 874.923 L64.0042 880.811 L28.3562 880.811 L28.3562 874.923 L33.8944 874.923 Q30.6797 872.822 29.0883 869.989 Q27.4968 867.125 27.4968 863.401 Q27.4968 857.258 31.3163 854.107 Q35.1038 850.956 42.4881 850.956 Z" fill="#000000" fill-rule="nonzero" fill-opacity="1" /><path clip-path="url(#clip050)" d="M29.4065 816.549 L34.9447 816.549 Q33.6716 819.032 33.035 821.705 Q32.3984 824.379 32.3984 827.244 Q32.3984 831.604 33.7352 833.8 Q35.072 835.965 37.7456 835.965 Q39.7826 835.965 40.9603 834.405 Q42.1061 832.845 43.1565 828.135 L43.6021 826.13 Q44.9389 819.891 47.3897 817.281 Q49.8086 814.639 54.1691 814.639 Q59.1344 814.639 62.0308 818.586 Q64.9272 822.501 64.9272 829.376 Q64.9272 832.241 64.3543 835.36 Q63.8132 838.447 62.6992 841.885 L56.6518 841.885 Q58.3387 838.638 59.198 835.487 Q60.0256 832.336 60.0256 829.249 Q60.0256 825.111 58.6251 822.883 Q57.1929 820.655 54.6147 820.655 Q52.2276 820.655 50.9545 822.278 Q49.6813 823.87 48.5037 829.312 L48.0262 831.349 Q46.8804 836.792 44.5251 839.211 Q42.138 841.63 38.0002 841.63 Q32.9713 841.63 30.2341 838.065 Q27.4968 834.5 27.4968 827.944 Q27.4968 824.697 27.9743 821.833 Q28.4517 818.968 29.4065 816.549 Z" fill="#000000" fill-rule="nonzero" fill-opacity="1" /><path clip-path="url(#clip050)" d="M28.3562 805.314 L28.3562 799.457 L64.0042 799.457 L64.0042 805.314 L28.3562 805.314 M14.479 805.314 L14.479 799.457 L21.895 799.457 L21.895 805.314 L14.479 805.314 Z" fill="#000000" fill-rule="nonzero" fill-opacity="1" /><path clip-path="url(#clip050)" d="M18.2347 781.41 L28.3562 781.41 L28.3562 769.347 L32.9077 769.347 L32.9077 781.41 L52.2594 781.41 Q56.6199 781.41 57.8613 780.233 Q59.1026 779.023 59.1026 775.363 L59.1026 769.347 L64.0042 769.347 L64.0042 775.363 Q64.0042 782.142 61.4897 784.721 Q58.9434 787.299 52.2594 787.299 L32.9077 787.299 L32.9077 791.596 L28.3562 791.596 L28.3562 787.299 L18.2347 787.299 L18.2347 781.41 Z" fill="#000000" fill-rule="nonzero" fill-opacity="1" /><path clip-path="url(#clip050)" d="M67.3143 746.813 Q73.68 749.295 75.6216 751.651 Q77.5631 754.006 77.5631 757.953 L77.5631 762.632 L72.6615 762.632 L72.6615 759.194 Q72.6615 756.775 71.5157 755.438 Q70.3699 754.102 66.1048 752.478 L63.4312 751.428 L28.3562 765.846 L28.3562 759.64 L56.238 748.5 L28.3562 737.36 L28.3562 731.153 L67.3143 746.813 Z" fill="#000000" fill-rule="nonzero" fill-opacity="1" /><path clip-path="url(#clip050)" d="M42.4881 672.716 L64.0042 672.716 L64.0042 678.572 L42.679 678.572 Q37.6183 678.572 35.1038 680.546 Q32.5894 682.519 32.5894 686.466 Q32.5894 691.208 35.6131 693.946 Q38.6368 696.683 43.8567 696.683 L64.0042 696.683 L64.0042 702.571 L28.3562 702.571 L28.3562 696.683 L33.8944 696.683 Q30.6797 694.582 29.0883 691.749 Q27.4968 688.885 27.4968 685.161 Q27.4968 679.018 31.3163 675.867 Q35.1038 672.716 42.4881 672.716 Z" fill="#000000" fill-rule="nonzero" fill-opacity="1" /><path clip-path="url(#clip050)" d="M14.5426 646.967 Q21.8632 651.232 29.0246 653.301 Q36.186 655.369 43.5384 655.369 Q50.8908 655.369 58.1159 653.301 Q65.3091 651.2 72.5979 646.967 L72.5979 652.059 Q65.1182 656.834 57.8931 659.221 Q50.668 661.576 43.5384 661.576 Q36.4406 661.576 29.2474 659.221 Q22.0542 656.865 14.5426 652.059 L14.5426 646.967 Z" fill="#000000" fill-rule="nonzero" fill-opacity="1" /><path clip-path="url(#clip050)" d="M41.4059 611.669 L41.4059 631.944 Q50.9226 631.466 54.9649 629.27 Q59.9301 626.533 59.9301 621.79 Q59.9301 617.016 54.933 614.374 Q50.5407 612.051 41.4059 611.669 M35.995 611.764 Q26.9557 612.656 23.7729 614.374 Q18.744 617.112 18.744 621.79 Q18.744 626.66 23.7092 629.238 Q27.7196 631.275 35.995 631.88 L35.995 611.764 M13.9697 621.79 Q13.9697 614.151 20.7174 609.791 Q27.4332 605.43 39.337 605.43 Q51.2091 605.43 57.9567 609.791 Q64.7362 614.151 64.7362 621.79 Q64.7362 629.461 57.9567 633.79 Q51.2091 638.15 39.337 638.15 Q27.4332 638.15 20.7174 633.79 Q13.9697 629.461 13.9697 621.79 Z" fill="#000000" fill-rule="nonzero" fill-opacity="1" /><path clip-path="url(#clip050)" d="M14.5426 596.646 L14.5426 591.553 Q22.0542 586.779 29.2474 584.424 Q36.4406 582.036 43.5384 582.036 Q50.668 582.036 57.8931 584.424 Q65.1182 586.779 72.5979 591.553 L72.5979 596.646 Q65.3091 592.413 58.1159 590.344 Q50.8908 588.243 43.5384 588.243 Q36.186 588.243 29.0246 590.344 Q21.8632 592.413 14.5426 596.646 Z" fill="#000000" fill-rule="nonzero" fill-opacity="1" /><path clip-path="url(#clip050)" d="M711.69 72.576 L697.836 27.2059 L705.857 27.2059 L717.564 65.2844 Q722.425 60.2613 726.476 53.2937 Q729.555 48.068 729.717 43.531 Q729.798 41.384 728.826 37.3331 Q727.691 32.5126 723.397 27.2059 L730.932 27.2059 L730.932 27.2059 Q733.727 30.8112 735.591 35.8343 Q737.292 40.4523 737.292 43.612 Q737.292 51.5518 731.783 58.6409 Q724.613 67.877 719.63 72.576 L711.69 72.576 Z" fill="#000000" fill-rule="nonzero" fill-opacity="1" /><path clip-path="url(#clip050)" d="M776.343 34.9026 L828.275 34.9026 L828.275 41.7081 L776.343 41.7081 L776.343 34.9026 M776.343 51.4303 L828.275 51.4303 L828.275 58.3168 L776.343 58.3168 L776.343 51.4303 Z" fill="#000000" fill-rule="nonzero" fill-opacity="1" /><path clip-path="url(#clip050)" d="M879.357 65.6895 L907.916 65.6895 L907.916 72.576 L869.514 72.576 L869.514 65.6895 Q874.172 60.8689 882.193 52.7671 Q890.254 44.6248 892.32 42.2752 Q896.25 37.8598 897.789 34.8216 Q899.369 31.7429 899.369 28.7857 Q899.369 23.9651 895.966 20.927 Q892.604 17.8888 887.175 17.8888 Q883.327 17.8888 879.033 19.2256 Q874.78 20.5624 869.919 23.2765 L869.919 15.0127 Q874.861 13.0277 879.155 12.015 Q883.449 11.0023 887.013 11.0023 Q896.412 11.0023 902.002 15.7013 Q907.592 20.4004 907.592 28.2591 Q907.592 31.9859 906.174 35.3482 Q904.797 38.6699 901.111 43.2069 Q900.098 44.3817 894.67 50.0125 Q889.241 55.6027 879.357 65.6895 Z" fill="#000000" fill-rule="nonzero" fill-opacity="1" /><path clip-path="url(#clip050)" d="M937.285 12.096 L944.172 12.096 L923.107 80.2727 L916.22 80.2727 L937.285 12.096 Z" fill="#000000" fill-rule="nonzero" fill-opacity="1" /><path clip-path="url(#clip050)" d="M953.286 71.3202 L953.286 63.8666 Q956.365 65.3249 959.525 66.0946 Q962.684 66.8642 965.723 66.8642 Q973.824 66.8642 978.078 61.436 Q982.372 55.9673 982.979 44.8678 Q980.63 48.3516 977.025 50.215 Q973.419 52.0784 969.044 52.0784 Q959.97 52.0784 954.664 46.6097 Q949.397 41.1005 949.397 31.5808 Q949.397 22.2638 954.907 16.633 Q960.416 11.0023 969.571 11.0023 Q980.063 11.0023 985.572 19.0636 Q991.122 27.0843 991.122 42.3968 Q991.122 56.6965 984.316 65.2439 Q977.551 73.7508 966.087 73.7508 Q963.008 73.7508 959.849 73.1431 Q956.689 72.5355 953.286 71.3202 M969.571 45.678 Q975.08 45.678 978.28 41.9107 Q981.521 38.1433 981.521 31.5808 Q981.521 25.0589 978.28 21.2916 Q975.08 17.4837 969.571 17.4837 Q964.062 17.4837 960.821 21.2916 Q957.621 25.0589 957.621 31.5808 Q957.621 38.1433 960.821 41.9107 Q964.062 45.678 969.571 45.678 Z" fill="#000000" fill-rule="nonzero" fill-opacity="1" /><path clip-path="url(#clip050)" d="M1061 49.3643 Q1061 41.2625 1057.64 36.8065 Q1054.32 32.3505 1048.28 32.3505 Q1042.28 32.3505 1038.92 36.8065 Q1035.6 41.2625 1035.6 49.3643 Q1035.6 57.4256 1038.92 61.8816 Q1042.28 66.3376 1048.28 66.3376 Q1054.32 66.3376 1057.64 61.8816 Q1061 57.4256 1061 49.3643 M1068.45 66.9452 Q1068.45 78.5308 1063.31 84.1616 Q1058.16 89.8329 1047.55 89.8329 Q1043.62 89.8329 1040.14 89.2252 Q1036.65 88.6581 1033.37 87.4428 L1033.37 80.1917 Q1036.65 81.9741 1039.85 82.8248 Q1043.05 83.6755 1046.38 83.6755 Q1053.71 83.6755 1057.35 79.8271 Q1061 76.0193 1061 68.282 L1061 64.5957 Q1058.69 68.6061 1055.09 70.5911 Q1051.48 72.576 1046.46 72.576 Q1038.11 72.576 1033.01 66.2161 Q1027.9 59.8562 1027.9 49.3643 Q1027.9 38.832 1033.01 32.472 Q1038.11 26.1121 1046.46 26.1121 Q1051.48 26.1121 1055.09 28.0971 Q1058.69 30.082 1061 34.0924 L1061 27.2059 L1068.45 27.2059 L1068.45 66.9452 Z" fill="#000000" fill-rule="nonzero" fill-opacity="1" /><path clip-path="url(#clip050)" d="M1110.1 34.1734 Q1108.84 33.4443 1107.34 33.1202 Q1105.88 32.7556 1104.1 32.7556 Q1097.78 32.7556 1094.38 36.8875 Q1091.02 40.9789 1091.02 48.6757 L1091.02 72.576 L1083.52 72.576 L1083.52 27.2059 L1091.02 27.2059 L1091.02 34.2544 Q1093.37 30.1225 1097.13 28.1376 Q1100.9 26.1121 1106.29 26.1121 Q1107.06 26.1121 1107.99 26.2337 Q1108.92 26.3147 1110.06 26.5172 L1110.1 34.1734 Z" fill="#000000" fill-rule="nonzero" fill-opacity="1" /><path clip-path="url(#clip050)" d="M1133.67 32.4315 Q1127.68 32.4315 1124.19 37.1306 Q1120.71 41.7891 1120.71 49.9314 Q1120.71 58.0738 1124.15 62.7728 Q1127.64 67.4314 1133.67 67.4314 Q1139.63 67.4314 1143.11 62.7323 Q1146.6 58.0333 1146.6 49.9314 Q1146.6 41.8701 1143.11 37.1711 Q1139.63 32.4315 1133.67 32.4315 M1133.67 26.1121 Q1143.4 26.1121 1148.94 32.4315 Q1154.49 38.7509 1154.49 49.9314 Q1154.49 61.0714 1148.94 67.4314 Q1143.4 73.7508 1133.67 73.7508 Q1123.91 73.7508 1118.36 67.4314 Q1112.85 61.0714 1112.85 49.9314 Q1112.85 38.7509 1118.36 32.4315 Q1123.91 26.1121 1133.67 26.1121 Z" fill="#000000" fill-rule="nonzero" fill-opacity="1" /><path clip-path="url(#clip050)" d="M1166.08 54.671 L1166.08 27.2059 L1173.53 27.2059 L1173.53 54.3874 Q1173.53 60.8284 1176.05 64.0691 Q1178.56 67.2693 1183.58 67.2693 Q1189.62 67.2693 1193.1 63.421 Q1196.62 59.5726 1196.62 52.9291 L1196.62 27.2059 L1204.08 27.2059 L1204.08 72.576 L1196.62 72.576 L1196.62 65.6084 Q1193.91 69.7404 1190.3 71.7658 Q1186.74 73.7508 1182 73.7508 Q1174.18 73.7508 1170.13 68.8897 Q1166.08 64.0286 1166.08 54.671 M1184.84 26.1121 L1184.84 26.1121 Z" fill="#000000" fill-rule="nonzero" fill-opacity="1" /><path clip-path="url(#clip050)" d="M1257.14 45.1919 L1257.14 72.576 L1249.69 72.576 L1249.69 45.4349 Q1249.69 38.994 1247.18 35.7938 Q1244.67 32.5936 1239.64 32.5936 Q1233.61 32.5936 1230.13 36.4419 Q1226.64 40.2903 1226.64 46.9338 L1226.64 72.576 L1219.15 72.576 L1219.15 27.2059 L1226.64 27.2059 L1226.64 34.2544 Q1229.31 30.163 1232.92 28.1376 Q1236.57 26.1121 1241.31 26.1121 Q1249.12 26.1121 1253.13 30.9732 Q1257.14 35.7938 1257.14 45.1919 Z" fill="#000000" fill-rule="nonzero" fill-opacity="1" /><path clip-path="url(#clip050)" d="M1301.87 34.0924 L1301.87 9.54393 L1309.32 9.54393 L1309.32 72.576 L1301.87 72.576 L1301.87 65.7705 Q1299.52 69.8214 1295.91 71.8063 Q1292.35 73.7508 1287.32 73.7508 Q1279.1 73.7508 1273.92 67.1883 Q1268.77 60.6258 1268.77 49.9314 Q1268.77 39.2371 1273.92 32.6746 Q1279.1 26.1121 1287.32 26.1121 Q1292.35 26.1121 1295.91 28.0971 Q1299.52 30.0415 1301.87 34.0924 M1276.47 49.9314 Q1276.47 58.1548 1279.83 62.8538 Q1283.23 67.5124 1289.15 67.5124 Q1295.06 67.5124 1298.46 62.8538 Q1301.87 58.1548 1301.87 49.9314 Q1301.87 41.7081 1298.46 37.0496 Q1295.06 32.3505 1289.15 32.3505 Q1283.23 32.3505 1279.83 37.0496 Q1276.47 41.7081 1276.47 49.9314 Z" fill="#000000" fill-rule="nonzero" fill-opacity="1" /><path clip-path="url(#clip050)" d="M1379.97 28.5427 L1379.97 35.5912 Q1376.81 33.9709 1373.41 33.1607 Q1370 32.3505 1366.36 32.3505 Q1360.81 32.3505 1358.01 34.0519 Q1355.26 35.7533 1355.26 39.156 Q1355.26 41.7486 1357.24 43.2475 Q1359.23 44.7058 1365.22 46.0426 L1367.77 46.6097 Q1375.71 48.3111 1379.04 51.4303 Q1382.4 54.509 1382.4 60.0587 Q1382.4 66.3781 1377.38 70.0644 Q1372.39 73.7508 1363.64 73.7508 Q1360 73.7508 1356.03 73.0216 Q1352.1 72.3329 1347.72 70.9151 L1347.72 63.2184 Q1351.85 65.3654 1355.87 66.4591 Q1359.88 67.5124 1363.8 67.5124 Q1369.07 67.5124 1371.91 65.73 Q1374.74 63.9071 1374.74 60.6258 Q1374.74 57.5877 1372.68 55.9673 Q1370.65 54.3469 1363.72 52.8481 L1361.13 52.2405 Q1354.2 50.7821 1351.13 47.7845 Q1348.05 44.7463 1348.05 39.4801 Q1348.05 33.0797 1352.58 29.5959 Q1357.12 26.1121 1365.47 26.1121 Q1369.6 26.1121 1373.24 26.7198 Q1376.89 27.3274 1379.97 28.5427 Z" fill="#000000" fill-rule="nonzero" fill-opacity="1" /><path clip-path="url(#clip050)" d="M1401.64 14.324 L1401.64 27.2059 L1416.99 27.2059 L1416.99 32.9987 L1401.64 32.9987 L1401.64 57.6282 Q1401.64 63.1779 1403.14 64.7578 Q1404.68 66.3376 1409.34 66.3376 L1416.99 66.3376 L1416.99 72.576 L1409.34 72.576 Q1400.71 72.576 1397.43 69.3758 Q1394.15 66.1351 1394.15 57.6282 L1394.15 32.9987 L1388.68 32.9987 L1388.68 27.2059 L1394.15 27.2059 L1394.15 14.324 L1401.64 14.324 Z" fill="#000000" fill-rule="nonzero" fill-opacity="1" /><path clip-path="url(#clip050)" d="M1447.42 49.7694 Q1438.38 49.7694 1434.9 51.8354 Q1431.41 53.9013 1431.41 58.8839 Q1431.41 62.8538 1434.01 65.2034 Q1436.64 67.5124 1441.14 67.5124 Q1447.33 67.5124 1451.06 63.1374 Q1454.83 58.7219 1454.83 51.4303 L1454.83 49.7694 L1447.42 49.7694 M1462.28 46.6907 L1462.28 72.576 L1454.83 72.576 L1454.83 65.6895 Q1452.28 69.8214 1448.47 71.8063 Q1444.66 73.7508 1439.15 73.7508 Q1432.18 73.7508 1428.05 69.8619 Q1423.96 65.9325 1423.96 59.3701 Q1423.96 51.7138 1429.06 47.825 Q1434.21 43.9361 1444.38 43.9361 L1454.83 43.9361 L1454.83 43.2069 Q1454.83 38.0623 1451.43 35.2672 Q1448.06 32.4315 1441.95 32.4315 Q1438.06 32.4315 1434.37 33.3632 Q1430.69 34.295 1427.28 36.1584 L1427.28 29.2718 Q1431.37 27.692 1435.22 26.9223 Q1439.07 26.1121 1442.72 26.1121 Q1452.56 26.1121 1457.42 31.2163 Q1462.28 36.3204 1462.28 46.6907 Z" fill="#000000" fill-rule="nonzero" fill-opacity="1" /><path clip-path="url(#clip050)" d="M1485.01 14.324 L1485.01 27.2059 L1500.36 27.2059 L1500.36 32.9987 L1485.01 32.9987 L1485.01 57.6282 Q1485.01 63.1779 1486.51 64.7578 Q1488.05 66.3376 1492.7 66.3376 L1500.36 66.3376 L1500.36 72.576 L1492.7 72.576 Q1484.08 72.576 1480.79 69.3758 Q1477.51 66.1351 1477.51 57.6282 L1477.51 32.9987 L1472.05 32.9987 L1472.05 27.2059 L1477.51 27.2059 L1477.51 14.324 L1485.01 14.324 Z" fill="#000000" fill-rule="nonzero" fill-opacity="1" /><path clip-path="url(#clip050)" d="M1548.97 48.0275 L1548.97 51.6733 L1514.7 51.6733 Q1515.19 59.3701 1519.32 63.421 Q1523.49 67.4314 1530.9 67.4314 Q1535.2 67.4314 1539.21 66.3781 Q1543.26 65.3249 1547.23 63.2184 L1547.23 70.267 Q1543.22 71.9684 1539.01 72.8596 Q1534.79 73.7508 1530.46 73.7508 Q1519.6 73.7508 1513.24 67.4314 Q1506.92 61.1119 1506.92 50.3365 Q1506.92 39.1965 1512.92 32.6746 Q1518.95 26.1121 1529.16 26.1121 Q1538.32 26.1121 1543.62 32.0264 Q1548.97 37.9003 1548.97 48.0275 M1541.52 45.84 Q1541.44 39.7232 1538.07 36.0774 Q1534.75 32.4315 1529.24 32.4315 Q1523.01 32.4315 1519.24 35.9558 Q1515.51 39.4801 1514.94 45.8805 L1541.52 45.84 Z" fill="#000000" fill-rule="nonzero" fill-opacity="1" /><path clip-path="url(#clip050)" d="M1605.48 9.62495 Q1600.05 18.942 1597.42 28.0566 Q1594.79 37.1711 1594.79 46.5287 Q1594.79 55.8863 1597.42 65.0818 Q1600.09 74.2369 1605.48 83.5134 L1599 83.5134 Q1592.92 73.9938 1589.89 64.7983 Q1586.89 55.6027 1586.89 46.5287 Q1586.89 37.4952 1589.89 28.3401 Q1592.88 19.1851 1599 9.62495 L1605.48 9.62495 Z" fill="#000000" fill-rule="nonzero" fill-opacity="1" /><path clip-path="url(#clip050)" d="M1620.27 12.096 L1631.29 12.096 L1658.1 62.6918 L1658.1 12.096 L1666.04 12.096 L1666.04 72.576 L1655.02 72.576 L1628.21 21.9802 L1628.21 72.576 L1620.27 72.576 L1620.27 12.096 Z" fill="#000000" fill-rule="nonzero" fill-opacity="1" /><path clip-path="url(#clip050)" d="M1709.35 34.9026 L1761.28 34.9026 L1761.28 41.7081 L1709.35 41.7081 L1709.35 34.9026 M1709.35 51.4303 L1761.28 51.4303 L1761.28 58.3168 L1709.35 58.3168 L1709.35 51.4303 Z" fill="#000000" fill-rule="nonzero" fill-opacity="1" /><path clip-path="url(#clip050)" d="M1822.81 43.8551 Q1816.98 43.8551 1813.62 46.9743 Q1810.3 50.0935 1810.3 55.5622 Q1810.3 61.0309 1813.62 64.1501 Q1816.98 67.2693 1822.81 67.2693 Q1828.65 67.2693 1832.01 64.1501 Q1835.37 60.9904 1835.37 55.5622 Q1835.37 50.0935 1832.01 46.9743 Q1828.69 43.8551 1822.81 43.8551 M1814.63 40.3713 Q1809.36 39.075 1806.41 35.4697 Q1803.49 31.8644 1803.49 26.6793 Q1803.49 19.4281 1808.63 15.2152 Q1813.82 11.0023 1822.81 11.0023 Q1831.85 11.0023 1836.99 15.2152 Q1842.14 19.4281 1842.14 26.6793 Q1842.14 31.8644 1839.18 35.4697 Q1836.26 39.075 1831.04 40.3713 Q1836.95 41.7486 1840.23 45.759 Q1843.55 49.7694 1843.55 55.5622 Q1843.55 64.3527 1838.17 69.0517 Q1832.82 73.7508 1822.81 73.7508 Q1812.81 73.7508 1807.42 69.0517 Q1802.07 64.3527 1802.07 55.5622 Q1802.07 49.7694 1805.39 45.759 Q1808.72 41.7486 1814.63 40.3713 M1811.63 27.4489 Q1811.63 32.148 1814.55 34.7811 Q1817.51 37.4142 1822.81 37.4142 Q1828.08 37.4142 1831.04 34.7811 Q1834.03 32.148 1834.03 27.4489 Q1834.03 22.7499 1831.04 20.1168 Q1828.08 17.4837 1822.81 17.4837 Q1817.51 17.4837 1814.55 20.1168 Q1811.63 22.7499 1811.63 27.4489 Z" fill="#000000" fill-rule="nonzero" fill-opacity="1" /><path clip-path="url(#clip050)" d="M1855.87 9.62495 L1862.35 9.62495 Q1868.43 19.1851 1871.42 28.3401 Q1874.46 37.4952 1874.46 46.5287 Q1874.46 55.6027 1871.42 64.7983 Q1868.43 73.9938 1862.35 83.5134 L1855.87 83.5134 Q1861.26 74.2369 1863.89 65.0818 Q1866.56 55.8863 1866.56 46.5287 Q1866.56 37.1711 1863.89 28.0566 Q1861.26 18.942 1855.87 9.62495 Z" fill="#000000" fill-rule="nonzero" fill-opacity="1" /><polyline clip-path="url(#clip051)" style="stroke:#009af9; stroke-linecap:round; stroke-linejoin:round; stroke-width:8; stroke-opacity:1; fill:none" points="279.916,160.256 424.977,344.514 501.073,710.034 562.658,1386.4 616.254,1147.46 664.609,1309.25 709.206,1169.93 750.957,1237.34 790.475,751.979 828.193,1273.29 864.433,895.79 899.443,428.404 933.42,722.018 966.524,757.971 998.886,1045.59 1030.62,800.665 1061.82,464.357 1092.57,638.129 1122.95,835.869 1153.02,793.924 1182.85,1141.47 1212.49,1333.96 1242.01,576.709 1271.44,452.373 1300.85,865.829 1330.29,1057.58 1359.8,320.546 1389.45,769.955 1419.28,845.606 1449.35,1005.9 1479.73,930.994 1510.48,1339.21 1541.68,820.889 1573.41,799.916 1605.77,1147.46 1638.88,617.905 1672.85,590.192 1707.87,650.113 1744.11,1171.43 1781.82,1027.62 1821.34,1159.44 1863.09,883.806 1907.69,338.522 1956.04,429.902 2009.64,907.774 2071.23,706.289 2147.32,805.908 2292.38,1222.36 "/>
<circle clip-path="url(#clip051)" cx="279.916" cy="160.256" r="10.8" fill="#009af9" fill-rule="evenodd" fill-opacity="1" stroke="#000000" stroke-opacity="1" stroke-width="3.2"/>
<circle clip-path="url(#clip051)" cx="424.977" cy="344.514" r="10.8" fill="#009af9" fill-rule="evenodd" fill-opacity="1" stroke="#000000" stroke-opacity="1" stroke-width="3.2"/>
<circle clip-path="url(#clip051)" cx="501.073" cy="710.034" r="10.8" fill="#009af9" fill-rule="evenodd" fill-opacity="1" stroke="#000000" stroke-opacity="1" stroke-width="3.2"/>
<circle clip-path="url(#clip051)" cx="562.658" cy="1386.4" r="10.8" fill="#009af9" fill-rule="evenodd" fill-opacity="1" stroke="#000000" stroke-opacity="1" stroke-width="3.2"/>
<circle clip-path="url(#clip051)" cx="616.254" cy="1147.46" r="10.8" fill="#009af9" fill-rule="evenodd" fill-opacity="1" stroke="#000000" stroke-opacity="1" stroke-width="3.2"/>
<circle clip-path="url(#clip051)" cx="664.609" cy="1309.25" r="10.8" fill="#009af9" fill-rule="evenodd" fill-opacity="1" stroke="#000000" stroke-opacity="1" stroke-width="3.2"/>
<circle clip-path="url(#clip051)" cx="709.206" cy="1169.93" r="10.8" fill="#009af9" fill-rule="evenodd" fill-opacity="1" stroke="#000000" stroke-opacity="1" stroke-width="3.2"/>
<circle clip-path="url(#clip051)" cx="750.957" cy="1237.34" r="10.8" fill="#009af9" fill-rule="evenodd" fill-opacity="1" stroke="#000000" stroke-opacity="1" stroke-width="3.2"/>
<circle clip-path="url(#clip051)" cx="790.475" cy="751.979" r="10.8" fill="#009af9" fill-rule="evenodd" fill-opacity="1" stroke="#000000" stroke-opacity="1" stroke-width="3.2"/>
<circle clip-path="url(#clip051)" cx="828.193" cy="1273.29" r="10.8" fill="#009af9" fill-rule="evenodd" fill-opacity="1" stroke="#000000" stroke-opacity="1" stroke-width="3.2"/>
<circle clip-path="url(#clip051)" cx="864.433" cy="895.79" r="10.8" fill="#009af9" fill-rule="evenodd" fill-opacity="1" stroke="#000000" stroke-opacity="1" stroke-width="3.2"/>
<circle clip-path="url(#clip051)" cx="899.443" cy="428.404" r="10.8" fill="#009af9" fill-rule="evenodd" fill-opacity="1" stroke="#000000" stroke-opacity="1" stroke-width="3.2"/>
<circle clip-path="url(#clip051)" cx="933.42" cy="722.018" r="10.8" fill="#009af9" fill-rule="evenodd" fill-opacity="1" stroke="#000000" stroke-opacity="1" stroke-width="3.2"/>
<circle clip-path="url(#clip051)" cx="966.524" cy="757.971" r="10.8" fill="#009af9" fill-rule="evenodd" fill-opacity="1" stroke="#000000" stroke-opacity="1" stroke-width="3.2"/>
<circle clip-path="url(#clip051)" cx="998.886" cy="1045.59" r="10.8" fill="#009af9" fill-rule="evenodd" fill-opacity="1" stroke="#000000" stroke-opacity="1" stroke-width="3.2"/>
<circle clip-path="url(#clip051)" cx="1030.62" cy="800.665" r="10.8" fill="#009af9" fill-rule="evenodd" fill-opacity="1" stroke="#000000" stroke-opacity="1" stroke-width="3.2"/>
<circle clip-path="url(#clip051)" cx="1061.82" cy="464.357" r="10.8" fill="#009af9" fill-rule="evenodd" fill-opacity="1" stroke="#000000" stroke-opacity="1" stroke-width="3.2"/>
<circle clip-path="url(#clip051)" cx="1092.57" cy="638.129" r="10.8" fill="#009af9" fill-rule="evenodd" fill-opacity="1" stroke="#000000" stroke-opacity="1" stroke-width="3.2"/>
<circle clip-path="url(#clip051)" cx="1122.95" cy="835.869" r="10.8" fill="#009af9" fill-rule="evenodd" fill-opacity="1" stroke="#000000" stroke-opacity="1" stroke-width="3.2"/>
<circle clip-path="url(#clip051)" cx="1153.02" cy="793.924" r="10.8" fill="#009af9" fill-rule="evenodd" fill-opacity="1" stroke="#000000" stroke-opacity="1" stroke-width="3.2"/>
<circle clip-path="url(#clip051)" cx="1182.85" cy="1141.47" r="10.8" fill="#009af9" fill-rule="evenodd" fill-opacity="1" stroke="#000000" stroke-opacity="1" stroke-width="3.2"/>
<circle clip-path="url(#clip051)" cx="1212.49" cy="1333.96" r="10.8" fill="#009af9" fill-rule="evenodd" fill-opacity="1" stroke="#000000" stroke-opacity="1" stroke-width="3.2"/>
<circle clip-path="url(#clip051)" cx="1242.01" cy="576.709" r="10.8" fill="#009af9" fill-rule="evenodd" fill-opacity="1" stroke="#000000" stroke-opacity="1" stroke-width="3.2"/>
<circle clip-path="url(#clip051)" cx="1271.44" cy="452.373" r="10.8" fill="#009af9" fill-rule="evenodd" fill-opacity="1" stroke="#000000" stroke-opacity="1" stroke-width="3.2"/>
<circle clip-path="url(#clip051)" cx="1300.85" cy="865.829" r="10.8" fill="#009af9" fill-rule="evenodd" fill-opacity="1" stroke="#000000" stroke-opacity="1" stroke-width="3.2"/>
<circle clip-path="url(#clip051)" cx="1330.29" cy="1057.58" r="10.8" fill="#009af9" fill-rule="evenodd" fill-opacity="1" stroke="#000000" stroke-opacity="1" stroke-width="3.2"/>
<circle clip-path="url(#clip051)" cx="1359.8" cy="320.546" r="10.8" fill="#009af9" fill-rule="evenodd" fill-opacity="1" stroke="#000000" stroke-opacity="1" stroke-width="3.2"/>
<circle clip-path="url(#clip051)" cx="1389.45" cy="769.955" r="10.8" fill="#009af9" fill-rule="evenodd" fill-opacity="1" stroke="#000000" stroke-opacity="1" stroke-width="3.2"/>
<circle clip-path="url(#clip051)" cx="1419.28" cy="845.606" r="10.8" fill="#009af9" fill-rule="evenodd" fill-opacity="1" stroke="#000000" stroke-opacity="1" stroke-width="3.2"/>
<circle clip-path="url(#clip051)" cx="1449.35" cy="1005.9" r="10.8" fill="#009af9" fill-rule="evenodd" fill-opacity="1" stroke="#000000" stroke-opacity="1" stroke-width="3.2"/>
<circle clip-path="url(#clip051)" cx="1479.73" cy="930.994" r="10.8" fill="#009af9" fill-rule="evenodd" fill-opacity="1" stroke="#000000" stroke-opacity="1" stroke-width="3.2"/>
<circle clip-path="url(#clip051)" cx="1510.48" cy="1339.21" r="10.8" fill="#009af9" fill-rule="evenodd" fill-opacity="1" stroke="#000000" stroke-opacity="1" stroke-width="3.2"/>
<circle clip-path="url(#clip051)" cx="1541.68" cy="820.889" r="10.8" fill="#009af9" fill-rule="evenodd" fill-opacity="1" stroke="#000000" stroke-opacity="1" stroke-width="3.2"/>
<circle clip-path="url(#clip051)" cx="1573.41" cy="799.916" r="10.8" fill="#009af9" fill-rule="evenodd" fill-opacity="1" stroke="#000000" stroke-opacity="1" stroke-width="3.2"/>
<circle clip-path="url(#clip051)" cx="1605.77" cy="1147.46" r="10.8" fill="#009af9" fill-rule="evenodd" fill-opacity="1" stroke="#000000" stroke-opacity="1" stroke-width="3.2"/>
<circle clip-path="url(#clip051)" cx="1638.88" cy="617.905" r="10.8" fill="#009af9" fill-rule="evenodd" fill-opacity="1" stroke="#000000" stroke-opacity="1" stroke-width="3.2"/>
<circle clip-path="url(#clip051)" cx="1672.85" cy="590.192" r="10.8" fill="#009af9" fill-rule="evenodd" fill-opacity="1" stroke="#000000" stroke-opacity="1" stroke-width="3.2"/>
<circle clip-path="url(#clip051)" cx="1707.87" cy="650.113" r="10.8" fill="#009af9" fill-rule="evenodd" fill-opacity="1" stroke="#000000" stroke-opacity="1" stroke-width="3.2"/>
<circle clip-path="url(#clip051)" cx="1744.11" cy="1171.43" r="10.8" fill="#009af9" fill-rule="evenodd" fill-opacity="1" stroke="#000000" stroke-opacity="1" stroke-width="3.2"/>
<circle clip-path="url(#clip051)" cx="1781.82" cy="1027.62" r="10.8" fill="#009af9" fill-rule="evenodd" fill-opacity="1" stroke="#000000" stroke-opacity="1" stroke-width="3.2"/>
<circle clip-path="url(#clip051)" cx="1821.34" cy="1159.44" r="10.8" fill="#009af9" fill-rule="evenodd" fill-opacity="1" stroke="#000000" stroke-opacity="1" stroke-width="3.2"/>
<circle clip-path="url(#clip051)" cx="1863.09" cy="883.806" r="10.8" fill="#009af9" fill-rule="evenodd" fill-opacity="1" stroke="#000000" stroke-opacity="1" stroke-width="3.2"/>
<circle clip-path="url(#clip051)" cx="1907.69" cy="338.522" r="10.8" fill="#009af9" fill-rule="evenodd" fill-opacity="1" stroke="#000000" stroke-opacity="1" stroke-width="3.2"/>
<circle clip-path="url(#clip051)" cx="1956.04" cy="429.902" r="10.8" fill="#009af9" fill-rule="evenodd" fill-opacity="1" stroke="#000000" stroke-opacity="1" stroke-width="3.2"/>
<circle clip-path="url(#clip051)" cx="2009.64" cy="907.774" r="10.8" fill="#009af9" fill-rule="evenodd" fill-opacity="1" stroke="#000000" stroke-opacity="1" stroke-width="3.2"/>
<circle clip-path="url(#clip051)" cx="2071.23" cy="706.289" r="10.8" fill="#009af9" fill-rule="evenodd" fill-opacity="1" stroke="#000000" stroke-opacity="1" stroke-width="3.2"/>
<circle clip-path="url(#clip051)" cx="2147.32" cy="805.908" r="10.8" fill="#009af9" fill-rule="evenodd" fill-opacity="1" stroke="#000000" stroke-opacity="1" stroke-width="3.2"/>
<circle clip-path="url(#clip051)" cx="2292.38" cy="1222.36" r="10.8" fill="#009af9" fill-rule="evenodd" fill-opacity="1" stroke="#000000" stroke-opacity="1" stroke-width="3.2"/>
<polyline clip-path="url(#clip051)" style="stroke:#e26f46; stroke-linecap:round; stroke-linejoin:round; stroke-width:4; stroke-opacity:1; fill:none" stroke-dasharray="16, 10" points="-1913.67,849.85 4485.97,849.85 "/>
<path clip-path="url(#clip050)" d="M1840.09 322.316 L2281.65 322.316 L2281.65 166.796 L1840.09 166.796  Z" fill="#ffffff" fill-rule="evenodd" fill-opacity="1"/>
<polyline clip-path="url(#clip050)" style="stroke:#000000; stroke-linecap:round; stroke-linejoin:round; stroke-width:4; stroke-opacity:1; fill:none" points="1840.09,322.316 2281.65,322.316 2281.65,166.796 1840.09,166.796 1840.09,322.316 "/>
<polyline clip-path="url(#clip050)" style="stroke:#009af9; stroke-linecap:round; stroke-linejoin:round; stroke-width:8; stroke-opacity:1; fill:none" points="1863.79,218.636 2006,218.636 "/>
<circle clip-path="url(#clip050)" cx="1934.9" cy="218.636" r="19.7486" fill="#009af9" fill-rule="evenodd" fill-opacity="1" stroke="#000000" stroke-opacity="1" stroke-width="5.85143"/>
<path clip-path="url(#clip050)" d="M2050.05 214.967 Q2051.65 212.096 2053.87 210.731 Q2056.1 209.365 2059.1 209.365 Q2063.16 209.365 2065.35 212.212 Q2067.55 215.036 2067.55 220.268 L2067.55 235.916 L2063.27 235.916 L2063.27 220.407 Q2063.27 216.68 2061.95 214.874 Q2060.63 213.069 2057.92 213.069 Q2054.61 213.069 2052.69 215.268 Q2050.77 217.467 2050.77 221.263 L2050.77 235.916 L2046.49 235.916 L2046.49 220.407 Q2046.49 216.657 2045.17 214.874 Q2043.85 213.069 2041.1 213.069 Q2037.83 213.069 2035.91 215.291 Q2033.99 217.49 2033.99 221.263 L2033.99 235.916 L2029.71 235.916 L2029.71 209.99 L2033.99 209.99 L2033.99 214.018 Q2035.45 211.633 2037.48 210.499 Q2039.52 209.365 2042.32 209.365 Q2045.15 209.365 2047.11 210.8 Q2049.1 212.235 2050.05 214.967 Z" fill="#000000" fill-rule="nonzero" fill-opacity="1" /><path clip-path="url(#clip050)" d="M2098.23 221.888 L2098.23 223.971 L2078.64 223.971 Q2078.92 228.369 2081.28 230.684 Q2083.66 232.976 2087.9 232.976 Q2090.35 232.976 2092.65 232.374 Q2094.96 231.772 2097.23 230.569 L2097.23 234.596 Q2094.94 235.568 2092.53 236.078 Q2090.12 236.587 2087.65 236.587 Q2081.44 236.587 2077.81 232.976 Q2074.2 229.365 2074.2 223.207 Q2074.2 216.842 2077.62 213.115 Q2081.07 209.365 2086.91 209.365 Q2092.14 209.365 2095.17 212.745 Q2098.23 216.101 2098.23 221.888 M2093.97 220.638 Q2093.92 217.143 2092 215.059 Q2090.1 212.976 2086.95 212.976 Q2083.39 212.976 2081.23 214.99 Q2079.1 217.004 2078.78 220.661 L2093.97 220.638 Z" fill="#000000" fill-rule="nonzero" fill-opacity="1" /><path clip-path="url(#clip050)" d="M2117 222.883 Q2111.84 222.883 2109.85 224.064 Q2107.85 225.244 2107.85 228.092 Q2107.85 230.36 2109.34 231.703 Q2110.84 233.022 2113.41 233.022 Q2116.95 233.022 2119.08 230.522 Q2121.23 227.999 2121.23 223.832 L2121.23 222.883 L2117 222.883 M2125.49 221.124 L2125.49 235.916 L2121.23 235.916 L2121.23 231.981 Q2119.78 234.342 2117.6 235.476 Q2115.42 236.587 2112.28 236.587 Q2108.29 236.587 2105.93 234.365 Q2103.6 232.119 2103.6 228.369 Q2103.6 223.994 2106.51 221.772 Q2109.45 219.55 2115.26 219.55 L2121.23 219.55 L2121.23 219.133 Q2121.23 216.194 2119.29 214.596 Q2117.37 212.976 2113.87 212.976 Q2111.65 212.976 2109.54 213.508 Q2107.44 214.041 2105.49 215.106 L2105.49 211.17 Q2107.83 210.268 2110.03 209.828 Q2112.23 209.365 2114.31 209.365 Q2119.94 209.365 2122.72 212.282 Q2125.49 215.198 2125.49 221.124 Z" fill="#000000" fill-rule="nonzero" fill-opacity="1" /><path clip-path="url(#clip050)" d="M2150.79 210.754 L2150.79 214.782 Q2148.99 213.856 2147.04 213.393 Q2145.1 212.93 2143.02 212.93 Q2139.85 212.93 2138.25 213.902 Q2136.67 214.874 2136.67 216.819 Q2136.67 218.3 2137.81 219.157 Q2138.94 219.99 2142.37 220.754 L2143.83 221.078 Q2148.36 222.05 2150.26 223.832 Q2152.18 225.592 2152.18 228.763 Q2152.18 232.374 2149.31 234.481 Q2146.47 236.587 2141.47 236.587 Q2139.38 236.587 2137.11 236.17 Q2134.87 235.777 2132.37 234.967 L2132.37 230.569 Q2134.73 231.795 2137.02 232.42 Q2139.31 233.022 2141.56 233.022 Q2144.57 233.022 2146.19 232.004 Q2147.81 230.962 2147.81 229.087 Q2147.81 227.351 2146.63 226.425 Q2145.47 225.499 2141.51 224.643 L2140.03 224.295 Q2136.07 223.462 2134.31 221.749 Q2132.55 220.013 2132.55 217.004 Q2132.55 213.346 2135.15 211.356 Q2137.74 209.365 2142.51 209.365 Q2144.87 209.365 2146.95 209.712 Q2149.03 210.059 2150.79 210.754 Z" fill="#000000" fill-rule="nonzero" fill-opacity="1" /><path clip-path="url(#clip050)" d="M2158.53 225.684 L2158.53 209.99 L2162.78 209.99 L2162.78 225.522 Q2162.78 229.203 2164.22 231.055 Q2165.66 232.883 2168.53 232.883 Q2171.97 232.883 2173.97 230.684 Q2175.98 228.485 2175.98 224.689 L2175.98 209.99 L2180.24 209.99 L2180.24 235.916 L2175.98 235.916 L2175.98 231.934 Q2174.43 234.295 2172.37 235.453 Q2170.33 236.587 2167.62 236.587 Q2163.16 236.587 2160.84 233.809 Q2158.53 231.031 2158.53 225.684 M2169.24 209.365 L2169.24 209.365 Z" fill="#000000" fill-rule="nonzero" fill-opacity="1" /><path clip-path="url(#clip050)" d="M2204.03 213.971 Q2203.32 213.555 2202.46 213.37 Q2201.63 213.161 2200.61 213.161 Q2197 213.161 2195.05 215.522 Q2193.13 217.86 2193.13 222.258 L2193.13 235.916 L2188.85 235.916 L2188.85 209.99 L2193.13 209.99 L2193.13 214.018 Q2194.47 211.657 2196.63 210.522 Q2198.78 209.365 2201.86 209.365 Q2202.3 209.365 2202.83 209.434 Q2203.36 209.481 2204.01 209.596 L2204.03 213.971 Z" fill="#000000" fill-rule="nonzero" fill-opacity="1" /><path clip-path="url(#clip050)" d="M2229.64 221.888 L2229.64 223.971 L2210.05 223.971 Q2210.33 228.369 2212.69 230.684 Q2215.08 232.976 2219.31 232.976 Q2221.77 232.976 2224.06 232.374 Q2226.37 231.772 2228.64 230.569 L2228.64 234.596 Q2226.35 235.568 2223.94 236.078 Q2221.53 236.587 2219.06 236.587 Q2212.85 236.587 2209.22 232.976 Q2205.61 229.365 2205.61 223.207 Q2205.61 216.842 2209.03 213.115 Q2212.48 209.365 2218.32 209.365 Q2223.55 209.365 2226.58 212.745 Q2229.64 216.101 2229.64 221.888 M2225.38 220.638 Q2225.33 217.143 2223.41 215.059 Q2221.51 212.976 2218.36 212.976 Q2214.8 212.976 2212.65 214.99 Q2210.52 217.004 2210.19 220.661 L2225.38 220.638 Z" fill="#000000" fill-rule="nonzero" fill-opacity="1" /><path clip-path="url(#clip050)" d="M2253.69 213.925 L2253.69 199.897 L2257.95 199.897 L2257.95 235.916 L2253.69 235.916 L2253.69 232.027 Q2252.34 234.342 2250.28 235.476 Q2248.25 236.587 2245.38 236.587 Q2240.68 236.587 2237.72 232.837 Q2234.78 229.087 2234.78 222.976 Q2234.78 216.865 2237.72 213.115 Q2240.68 209.365 2245.38 209.365 Q2248.25 209.365 2250.28 210.499 Q2252.34 211.61 2253.69 213.925 M2239.17 222.976 Q2239.17 227.675 2241.09 230.36 Q2243.04 233.022 2246.42 233.022 Q2249.8 233.022 2251.74 230.36 Q2253.69 227.675 2253.69 222.976 Q2253.69 218.277 2251.74 215.615 Q2249.8 212.93 2246.42 212.93 Q2243.04 212.93 2241.09 215.615 Q2239.17 218.277 2239.17 222.976 Z" fill="#000000" fill-rule="nonzero" fill-opacity="1" /><polyline clip-path="url(#clip050)" style="stroke:#e26f46; stroke-linecap:round; stroke-linejoin:round; stroke-width:4; stroke-opacity:1; fill:none" stroke-dasharray="16, 10" points="1863.79,270.476 2006,270.476 "/>
<path clip-path="url(#clip050)" d="M2029.71 253.196 L2036 253.196 L2051.33 282.108 L2051.33 253.196 L2055.86 253.196 L2055.86 287.756 L2049.57 287.756 L2034.24 258.844 L2034.24 287.756 L2029.71 287.756 L2029.71 253.196 Z" fill="#000000" fill-rule="nonzero" fill-opacity="1" /><path clip-path="url(#clip050)" d="M2087.62 253.196 L2091.56 253.196 L2079.52 292.154 L2075.59 292.154 L2087.62 253.196 Z" fill="#000000" fill-rule="nonzero" fill-opacity="1" /><path clip-path="url(#clip050)" d="M2124.54 257.27 L2112.74 275.719 L2124.54 275.719 L2124.54 257.27 M2123.32 253.196 L2129.2 253.196 L2129.2 275.719 L2134.13 275.719 L2134.13 279.608 L2129.2 279.608 L2129.2 287.756 L2124.54 287.756 L2124.54 279.608 L2108.94 279.608 L2108.94 275.094 L2123.32 253.196 Z" fill="#000000" fill-rule="nonzero" fill-opacity="1" /><path clip-path="url(#clip050)" d="M2138.5 261.83 L2163.34 261.83 L2163.34 266.089 L2160.08 266.089 L2160.08 282.015 Q2160.08 283.682 2160.63 284.422 Q2161.21 285.14 2162.48 285.14 Q2162.83 285.14 2163.34 285.094 Q2163.85 285.024 2164.01 285.001 L2164.01 288.08 Q2163.2 288.381 2162.35 288.52 Q2161.49 288.658 2160.63 288.658 Q2157.85 288.658 2156.79 287.154 Q2155.72 285.626 2155.72 281.552 L2155.72 266.089 L2146.16 266.089 L2146.16 287.756 L2141.81 287.756 L2141.81 266.089 L2138.5 266.089 L2138.5 261.83 Z" fill="#000000" fill-rule="nonzero" fill-opacity="1" /></svg>
