<?xml version="1.0" encoding="utf-8"?>
<svg xmlns="http://www.w3.org/2000/svg" xmlns:xlink="http://www.w3.org/1999/xlink" width="600" height="400" viewBox="0 0 2400 1600">
<defs>
  <clipPath id="clip140">
    <rect x="0" y="0" width="2400" height="1600"/>
  </clipPath>
</defs>
<path clip-path="url(#clip140)" d="M0 1600 L2400 1600 L2400 0 L0 0  Z" fill="#ffffff" fill-rule="evenodd" fill-opacity="1"/>
<defs>
  <clipPath id="clip141">
    <rect x="249" y="123" width="2104" height="1301"/>
  </clipPath>
</defs>
<path clip-path="url(#clip140)" d="M249.542 1423.18 L2352.76 1423.18 L2352.76 123.472 L249.542 123.472  Z" fill="#ffffff" fill-rule="evenodd" fill-opacity="1"/>
<polyline clip-path="url(#clip141)" style="stroke:#000000; stroke-linecap:round; stroke-linejoin:round; stroke-width:2; stroke-opacity:0.1; fill:none" points="283.629,1423.18 283.629,123.472 "/>
<polyline clip-path="url(#clip141)" style="stroke:#000000; stroke-linecap:round; stroke-linejoin:round; stroke-width:2; stroke-opacity:0.1; fill:none" points="792.389,1423.18 792.389,123.472 "/>
<polyline clip-path="url(#clip141)" style="stroke:#000000; stroke-linecap:round; stroke-linejoin:round; stroke-width:2; stroke-opacity:0.1; fill:none" points="1301.15,1423.18 1301.15,123.472 "/>
<polyline clip-path="url(#clip141)" style="stroke:#000000; stroke-linecap:round; stroke-linejoin:round; stroke-width:2; stroke-opacity:0.1; fill:none" points="1809.91,1423.18 1809.91,123.472 "/>
<polyline clip-path="url(#clip141)" style="stroke:#000000; stroke-linecap:round; stroke-linejoin:round; stroke-width:2; stroke-opacity:0.1; fill:none" points="2318.67,1423.18 2318.67,123.472 "/>
<polyline clip-path="url(#clip141)" style="stroke:#000000; stroke-linecap:round; stroke-linejoin:round; stroke-width:2; stroke-opacity:0.1; fill:none" points="249.542,1386.4 2352.76,1386.4 "/>
<polyline clip-path="url(#clip141)" style="stroke:#000000; stroke-linecap:round; stroke-linejoin:round; stroke-width:2; stroke-opacity:0.1; fill:none" points="249.542,1132.7 2352.76,1132.7 "/>
<polyline clip-path="url(#clip141)" style="stroke:#000000; stroke-linecap:round; stroke-linejoin:round; stroke-width:2; stroke-opacity:0.1; fill:none" points="249.542,879.014 2352.76,879.014 "/>
<polyline clip-path="url(#clip141)" style="stroke:#000000; stroke-linecap:round; stroke-linejoin:round; stroke-width:2; stroke-opacity:0.1; fill:none" points="249.542,625.323 2352.76,625.323 "/>
<polyline clip-path="url(#clip141)" style="stroke:#000000; stroke-linecap:round; stroke-linejoin:round; stroke-width:2; stroke-opacity:0.1; fill:none" points="249.542,371.632 2352.76,371.632 "/>
<polyline clip-path="url(#clip140)" style="stroke:#000000; stroke-linecap:round; stroke-linejoin:round; stroke-width:4; stroke-opacity:1; fill:none" points="249.542,1423.18 2352.76,1423.18 "/>
<polyline clip-path="url(#clip140)" style="stroke:#000000; stroke-linecap:round; stroke-linejoin:round; stroke-width:4; stroke-opacity:1; fill:none" points="283.629,1423.18 283.629,1404.28 "/>
<polyline clip-path="url(#clip140)" style="stroke:#000000; stroke-linecap:round; stroke-linejoin:round; stroke-width:4; stroke-opacity:1; fill:none" points="792.389,1423.18 792.389,1404.28 "/>
<polyline clip-path="url(#clip140)" style="stroke:#000000; stroke-linecap:round; stroke-linejoin:round; stroke-width:4; stroke-opacity:1; fill:none" points="1301.15,1423.18 1301.15,1404.28 "/>
<polyline clip-path="url(#clip140)" style="stroke:#000000; stroke-linecap:round; stroke-linejoin:round; stroke-width:4; stroke-opacity:1; fill:none" points="1809.91,1423.18 1809.91,1404.28 "/>
<polyline clip-path="url(#clip140)" style="stroke:#000000; stroke-linecap:round; stroke-linejoin:round; stroke-width:4; stroke-opacity:1; fill:none" points="2318.67,1423.18 2318.67,1404.28 "/>
<path clip-path="url(#clip140)" d="M261.013 1454.1 Q257.402 1454.1 255.574 1457.66 Q253.768 1461.2 253.768 1468.33 Q253.768 1475.44 255.574 1479.01 Q257.402 1482.55 261.013 1482.55 Q264.648 1482.55 266.453 1479.01 Q268.282 1475.44 268.282 1468.33 Q268.282 1461.2 266.453 1457.66 Q264.648 1454.1 261.013 1454.1 M261.013 1450.39 Q266.823 1450.39 269.879 1455 Q272.958 1459.58 272.958 1468.33 Q272.958 1477.06 269.879 1481.67 Q266.823 1486.25 261.013 1486.25 Q255.203 1486.25 252.124 1481.67 Q249.069 1477.06 249.069 1468.33 Q249.069 1459.58 252.124 1455 Q255.203 1450.39 261.013 1450.39 Z" fill="#000000" fill-rule="nonzero" fill-opacity="1" /><path clip-path="url(#clip140)" d="M281.175 1479.7 L286.059 1479.7 L286.059 1485.58 L281.175 1485.58 L281.175 1479.7 Z" fill="#000000" fill-rule="nonzero" fill-opacity="1" /><path clip-path="url(#clip140)" d="M306.245 1454.1 Q302.633 1454.1 300.805 1457.66 Q298.999 1461.2 298.999 1468.33 Q298.999 1475.44 300.805 1479.01 Q302.633 1482.55 306.245 1482.55 Q309.879 1482.55 311.684 1479.01 Q313.513 1475.44 313.513 1468.33 Q313.513 1461.2 311.684 1457.66 Q309.879 1454.1 306.245 1454.1 M306.245 1450.39 Q312.055 1450.39 315.11 1455 Q318.189 1459.58 318.189 1468.33 Q318.189 1477.06 315.11 1481.67 Q312.055 1486.25 306.245 1486.25 Q300.434 1486.25 297.356 1481.67 Q294.3 1477.06 294.3 1468.33 Q294.3 1459.58 297.356 1455 Q300.434 1450.39 306.245 1450.39 Z" fill="#000000" fill-rule="nonzero" fill-opacity="1" /><path clip-path="url(#clip140)" d="M770.271 1454.1 Q766.66 1454.1 764.831 1457.66 Q763.026 1461.2 763.026 1468.33 Q763.026 1475.44 764.831 1479.01 Q766.66 1482.55 770.271 1482.55 Q773.905 1482.55 775.711 1479.01 Q777.54 1475.44 777.54 1468.33 Q777.54 1461.2 775.711 1457.66 Q773.905 1454.1 770.271 1454.1 M770.271 1450.39 Q776.081 1450.39 779.137 1455 Q782.215 1459.58 782.215 1468.33 Q782.215 1477.06 779.137 1481.67 Q776.081 1486.25 770.271 1486.25 Q764.461 1486.25 761.382 1481.67 Q758.327 1477.06 758.327 1468.33 Q758.327 1459.58 761.382 1455 Q764.461 1450.39 770.271 1450.39 Z" fill="#000000" fill-rule="nonzero" fill-opacity="1" /><path clip-path="url(#clip140)" d="M790.433 1479.7 L795.317 1479.7 L795.317 1485.58 L790.433 1485.58 L790.433 1479.7 Z" fill="#000000" fill-rule="nonzero" fill-opacity="1" /><path clip-path="url(#clip140)" d="M805.549 1451.02 L823.905 1451.02 L823.905 1454.96 L809.831 1454.96 L809.831 1463.43 Q810.85 1463.08 811.868 1462.92 Q812.887 1462.73 813.905 1462.73 Q819.692 1462.73 823.072 1465.9 Q826.451 1469.08 826.451 1474.49 Q826.451 1480.07 822.979 1483.17 Q819.507 1486.25 813.187 1486.25 Q811.012 1486.25 808.743 1485.88 Q806.498 1485.51 804.09 1484.77 L804.09 1480.07 Q806.174 1481.2 808.396 1481.76 Q810.618 1482.32 813.095 1482.32 Q817.099 1482.32 819.437 1480.21 Q821.775 1478.1 821.775 1474.49 Q821.775 1470.88 819.437 1468.77 Q817.099 1466.67 813.095 1466.67 Q811.22 1466.67 809.345 1467.08 Q807.493 1467.5 805.549 1468.38 L805.549 1451.02 Z" fill="#000000" fill-rule="nonzero" fill-opacity="1" /><path clip-path="url(#clip140)" d="M1268.3 1481.64 L1275.94 1481.64 L1275.94 1455.28 L1267.63 1456.95 L1267.63 1452.69 L1275.89 1451.02 L1280.57 1451.02 L1280.57 1481.64 L1288.21 1481.64 L1288.21 1485.58 L1268.3 1485.58 L1268.3 1481.64 Z" fill="#000000" fill-rule="nonzero" fill-opacity="1" /><path clip-path="url(#clip140)" d="M1297.65 1479.7 L1302.54 1479.7 L1302.54 1485.58 L1297.65 1485.58 L1297.65 1479.7 Z" fill="#000000" fill-rule="nonzero" fill-opacity="1" /><path clip-path="url(#clip140)" d="M1322.72 1454.1 Q1319.11 1454.1 1317.28 1457.66 Q1315.48 1461.2 1315.48 1468.33 Q1315.48 1475.44 1317.28 1479.01 Q1319.11 1482.55 1322.72 1482.55 Q1326.36 1482.55 1328.16 1479.01 Q1329.99 1475.44 1329.99 1468.33 Q1329.99 1461.2 1328.16 1457.66 Q1326.36 1454.1 1322.72 1454.1 M1322.72 1450.39 Q1328.53 1450.39 1331.59 1455 Q1334.67 1459.58 1334.67 1468.33 Q1334.67 1477.06 1331.59 1481.67 Q1328.53 1486.25 1322.72 1486.25 Q1316.91 1486.25 1313.83 1481.67 Q1310.78 1477.06 1310.78 1468.33 Q1310.78 1459.58 1313.83 1455 Q1316.91 1450.39 1322.72 1450.39 Z" fill="#000000" fill-rule="nonzero" fill-opacity="1" /><path clip-path="url(#clip140)" d="M1777.56 1481.64 L1785.2 1481.64 L1785.2 1455.28 L1776.89 1456.95 L1776.89 1452.69 L1785.15 1451.02 L1789.83 1451.02 L1789.83 1481.64 L1797.47 1481.64 L1797.47 1485.58 L1777.56 1485.58 L1777.56 1481.64 Z" fill="#000000" fill-rule="nonzero" fill-opacity="1" /><path clip-path="url(#clip140)" d="M1806.91 1479.7 L1811.8 1479.7 L1811.8 1485.58 L1806.91 1485.58 L1806.91 1479.7 Z" fill="#000000" fill-rule="nonzero" fill-opacity="1" /><path clip-path="url(#clip140)" d="M1822.03 1451.02 L1840.38 1451.02 L1840.38 1454.96 L1826.31 1454.96 L1826.31 1463.43 Q1827.33 1463.08 1828.35 1462.92 Q1829.36 1462.73 1830.38 1462.73 Q1836.17 1462.73 1839.55 1465.9 Q1842.93 1469.08 1842.93 1474.49 Q1842.93 1480.07 1839.46 1483.17 Q1835.99 1486.25 1829.67 1486.25 Q1827.49 1486.25 1825.22 1485.88 Q1822.98 1485.51 1820.57 1484.77 L1820.57 1480.07 Q1822.65 1481.2 1824.87 1481.76 Q1827.1 1482.32 1829.57 1482.32 Q1833.58 1482.32 1835.92 1480.21 Q1838.25 1478.1 1838.25 1474.49 Q1838.25 1470.88 1835.92 1468.77 Q1833.58 1466.67 1829.57 1466.67 Q1827.7 1466.67 1825.82 1467.08 Q1823.97 1467.5 1822.03 1468.38 L1822.03 1451.02 Z" fill="#000000" fill-rule="nonzero" fill-opacity="1" /><path clip-path="url(#clip140)" d="M2289.91 1481.64 L2306.23 1481.64 L2306.23 1485.58 L2284.28 1485.58 L2284.28 1481.64 Q2286.94 1478.89 2291.53 1474.26 Q2296.13 1469.61 2297.31 1468.27 Q2299.56 1465.74 2300.44 1464.01 Q2301.34 1462.25 2301.34 1460.56 Q2301.34 1457.8 2299.4 1456.07 Q2297.48 1454.33 2294.38 1454.33 Q2292.18 1454.33 2289.72 1455.09 Q2287.29 1455.86 2284.51 1457.41 L2284.51 1452.69 Q2287.34 1451.55 2289.79 1450.97 Q2292.25 1450.39 2294.28 1450.39 Q2299.65 1450.39 2302.85 1453.08 Q2306.04 1455.77 2306.04 1460.26 Q2306.04 1462.39 2305.23 1464.31 Q2304.44 1466.2 2302.34 1468.8 Q2301.76 1469.47 2298.66 1472.69 Q2295.56 1475.88 2289.91 1481.64 Z" fill="#000000" fill-rule="nonzero" fill-opacity="1" /><path clip-path="url(#clip140)" d="M2316.04 1479.7 L2320.93 1479.7 L2320.93 1485.58 L2316.04 1485.58 L2316.04 1479.7 Z" fill="#000000" fill-rule="nonzero" fill-opacity="1" /><path clip-path="url(#clip140)" d="M2341.11 1454.1 Q2337.5 1454.1 2335.67 1457.66 Q2333.87 1461.2 2333.87 1468.33 Q2333.87 1475.44 2335.67 1479.01 Q2337.5 1482.55 2341.11 1482.55 Q2344.75 1482.55 2346.55 1479.01 Q2348.38 1475.44 2348.38 1468.33 Q2348.38 1461.2 2346.55 1457.66 Q2344.75 1454.1 2341.11 1454.1 M2341.11 1450.39 Q2346.92 1450.39 2349.98 1455 Q2353.06 1459.58 2353.06 1468.33 Q2353.06 1477.06 2349.98 1481.67 Q2346.92 1486.25 2341.11 1486.25 Q2335.3 1486.25 2332.22 1481.67 Q2329.17 1477.06 2329.17 1468.33 Q2329.17 1459.58 2332.22 1455 Q2335.3 1450.39 2341.11 1450.39 Z" fill="#000000" fill-rule="nonzero" fill-opacity="1" /><path clip-path="url(#clip140)" d="M1066.89 1533.76 L1066.89 1539.24 Q1064.41 1537.87 1061.89 1537.2 Q1059.41 1536.5 1056.86 1536.5 Q1051.17 1536.5 1048.02 1540.13 Q1044.87 1543.73 1044.87 1550.25 Q1044.87 1556.78 1048.02 1560.4 Q1051.17 1564 1056.86 1564 Q1059.41 1564 1061.89 1563.33 Q1064.41 1562.63 1066.89 1561.26 L1066.89 1566.68 Q1064.44 1567.82 1061.8 1568.39 Q1059.19 1568.97 1056.23 1568.97 Q1048.18 1568.97 1043.43 1563.91 Q1038.69 1558.85 1038.69 1550.25 Q1038.69 1541.53 1043.47 1536.53 Q1048.27 1531.54 1056.61 1531.54 Q1059.32 1531.54 1061.89 1532.11 Q1064.47 1532.65 1066.89 1533.76 Z" fill="#000000" fill-rule="nonzero" fill-opacity="1" /><path clip-path="url(#clip140)" d="M1106.71 1546.53 L1106.71 1568.04 L1100.85 1568.04 L1100.85 1546.72 Q1100.85 1541.66 1098.88 1539.14 Q1096.91 1536.63 1092.96 1536.63 Q1088.22 1536.63 1085.48 1539.65 Q1082.74 1542.68 1082.74 1547.9 L1082.74 1568.04 L1076.85 1568.04 L1076.85 1518.52 L1082.74 1518.52 L1082.74 1537.93 Q1084.84 1534.72 1087.67 1533.13 Q1090.54 1531.54 1094.26 1531.54 Q1100.41 1531.54 1103.56 1535.36 Q1106.71 1539.14 1106.71 1546.53 Z" fill="#000000" fill-rule="nonzero" fill-opacity="1" /><path clip-path="url(#clip140)" d="M1132.2 1536.5 Q1127.49 1536.5 1124.76 1540.19 Q1122.02 1543.85 1122.02 1550.25 Q1122.02 1556.65 1124.72 1560.34 Q1127.46 1564 1132.2 1564 Q1136.88 1564 1139.62 1560.31 Q1142.36 1556.62 1142.36 1550.25 Q1142.36 1543.92 1139.62 1540.23 Q1136.88 1536.5 1132.2 1536.5 M1132.2 1531.54 Q1139.84 1531.54 1144.2 1536.5 Q1148.56 1541.47 1148.56 1550.25 Q1148.56 1559 1144.2 1564 Q1139.84 1568.97 1132.2 1568.97 Q1124.53 1568.97 1120.17 1564 Q1115.84 1559 1115.84 1550.25 Q1115.84 1541.47 1120.17 1536.5 Q1124.53 1531.54 1132.2 1531.54 Z" fill="#000000" fill-rule="nonzero" fill-opacity="1" /><path clip-path="url(#clip140)" d="M1178.93 1537.87 Q1177.94 1537.3 1176.76 1537.04 Q1175.62 1536.76 1174.22 1536.76 Q1169.25 1536.76 1166.58 1540 Q1163.94 1543.22 1163.94 1549.27 L1163.94 1568.04 L1158.05 1568.04 L1158.05 1532.4 L1163.94 1532.4 L1163.94 1537.93 Q1165.78 1534.69 1168.74 1533.13 Q1171.7 1531.54 1175.94 1531.54 Q1176.54 1531.54 1177.27 1531.63 Q1178 1531.7 1178.9 1531.85 L1178.93 1537.87 Z" fill="#000000" fill-rule="nonzero" fill-opacity="1" /><path clip-path="url(#clip140)" d="M1207.38 1537.81 L1207.38 1518.52 L1213.24 1518.52 L1213.24 1568.04 L1207.38 1568.04 L1207.38 1562.7 Q1205.54 1565.88 1202.7 1567.44 Q1199.9 1568.97 1195.96 1568.97 Q1189.49 1568.97 1185.42 1563.81 Q1181.38 1558.65 1181.38 1550.25 Q1181.38 1541.85 1185.42 1536.69 Q1189.49 1531.54 1195.96 1531.54 Q1199.9 1531.54 1202.7 1533.1 Q1205.54 1534.62 1207.38 1537.81 M1187.43 1550.25 Q1187.43 1556.71 1190.07 1560.4 Q1192.74 1564.07 1197.39 1564.07 Q1202.03 1564.07 1204.71 1560.4 Q1207.38 1556.71 1207.38 1550.25 Q1207.38 1543.79 1204.71 1540.13 Q1202.03 1536.44 1197.39 1536.44 Q1192.74 1536.44 1190.07 1540.13 Q1187.43 1543.79 1187.43 1550.25 Z" fill="#000000" fill-rule="nonzero" fill-opacity="1" /><path clip-path="url(#clip140)" d="M1269.48 1537.81 L1269.48 1518.52 L1275.34 1518.52 L1275.34 1568.04 L1269.48 1568.04 L1269.48 1562.7 Q1267.63 1565.88 1264.8 1567.44 Q1262 1568.97 1258.05 1568.97 Q1251.59 1568.97 1247.52 1563.81 Q1243.48 1558.65 1243.48 1550.25 Q1243.48 1541.85 1247.52 1536.69 Q1251.59 1531.54 1258.05 1531.54 Q1262 1531.54 1264.8 1533.1 Q1267.63 1534.62 1269.48 1537.81 M1249.52 1550.25 Q1249.52 1556.71 1252.16 1560.4 Q1254.84 1564.07 1259.49 1564.07 Q1264.13 1564.07 1266.81 1560.4 Q1269.48 1556.71 1269.48 1550.25 Q1269.48 1543.79 1266.81 1540.13 Q1264.13 1536.44 1259.49 1536.44 Q1254.84 1536.44 1252.16 1540.13 Q1249.52 1543.79 1249.52 1550.25 Z" fill="#000000" fill-rule="nonzero" fill-opacity="1" /><path clip-path="url(#clip140)" d="M1287.4 1532.4 L1293.26 1532.4 L1293.26 1568.04 L1287.4 1568.04 L1287.4 1532.4 M1287.4 1518.52 L1293.26 1518.52 L1293.26 1525.93 L1287.4 1525.93 L1287.4 1518.52 Z" fill="#000000" fill-rule="nonzero" fill-opacity="1" /><path clip-path="url(#clip140)" d="M1328.24 1533.45 L1328.24 1538.98 Q1325.75 1537.71 1323.08 1537.07 Q1320.41 1536.44 1317.54 1536.44 Q1313.18 1536.44 1310.98 1537.77 Q1308.82 1539.11 1308.82 1541.79 Q1308.82 1543.82 1310.38 1545 Q1311.94 1546.15 1316.65 1547.2 L1318.65 1547.64 Q1324.89 1548.98 1327.5 1551.43 Q1330.14 1553.85 1330.14 1558.21 Q1330.14 1563.17 1326.2 1566.07 Q1322.28 1568.97 1315.41 1568.97 Q1312.54 1568.97 1309.42 1568.39 Q1306.34 1567.85 1302.9 1566.74 L1302.9 1560.69 Q1306.15 1562.38 1309.3 1563.24 Q1312.45 1564.07 1315.54 1564.07 Q1319.67 1564.07 1321.9 1562.66 Q1324.13 1561.23 1324.13 1558.65 Q1324.13 1556.27 1322.51 1554.99 Q1320.91 1553.72 1315.47 1552.54 L1313.43 1552.07 Q1307.99 1550.92 1305.57 1548.56 Q1303.15 1546.18 1303.15 1542.04 Q1303.15 1537.01 1306.72 1534.27 Q1310.28 1531.54 1316.84 1531.54 Q1320.09 1531.54 1322.95 1532.01 Q1325.82 1532.49 1328.24 1533.45 Z" fill="#000000" fill-rule="nonzero" fill-opacity="1" /><path clip-path="url(#clip140)" d="M1345.26 1522.27 L1345.26 1532.4 L1357.33 1532.4 L1357.33 1536.95 L1345.26 1536.95 L1345.26 1556.3 Q1345.26 1560.66 1346.44 1561.9 Q1347.65 1563.14 1351.31 1563.14 L1357.33 1563.14 L1357.33 1568.04 L1351.31 1568.04 Q1344.53 1568.04 1341.95 1565.53 Q1339.38 1562.98 1339.38 1556.3 L1339.38 1536.95 L1335.08 1536.95 L1335.08 1532.4 L1339.38 1532.4 L1339.38 1522.27 L1345.26 1522.27 Z" fill="#000000" fill-rule="nonzero" fill-opacity="1" /><path clip-path="url(#clip140)" d="M1381.23 1550.12 Q1374.13 1550.12 1371.39 1551.75 Q1368.66 1553.37 1368.66 1557.29 Q1368.66 1560.4 1370.69 1562.25 Q1372.76 1564.07 1376.3 1564.07 Q1381.17 1564.07 1384.09 1560.63 Q1387.05 1557.16 1387.05 1551.43 L1387.05 1550.12 L1381.23 1550.12 M1392.91 1547.71 L1392.91 1568.04 L1387.05 1568.04 L1387.05 1562.63 Q1385.05 1565.88 1382.06 1567.44 Q1379.07 1568.97 1374.74 1568.97 Q1369.26 1568.97 1366.02 1565.91 Q1362.8 1562.82 1362.8 1557.67 Q1362.8 1551.65 1366.81 1548.6 Q1370.85 1545.54 1378.84 1545.54 L1387.05 1545.54 L1387.05 1544.97 Q1387.05 1540.93 1384.38 1538.73 Q1381.74 1536.5 1376.93 1536.5 Q1373.88 1536.5 1370.98 1537.23 Q1368.08 1537.97 1365.41 1539.43 L1365.41 1534.02 Q1368.63 1532.78 1371.65 1532.17 Q1374.67 1531.54 1377.54 1531.54 Q1385.27 1531.54 1389.09 1535.55 Q1392.91 1539.56 1392.91 1547.71 Z" fill="#000000" fill-rule="nonzero" fill-opacity="1" /><path clip-path="url(#clip140)" d="M1434.61 1546.53 L1434.61 1568.04 L1428.75 1568.04 L1428.75 1546.72 Q1428.75 1541.66 1426.78 1539.14 Q1424.8 1536.63 1420.86 1536.63 Q1416.11 1536.63 1413.38 1539.65 Q1410.64 1542.68 1410.64 1547.9 L1410.64 1568.04 L1404.75 1568.04 L1404.75 1532.4 L1410.64 1532.4 L1410.64 1537.93 Q1412.74 1534.72 1415.57 1533.13 Q1418.44 1531.54 1422.16 1531.54 Q1428.3 1531.54 1431.45 1535.36 Q1434.61 1539.14 1434.61 1546.53 Z" fill="#000000" fill-rule="nonzero" fill-opacity="1" /><path clip-path="url(#clip140)" d="M1471.94 1533.76 L1471.94 1539.24 Q1469.46 1537.87 1466.94 1537.2 Q1464.46 1536.5 1461.91 1536.5 Q1456.22 1536.5 1453.07 1540.13 Q1449.92 1543.73 1449.92 1550.25 Q1449.92 1556.78 1453.07 1560.4 Q1456.22 1564 1461.91 1564 Q1464.46 1564 1466.94 1563.33 Q1469.46 1562.63 1471.94 1561.26 L1471.94 1566.68 Q1469.49 1567.82 1466.85 1568.39 Q1464.24 1568.97 1461.28 1568.97 Q1453.23 1568.97 1448.48 1563.91 Q1443.74 1558.85 1443.74 1550.25 Q1443.74 1541.53 1448.52 1536.53 Q1453.32 1531.54 1461.66 1531.54 Q1464.37 1531.54 1466.94 1532.11 Q1469.52 1532.65 1471.94 1533.76 Z" fill="#000000" fill-rule="nonzero" fill-opacity="1" /><path clip-path="url(#clip140)" d="M1512.62 1548.76 L1512.62 1551.62 L1485.69 1551.62 Q1486.07 1557.67 1489.32 1560.85 Q1492.6 1564 1498.42 1564 Q1501.8 1564 1504.95 1563.17 Q1508.13 1562.35 1511.25 1560.69 L1511.25 1566.23 Q1508.1 1567.57 1504.79 1568.27 Q1501.48 1568.97 1498.07 1568.97 Q1489.54 1568.97 1484.54 1564 Q1479.58 1559.04 1479.58 1550.57 Q1479.58 1541.82 1484.29 1536.69 Q1489.03 1531.54 1497.05 1531.54 Q1504.25 1531.54 1508.42 1536.18 Q1512.62 1540.8 1512.62 1548.76 M1506.76 1547.04 Q1506.7 1542.23 1504.06 1539.37 Q1501.45 1536.5 1497.12 1536.5 Q1492.22 1536.5 1489.26 1539.27 Q1486.33 1542.04 1485.88 1547.07 L1506.76 1547.04 Z" fill="#000000" fill-rule="nonzero" fill-opacity="1" /><path clip-path="url(#clip140)" d="M1563.61 1537.87 Q1562.62 1537.3 1561.44 1537.04 Q1560.3 1536.76 1558.9 1536.76 Q1553.93 1536.76 1551.26 1540 Q1548.62 1543.22 1548.62 1549.27 L1548.62 1568.04 L1542.73 1568.04 L1542.73 1532.4 L1548.62 1532.4 L1548.62 1537.93 Q1550.46 1534.69 1553.42 1533.13 Q1556.38 1531.54 1560.62 1531.54 Q1561.22 1531.54 1561.95 1531.63 Q1562.68 1531.7 1563.58 1531.85 L1563.61 1537.87 Z" fill="#000000" fill-rule="nonzero" fill-opacity="1" /><polyline clip-path="url(#clip140)" style="stroke:#000000; stroke-linecap:round; stroke-linejoin:round; stroke-width:4; stroke-opacity:1; fill:none" points="249.542,1423.18 249.542,123.472 "/>
<polyline clip-path="url(#clip140)" style="stroke:#000000; stroke-linecap:round; stroke-linejoin:round; stroke-width:4; stroke-opacity:1; fill:none" points="249.542,1386.4 268.44,1386.4 "/>
<polyline clip-path="url(#clip140)" style="stroke:#000000; stroke-linecap:round; stroke-linejoin:round; stroke-width:4; stroke-opacity:1; fill:none" points="249.542,1132.7 268.44,1132.7 "/>
<polyline clip-path="url(#clip140)" style="stroke:#000000; stroke-linecap:round; stroke-linejoin:round; stroke-width:4; stroke-opacity:1; fill:none" points="249.542,879.014 268.44,879.014 "/>
<polyline clip-path="url(#clip140)" style="stroke:#000000; stroke-linecap:round; stroke-linejoin:round; stroke-width:4; stroke-opacity:1; fill:none" points="249.542,625.323 268.44,625.323 "/>
<polyline clip-path="url(#clip140)" style="stroke:#000000; stroke-linecap:round; stroke-linejoin:round; stroke-width:4; stroke-opacity:1; fill:none" points="249.542,371.632 268.44,371.632 "/>
<path clip-path="url(#clip140)" d="M126.205 1372.19 Q122.593 1372.19 120.765 1375.76 Q118.959 1379.3 118.959 1386.43 Q118.959 1393.54 120.765 1397.1 Q122.593 1400.64 126.205 1400.64 Q129.839 1400.64 131.644 1397.1 Q133.473 1393.54 133.473 1386.43 Q133.473 1379.3 131.644 1375.76 Q129.839 1372.19 126.205 1372.19 M126.205 1368.49 Q132.015 1368.49 135.07 1373.1 Q138.149 1377.68 138.149 1386.43 Q138.149 1395.16 135.07 1399.76 Q132.015 1404.35 126.205 1404.35 Q120.394 1404.35 117.316 1399.76 Q114.26 1395.16 114.26 1386.43 Q114.26 1377.68 117.316 1373.1 Q120.394 1368.49 126.205 1368.49 Z" fill="#000000" fill-rule="nonzero" fill-opacity="1" /><path clip-path="url(#clip140)" d="M146.366 1397.8 L151.251 1397.8 L151.251 1403.68 L146.366 1403.68 L146.366 1397.8 Z" fill="#000000" fill-rule="nonzero" fill-opacity="1" /><path clip-path="url(#clip140)" d="M171.436 1372.19 Q167.825 1372.19 165.996 1375.76 Q164.19 1379.3 164.19 1386.43 Q164.19 1393.54 165.996 1397.1 Q167.825 1400.64 171.436 1400.64 Q175.07 1400.64 176.876 1397.1 Q178.704 1393.54 178.704 1386.43 Q178.704 1379.3 176.876 1375.76 Q175.07 1372.19 171.436 1372.19 M171.436 1368.49 Q177.246 1368.49 180.301 1373.1 Q183.38 1377.68 183.38 1386.43 Q183.38 1395.16 180.301 1399.76 Q177.246 1404.35 171.436 1404.35 Q165.626 1404.35 162.547 1399.76 Q159.491 1395.16 159.491 1386.43 Q159.491 1377.68 162.547 1373.1 Q165.626 1368.49 171.436 1368.49 Z" fill="#000000" fill-rule="nonzero" fill-opacity="1" /><path clip-path="url(#clip140)" d="M201.598 1372.19 Q197.987 1372.19 196.158 1375.76 Q194.352 1379.3 194.352 1386.43 Q194.352 1393.54 196.158 1397.1 Q197.987 1400.64 201.598 1400.64 Q205.232 1400.64 207.037 1397.1 Q208.866 1393.54 208.866 1386.43 Q208.866 1379.3 207.037 1375.76 Q205.232 1372.19 201.598 1372.19 M201.598 1368.49 Q207.408 1368.49 210.463 1373.1 Q213.542 1377.68 213.542 1386.43 Q213.542 1395.16 210.463 1399.76 Q207.408 1404.35 201.598 1404.35 Q195.787 1404.35 192.709 1399.76 Q189.653 1395.16 189.653 1386.43 Q189.653 1377.68 192.709 1373.1 Q195.787 1368.49 201.598 1368.49 Z" fill="#000000" fill-rule="nonzero" fill-opacity="1" /><path clip-path="url(#clip140)" d="M127.2 1118.5 Q123.589 1118.5 121.76 1122.07 Q119.955 1125.61 119.955 1132.74 Q119.955 1139.85 121.76 1143.41 Q123.589 1146.95 127.2 1146.95 Q130.834 1146.95 132.64 1143.41 Q134.468 1139.85 134.468 1132.74 Q134.468 1125.61 132.64 1122.07 Q130.834 1118.5 127.2 1118.5 M127.2 1114.8 Q133.01 1114.8 136.066 1119.41 Q139.144 1123.99 139.144 1132.74 Q139.144 1141.47 136.066 1146.07 Q133.01 1150.66 127.2 1150.66 Q121.39 1150.66 118.311 1146.07 Q115.256 1141.47 115.256 1132.74 Q115.256 1123.99 118.311 1119.41 Q121.39 1114.8 127.2 1114.8 Z" fill="#000000" fill-rule="nonzero" fill-opacity="1" /><path clip-path="url(#clip140)" d="M147.362 1144.11 L152.246 1144.11 L152.246 1149.98 L147.362 1149.98 L147.362 1144.11 Z" fill="#000000" fill-rule="nonzero" fill-opacity="1" /><path clip-path="url(#clip140)" d="M166.459 1146.05 L182.778 1146.05 L182.778 1149.98 L160.834 1149.98 L160.834 1146.05 Q163.496 1143.29 168.079 1138.67 Q172.686 1134.01 173.866 1132.67 Q176.112 1130.15 176.991 1128.41 Q177.894 1126.65 177.894 1124.96 Q177.894 1122.21 175.95 1120.47 Q174.028 1118.73 170.927 1118.73 Q168.727 1118.73 166.274 1119.5 Q163.843 1120.26 161.065 1121.81 L161.065 1117.09 Q163.89 1115.96 166.343 1115.38 Q168.797 1114.8 170.834 1114.8 Q176.204 1114.8 179.399 1117.48 Q182.593 1120.17 182.593 1124.66 Q182.593 1126.79 181.783 1128.71 Q180.996 1130.61 178.889 1133.2 Q178.311 1133.87 175.209 1137.09 Q172.107 1140.29 166.459 1146.05 Z" fill="#000000" fill-rule="nonzero" fill-opacity="1" /><path clip-path="url(#clip140)" d="M192.639 1115.42 L210.996 1115.42 L210.996 1119.36 L196.922 1119.36 L196.922 1127.83 Q197.94 1127.48 198.959 1127.32 Q199.977 1127.14 200.996 1127.14 Q206.783 1127.14 210.162 1130.31 Q213.542 1133.48 213.542 1138.9 Q213.542 1144.48 210.07 1147.58 Q206.598 1150.66 200.278 1150.66 Q198.102 1150.66 195.834 1150.29 Q193.588 1149.92 191.181 1149.17 L191.181 1144.48 Q193.264 1145.61 195.487 1146.17 Q197.709 1146.72 200.186 1146.72 Q204.19 1146.72 206.528 1144.61 Q208.866 1142.51 208.866 1138.9 Q208.866 1135.29 206.528 1133.18 Q204.19 1131.07 200.186 1131.07 Q198.311 1131.07 196.436 1131.49 Q194.584 1131.91 192.639 1132.79 L192.639 1115.42 Z" fill="#000000" fill-rule="nonzero" fill-opacity="1" /><path clip-path="url(#clip140)" d="M126.205 864.812 Q122.593 864.812 120.765 868.377 Q118.959 871.919 118.959 879.048 Q118.959 886.155 120.765 889.72 Q122.593 893.261 126.205 893.261 Q129.839 893.261 131.644 889.72 Q133.473 886.155 133.473 879.048 Q133.473 871.919 131.644 868.377 Q129.839 864.812 126.205 864.812 M126.205 861.109 Q132.015 861.109 135.07 865.715 Q138.149 870.298 138.149 879.048 Q138.149 887.775 135.07 892.382 Q132.015 896.965 126.205 896.965 Q120.394 896.965 117.316 892.382 Q114.26 887.775 114.26 879.048 Q114.26 870.298 117.316 865.715 Q120.394 861.109 126.205 861.109 Z" fill="#000000" fill-rule="nonzero" fill-opacity="1" /><path clip-path="url(#clip140)" d="M146.366 890.414 L151.251 890.414 L151.251 896.294 L146.366 896.294 L146.366 890.414 Z" fill="#000000" fill-rule="nonzero" fill-opacity="1" /><path clip-path="url(#clip140)" d="M161.482 861.734 L179.839 861.734 L179.839 865.669 L165.765 865.669 L165.765 874.141 Q166.783 873.794 167.802 873.632 Q168.82 873.447 169.839 873.447 Q175.626 873.447 179.005 876.618 Q182.385 879.789 182.385 885.206 Q182.385 890.784 178.913 893.886 Q175.44 896.965 169.121 896.965 Q166.945 896.965 164.677 896.595 Q162.431 896.224 160.024 895.483 L160.024 890.784 Q162.107 891.919 164.329 892.474 Q166.552 893.03 169.028 893.03 Q173.033 893.03 175.371 890.923 Q177.709 888.817 177.709 885.206 Q177.709 881.595 175.371 879.488 Q173.033 877.382 169.028 877.382 Q167.153 877.382 165.278 877.798 Q163.427 878.215 161.482 879.095 L161.482 861.734 Z" fill="#000000" fill-rule="nonzero" fill-opacity="1" /><path clip-path="url(#clip140)" d="M201.598 864.812 Q197.987 864.812 196.158 868.377 Q194.352 871.919 194.352 879.048 Q194.352 886.155 196.158 889.72 Q197.987 893.261 201.598 893.261 Q205.232 893.261 207.037 889.72 Q208.866 886.155 208.866 879.048 Q208.866 871.919 207.037 868.377 Q205.232 864.812 201.598 864.812 M201.598 861.109 Q207.408 861.109 210.463 865.715 Q213.542 870.298 213.542 879.048 Q213.542 887.775 210.463 892.382 Q207.408 896.965 201.598 896.965 Q195.787 896.965 192.709 892.382 Q189.653 887.775 189.653 879.048 Q189.653 870.298 192.709 865.715 Q195.787 861.109 201.598 861.109 Z" fill="#000000" fill-rule="nonzero" fill-opacity="1" /><path clip-path="url(#clip140)" d="M127.2 611.121 Q123.589 611.121 121.76 614.686 Q119.955 618.228 119.955 625.357 Q119.955 632.464 121.76 636.029 Q123.589 639.57 127.2 639.57 Q130.834 639.57 132.64 636.029 Q134.468 632.464 134.468 625.357 Q134.468 618.228 132.64 614.686 Q130.834 611.121 127.2 611.121 M127.2 607.418 Q133.01 607.418 136.066 612.024 Q139.144 616.607 139.144 625.357 Q139.144 634.084 136.066 638.691 Q133.01 643.274 127.2 643.274 Q121.39 643.274 118.311 638.691 Q115.256 634.084 115.256 625.357 Q115.256 616.607 118.311 612.024 Q121.39 607.418 127.2 607.418 Z" fill="#000000" fill-rule="nonzero" fill-opacity="1" /><path clip-path="url(#clip140)" d="M147.362 636.723 L152.246 636.723 L152.246 642.603 L147.362 642.603 L147.362 636.723 Z" fill="#000000" fill-rule="nonzero" fill-opacity="1" /><path clip-path="url(#clip140)" d="M161.251 608.043 L183.473 608.043 L183.473 610.033 L170.927 642.603 L166.042 642.603 L177.848 611.978 L161.251 611.978 L161.251 608.043 Z" fill="#000000" fill-rule="nonzero" fill-opacity="1" /><path clip-path="url(#clip140)" d="M192.639 608.043 L210.996 608.043 L210.996 611.978 L196.922 611.978 L196.922 620.45 Q197.94 620.103 198.959 619.941 Q199.977 619.756 200.996 619.756 Q206.783 619.756 210.162 622.927 Q213.542 626.098 213.542 631.515 Q213.542 637.093 210.07 640.195 Q206.598 643.274 200.278 643.274 Q198.102 643.274 195.834 642.904 Q193.588 642.533 191.181 641.792 L191.181 637.093 Q193.264 638.228 195.487 638.783 Q197.709 639.339 200.186 639.339 Q204.19 639.339 206.528 637.232 Q208.866 635.126 208.866 631.515 Q208.866 627.904 206.528 625.797 Q204.19 623.691 200.186 623.691 Q198.311 623.691 196.436 624.107 Q194.584 624.524 192.639 625.404 L192.639 608.043 Z" fill="#000000" fill-rule="nonzero" fill-opacity="1" /><path clip-path="url(#clip140)" d="M117.015 384.976 L124.654 384.976 L124.654 358.611 L116.343 360.278 L116.343 356.018 L124.607 354.352 L129.283 354.352 L129.283 384.976 L136.922 384.976 L136.922 388.912 L117.015 388.912 L117.015 384.976 Z" fill="#000000" fill-rule="nonzero" fill-opacity="1" /><path clip-path="url(#clip140)" d="M146.366 383.032 L151.251 383.032 L151.251 388.912 L146.366 388.912 L146.366 383.032 Z" fill="#000000" fill-rule="nonzero" fill-opacity="1" /><path clip-path="url(#clip140)" d="M171.436 357.43 Q167.825 357.43 165.996 360.995 Q164.19 364.537 164.19 371.666 Q164.19 378.773 165.996 382.338 Q167.825 385.879 171.436 385.879 Q175.07 385.879 176.876 382.338 Q178.704 378.773 178.704 371.666 Q178.704 364.537 176.876 360.995 Q175.07 357.43 171.436 357.43 M171.436 353.727 Q177.246 353.727 180.301 358.333 Q183.38 362.916 183.38 371.666 Q183.38 380.393 180.301 385 Q177.246 389.583 171.436 389.583 Q165.626 389.583 162.547 385 Q159.491 380.393 159.491 371.666 Q159.491 362.916 162.547 358.333 Q165.626 353.727 171.436 353.727 Z" fill="#000000" fill-rule="nonzero" fill-opacity="1" /><path clip-path="url(#clip140)" d="M201.598 357.43 Q197.987 357.43 196.158 360.995 Q194.352 364.537 194.352 371.666 Q194.352 378.773 196.158 382.338 Q197.987 385.879 201.598 385.879 Q205.232 385.879 207.037 382.338 Q208.866 378.773 208.866 371.666 Q208.866 364.537 207.037 360.995 Q205.232 357.43 201.598 357.43 M201.598 353.727 Q207.408 353.727 210.463 358.333 Q213.542 362.916 213.542 371.666 Q213.542 380.393 210.463 385 Q207.408 389.583 201.598 389.583 Q195.787 389.583 192.709 385 Q189.653 380.393 189.653 371.666 Q189.653 362.916 192.709 358.333 Q195.787 353.727 201.598 353.727 Z" fill="#000000" fill-rule="nonzero" fill-opacity="1" /><path clip-path="url(#clip140)" d="M58.657 1040.99 L77.5631 1040.99 L77.5631 1046.88 L28.3562 1046.88 L28.3562 1040.99 L33.7671 1040.99 Q30.5842 1039.14 29.0564 1036.34 Q27.4968 1033.51 27.4968 1029.59 Q27.4968 1023.1 32.6531 1019.06 Q37.8093 1014.98 46.212 1014.98 Q54.6147 1014.98 59.771 1019.06 Q64.9272 1023.1 64.9272 1029.59 Q64.9272 1033.51 63.3994 1036.34 Q61.8398 1039.14 58.657 1040.99 M46.212 1021.06 Q39.7508 1021.06 36.0905 1023.74 Q32.3984 1026.38 32.3984 1031.03 Q32.3984 1035.67 36.0905 1038.35 Q39.7508 1040.99 46.212 1040.99 Q52.6732 1040.99 56.3653 1038.35 Q60.0256 1035.67 60.0256 1031.03 Q60.0256 1026.38 56.3653 1023.74 Q52.6732 1021.06 46.212 1021.06 Z" fill="#000000" fill-rule="nonzero" fill-opacity="1" /><path clip-path="url(#clip140)" d="M46.0847 989.076 Q46.0847 996.173 47.7079 998.911 Q49.3312 1001.65 53.2461 1001.65 Q56.3653 1001.65 58.2114 999.611 Q60.0256 997.542 60.0256 994.009 Q60.0256 989.139 56.5881 986.211 Q53.1188 983.251 47.3897 983.251 L46.0847 983.251 L46.0847 989.076 M43.6657 977.395 L64.0042 977.395 L64.0042 983.251 L58.5933 983.251 Q61.8398 985.256 63.3994 988.248 Q64.9272 991.24 64.9272 995.569 Q64.9272 1001.04 61.8716 1004.29 Q58.7843 1007.5 53.6281 1007.5 Q47.6125 1007.5 44.5569 1003.49 Q41.5014 999.452 41.5014 991.463 L41.5014 983.251 L40.9285 983.251 Q36.8862 983.251 34.6901 985.925 Q32.4621 988.566 32.4621 993.373 Q32.4621 996.428 33.1941 999.324 Q33.9262 1002.22 35.3903 1004.89 L29.9795 1004.89 Q28.7381 1001.68 28.1334 998.656 Q27.4968 995.632 27.4968 992.768 Q27.4968 985.033 31.5072 981.214 Q35.5176 977.395 43.6657 977.395 Z" fill="#000000" fill-rule="nonzero" fill-opacity="1" /><path clip-path="url(#clip140)" d="M28.3562 965.332 L28.3562 959.475 L64.0042 959.475 L64.0042 965.332 L28.3562 965.332 M14.479 965.332 L14.479 959.475 L21.895 959.475 L21.895 965.332 L14.479 965.332 Z" fill="#000000" fill-rule="nonzero" fill-opacity="1" /><path clip-path="url(#clip140)" d="M33.8307 926.564 Q33.2578 927.551 33.0032 928.729 Q32.7167 929.875 32.7167 931.275 Q32.7167 936.24 35.9632 938.914 Q39.1779 941.556 45.2253 941.556 L64.0042 941.556 L64.0042 947.444 L28.3562 947.444 L28.3562 941.556 L33.8944 941.556 Q30.6479 939.71 29.0883 936.75 Q27.4968 933.79 27.4968 929.556 Q27.4968 928.952 27.5923 928.22 Q27.656 927.487 27.8151 926.596 L33.8307 926.564 Z" fill="#000000" fill-rule="nonzero" fill-opacity="1" /><path clip-path="url(#clip140)" d="M29.7248 874.047 L35.1993 874.047 Q33.8307 876.53 33.1623 879.044 Q32.4621 881.527 32.4621 884.073 Q32.4621 889.771 36.0905 892.922 Q39.6872 896.073 46.212 896.073 Q52.7369 896.073 56.3653 892.922 Q59.9619 889.771 59.9619 884.073 Q59.9619 881.527 59.2935 879.044 Q58.5933 876.53 57.2247 874.047 L62.6355 874.047 Q63.7814 876.498 64.3543 879.14 Q64.9272 881.75 64.9272 884.71 Q64.9272 892.763 59.8664 897.505 Q54.8057 902.247 46.212 902.247 Q37.491 902.247 32.4939 897.473 Q27.4968 892.667 27.4968 884.328 Q27.4968 881.623 28.0697 879.044 Q28.6108 876.466 29.7248 874.047 Z" fill="#000000" fill-rule="nonzero" fill-opacity="1" /><path clip-path="url(#clip140)" d="M32.4621 850.049 Q32.4621 854.759 36.1542 857.497 Q39.8145 860.234 46.212 860.234 Q52.6095 860.234 56.3017 857.528 Q59.9619 854.791 59.9619 850.049 Q59.9619 845.37 56.2698 842.633 Q52.5777 839.895 46.212 839.895 Q39.8781 839.895 36.186 842.633 Q32.4621 845.37 32.4621 850.049 M27.4968 850.049 Q27.4968 842.41 32.4621 838.049 Q37.4273 833.689 46.212 833.689 Q54.9649 833.689 59.9619 838.049 Q64.9272 842.41 64.9272 850.049 Q64.9272 857.719 59.9619 862.08 Q54.9649 866.409 46.212 866.409 Q37.4273 866.409 32.4621 862.08 Q27.4968 857.719 27.4968 850.049 Z" fill="#000000" fill-rule="nonzero" fill-opacity="1" /><path clip-path="url(#clip140)" d="M49.9359 824.586 L28.3562 824.586 L28.3562 818.729 L49.7131 818.729 Q54.7739 818.729 57.3202 816.756 Q59.8346 814.783 59.8346 810.836 Q59.8346 806.093 56.8109 803.356 Q53.7872 800.587 48.5673 800.587 L28.3562 800.587 L28.3562 794.731 L64.0042 794.731 L64.0042 800.587 L58.5296 800.587 Q61.7762 802.72 63.3676 805.552 Q64.9272 808.353 64.9272 812.077 Q64.9272 818.22 61.1078 821.403 Q57.2883 824.586 49.9359 824.586 M27.4968 809.849 L27.4968 809.849 Z" fill="#000000" fill-rule="nonzero" fill-opacity="1" /><path clip-path="url(#clip140)" d="M42.4881 753.035 L64.0042 753.035 L64.0042 758.892 L42.679 758.892 Q37.6183 758.892 35.1038 760.865 Q32.5894 762.838 32.5894 766.785 Q32.5894 771.528 35.6131 774.265 Q38.6368 777.002 43.8567 777.002 L64.0042 777.002 L64.0042 782.89 L28.3562 782.89 L28.3562 777.002 L33.8944 777.002 Q30.6797 774.901 29.0883 772.069 Q27.4968 769.204 27.4968 765.48 Q27.4968 759.337 31.3163 756.186 Q35.1038 753.035 42.4881 753.035 Z" fill="#000000" fill-rule="nonzero" fill-opacity="1" /><path clip-path="url(#clip140)" d="M18.2347 735.561 L28.3562 735.561 L28.3562 723.498 L32.9077 723.498 L32.9077 735.561 L52.2594 735.561 Q56.6199 735.561 57.8613 734.384 Q59.1026 733.174 59.1026 729.514 L59.1026 723.498 L64.0042 723.498 L64.0042 729.514 Q64.0042 736.293 61.4897 738.872 Q58.9434 741.45 52.2594 741.45 L32.9077 741.45 L32.9077 745.747 L28.3562 745.747 L28.3562 741.45 L18.2347 741.45 L18.2347 735.561 Z" fill="#000000" fill-rule="nonzero" fill-opacity="1" /><path clip-path="url(#clip140)" d="M52.4504 663.724 Q52.4504 658.473 44.8116 655.322 Q36.4725 659.364 36.4725 663.724 Q36.4725 666.907 38.7641 668.531 Q41.2149 670.249 44.4614 670.249 Q48.0262 670.249 50.2224 668.531 Q52.4504 666.748 52.4504 663.724 M52.5141 640.935 L56.7154 640.935 L56.7154 643.386 Q56.7154 645.709 55.7606 647.428 Q54.9012 649.147 52.896 650.802 Q51.7502 651.789 49.0766 653.348 Q52.896 655.481 54.5829 657.359 Q56.6199 659.682 56.6199 663.374 Q56.6199 667.671 53.4053 670.504 Q50.0314 673.496 44.4614 673.496 Q39.1142 673.496 35.4858 670.504 Q32.2711 667.862 32.2711 663.311 Q32.2711 660.987 33.226 659.268 Q34.2763 657.263 36.0905 655.895 Q37.7138 654.621 39.91 653.348 Q36.0905 651.216 34.4036 649.338 Q32.3666 647.014 32.3666 643.322 L32.3666 640.935 L36.5361 640.935 L36.5361 642.972 Q36.5361 647.683 44.175 651.375 Q52.5141 647.333 52.5141 642.972 L52.5141 640.935 Z" fill="#000000" fill-rule="nonzero" fill-opacity="1" /><path clip-path="url(#clip140)" d="M45.7664 583.612 Q39.4007 583.612 35.8996 586.254 Q32.3984 588.864 32.3984 593.606 Q32.3984 598.317 35.8996 600.959 Q39.4007 603.569 45.7664 603.569 Q52.1003 603.569 55.6014 600.959 Q59.1026 598.317 59.1026 593.606 Q59.1026 588.864 55.6014 586.254 Q52.1003 583.612 45.7664 583.612 M59.58 577.756 Q68.683 577.756 73.1071 581.798 Q77.5631 585.84 77.5631 594.179 Q77.5631 597.266 77.0857 600.004 Q76.6401 602.741 75.6852 605.319 L69.9879 605.319 Q71.3884 602.741 72.0568 600.227 Q72.7252 597.712 72.7252 595.102 Q72.7252 589.341 69.7015 586.477 Q66.7096 583.612 60.6303 583.612 L57.7339 583.612 Q60.885 585.426 62.4446 588.259 Q64.0042 591.092 64.0042 595.038 Q64.0042 601.595 59.0071 605.606 Q54.01 609.616 45.7664 609.616 Q37.491 609.616 32.4939 605.606 Q27.4968 601.595 27.4968 595.038 Q27.4968 591.092 29.0564 588.259 Q30.616 585.426 33.7671 583.612 L28.3562 583.612 L28.3562 577.756 L59.58 577.756 Z" fill="#000000" fill-rule="nonzero" fill-opacity="1" /><path clip-path="url(#clip140)" d="M14.5426 551.624 Q21.8632 555.889 29.0246 557.958 Q36.186 560.027 43.5384 560.027 Q50.8908 560.027 58.1159 557.958 Q65.3091 555.858 72.5979 551.624 L72.5979 556.717 Q65.1182 561.491 57.8931 563.878 Q50.668 566.234 43.5384 566.234 Q36.4406 566.234 29.2474 563.878 Q22.0542 561.523 14.5426 556.717 L14.5426 551.624 Z" fill="#000000" fill-rule="nonzero" fill-opacity="1" /><path clip-path="url(#clip140)" d="M33.8307 519.605 Q33.2578 520.592 33.0032 521.769 Q32.7167 522.915 32.7167 524.315 Q32.7167 529.281 35.9632 531.954 Q39.1779 534.596 45.2253 534.596 L64.0042 534.596 L64.0042 540.484 L28.3562 540.484 L28.3562 534.596 L33.8944 534.596 Q30.6479 532.75 29.0883 529.79 Q27.4968 526.83 27.4968 522.597 Q27.4968 521.992 27.5923 521.26 Q27.656 520.528 27.8151 519.637 L33.8307 519.605 Z" fill="#000000" fill-rule="nonzero" fill-opacity="1" /><path clip-path="url(#clip140)" d="M14.5426 514.385 L14.5426 509.292 Q22.0542 504.518 29.2474 502.163 Q36.4406 499.776 43.5384 499.776 Q50.668 499.776 57.8931 502.163 Q65.1182 504.518 72.5979 509.292 L72.5979 514.385 Q65.3091 510.152 58.1159 508.083 Q50.8908 505.982 43.5384 505.982 Q36.186 505.982 29.0246 508.083 Q21.8632 510.152 14.5426 514.385 Z" fill="#000000" fill-rule="nonzero" fill-opacity="1" /><path clip-path="url(#clip140)" d="M675.629 72.576 L661.775 27.2059 L669.795 27.2059 L681.502 65.2844 Q686.363 60.2613 690.414 53.2937 Q693.493 48.068 693.655 43.531 Q693.736 41.384 692.764 37.3331 Q691.63 32.5126 687.336 27.2059 L694.87 27.2059 L694.87 27.2059 Q697.666 30.8112 699.529 35.8343 Q701.23 40.4523 701.23 43.612 Q701.23 51.5518 695.721 58.6409 Q688.551 67.877 683.568 72.576 L675.629 72.576 Z" fill="#000000" fill-rule="nonzero" fill-opacity="1" /><path clip-path="url(#clip140)" d="M740.281 34.9026 L792.214 34.9026 L792.214 41.7081 L740.281 41.7081 L740.281 34.9026 M740.281 51.4303 L792.214 51.4303 L792.214 58.3168 L740.281 58.3168 L740.281 51.4303 Z" fill="#000000" fill-rule="nonzero" fill-opacity="1" /><path clip-path="url(#clip140)" d="M837.665 65.6895 L851.033 65.6895 L851.033 19.5497 L836.49 22.4663 L836.49 15.0127 L850.952 12.096 L859.135 12.096 L859.135 65.6895 L872.503 65.6895 L872.503 72.576 L837.665 72.576 L837.665 65.6895 Z" fill="#000000" fill-rule="nonzero" fill-opacity="1" /><path clip-path="url(#clip140)" d="M901.223 12.096 L908.11 12.096 L887.045 80.2727 L880.159 80.2727 L901.223 12.096 Z" fill="#000000" fill-rule="nonzero" fill-opacity="1" /><path clip-path="url(#clip140)" d="M941.773 39.9662 Q947.647 41.222 950.928 45.1919 Q954.25 49.1618 954.25 54.9951 Q954.25 63.9476 948.092 68.8492 Q941.935 73.7508 930.593 73.7508 Q926.785 73.7508 922.734 72.9811 Q918.723 72.2519 914.429 70.7531 L914.429 62.8538 Q917.832 64.8388 921.883 65.8515 Q925.934 66.8642 930.349 66.8642 Q938.046 66.8642 942.057 63.826 Q946.107 60.7879 946.107 54.9951 Q946.107 49.6479 942.34 46.6502 Q938.613 43.612 931.929 43.612 L924.881 43.612 L924.881 36.8875 L932.253 36.8875 Q938.289 36.8875 941.489 34.4975 Q944.69 32.067 944.69 27.5299 Q944.69 22.8714 941.368 20.4004 Q938.087 17.8888 931.929 17.8888 Q928.567 17.8888 924.719 18.618 Q920.87 19.3471 916.252 20.8865 L916.252 13.5948 Q920.911 12.2985 924.962 11.6504 Q929.053 11.0023 932.658 11.0023 Q941.976 11.0023 947.404 15.2557 Q952.832 19.4686 952.832 26.6793 Q952.832 31.7024 949.956 35.1862 Q947.08 38.6294 941.773 39.9662 Z" fill="#000000" fill-rule="nonzero" fill-opacity="1" /><path clip-path="url(#clip140)" d="M1002.29 65.7705 L1002.29 89.8329 L994.799 89.8329 L994.799 27.2059 L1002.29 27.2059 L1002.29 34.0924 Q1004.64 30.0415 1008.21 28.0971 Q1011.81 26.1121 1016.8 26.1121 Q1025.06 26.1121 1030.2 32.6746 Q1035.39 39.2371 1035.39 49.9314 Q1035.39 60.6258 1030.2 67.1883 Q1025.06 73.7508 1016.8 73.7508 Q1011.81 73.7508 1008.21 71.8063 Q1004.64 69.8214 1002.29 65.7705 M1027.65 49.9314 Q1027.65 41.7081 1024.25 37.0496 Q1020.89 32.3505 1014.97 32.3505 Q1009.06 32.3505 1005.66 37.0496 Q1002.29 41.7081 1002.29 49.9314 Q1002.29 58.1548 1005.66 62.8538 Q1009.06 67.5124 1014.97 67.5124 Q1020.89 67.5124 1024.25 62.8538 Q1027.65 58.1548 1027.65 49.9314 Z" fill="#000000" fill-rule="nonzero" fill-opacity="1" /><path clip-path="url(#clip140)" d="M1068.36 49.7694 Q1059.33 49.7694 1055.85 51.8354 Q1052.36 53.9013 1052.36 58.8839 Q1052.36 62.8538 1054.96 65.2034 Q1057.59 67.5124 1062.08 67.5124 Q1068.28 67.5124 1072.01 63.1374 Q1075.78 58.7219 1075.78 51.4303 L1075.78 49.7694 L1068.36 49.7694 M1083.23 46.6907 L1083.23 72.576 L1075.78 72.576 L1075.78 65.6895 Q1073.22 69.8214 1069.42 71.8063 Q1065.61 73.7508 1060.1 73.7508 Q1053.13 73.7508 1049 69.8619 Q1044.91 65.9325 1044.91 59.3701 Q1044.91 51.7138 1050.01 47.825 Q1055.16 43.9361 1065.33 43.9361 L1075.78 43.9361 L1075.78 43.2069 Q1075.78 38.0623 1072.37 35.2672 Q1069.01 32.4315 1062.9 32.4315 Q1059.01 32.4315 1055.32 33.3632 Q1051.63 34.295 1048.23 36.1584 L1048.23 29.2718 Q1052.32 27.692 1056.17 26.9223 Q1060.02 26.1121 1063.66 26.1121 Q1073.51 26.1121 1078.37 31.2163 Q1083.23 36.3204 1083.23 46.6907 Z" fill="#000000" fill-rule="nonzero" fill-opacity="1" /><path clip-path="url(#clip140)" d="M1098.58 27.2059 L1106.04 27.2059 L1106.04 72.576 L1098.58 72.576 L1098.58 27.2059 M1098.58 9.54393 L1106.04 9.54393 L1106.04 18.9825 L1098.58 18.9825 L1098.58 9.54393 Z" fill="#000000" fill-rule="nonzero" fill-opacity="1" /><path clip-path="url(#clip140)" d="M1147.92 34.1734 Q1146.67 33.4443 1145.17 33.1202 Q1143.71 32.7556 1141.93 32.7556 Q1135.61 32.7556 1132.21 36.8875 Q1128.84 40.9789 1128.84 48.6757 L1128.84 72.576 L1121.35 72.576 L1121.35 27.2059 L1128.84 27.2059 L1128.84 34.2544 Q1131.19 30.1225 1134.96 28.1376 Q1138.73 26.1121 1144.12 26.1121 Q1144.89 26.1121 1145.82 26.2337 Q1146.75 26.3147 1147.88 26.5172 L1147.92 34.1734 Z" fill="#000000" fill-rule="nonzero" fill-opacity="1" /><path clip-path="url(#clip140)" d="M1214.76 28.9478 L1214.76 35.9153 Q1211.6 34.1734 1208.4 33.3227 Q1205.24 32.4315 1202 32.4315 Q1194.75 32.4315 1190.74 37.0496 Q1186.73 41.6271 1186.73 49.9314 Q1186.73 58.2358 1190.74 62.8538 Q1194.75 67.4314 1202 67.4314 Q1205.24 67.4314 1208.4 66.5807 Q1211.6 65.6895 1214.76 63.9476 L1214.76 70.8341 Q1211.64 72.2924 1208.28 73.0216 Q1204.96 73.7508 1201.19 73.7508 Q1190.94 73.7508 1184.91 67.3098 Q1178.87 60.8689 1178.87 49.9314 Q1178.87 38.832 1184.95 32.472 Q1191.07 26.1121 1201.68 26.1121 Q1205.12 26.1121 1208.4 26.8413 Q1211.68 27.5299 1214.76 28.9478 Z" fill="#000000" fill-rule="nonzero" fill-opacity="1" /><path clip-path="url(#clip140)" d="M1245.31 32.4315 Q1239.31 32.4315 1235.83 37.1306 Q1232.34 41.7891 1232.34 49.9314 Q1232.34 58.0738 1235.79 62.7728 Q1239.27 67.4314 1245.31 67.4314 Q1251.26 67.4314 1254.75 62.7323 Q1258.23 58.0333 1258.23 49.9314 Q1258.23 41.8701 1254.75 37.1711 Q1251.26 32.4315 1245.31 32.4315 M1245.31 26.1121 Q1255.03 26.1121 1260.58 32.4315 Q1266.13 38.7509 1266.13 49.9314 Q1266.13 61.0714 1260.58 67.4314 Q1255.03 73.7508 1245.31 73.7508 Q1235.54 73.7508 1229.99 67.4314 Q1224.49 61.0714 1224.49 49.9314 Q1224.49 38.7509 1229.99 32.4315 Q1235.54 26.1121 1245.31 26.1121 Z" fill="#000000" fill-rule="nonzero" fill-opacity="1" /><path clip-path="url(#clip140)" d="M1304.77 34.1734 Q1303.52 33.4443 1302.02 33.1202 Q1300.56 32.7556 1298.78 32.7556 Q1292.46 32.7556 1289.06 36.8875 Q1285.69 40.9789 1285.69 48.6757 L1285.69 72.576 L1278.2 72.576 L1278.2 27.2059 L1285.69 27.2059 L1285.69 34.2544 Q1288.04 30.1225 1291.81 28.1376 Q1295.58 26.1121 1300.97 26.1121 Q1301.74 26.1121 1302.67 26.2337 Q1303.6 26.3147 1304.73 26.5172 L1304.77 34.1734 Z" fill="#000000" fill-rule="nonzero" fill-opacity="1" /><path clip-path="url(#clip140)" d="M1337.42 34.1734 Q1336.17 33.4443 1334.67 33.1202 Q1333.21 32.7556 1331.43 32.7556 Q1325.11 32.7556 1321.71 36.8875 Q1318.35 40.9789 1318.35 48.6757 L1318.35 72.576 L1310.85 72.576 L1310.85 27.2059 L1318.35 27.2059 L1318.35 34.2544 Q1320.69 30.1225 1324.46 28.1376 Q1328.23 26.1121 1333.62 26.1121 Q1334.39 26.1121 1335.32 26.2337 Q1336.25 26.3147 1337.38 26.5172 L1337.42 34.1734 Z" fill="#000000" fill-rule="nonzero" fill-opacity="1" /><path clip-path="url(#clip140)" d="M1382.23 48.0275 L1382.23 51.6733 L1347.96 51.6733 Q1348.44 59.3701 1352.58 63.421 Q1356.75 67.4314 1364.16 67.4314 Q1368.45 67.4314 1372.47 66.3781 Q1376.52 65.3249 1380.49 63.2184 L1380.49 70.267 Q1376.48 71.9684 1372.26 72.8596 Q1368.05 73.7508 1363.72 73.7508 Q1352.86 73.7508 1346.5 67.4314 Q1340.18 61.1119 1340.18 50.3365 Q1340.18 39.1965 1346.17 32.6746 Q1352.21 26.1121 1362.42 26.1121 Q1371.57 26.1121 1376.88 32.0264 Q1382.23 37.9003 1382.23 48.0275 M1374.77 45.84 Q1374.69 39.7232 1371.33 36.0774 Q1368.01 32.4315 1362.5 32.4315 Q1356.26 32.4315 1352.49 35.9558 Q1348.77 39.4801 1348.2 45.8805 L1374.77 45.84 Z" fill="#000000" fill-rule="nonzero" fill-opacity="1" /><path clip-path="url(#clip140)" d="M1394.46 9.54393 L1401.92 9.54393 L1401.92 72.576 L1394.46 72.576 L1394.46 9.54393 Z" fill="#000000" fill-rule="nonzero" fill-opacity="1" /><path clip-path="url(#clip140)" d="M1438.13 49.7694 Q1429.1 49.7694 1425.61 51.8354 Q1422.13 53.9013 1422.13 58.8839 Q1422.13 62.8538 1424.72 65.2034 Q1427.35 67.5124 1431.85 67.5124 Q1438.05 67.5124 1441.78 63.1374 Q1445.54 58.7219 1445.54 51.4303 L1445.54 49.7694 L1438.13 49.7694 M1453 46.6907 L1453 72.576 L1445.54 72.576 L1445.54 65.6895 Q1442.99 69.8214 1439.18 71.8063 Q1435.38 73.7508 1429.87 73.7508 Q1422.9 73.7508 1418.77 69.8619 Q1414.68 65.9325 1414.68 59.3701 Q1414.68 51.7138 1419.78 47.825 Q1424.92 43.9361 1435.09 43.9361 L1445.54 43.9361 L1445.54 43.2069 Q1445.54 38.0623 1442.14 35.2672 Q1438.78 32.4315 1432.66 32.4315 Q1428.77 32.4315 1425.09 33.3632 Q1421.4 34.295 1418 36.1584 L1418 29.2718 Q1422.09 27.692 1425.94 26.9223 Q1429.79 26.1121 1433.43 26.1121 Q1443.27 26.1121 1448.14 31.2163 Q1453 36.3204 1453 46.6907 Z" fill="#000000" fill-rule="nonzero" fill-opacity="1" /><path clip-path="url(#clip140)" d="M1475.72 14.324 L1475.72 27.2059 L1491.08 27.2059 L1491.08 32.9987 L1475.72 32.9987 L1475.72 57.6282 Q1475.72 63.1779 1477.22 64.7578 Q1478.76 66.3376 1483.42 66.3376 L1491.08 66.3376 L1491.08 72.576 L1483.42 72.576 Q1474.79 72.576 1471.51 69.3758 Q1468.23 66.1351 1468.23 57.6282 L1468.23 32.9987 L1462.76 32.9987 L1462.76 27.2059 L1468.23 27.2059 L1468.23 14.324 L1475.72 14.324 Z" fill="#000000" fill-rule="nonzero" fill-opacity="1" /><path clip-path="url(#clip140)" d="M1500.88 27.2059 L1508.33 27.2059 L1508.33 72.576 L1500.88 72.576 L1500.88 27.2059 M1500.88 9.54393 L1508.33 9.54393 L1508.33 18.9825 L1500.88 18.9825 L1500.88 9.54393 Z" fill="#000000" fill-rule="nonzero" fill-opacity="1" /><path clip-path="url(#clip140)" d="M1541.51 32.4315 Q1535.51 32.4315 1532.03 37.1306 Q1528.55 41.7891 1528.55 49.9314 Q1528.55 58.0738 1531.99 62.7728 Q1535.47 67.4314 1541.51 67.4314 Q1547.46 67.4314 1550.95 62.7323 Q1554.43 58.0333 1554.43 49.9314 Q1554.43 41.8701 1550.95 37.1711 Q1547.46 32.4315 1541.51 32.4315 M1541.51 26.1121 Q1551.23 26.1121 1556.78 32.4315 Q1562.33 38.7509 1562.33 49.9314 Q1562.33 61.0714 1556.78 67.4314 Q1551.23 73.7508 1541.51 73.7508 Q1531.75 73.7508 1526.2 67.4314 Q1520.69 61.0714 1520.69 49.9314 Q1520.69 38.7509 1526.2 32.4315 Q1531.75 26.1121 1541.51 26.1121 Z" fill="#000000" fill-rule="nonzero" fill-opacity="1" /><path clip-path="url(#clip140)" d="M1612.4 45.1919 L1612.4 72.576 L1604.95 72.576 L1604.95 45.4349 Q1604.95 38.994 1602.43 35.7938 Q1599.92 32.5936 1594.9 32.5936 Q1588.86 32.5936 1585.38 36.4419 Q1581.9 40.2903 1581.9 46.9338 L1581.9 72.576 L1574.4 72.576 L1574.4 27.2059 L1581.9 27.2059 L1581.9 34.2544 Q1584.57 30.163 1588.18 28.1376 Q1591.82 26.1121 1596.56 26.1121 Q1604.38 26.1121 1608.39 30.9732 Q1612.4 35.7938 1612.4 45.1919 Z" fill="#000000" fill-rule="nonzero" fill-opacity="1" /><path clip-path="url(#clip140)" d="M1671.54 9.62495 Q1666.12 18.942 1663.48 28.0566 Q1660.85 37.1711 1660.85 46.5287 Q1660.85 55.8863 1663.48 65.0818 Q1666.16 74.2369 1671.54 83.5134 L1665.06 83.5134 Q1658.99 73.9938 1655.95 64.7983 Q1652.95 55.6027 1652.95 46.5287 Q1652.95 37.4952 1655.95 28.3401 Q1658.95 19.1851 1665.06 9.62495 L1671.54 9.62495 Z" fill="#000000" fill-rule="nonzero" fill-opacity="1" /><path clip-path="url(#clip140)" d="M1686.33 12.096 L1697.35 12.096 L1724.16 62.6918 L1724.16 12.096 L1732.1 12.096 L1732.1 72.576 L1721.09 72.576 L1694.27 21.9802 L1694.27 72.576 L1686.33 72.576 L1686.33 12.096 Z" fill="#000000" fill-rule="nonzero" fill-opacity="1" /><path clip-path="url(#clip140)" d="M1775.41 34.9026 L1827.34 34.9026 L1827.34 41.7081 L1775.41 41.7081 L1775.41 34.9026 M1775.41 51.4303 L1827.34 51.4303 L1827.34 58.3168 L1775.41 58.3168 L1775.41 51.4303 Z" fill="#000000" fill-rule="nonzero" fill-opacity="1" /><path clip-path="url(#clip140)" d="M1869.31 12.096 L1908.2 12.096 L1908.2 15.5798 L1886.24 72.576 L1877.69 72.576 L1898.35 18.9825 L1869.31 18.9825 L1869.31 12.096 Z" fill="#000000" fill-rule="nonzero" fill-opacity="1" /><path clip-path="url(#clip140)" d="M1921.93 9.62495 L1928.41 9.62495 Q1934.49 19.1851 1937.49 28.3401 Q1940.52 37.4952 1940.52 46.5287 Q1940.52 55.6027 1937.49 64.7983 Q1934.49 73.9938 1928.41 83.5134 L1921.93 83.5134 Q1927.32 74.2369 1929.95 65.0818 Q1932.62 55.8863 1932.62 46.5287 Q1932.62 37.1711 1929.95 28.0566 Q1927.32 18.942 1921.93 9.62495 Z" fill="#000000" fill-rule="nonzero" fill-opacity="1" /><polyline clip-path="url(#clip141)" style="stroke:#009af9; stroke-linecap:round; stroke-linejoin:round; stroke-width:8; stroke-opacity:1; fill:none" points="309.067,1386.4 359.943,1386.4 410.819,1386.4 461.695,1386.4 512.571,1386.4 563.447,1385.38 614.323,1383.55 665.199,1382.84 716.075,1380.08 766.951,1371.25 817.827,1361.25 868.703,1342.96 919.579,1320.66 970.455,1289.64 1021.33,1244.08 1072.21,1196.36 1123.08,1137.8 1173.96,1052.21 1224.83,975.594 1275.71,864.579 1326.59,802.881 1377.46,723.349 1428.34,639.682 1479.21,572.352 1530.09,514.84 1580.97,461.108 1631.84,458.749 1682.72,405.017 1733.59,451.189 1784.47,407.326 1835.35,422.167 1886.22,394.007 1937.1,404.053 1987.97,373.407 2038.85,355.954 2089.73,326.5 2140.6,272.616 2191.48,199.908 2242.35,160.256 2293.23,180.196 "/>
<circle clip-path="url(#clip141)" cx="309.067" cy="1386.4" r="10.8" fill="#009af9" fill-rule="evenodd" fill-opacity="1" stroke="#000000" stroke-opacity="1" stroke-width="3.2"/>
<circle clip-path="url(#clip141)" cx="359.943" cy="1386.4" r="10.8" fill="#009af9" fill-rule="evenodd" fill-opacity="1" stroke="#000000" stroke-opacity="1" stroke-width="3.2"/>
<circle clip-path="url(#clip141)" cx="410.819" cy="1386.4" r="10.8" fill="#009af9" fill-rule="evenodd" fill-opacity="1" stroke="#000000" stroke-opacity="1" stroke-width="3.2"/>
<circle clip-path="url(#clip141)" cx="461.695" cy="1386.4" r="10.8" fill="#009af9" fill-rule="evenodd" fill-opacity="1" stroke="#000000" stroke-opacity="1" stroke-width="3.2"/>
<circle clip-path="url(#clip141)" cx="512.571" cy="1386.4" r="10.8" fill="#009af9" fill-rule="evenodd" fill-opacity="1" stroke="#000000" stroke-opacity="1" stroke-width="3.2"/>
<circle clip-path="url(#clip141)" cx="563.447" cy="1385.38" r="10.8" fill="#009af9" fill-rule="evenodd" fill-opacity="1" stroke="#000000" stroke-opacity="1" stroke-width="3.2"/>
<circle clip-path="url(#clip141)" cx="614.323" cy="1383.55" r="10.8" fill="#009af9" fill-rule="evenodd" fill-opacity="1" stroke="#000000" stroke-opacity="1" stroke-width="3.2"/>
<circle clip-path="url(#clip141)" cx="665.199" cy="1382.84" r="10.8" fill="#009af9" fill-rule="evenodd" fill-opacity="1" stroke="#000000" stroke-opacity="1" stroke-width="3.2"/>
<circle clip-path="url(#clip141)" cx="716.075" cy="1380.08" r="10.8" fill="#009af9" fill-rule="evenodd" fill-opacity="1" stroke="#000000" stroke-opacity="1" stroke-width="3.2"/>
<circle clip-path="url(#clip141)" cx="766.951" cy="1371.25" r="10.8" fill="#009af9" fill-rule="evenodd" fill-opacity="1" stroke="#000000" stroke-opacity="1" stroke-width="3.2"/>
<circle clip-path="url(#clip141)" cx="817.827" cy="1361.25" r="10.8" fill="#009af9" fill-rule="evenodd" fill-opacity="1" stroke="#000000" stroke-opacity="1" stroke-width="3.2"/>
<circle clip-path="url(#clip141)" cx="868.703" cy="1342.96" r="10.8" fill="#009af9" fill-rule="evenodd" fill-opacity="1" stroke="#000000" stroke-opacity="1" stroke-width="3.2"/>
<circle clip-path="url(#clip141)" cx="919.579" cy="1320.66" r="10.8" fill="#009af9" fill-rule="evenodd" fill-opacity="1" stroke="#000000" stroke-opacity="1" stroke-width="3.2"/>
<circle clip-path="url(#clip141)" cx="970.455" cy="1289.64" r="10.8" fill="#009af9" fill-rule="evenodd" fill-opacity="1" stroke="#000000" stroke-opacity="1" stroke-width="3.2"/>
<circle clip-path="url(#clip141)" cx="1021.33" cy="1244.08" r="10.8" fill="#009af9" fill-rule="evenodd" fill-opacity="1" stroke="#000000" stroke-opacity="1" stroke-width="3.2"/>
<circle clip-path="url(#clip141)" cx="1072.21" cy="1196.36" r="10.8" fill="#009af9" fill-rule="evenodd" fill-opacity="1" stroke="#000000" stroke-opacity="1" stroke-width="3.2"/>
<circle clip-path="url(#clip141)" cx="1123.08" cy="1137.8" r="10.8" fill="#009af9" fill-rule="evenodd" fill-opacity="1" stroke="#000000" stroke-opacity="1" stroke-width="3.2"/>
<circle clip-path="url(#clip141)" cx="1173.96" cy="1052.21" r="10.8" fill="#009af9" fill-rule="evenodd" fill-opacity="1" stroke="#000000" stroke-opacity="1" stroke-width="3.2"/>
<circle clip-path="url(#clip141)" cx="1224.83" cy="975.594" r="10.8" fill="#009af9" fill-rule="evenodd" fill-opacity="1" stroke="#000000" stroke-opacity="1" stroke-width="3.2"/>
<circle clip-path="url(#clip141)" cx="1275.71" cy="864.579" r="10.8" fill="#009af9" fill-rule="evenodd" fill-opacity="1" stroke="#000000" stroke-opacity="1" stroke-width="3.2"/>
<circle clip-path="url(#clip141)" cx="1326.59" cy="802.881" r="10.8" fill="#009af9" fill-rule="evenodd" fill-opacity="1" stroke="#000000" stroke-opacity="1" stroke-width="3.2"/>
<circle clip-path="url(#clip141)" cx="1377.46" cy="723.349" r="10.8" fill="#009af9" fill-rule="evenodd" fill-opacity="1" stroke="#000000" stroke-opacity="1" stroke-width="3.2"/>
<circle clip-path="url(#clip141)" cx="1428.34" cy="639.682" r="10.8" fill="#009af9" fill-rule="evenodd" fill-opacity="1" stroke="#000000" stroke-opacity="1" stroke-width="3.2"/>
<circle clip-path="url(#clip141)" cx="1479.21" cy="572.352" r="10.8" fill="#009af9" fill-rule="evenodd" fill-opacity="1" stroke="#000000" stroke-opacity="1" stroke-width="3.2"/>
<circle clip-path="url(#clip141)" cx="1530.09" cy="514.84" r="10.8" fill="#009af9" fill-rule="evenodd" fill-opacity="1" stroke="#000000" stroke-opacity="1" stroke-width="3.2"/>
<circle clip-path="url(#clip141)" cx="1580.97" cy="461.108" r="10.8" fill="#009af9" fill-rule="evenodd" fill-opacity="1" stroke="#000000" stroke-opacity="1" stroke-width="3.2"/>
<circle clip-path="url(#clip141)" cx="1631.84" cy="458.749" r="10.8" fill="#009af9" fill-rule="evenodd" fill-opacity="1" stroke="#000000" stroke-opacity="1" stroke-width="3.2"/>
<circle clip-path="url(#clip141)" cx="1682.72" cy="405.017" r="10.8" fill="#009af9" fill-rule="evenodd" fill-opacity="1" stroke="#000000" stroke-opacity="1" stroke-width="3.2"/>
<circle clip-path="url(#clip141)" cx="1733.59" cy="451.189" r="10.8" fill="#009af9" fill-rule="evenodd" fill-opacity="1" stroke="#000000" stroke-opacity="1" stroke-width="3.2"/>
<circle clip-path="url(#clip141)" cx="1784.47" cy="407.326" r="10.8" fill="#009af9" fill-rule="evenodd" fill-opacity="1" stroke="#000000" stroke-opacity="1" stroke-width="3.2"/>
<circle clip-path="url(#clip141)" cx="1835.35" cy="422.167" r="10.8" fill="#009af9" fill-rule="evenodd" fill-opacity="1" stroke="#000000" stroke-opacity="1" stroke-width="3.2"/>
<circle clip-path="url(#clip141)" cx="1886.22" cy="394.007" r="10.8" fill="#009af9" fill-rule="evenodd" fill-opacity="1" stroke="#000000" stroke-opacity="1" stroke-width="3.2"/>
<circle clip-path="url(#clip141)" cx="1937.1" cy="404.053" r="10.8" fill="#009af9" fill-rule="evenodd" fill-opacity="1" stroke="#000000" stroke-opacity="1" stroke-width="3.2"/>
<circle clip-path="url(#clip141)" cx="1987.97" cy="373.407" r="10.8" fill="#009af9" fill-rule="evenodd" fill-opacity="1" stroke="#000000" stroke-opacity="1" stroke-width="3.2"/>
<circle clip-path="url(#clip141)" cx="2038.85" cy="355.954" r="10.8" fill="#009af9" fill-rule="evenodd" fill-opacity="1" stroke="#000000" stroke-opacity="1" stroke-width="3.2"/>
<circle clip-path="url(#clip141)" cx="2089.73" cy="326.5" r="10.8" fill="#009af9" fill-rule="evenodd" fill-opacity="1" stroke="#000000" stroke-opacity="1" stroke-width="3.2"/>
<circle clip-path="url(#clip141)" cx="2140.6" cy="272.616" r="10.8" fill="#009af9" fill-rule="evenodd" fill-opacity="1" stroke="#000000" stroke-opacity="1" stroke-width="3.2"/>
<circle clip-path="url(#clip141)" cx="2191.48" cy="199.908" r="10.8" fill="#009af9" fill-rule="evenodd" fill-opacity="1" stroke="#000000" stroke-opacity="1" stroke-width="3.2"/>
<circle clip-path="url(#clip141)" cx="2242.35" cy="160.256" r="10.8" fill="#009af9" fill-rule="evenodd" fill-opacity="1" stroke="#000000" stroke-opacity="1" stroke-width="3.2"/>
<circle clip-path="url(#clip141)" cx="2293.23" cy="180.196" r="10.8" fill="#009af9" fill-rule="evenodd" fill-opacity="1" stroke="#000000" stroke-opacity="1" stroke-width="3.2"/>
</svg>
