<?xml version="1.0" encoding="utf-8"?>
<svg xmlns="http://www.w3.org/2000/svg" xmlns:xlink="http://www.w3.org/1999/xlink" width="600" height="400" viewBox="0 0 2400 1600">
<defs>
  <clipPath id="clip600">
    <rect x="0" y="0" width="2400" height="1600"/>
  </clipPath>
</defs>
<path clip-path="url(#clip600)" d="M0 1600 L2400 1600 L2400 0 L0 0  Z" fill="#ffffff" fill-rule="evenodd" fill-opacity="1"/>
<defs>
  <clipPath id="clip601">
    <rect x="219" y="123" width="2134" height="1301"/>
  </clipPath>
</defs>
<path clip-path="url(#clip600)" d="M219.866 1423.18 L2352.76 1423.18 L2352.76 123.472 L219.866 123.472  Z" fill="#ffffff" fill-rule="evenodd" fill-opacity="1"/>
<polyline clip-path="url(#clip601)" style="stroke:#000000; stroke-linecap:round; stroke-linejoin:round; stroke-width:2; stroke-opacity:0.1; fill:none" points="530.811,1423.18 530.811,123.472 "/>
<polyline clip-path="url(#clip601)" style="stroke:#000000; stroke-linecap:round; stroke-linejoin:round; stroke-width:2; stroke-opacity:0.1; fill:none" points="883.586,1423.18 883.586,123.472 "/>
<polyline clip-path="url(#clip601)" style="stroke:#000000; stroke-linecap:round; stroke-linejoin:round; stroke-width:2; stroke-opacity:0.1; fill:none" points="1236.36,1423.18 1236.36,123.472 "/>
<polyline clip-path="url(#clip601)" style="stroke:#000000; stroke-linecap:round; stroke-linejoin:round; stroke-width:2; stroke-opacity:0.1; fill:none" points="1589.14,1423.18 1589.14,123.472 "/>
<polyline clip-path="url(#clip601)" style="stroke:#000000; stroke-linecap:round; stroke-linejoin:round; stroke-width:2; stroke-opacity:0.1; fill:none" points="1941.91,1423.18 1941.91,123.472 "/>
<polyline clip-path="url(#clip601)" style="stroke:#000000; stroke-linecap:round; stroke-linejoin:round; stroke-width:2; stroke-opacity:0.1; fill:none" points="2294.68,1423.18 2294.68,123.472 "/>
<polyline clip-path="url(#clip601)" style="stroke:#000000; stroke-linecap:round; stroke-linejoin:round; stroke-width:2; stroke-opacity:0.1; fill:none" points="219.866,1423.18 2352.76,1423.18 "/>
<polyline clip-path="url(#clip601)" style="stroke:#000000; stroke-linecap:round; stroke-linejoin:round; stroke-width:2; stroke-opacity:0.1; fill:none" points="219.866,1237.51 2352.76,1237.51 "/>
<polyline clip-path="url(#clip601)" style="stroke:#000000; stroke-linecap:round; stroke-linejoin:round; stroke-width:2; stroke-opacity:0.1; fill:none" points="219.866,1051.83 2352.76,1051.83 "/>
<polyline clip-path="url(#clip601)" style="stroke:#000000; stroke-linecap:round; stroke-linejoin:round; stroke-width:2; stroke-opacity:0.1; fill:none" points="219.866,866.162 2352.76,866.162 "/>
<polyline clip-path="url(#clip601)" style="stroke:#000000; stroke-linecap:round; stroke-linejoin:round; stroke-width:2; stroke-opacity:0.1; fill:none" points="219.866,680.49 2352.76,680.49 "/>
<polyline clip-path="url(#clip601)" style="stroke:#000000; stroke-linecap:round; stroke-linejoin:round; stroke-width:2; stroke-opacity:0.1; fill:none" points="219.866,494.817 2352.76,494.817 "/>
<polyline clip-path="url(#clip601)" style="stroke:#000000; stroke-linecap:round; stroke-linejoin:round; stroke-width:2; stroke-opacity:0.1; fill:none" points="219.866,309.145 2352.76,309.145 "/>
<polyline clip-path="url(#clip600)" style="stroke:#000000; stroke-linecap:round; stroke-linejoin:round; stroke-width:4; stroke-opacity:1; fill:none" points="219.866,1423.18 2352.76,1423.18 "/>
<polyline clip-path="url(#clip600)" style="stroke:#000000; stroke-linecap:round; stroke-linejoin:round; stroke-width:4; stroke-opacity:1; fill:none" points="530.811,1423.18 530.811,1404.28 "/>
<polyline clip-path="url(#clip600)" style="stroke:#000000; stroke-linecap:round; stroke-linejoin:round; stroke-width:4; stroke-opacity:1; fill:none" points="883.586,1423.18 883.586,1404.28 "/>
<polyline clip-path="url(#clip600)" style="stroke:#000000; stroke-linecap:round; stroke-linejoin:round; stroke-width:4; stroke-opacity:1; fill:none" points="1236.36,1423.18 1236.36,1404.28 "/>
<polyline clip-path="url(#clip600)" style="stroke:#000000; stroke-linecap:round; stroke-linejoin:round; stroke-width:4; stroke-opacity:1; fill:none" points="1589.14,1423.18 1589.14,1404.28 "/>
<polyline clip-path="url(#clip600)" style="stroke:#000000; stroke-linecap:round; stroke-linejoin:round; stroke-width:4; stroke-opacity:1; fill:none" points="1941.91,1423.18 1941.91,1404.28 "/>
<polyline clip-path="url(#clip600)" style="stroke:#000000; stroke-linecap:round; stroke-linejoin:round; stroke-width:4; stroke-opacity:1; fill:none" points="2294.68,1423.18 2294.68,1404.28 "/>
<path clip-path="url(#clip600)" d="M508.694 1454.1 Q505.082 1454.1 503.254 1457.66 Q501.448 1461.2 501.448 1468.33 Q501.448 1475.44 503.254 1479.01 Q505.082 1482.55 508.694 1482.55 Q512.328 1482.55 514.133 1479.01 Q515.962 1475.44 515.962 1468.33 Q515.962 1461.2 514.133 1457.66 Q512.328 1454.1 508.694 1454.1 M508.694 1450.39 Q514.504 1450.39 517.559 1455 Q520.638 1459.58 520.638 1468.33 Q520.638 1477.06 517.559 1481.67 Q514.504 1486.25 508.694 1486.25 Q502.883 1486.25 499.805 1481.67 Q496.749 1477.06 496.749 1468.33 Q496.749 1459.58 499.805 1455 Q502.883 1450.39 508.694 1450.39 Z" fill="#000000" fill-rule="nonzero" fill-opacity="1" /><path clip-path="url(#clip600)" d="M528.855 1479.7 L533.74 1479.7 L533.74 1485.58 L528.855 1485.58 L528.855 1479.7 Z" fill="#000000" fill-rule="nonzero" fill-opacity="1" /><path clip-path="url(#clip600)" d="M543.971 1451.02 L562.328 1451.02 L562.328 1454.96 L548.254 1454.96 L548.254 1463.43 Q549.272 1463.08 550.291 1462.92 Q551.309 1462.73 552.328 1462.73 Q558.115 1462.73 561.494 1465.9 Q564.874 1469.08 564.874 1474.49 Q564.874 1480.07 561.402 1483.17 Q557.929 1486.25 551.61 1486.25 Q549.434 1486.25 547.166 1485.88 Q544.92 1485.51 542.513 1484.77 L542.513 1480.07 Q544.596 1481.2 546.818 1481.76 Q549.041 1482.32 551.517 1482.32 Q555.522 1482.32 557.86 1480.21 Q560.198 1478.1 560.198 1474.49 Q560.198 1470.88 557.86 1468.77 Q555.522 1466.67 551.517 1466.67 Q549.642 1466.67 547.767 1467.08 Q545.916 1467.5 543.971 1468.38 L543.971 1451.02 Z" fill="#000000" fill-rule="nonzero" fill-opacity="1" /><path clip-path="url(#clip600)" d="M850.739 1481.64 L858.378 1481.64 L858.378 1455.28 L850.068 1456.95 L850.068 1452.69 L858.332 1451.02 L863.008 1451.02 L863.008 1481.64 L870.646 1481.64 L870.646 1485.58 L850.739 1485.58 L850.739 1481.64 Z" fill="#000000" fill-rule="nonzero" fill-opacity="1" /><path clip-path="url(#clip600)" d="M880.091 1479.7 L884.975 1479.7 L884.975 1485.58 L880.091 1485.58 L880.091 1479.7 Z" fill="#000000" fill-rule="nonzero" fill-opacity="1" /><path clip-path="url(#clip600)" d="M905.16 1454.1 Q901.549 1454.1 899.72 1457.66 Q897.915 1461.2 897.915 1468.33 Q897.915 1475.44 899.72 1479.01 Q901.549 1482.55 905.16 1482.55 Q908.794 1482.55 910.6 1479.01 Q912.429 1475.44 912.429 1468.33 Q912.429 1461.2 910.6 1457.66 Q908.794 1454.1 905.16 1454.1 M905.16 1450.39 Q910.97 1450.39 914.026 1455 Q917.104 1459.58 917.104 1468.33 Q917.104 1477.06 914.026 1481.67 Q910.97 1486.25 905.16 1486.25 Q899.35 1486.25 896.271 1481.67 Q893.216 1477.06 893.216 1468.33 Q893.216 1459.58 896.271 1455 Q899.35 1450.39 905.16 1450.39 Z" fill="#000000" fill-rule="nonzero" fill-opacity="1" /><path clip-path="url(#clip600)" d="M1204.01 1481.64 L1211.65 1481.64 L1211.65 1455.28 L1203.34 1456.95 L1203.34 1452.69 L1211.6 1451.02 L1216.28 1451.02 L1216.28 1481.64 L1223.92 1481.64 L1223.92 1485.58 L1204.01 1485.58 L1204.01 1481.64 Z" fill="#000000" fill-rule="nonzero" fill-opacity="1" /><path clip-path="url(#clip600)" d="M1233.36 1479.7 L1238.25 1479.7 L1238.25 1485.58 L1233.36 1485.58 L1233.36 1479.7 Z" fill="#000000" fill-rule="nonzero" fill-opacity="1" /><path clip-path="url(#clip600)" d="M1248.48 1451.02 L1266.84 1451.02 L1266.84 1454.96 L1252.76 1454.96 L1252.76 1463.43 Q1253.78 1463.08 1254.8 1462.92 Q1255.82 1462.73 1256.84 1462.73 Q1262.62 1462.73 1266 1465.9 Q1269.38 1469.08 1269.38 1474.49 Q1269.38 1480.07 1265.91 1483.17 Q1262.44 1486.25 1256.12 1486.25 Q1253.94 1486.25 1251.67 1485.88 Q1249.43 1485.51 1247.02 1484.77 L1247.02 1480.07 Q1249.1 1481.2 1251.33 1481.76 Q1253.55 1482.32 1256.03 1482.32 Q1260.03 1482.32 1262.37 1480.21 Q1264.71 1478.1 1264.71 1474.49 Q1264.71 1470.88 1262.37 1468.77 Q1260.03 1466.67 1256.03 1466.67 Q1254.15 1466.67 1252.28 1467.08 Q1250.42 1467.5 1248.48 1468.38 L1248.48 1451.02 Z" fill="#000000" fill-rule="nonzero" fill-opacity="1" /><path clip-path="url(#clip600)" d="M1560.37 1481.64 L1576.69 1481.64 L1576.69 1485.58 L1554.75 1485.58 L1554.75 1481.64 Q1557.41 1478.89 1561.99 1474.26 Q1566.6 1469.61 1567.78 1468.27 Q1570.03 1465.74 1570.91 1464.01 Q1571.81 1462.25 1571.81 1460.56 Q1571.81 1457.8 1569.86 1456.07 Q1567.94 1454.33 1564.84 1454.33 Q1562.64 1454.33 1560.19 1455.09 Q1557.76 1455.86 1554.98 1457.41 L1554.98 1452.69 Q1557.8 1451.55 1560.26 1450.97 Q1562.71 1450.39 1564.75 1450.39 Q1570.12 1450.39 1573.31 1453.08 Q1576.51 1455.77 1576.51 1460.26 Q1576.51 1462.39 1575.7 1464.31 Q1574.91 1466.2 1572.8 1468.8 Q1572.23 1469.47 1569.12 1472.69 Q1566.02 1475.88 1560.37 1481.64 Z" fill="#000000" fill-rule="nonzero" fill-opacity="1" /><path clip-path="url(#clip600)" d="M1586.51 1479.7 L1591.39 1479.7 L1591.39 1485.58 L1586.51 1485.58 L1586.51 1479.7 Z" fill="#000000" fill-rule="nonzero" fill-opacity="1" /><path clip-path="url(#clip600)" d="M1611.58 1454.1 Q1607.97 1454.1 1606.14 1457.66 Q1604.33 1461.2 1604.33 1468.33 Q1604.33 1475.44 1606.14 1479.01 Q1607.97 1482.55 1611.58 1482.55 Q1615.21 1482.55 1617.02 1479.01 Q1618.85 1475.44 1618.85 1468.33 Q1618.85 1461.2 1617.02 1457.66 Q1615.21 1454.1 1611.58 1454.1 M1611.58 1450.39 Q1617.39 1450.39 1620.44 1455 Q1623.52 1459.58 1623.52 1468.33 Q1623.52 1477.06 1620.44 1481.67 Q1617.39 1486.25 1611.58 1486.25 Q1605.77 1486.25 1602.69 1481.67 Q1599.63 1477.06 1599.63 1468.33 Q1599.63 1459.58 1602.69 1455 Q1605.77 1450.39 1611.58 1450.39 Z" fill="#000000" fill-rule="nonzero" fill-opacity="1" /><path clip-path="url(#clip600)" d="M1913.65 1481.64 L1929.97 1481.64 L1929.97 1485.58 L1908.02 1485.58 L1908.02 1481.64 Q1910.68 1478.89 1915.27 1474.26 Q1919.87 1469.61 1921.05 1468.27 Q1923.3 1465.74 1924.18 1464.01 Q1925.08 1462.25 1925.08 1460.56 Q1925.08 1457.8 1923.14 1456.07 Q1921.22 1454.33 1918.11 1454.33 Q1915.91 1454.33 1913.46 1455.09 Q1911.03 1455.86 1908.25 1457.41 L1908.25 1452.69 Q1911.08 1451.55 1913.53 1450.97 Q1915.98 1450.39 1918.02 1450.39 Q1923.39 1450.39 1926.59 1453.08 Q1929.78 1455.77 1929.78 1460.26 Q1929.78 1462.39 1928.97 1464.31 Q1928.18 1466.2 1926.08 1468.8 Q1925.5 1469.47 1922.4 1472.69 Q1919.29 1475.88 1913.65 1481.64 Z" fill="#000000" fill-rule="nonzero" fill-opacity="1" /><path clip-path="url(#clip600)" d="M1939.78 1479.7 L1944.66 1479.7 L1944.66 1485.58 L1939.78 1485.58 L1939.78 1479.7 Z" fill="#000000" fill-rule="nonzero" fill-opacity="1" /><path clip-path="url(#clip600)" d="M1954.9 1451.02 L1973.25 1451.02 L1973.25 1454.96 L1959.18 1454.96 L1959.18 1463.43 Q1960.2 1463.08 1961.22 1462.92 Q1962.23 1462.73 1963.25 1462.73 Q1969.04 1462.73 1972.42 1465.9 Q1975.8 1469.08 1975.8 1474.49 Q1975.8 1480.07 1972.33 1483.17 Q1968.85 1486.25 1962.53 1486.25 Q1960.36 1486.25 1958.09 1485.88 Q1955.85 1485.51 1953.44 1484.77 L1953.44 1480.07 Q1955.52 1481.2 1957.74 1481.76 Q1959.97 1482.32 1962.44 1482.32 Q1966.45 1482.32 1968.78 1480.21 Q1971.12 1478.1 1971.12 1474.49 Q1971.12 1470.88 1968.78 1468.77 Q1966.45 1466.67 1962.44 1466.67 Q1960.57 1466.67 1958.69 1467.08 Q1956.84 1467.5 1954.9 1468.38 L1954.9 1451.02 Z" fill="#000000" fill-rule="nonzero" fill-opacity="1" /><path clip-path="url(#clip600)" d="M2275.99 1466.95 Q2279.35 1467.66 2281.22 1469.93 Q2283.12 1472.2 2283.12 1475.53 Q2283.12 1480.65 2279.6 1483.45 Q2276.09 1486.25 2269.6 1486.25 Q2267.43 1486.25 2265.11 1485.81 Q2262.82 1485.39 2260.37 1484.54 L2260.37 1480.02 Q2262.31 1481.16 2264.63 1481.74 Q2266.94 1482.32 2269.46 1482.32 Q2273.86 1482.32 2276.15 1480.58 Q2278.47 1478.84 2278.47 1475.53 Q2278.47 1472.48 2276.32 1470.77 Q2274.19 1469.03 2270.37 1469.03 L2266.34 1469.03 L2266.34 1465.19 L2270.55 1465.19 Q2274 1465.19 2275.83 1463.82 Q2277.66 1462.43 2277.66 1459.84 Q2277.66 1457.18 2275.76 1455.77 Q2273.89 1454.33 2270.37 1454.33 Q2268.45 1454.33 2266.25 1454.75 Q2264.05 1455.16 2261.41 1456.04 L2261.41 1451.88 Q2264.07 1451.14 2266.39 1450.77 Q2268.72 1450.39 2270.78 1450.39 Q2276.11 1450.39 2279.21 1452.83 Q2282.31 1455.23 2282.31 1459.35 Q2282.31 1462.22 2280.67 1464.21 Q2279.03 1466.18 2275.99 1466.95 Z" fill="#000000" fill-rule="nonzero" fill-opacity="1" /><path clip-path="url(#clip600)" d="M2291.99 1479.7 L2296.87 1479.7 L2296.87 1485.58 L2291.99 1485.58 L2291.99 1479.7 Z" fill="#000000" fill-rule="nonzero" fill-opacity="1" /><path clip-path="url(#clip600)" d="M2317.06 1454.1 Q2313.45 1454.1 2311.62 1457.66 Q2309.81 1461.2 2309.81 1468.33 Q2309.81 1475.44 2311.62 1479.01 Q2313.45 1482.55 2317.06 1482.55 Q2320.69 1482.55 2322.5 1479.01 Q2324.33 1475.44 2324.33 1468.33 Q2324.33 1461.2 2322.5 1457.66 Q2320.69 1454.1 2317.06 1454.1 M2317.06 1450.39 Q2322.87 1450.39 2325.92 1455 Q2329 1459.58 2329 1468.33 Q2329 1477.06 2325.92 1481.67 Q2322.87 1486.25 2317.06 1486.25 Q2311.25 1486.25 2308.17 1481.67 Q2305.11 1477.06 2305.11 1468.33 Q2305.11 1459.58 2308.17 1455 Q2311.25 1450.39 2317.06 1450.39 Z" fill="#000000" fill-rule="nonzero" fill-opacity="1" /><path clip-path="url(#clip600)" d="M1296.43 1545.45 L1276.16 1545.45 Q1276.64 1554.96 1278.83 1559 Q1281.57 1563.97 1286.31 1563.97 Q1291.09 1563.97 1293.73 1558.97 Q1296.05 1554.58 1296.43 1545.45 M1296.34 1540.03 Q1295.45 1531 1293.73 1527.81 Q1290.99 1522.78 1286.31 1522.78 Q1281.44 1522.78 1278.86 1527.75 Q1276.83 1531.76 1276.22 1540.03 L1296.34 1540.03 M1286.31 1518.01 Q1293.95 1518.01 1298.31 1524.76 Q1302.67 1531.47 1302.67 1543.38 Q1302.67 1555.25 1298.31 1562 Q1293.95 1568.78 1286.31 1568.78 Q1278.64 1568.78 1274.31 1562 Q1269.95 1555.25 1269.95 1543.38 Q1269.95 1531.47 1274.31 1524.76 Q1278.64 1518.01 1286.31 1518.01 Z" fill="#000000" fill-rule="nonzero" fill-opacity="1" /><polyline clip-path="url(#clip600)" style="stroke:#000000; stroke-linecap:round; stroke-linejoin:round; stroke-width:4; stroke-opacity:1; fill:none" points="219.866,1423.18 219.866,123.472 "/>
<polyline clip-path="url(#clip600)" style="stroke:#000000; stroke-linecap:round; stroke-linejoin:round; stroke-width:4; stroke-opacity:1; fill:none" points="219.866,1423.18 238.764,1423.18 "/>
<polyline clip-path="url(#clip600)" style="stroke:#000000; stroke-linecap:round; stroke-linejoin:round; stroke-width:4; stroke-opacity:1; fill:none" points="219.866,1237.51 238.764,1237.51 "/>
<polyline clip-path="url(#clip600)" style="stroke:#000000; stroke-linecap:round; stroke-linejoin:round; stroke-width:4; stroke-opacity:1; fill:none" points="219.866,1051.83 238.764,1051.83 "/>
<polyline clip-path="url(#clip600)" style="stroke:#000000; stroke-linecap:round; stroke-linejoin:round; stroke-width:4; stroke-opacity:1; fill:none" points="219.866,866.162 238.764,866.162 "/>
<polyline clip-path="url(#clip600)" style="stroke:#000000; stroke-linecap:round; stroke-linejoin:round; stroke-width:4; stroke-opacity:1; fill:none" points="219.866,680.49 238.764,680.49 "/>
<polyline clip-path="url(#clip600)" style="stroke:#000000; stroke-linecap:round; stroke-linejoin:round; stroke-width:4; stroke-opacity:1; fill:none" points="219.866,494.817 238.764,494.817 "/>
<polyline clip-path="url(#clip600)" style="stroke:#000000; stroke-linecap:round; stroke-linejoin:round; stroke-width:4; stroke-opacity:1; fill:none" points="219.866,309.145 238.764,309.145 "/>
<path clip-path="url(#clip600)" d="M126.691 1408.98 Q123.08 1408.98 121.251 1412.54 Q119.445 1416.08 119.445 1423.21 Q119.445 1430.32 121.251 1433.89 Q123.08 1437.43 126.691 1437.43 Q130.325 1437.43 132.13 1433.89 Q133.959 1430.32 133.959 1423.21 Q133.959 1416.08 132.13 1412.54 Q130.325 1408.98 126.691 1408.98 M126.691 1405.27 Q132.501 1405.27 135.556 1409.88 Q138.635 1414.46 138.635 1423.21 Q138.635 1431.94 135.556 1436.55 Q132.501 1441.13 126.691 1441.13 Q120.88 1441.13 117.802 1436.55 Q114.746 1431.94 114.746 1423.21 Q114.746 1414.46 117.802 1409.88 Q120.88 1405.27 126.691 1405.27 Z" fill="#000000" fill-rule="nonzero" fill-opacity="1" /><path clip-path="url(#clip600)" d="M146.853 1434.58 L151.737 1434.58 L151.737 1440.46 L146.853 1440.46 L146.853 1434.58 Z" fill="#000000" fill-rule="nonzero" fill-opacity="1" /><path clip-path="url(#clip600)" d="M171.922 1408.98 Q168.311 1408.98 166.482 1412.54 Q164.677 1416.08 164.677 1423.21 Q164.677 1430.32 166.482 1433.89 Q168.311 1437.43 171.922 1437.43 Q175.556 1437.43 177.362 1433.89 Q179.19 1430.32 179.19 1423.21 Q179.19 1416.08 177.362 1412.54 Q175.556 1408.98 171.922 1408.98 M171.922 1405.27 Q177.732 1405.27 180.788 1409.88 Q183.866 1414.46 183.866 1423.21 Q183.866 1431.94 180.788 1436.55 Q177.732 1441.13 171.922 1441.13 Q166.112 1441.13 163.033 1436.55 Q159.978 1431.94 159.978 1423.21 Q159.978 1414.46 163.033 1409.88 Q166.112 1405.27 171.922 1405.27 Z" fill="#000000" fill-rule="nonzero" fill-opacity="1" /><path clip-path="url(#clip600)" d="M127.917 1223.31 Q124.306 1223.31 122.478 1226.87 Q120.672 1230.41 120.672 1237.54 Q120.672 1244.65 122.478 1248.21 Q124.306 1251.75 127.917 1251.75 Q131.552 1251.75 133.357 1248.21 Q135.186 1244.65 135.186 1237.54 Q135.186 1230.41 133.357 1226.87 Q131.552 1223.31 127.917 1223.31 M127.917 1219.6 Q133.728 1219.6 136.783 1224.21 Q139.862 1228.79 139.862 1237.54 Q139.862 1246.27 136.783 1250.88 Q133.728 1255.46 127.917 1255.46 Q122.107 1255.46 119.029 1250.88 Q115.973 1246.27 115.973 1237.54 Q115.973 1228.79 119.029 1224.21 Q122.107 1219.6 127.917 1219.6 Z" fill="#000000" fill-rule="nonzero" fill-opacity="1" /><path clip-path="url(#clip600)" d="M148.079 1248.91 L152.964 1248.91 L152.964 1254.79 L148.079 1254.79 L148.079 1248.91 Z" fill="#000000" fill-rule="nonzero" fill-opacity="1" /><path clip-path="url(#clip600)" d="M163.959 1250.85 L171.598 1250.85 L171.598 1224.49 L163.288 1226.15 L163.288 1221.89 L171.552 1220.23 L176.227 1220.23 L176.227 1250.85 L183.866 1250.85 L183.866 1254.79 L163.959 1254.79 L163.959 1250.85 Z" fill="#000000" fill-rule="nonzero" fill-opacity="1" /><path clip-path="url(#clip600)" d="M128.288 1037.63 Q124.677 1037.63 122.848 1041.2 Q121.043 1044.74 121.043 1051.87 Q121.043 1058.98 122.848 1062.54 Q124.677 1066.08 128.288 1066.08 Q131.922 1066.08 133.728 1062.54 Q135.556 1058.98 135.556 1051.87 Q135.556 1044.74 133.728 1041.2 Q131.922 1037.63 128.288 1037.63 M128.288 1033.93 Q134.098 1033.93 137.154 1038.54 Q140.232 1043.12 140.232 1051.87 Q140.232 1060.6 137.154 1065.2 Q134.098 1069.79 128.288 1069.79 Q122.478 1069.79 119.399 1065.2 Q116.343 1060.6 116.343 1051.87 Q116.343 1043.12 119.399 1038.54 Q122.478 1033.93 128.288 1033.93 Z" fill="#000000" fill-rule="nonzero" fill-opacity="1" /><path clip-path="url(#clip600)" d="M148.45 1063.24 L153.334 1063.24 L153.334 1069.11 L148.45 1069.11 L148.45 1063.24 Z" fill="#000000" fill-rule="nonzero" fill-opacity="1" /><path clip-path="url(#clip600)" d="M167.547 1065.18 L183.866 1065.18 L183.866 1069.11 L161.922 1069.11 L161.922 1065.18 Q164.584 1062.43 169.167 1057.8 Q173.774 1053.14 174.954 1051.8 Q177.2 1049.28 178.079 1047.54 Q178.982 1045.78 178.982 1044.09 Q178.982 1041.34 177.038 1039.6 Q175.116 1037.86 172.014 1037.86 Q169.815 1037.86 167.362 1038.63 Q164.931 1039.39 162.153 1040.94 L162.153 1036.22 Q164.977 1035.09 167.431 1034.51 Q169.885 1033.93 171.922 1033.93 Q177.292 1033.93 180.487 1036.61 Q183.681 1039.3 183.681 1043.79 Q183.681 1045.92 182.871 1047.84 Q182.084 1049.74 179.977 1052.33 Q179.399 1053 176.297 1056.22 Q173.195 1059.42 167.547 1065.18 Z" fill="#000000" fill-rule="nonzero" fill-opacity="1" /><path clip-path="url(#clip600)" d="M127.339 851.961 Q123.728 851.961 121.899 855.526 Q120.093 859.067 120.093 866.197 Q120.093 873.303 121.899 876.868 Q123.728 880.41 127.339 880.41 Q130.973 880.41 132.779 876.868 Q134.607 873.303 134.607 866.197 Q134.607 859.067 132.779 855.526 Q130.973 851.961 127.339 851.961 M127.339 848.257 Q133.149 848.257 136.204 852.864 Q139.283 857.447 139.283 866.197 Q139.283 874.924 136.204 879.53 Q133.149 884.114 127.339 884.114 Q121.529 884.114 118.45 879.53 Q115.394 874.924 115.394 866.197 Q115.394 857.447 118.45 852.864 Q121.529 848.257 127.339 848.257 Z" fill="#000000" fill-rule="nonzero" fill-opacity="1" /><path clip-path="url(#clip600)" d="M147.501 877.563 L152.385 877.563 L152.385 883.442 L147.501 883.442 L147.501 877.563 Z" fill="#000000" fill-rule="nonzero" fill-opacity="1" /><path clip-path="url(#clip600)" d="M176.737 864.808 Q180.093 865.526 181.968 867.794 Q183.866 870.063 183.866 873.396 Q183.866 878.512 180.348 881.313 Q176.829 884.114 170.348 884.114 Q168.172 884.114 165.857 883.674 Q163.565 883.257 161.112 882.401 L161.112 877.887 Q163.056 879.021 165.371 879.6 Q167.686 880.178 170.209 880.178 Q174.607 880.178 176.899 878.442 Q179.214 876.706 179.214 873.396 Q179.214 870.34 177.061 868.628 Q174.931 866.891 171.112 866.891 L167.084 866.891 L167.084 863.049 L171.297 863.049 Q174.746 863.049 176.575 861.683 Q178.403 860.294 178.403 857.702 Q178.403 855.04 176.505 853.628 Q174.63 852.192 171.112 852.192 Q169.19 852.192 166.991 852.609 Q164.792 853.026 162.153 853.905 L162.153 849.739 Q164.815 848.998 167.13 848.628 Q169.468 848.257 171.528 848.257 Q176.852 848.257 179.954 850.688 Q183.056 853.095 183.056 857.216 Q183.056 860.086 181.413 862.077 Q179.769 864.044 176.737 864.808 Z" fill="#000000" fill-rule="nonzero" fill-opacity="1" /><path clip-path="url(#clip600)" d="M126.205 666.288 Q122.593 666.288 120.765 669.853 Q118.959 673.395 118.959 680.524 Q118.959 687.631 120.765 691.196 Q122.593 694.737 126.205 694.737 Q129.839 694.737 131.644 691.196 Q133.473 687.631 133.473 680.524 Q133.473 673.395 131.644 669.853 Q129.839 666.288 126.205 666.288 M126.205 662.585 Q132.015 662.585 135.07 667.191 Q138.149 671.774 138.149 680.524 Q138.149 689.251 135.07 693.858 Q132.015 698.441 126.205 698.441 Q120.394 698.441 117.316 693.858 Q114.26 689.251 114.26 680.524 Q114.26 671.774 117.316 667.191 Q120.394 662.585 126.205 662.585 Z" fill="#000000" fill-rule="nonzero" fill-opacity="1" /><path clip-path="url(#clip600)" d="M146.366 691.89 L151.251 691.89 L151.251 697.77 L146.366 697.77 L146.366 691.89 Z" fill="#000000" fill-rule="nonzero" fill-opacity="1" /><path clip-path="url(#clip600)" d="M174.283 667.284 L162.477 685.733 L174.283 685.733 L174.283 667.284 M173.056 663.21 L178.936 663.21 L178.936 685.733 L183.866 685.733 L183.866 689.622 L178.936 689.622 L178.936 697.77 L174.283 697.77 L174.283 689.622 L158.681 689.622 L158.681 685.108 L173.056 663.21 Z" fill="#000000" fill-rule="nonzero" fill-opacity="1" /><path clip-path="url(#clip600)" d="M127.686 480.616 Q124.075 480.616 122.246 484.181 Q120.441 487.722 120.441 494.852 Q120.441 501.958 122.246 505.523 Q124.075 509.065 127.686 509.065 Q131.32 509.065 133.126 505.523 Q134.954 501.958 134.954 494.852 Q134.954 487.722 133.126 484.181 Q131.32 480.616 127.686 480.616 M127.686 476.912 Q133.496 476.912 136.552 481.519 Q139.63 486.102 139.63 494.852 Q139.63 503.579 136.552 508.185 Q133.496 512.768 127.686 512.768 Q121.876 512.768 118.797 508.185 Q115.742 503.579 115.742 494.852 Q115.742 486.102 118.797 481.519 Q121.876 476.912 127.686 476.912 Z" fill="#000000" fill-rule="nonzero" fill-opacity="1" /><path clip-path="url(#clip600)" d="M147.848 506.218 L152.732 506.218 L152.732 512.097 L147.848 512.097 L147.848 506.218 Z" fill="#000000" fill-rule="nonzero" fill-opacity="1" /><path clip-path="url(#clip600)" d="M162.964 477.537 L181.32 477.537 L181.32 481.472 L167.246 481.472 L167.246 489.945 Q168.264 489.597 169.283 489.435 Q170.302 489.25 171.32 489.25 Q177.107 489.25 180.487 492.421 Q183.866 495.593 183.866 501.009 Q183.866 506.588 180.394 509.69 Q176.922 512.768 170.602 512.768 Q168.427 512.768 166.158 512.398 Q163.913 512.028 161.505 511.287 L161.505 506.588 Q163.589 507.722 165.811 508.278 Q168.033 508.833 170.51 508.833 Q174.514 508.833 176.852 506.727 Q179.19 504.62 179.19 501.009 Q179.19 497.398 176.852 495.292 Q174.514 493.185 170.51 493.185 Q168.635 493.185 166.76 493.602 Q164.908 494.019 162.964 494.898 L162.964 477.537 Z" fill="#000000" fill-rule="nonzero" fill-opacity="1" /><path clip-path="url(#clip600)" d="M126.529 294.943 Q122.918 294.943 121.089 298.508 Q119.283 302.05 119.283 309.179 Q119.283 316.286 121.089 319.851 Q122.918 323.392 126.529 323.392 Q130.163 323.392 131.968 319.851 Q133.797 316.286 133.797 309.179 Q133.797 302.05 131.968 298.508 Q130.163 294.943 126.529 294.943 M126.529 291.24 Q132.339 291.24 135.394 295.846 Q138.473 300.429 138.473 309.179 Q138.473 317.906 135.394 322.513 Q132.339 327.096 126.529 327.096 Q120.718 327.096 117.64 322.513 Q114.584 317.906 114.584 309.179 Q114.584 300.429 117.64 295.846 Q120.718 291.24 126.529 291.24 Z" fill="#000000" fill-rule="nonzero" fill-opacity="1" /><path clip-path="url(#clip600)" d="M146.691 320.545 L151.575 320.545 L151.575 326.425 L146.691 326.425 L146.691 320.545 Z" fill="#000000" fill-rule="nonzero" fill-opacity="1" /><path clip-path="url(#clip600)" d="M172.339 307.281 Q169.19 307.281 167.339 309.434 Q165.51 311.587 165.51 315.337 Q165.51 319.064 167.339 321.239 Q169.19 323.392 172.339 323.392 Q175.487 323.392 177.315 321.239 Q179.167 319.064 179.167 315.337 Q179.167 311.587 177.315 309.434 Q175.487 307.281 172.339 307.281 M181.621 292.629 L181.621 296.888 Q179.862 296.054 178.056 295.615 Q176.274 295.175 174.514 295.175 Q169.885 295.175 167.431 298.3 Q165.001 301.425 164.653 307.744 Q166.019 305.73 168.079 304.666 Q170.139 303.578 172.616 303.578 Q177.825 303.578 180.834 306.749 Q183.866 309.897 183.866 315.337 Q183.866 320.661 180.718 323.878 Q177.57 327.096 172.339 327.096 Q166.343 327.096 163.172 322.513 Q160.001 317.906 160.001 309.179 Q160.001 300.985 163.89 296.124 Q167.778 291.24 174.329 291.24 Q176.089 291.24 177.871 291.587 Q179.676 291.934 181.621 292.629 Z" fill="#000000" fill-rule="nonzero" fill-opacity="1" /><path clip-path="url(#clip600)" d="M14.479 1027.09 L14.479 1021.24 L64.0042 1021.24 L64.0042 1027.09 L14.479 1027.09 Z" fill="#000000" fill-rule="nonzero" fill-opacity="1" /><path clip-path="url(#clip600)" d="M32.4621 995.171 Q32.4621 999.881 36.1542 1002.62 Q39.8145 1005.36 46.212 1005.36 Q52.6095 1005.36 56.3017 1002.65 Q59.9619 999.913 59.9619 995.171 Q59.9619 990.492 56.2698 987.755 Q52.5777 985.018 46.212 985.018 Q39.8781 985.018 36.186 987.755 Q32.4621 990.492 32.4621 995.171 M27.4968 995.171 Q27.4968 987.532 32.4621 983.172 Q37.4273 978.811 46.212 978.811 Q54.9649 978.811 59.9619 983.172 Q64.9272 987.532 64.9272 995.171 Q64.9272 1002.84 59.9619 1007.2 Q54.9649 1011.53 46.212 1011.53 Q37.4273 1011.53 32.4621 1007.2 Q27.4968 1002.84 27.4968 995.171 Z" fill="#000000" fill-rule="nonzero" fill-opacity="1" /><path clip-path="url(#clip600)" d="M29.7248 943.449 L35.1993 943.449 Q33.8307 945.932 33.1623 948.447 Q32.4621 950.929 32.4621 953.475 Q32.4621 959.173 36.0905 962.324 Q39.6872 965.475 46.212 965.475 Q52.7369 965.475 56.3653 962.324 Q59.9619 959.173 59.9619 953.475 Q59.9619 950.929 59.2935 948.447 Q58.5933 945.932 57.2247 943.449 L62.6355 943.449 Q63.7814 945.9 64.3543 948.542 Q64.9272 951.152 64.9272 954.112 Q64.9272 962.165 59.8664 966.907 Q54.8057 971.65 46.212 971.65 Q37.491 971.65 32.4939 966.875 Q27.4968 962.069 27.4968 953.73 Q27.4968 951.025 28.0697 948.447 Q28.6108 945.868 29.7248 943.449 Z" fill="#000000" fill-rule="nonzero" fill-opacity="1" /><path clip-path="url(#clip600)" d="M46.0847 917.064 Q46.0847 924.161 47.7079 926.899 Q49.3312 929.636 53.2461 929.636 Q56.3653 929.636 58.2114 927.599 Q60.0256 925.53 60.0256 921.997 Q60.0256 917.127 56.5881 914.199 Q53.1188 911.239 47.3897 911.239 L46.0847 911.239 L46.0847 917.064 M43.6657 905.383 L64.0042 905.383 L64.0042 911.239 L58.5933 911.239 Q61.8398 913.244 63.3994 916.236 Q64.9272 919.228 64.9272 923.557 Q64.9272 929.031 61.8716 932.278 Q58.7843 935.492 53.6281 935.492 Q47.6125 935.492 44.5569 931.482 Q41.5014 927.44 41.5014 919.451 L41.5014 911.239 L40.9285 911.239 Q36.8862 911.239 34.6901 913.913 Q32.4621 916.554 32.4621 921.36 Q32.4621 924.416 33.1941 927.312 Q33.9262 930.209 35.3903 932.882 L29.9795 932.882 Q28.7381 929.668 28.1334 926.644 Q27.4968 923.62 27.4968 920.756 Q27.4968 913.021 31.5072 909.202 Q35.5176 905.383 43.6657 905.383 Z" fill="#000000" fill-rule="nonzero" fill-opacity="1" /><path clip-path="url(#clip600)" d="M14.479 893.32 L14.479 887.463 L64.0042 887.463 L64.0042 893.32 L14.479 893.32 Z" fill="#000000" fill-rule="nonzero" fill-opacity="1" /><path clip-path="url(#clip600)" d="M14.479 836.442 L19.3487 836.442 L19.3487 842.044 Q19.3487 845.195 20.6219 846.436 Q21.895 847.646 25.2052 847.646 L28.3562 847.646 L28.3562 838.002 L32.9077 838.002 L32.9077 847.646 L64.0042 847.646 L64.0042 853.534 L32.9077 853.534 L32.9077 859.136 L28.3562 859.136 L28.3562 853.534 L25.8736 853.534 Q19.9216 853.534 17.2162 850.765 Q14.479 847.996 14.479 841.98 L14.479 836.442 Z" fill="#000000" fill-rule="nonzero" fill-opacity="1" /><path clip-path="url(#clip600)" d="M28.3562 831.54 L28.3562 825.684 L64.0042 825.684 L64.0042 831.54 L28.3562 831.54 M14.479 831.54 L14.479 825.684 L21.895 825.684 L21.895 831.54 L14.479 831.54 Z" fill="#000000" fill-rule="nonzero" fill-opacity="1" /><path clip-path="url(#clip600)" d="M14.479 813.43 L14.479 807.573 L64.0042 807.573 L64.0042 813.43 L14.479 813.43 Z" fill="#000000" fill-rule="nonzero" fill-opacity="1" /><path clip-path="url(#clip600)" d="M14.479 795.32 L14.479 789.463 L64.0042 789.463 L64.0042 795.32 L14.479 795.32 Z" fill="#000000" fill-rule="nonzero" fill-opacity="1" /><path clip-path="url(#clip600)" d="M28.3562 777.209 L28.3562 771.353 L64.0042 771.353 L64.0042 777.209 L28.3562 777.209 M14.479 777.209 L14.479 771.353 L21.895 771.353 L21.895 777.209 L14.479 777.209 Z" fill="#000000" fill-rule="nonzero" fill-opacity="1" /><path clip-path="url(#clip600)" d="M42.4881 729.466 L64.0042 729.466 L64.0042 735.323 L42.679 735.323 Q37.6183 735.323 35.1038 737.296 Q32.5894 739.269 32.5894 743.216 Q32.5894 747.959 35.6131 750.696 Q38.6368 753.433 43.8567 753.433 L64.0042 753.433 L64.0042 759.321 L28.3562 759.321 L28.3562 753.433 L33.8944 753.433 Q30.6797 751.332 29.0883 748.5 Q27.4968 745.635 27.4968 741.911 Q27.4968 735.768 31.3163 732.617 Q35.1038 729.466 42.4881 729.466 Z" fill="#000000" fill-rule="nonzero" fill-opacity="1" /><path clip-path="url(#clip600)" d="M45.7664 694.328 Q39.4007 694.328 35.8996 696.969 Q32.3984 699.579 32.3984 704.322 Q32.3984 709.032 35.8996 711.674 Q39.4007 714.284 45.7664 714.284 Q52.1003 714.284 55.6014 711.674 Q59.1026 709.032 59.1026 704.322 Q59.1026 699.579 55.6014 696.969 Q52.1003 694.328 45.7664 694.328 M59.58 688.471 Q68.683 688.471 73.1071 692.513 Q77.5631 696.556 77.5631 704.895 Q77.5631 707.982 77.0857 710.719 Q76.6401 713.457 75.6852 716.035 L69.9879 716.035 Q71.3884 713.457 72.0568 710.942 Q72.7252 708.428 72.7252 705.818 Q72.7252 700.057 69.7015 697.192 Q66.7096 694.328 60.6303 694.328 L57.7339 694.328 Q60.885 696.142 62.4446 698.975 Q64.0042 701.807 64.0042 705.754 Q64.0042 712.311 59.0071 716.321 Q54.01 720.331 45.7664 720.331 Q37.491 720.331 32.4939 716.321 Q27.4968 712.311 27.4968 705.754 Q27.4968 701.807 29.0564 698.975 Q30.616 696.142 33.7671 694.328 L28.3562 694.328 L28.3562 688.471 L59.58 688.471 Z" fill="#000000" fill-rule="nonzero" fill-opacity="1" /><path clip-path="url(#clip600)" d="M64.0042 627.87 L28.3562 638.755 L28.3562 632.453 L58.275 623.254 Q54.3283 619.435 48.8538 616.252 Q44.7479 613.833 41.1831 613.706 Q39.4962 613.642 36.3133 614.406 Q32.5257 615.297 28.3562 618.671 L28.3562 612.751 L28.3562 612.751 Q31.1889 610.555 35.1357 609.091 Q38.7641 607.754 41.2468 607.754 Q47.4851 607.754 53.0551 612.083 Q60.312 617.716 64.0042 621.631 L64.0042 627.87 Z" fill="#000000" fill-rule="nonzero" fill-opacity="1" /><path clip-path="url(#clip600)" d="M14.5426 584.487 Q21.8632 588.752 29.0246 590.821 Q36.186 592.89 43.5384 592.89 Q50.8908 592.89 58.1159 590.821 Q65.3091 588.72 72.5979 584.487 L72.5979 589.58 Q65.1182 594.354 57.8931 596.741 Q50.668 599.097 43.5384 599.097 Q36.4406 599.097 29.2474 596.741 Q22.0542 594.386 14.5426 589.58 L14.5426 584.487 Z" fill="#000000" fill-rule="nonzero" fill-opacity="1" /><path clip-path="url(#clip600)" d="M41.4059 549.189 L41.4059 569.464 Q50.9226 568.987 54.9649 566.791 Q59.9301 564.053 59.9301 559.311 Q59.9301 554.537 54.933 551.895 Q50.5407 549.571 41.4059 549.189 M35.995 549.285 Q26.9557 550.176 23.7729 551.895 Q18.744 554.632 18.744 559.311 Q18.744 564.181 23.7092 566.759 Q27.7196 568.796 35.995 569.401 L35.995 549.285 M13.9697 559.311 Q13.9697 551.672 20.7174 547.312 Q27.4332 542.951 39.337 542.951 Q51.2091 542.951 57.9567 547.312 Q64.7362 551.672 64.7362 559.311 Q64.7362 566.982 57.9567 571.31 Q51.2091 575.671 39.337 575.671 Q27.4332 575.671 20.7174 571.31 Q13.9697 566.982 13.9697 559.311 Z" fill="#000000" fill-rule="nonzero" fill-opacity="1" /><path clip-path="url(#clip600)" d="M14.5426 534.166 L14.5426 529.074 Q22.0542 524.3 29.2474 521.944 Q36.4406 519.557 43.5384 519.557 Q50.668 519.557 57.8931 521.944 Q65.1182 524.3 72.5979 529.074 L72.5979 534.166 Q65.3091 529.933 58.1159 527.864 Q50.8908 525.764 43.5384 525.764 Q36.186 525.764 29.0246 527.864 Q21.8632 529.933 14.5426 534.166 Z" fill="#000000" fill-rule="nonzero" fill-opacity="1" /><path clip-path="url(#clip600)" d="M549.026 72.576 L535.172 27.2059 L543.193 27.2059 L554.9 65.2844 Q559.761 60.2613 563.812 53.2937 Q566.891 48.068 567.053 43.531 Q567.134 41.384 566.162 37.3331 Q565.027 32.5126 560.733 27.2059 L568.268 27.2059 L568.268 27.2059 Q571.063 30.8112 572.927 35.8343 Q574.628 40.4523 574.628 43.612 Q574.628 51.5518 569.119 58.6409 Q561.949 67.877 556.966 72.576 L549.026 72.576 Z" fill="#000000" fill-rule="nonzero" fill-opacity="1" /><path clip-path="url(#clip600)" d="M613.679 34.9026 L665.611 34.9026 L665.611 41.7081 L613.679 41.7081 L613.679 34.9026 M613.679 51.4303 L665.611 51.4303 L665.611 58.3168 L613.679 58.3168 L613.679 51.4303 Z" fill="#000000" fill-rule="nonzero" fill-opacity="1" /><path clip-path="url(#clip600)" d="M711.062 65.6895 L724.43 65.6895 L724.43 19.5497 L709.888 22.4663 L709.888 15.0127 L724.349 12.096 L732.532 12.096 L732.532 65.6895 L745.9 65.6895 L745.9 72.576 L711.062 72.576 L711.062 65.6895 Z" fill="#000000" fill-rule="nonzero" fill-opacity="1" /><path clip-path="url(#clip600)" d="M774.621 12.096 L781.508 12.096 L760.443 80.2727 L753.556 80.2727 L774.621 12.096 Z" fill="#000000" fill-rule="nonzero" fill-opacity="1" /><path clip-path="url(#clip600)" d="M815.171 39.9662 Q821.044 41.222 824.326 45.1919 Q827.647 49.1618 827.647 54.9951 Q827.647 63.9476 821.49 68.8492 Q815.333 73.7508 803.99 73.7508 Q800.182 73.7508 796.131 72.9811 Q792.121 72.2519 787.827 70.7531 L787.827 62.8538 Q791.23 64.8388 795.281 65.8515 Q799.332 66.8642 803.747 66.8642 Q811.444 66.8642 815.454 63.826 Q819.505 60.7879 819.505 54.9951 Q819.505 49.6479 815.738 46.6502 Q812.011 43.612 805.327 43.612 L798.278 43.612 L798.278 36.8875 L805.651 36.8875 Q811.687 36.8875 814.887 34.4975 Q818.087 32.067 818.087 27.5299 Q818.087 22.8714 814.766 20.4004 Q811.484 17.8888 805.327 17.8888 Q801.965 17.8888 798.116 18.618 Q794.268 19.3471 789.65 20.8865 L789.65 13.5948 Q794.309 12.2985 798.359 11.6504 Q802.451 11.0023 806.056 11.0023 Q815.373 11.0023 820.801 15.2557 Q826.23 19.4686 826.23 26.6793 Q826.23 31.7024 823.353 35.1862 Q820.477 38.6294 815.171 39.9662 Z" fill="#000000" fill-rule="nonzero" fill-opacity="1" /><path clip-path="url(#clip600)" d="M844.013 62.2867 L852.561 62.2867 L852.561 72.576 L844.013 72.576 L844.013 62.2867 M844.013 29.6769 L852.561 29.6769 L852.561 39.9662 L844.013 39.9662 L844.013 29.6769 Z" fill="#000000" fill-rule="nonzero" fill-opacity="1" /><path clip-path="url(#clip600)" d="M926.287 49.3643 Q926.287 41.2625 922.925 36.8065 Q919.603 32.3505 913.567 32.3505 Q907.572 32.3505 904.21 36.8065 Q900.888 41.2625 900.888 49.3643 Q900.888 57.4256 904.21 61.8816 Q907.572 66.3376 913.567 66.3376 Q919.603 66.3376 922.925 61.8816 Q926.287 57.4256 926.287 49.3643 M933.741 66.9452 Q933.741 78.5308 928.596 84.1616 Q923.451 89.8329 912.838 89.8329 Q908.909 89.8329 905.425 89.2252 Q901.941 88.6581 898.66 87.4428 L898.66 80.1917 Q901.941 81.9741 905.141 82.8248 Q908.341 83.6755 911.663 83.6755 Q918.995 83.6755 922.641 79.8271 Q926.287 76.0193 926.287 68.282 L926.287 64.5957 Q923.978 68.6061 920.373 70.5911 Q916.767 72.576 911.744 72.576 Q903.399 72.576 898.295 66.2161 Q893.191 59.8562 893.191 49.3643 Q893.191 38.832 898.295 32.472 Q903.399 26.1121 911.744 26.1121 Q916.767 26.1121 920.373 28.0971 Q923.978 30.082 926.287 34.0924 L926.287 27.2059 L933.741 27.2059 L933.741 66.9452 Z" fill="#000000" fill-rule="nonzero" fill-opacity="1" /><path clip-path="url(#clip600)" d="M975.384 34.1734 Q974.128 33.4443 972.629 33.1202 Q971.171 32.7556 969.389 32.7556 Q963.069 32.7556 959.666 36.8875 Q956.304 40.9789 956.304 48.6757 L956.304 72.576 L948.81 72.576 L948.81 27.2059 L956.304 27.2059 L956.304 34.2544 Q958.654 30.1225 962.421 28.1376 Q966.188 26.1121 971.576 26.1121 Q972.346 26.1121 973.277 26.2337 Q974.209 26.3147 975.343 26.5172 L975.384 34.1734 Z" fill="#000000" fill-rule="nonzero" fill-opacity="1" /><path clip-path="url(#clip600)" d="M998.96 32.4315 Q992.965 32.4315 989.481 37.1306 Q985.997 41.7891 985.997 49.9314 Q985.997 58.0738 989.441 62.7728 Q992.924 67.4314 998.96 67.4314 Q1004.92 67.4314 1008.4 62.7323 Q1011.88 58.0333 1011.88 49.9314 Q1011.88 41.8701 1008.4 37.1711 Q1004.92 32.4315 998.96 32.4315 M998.96 26.1121 Q1008.68 26.1121 1014.23 32.4315 Q1019.78 38.7509 1019.78 49.9314 Q1019.78 61.0714 1014.23 67.4314 Q1008.68 73.7508 998.96 73.7508 Q989.198 73.7508 983.648 67.4314 Q978.139 61.0714 978.139 49.9314 Q978.139 38.7509 983.648 32.4315 Q989.198 26.1121 998.96 26.1121 Z" fill="#000000" fill-rule="nonzero" fill-opacity="1" /><path clip-path="url(#clip600)" d="M1031.37 54.671 L1031.37 27.2059 L1038.82 27.2059 L1038.82 54.3874 Q1038.82 60.8284 1041.33 64.0691 Q1043.84 67.2693 1048.87 67.2693 Q1054.9 67.2693 1058.39 63.421 Q1061.91 59.5726 1061.91 52.9291 L1061.91 27.2059 L1069.36 27.2059 L1069.36 72.576 L1061.91 72.576 L1061.91 65.6084 Q1059.2 69.7404 1055.59 71.7658 Q1052.03 73.7508 1047.29 73.7508 Q1039.47 73.7508 1035.42 68.8897 Q1031.37 64.0286 1031.37 54.671 M1050.12 26.1121 L1050.12 26.1121 Z" fill="#000000" fill-rule="nonzero" fill-opacity="1" /><path clip-path="url(#clip600)" d="M1122.43 45.1919 L1122.43 72.576 L1114.98 72.576 L1114.98 45.4349 Q1114.98 38.994 1112.47 35.7938 Q1109.95 32.5936 1104.93 32.5936 Q1098.9 32.5936 1095.41 36.4419 Q1091.93 40.2903 1091.93 46.9338 L1091.93 72.576 L1084.43 72.576 L1084.43 27.2059 L1091.93 27.2059 L1091.93 34.2544 Q1094.6 30.163 1098.21 28.1376 Q1101.85 26.1121 1106.59 26.1121 Q1114.41 26.1121 1118.42 30.9732 Q1122.43 35.7938 1122.43 45.1919 Z" fill="#000000" fill-rule="nonzero" fill-opacity="1" /><path clip-path="url(#clip600)" d="M1167.15 34.0924 L1167.15 9.54393 L1174.61 9.54393 L1174.61 72.576 L1167.15 72.576 L1167.15 65.7705 Q1164.8 69.8214 1161.2 71.8063 Q1157.63 73.7508 1152.61 73.7508 Q1144.39 73.7508 1139.2 67.1883 Q1134.06 60.6258 1134.06 49.9314 Q1134.06 39.2371 1139.2 32.6746 Q1144.39 26.1121 1152.61 26.1121 Q1157.63 26.1121 1161.2 28.0971 Q1164.8 30.0415 1167.15 34.0924 M1141.75 49.9314 Q1141.75 58.1548 1145.12 62.8538 Q1148.52 67.5124 1154.43 67.5124 Q1160.35 67.5124 1163.75 62.8538 Q1167.15 58.1548 1167.15 49.9314 Q1167.15 41.7081 1163.75 37.0496 Q1160.35 32.3505 1154.43 32.3505 Q1148.52 32.3505 1145.12 37.0496 Q1141.75 41.7081 1141.75 49.9314 Z" fill="#000000" fill-rule="nonzero" fill-opacity="1" /><path clip-path="url(#clip600)" d="M1245.26 28.5427 L1245.26 35.5912 Q1242.1 33.9709 1238.69 33.1607 Q1235.29 32.3505 1231.64 32.3505 Q1226.09 32.3505 1223.3 34.0519 Q1220.54 35.7533 1220.54 39.156 Q1220.54 41.7486 1222.53 43.2475 Q1224.51 44.7058 1230.51 46.0426 L1233.06 46.6097 Q1241 48.3111 1244.32 51.4303 Q1247.69 54.509 1247.69 60.0587 Q1247.69 66.3781 1242.66 70.0644 Q1237.68 73.7508 1228.93 73.7508 Q1225.28 73.7508 1221.31 73.0216 Q1217.38 72.3329 1213.01 70.9151 L1213.01 63.2184 Q1217.14 65.3654 1221.15 66.4591 Q1225.16 67.5124 1229.09 67.5124 Q1234.36 67.5124 1237.19 65.73 Q1240.03 63.9071 1240.03 60.6258 Q1240.03 57.5877 1237.96 55.9673 Q1235.94 54.3469 1229.01 52.8481 L1226.42 52.2405 Q1219.49 50.7821 1216.41 47.7845 Q1213.33 44.7463 1213.33 39.4801 Q1213.33 33.0797 1217.87 29.5959 Q1222.41 26.1121 1230.75 26.1121 Q1234.88 26.1121 1238.53 26.7198 Q1242.18 27.3274 1245.26 28.5427 Z" fill="#000000" fill-rule="nonzero" fill-opacity="1" /><path clip-path="url(#clip600)" d="M1266.93 14.324 L1266.93 27.2059 L1282.28 27.2059 L1282.28 32.9987 L1266.93 32.9987 L1266.93 57.6282 Q1266.93 63.1779 1268.43 64.7578 Q1269.97 66.3376 1274.62 66.3376 L1282.28 66.3376 L1282.28 72.576 L1274.62 72.576 Q1266 72.576 1262.71 69.3758 Q1259.43 66.1351 1259.43 57.6282 L1259.43 32.9987 L1253.96 32.9987 L1253.96 27.2059 L1259.43 27.2059 L1259.43 14.324 L1266.93 14.324 Z" fill="#000000" fill-rule="nonzero" fill-opacity="1" /><path clip-path="url(#clip600)" d="M1312.7 49.7694 Q1303.67 49.7694 1300.19 51.8354 Q1296.7 53.9013 1296.7 58.8839 Q1296.7 62.8538 1299.29 65.2034 Q1301.93 67.5124 1306.42 67.5124 Q1312.62 67.5124 1316.35 63.1374 Q1320.12 58.7219 1320.12 51.4303 L1320.12 49.7694 L1312.7 49.7694 M1327.57 46.6907 L1327.57 72.576 L1320.12 72.576 L1320.12 65.6895 Q1317.56 69.8214 1313.76 71.8063 Q1309.95 73.7508 1304.44 73.7508 Q1297.47 73.7508 1293.34 69.8619 Q1289.25 65.9325 1289.25 59.3701 Q1289.25 51.7138 1294.35 47.825 Q1299.5 43.9361 1309.66 43.9361 L1320.12 43.9361 L1320.12 43.2069 Q1320.12 38.0623 1316.71 35.2672 Q1313.35 32.4315 1307.23 32.4315 Q1303.35 32.4315 1299.66 33.3632 Q1295.97 34.295 1292.57 36.1584 L1292.57 29.2718 Q1296.66 27.692 1300.51 26.9223 Q1304.36 26.1121 1308 26.1121 Q1317.85 26.1121 1322.71 31.2163 Q1327.57 36.3204 1327.57 46.6907 Z" fill="#000000" fill-rule="nonzero" fill-opacity="1" /><path clip-path="url(#clip600)" d="M1350.3 14.324 L1350.3 27.2059 L1365.65 27.2059 L1365.65 32.9987 L1350.3 32.9987 L1350.3 57.6282 Q1350.3 63.1779 1351.79 64.7578 Q1353.33 66.3376 1357.99 66.3376 L1365.65 66.3376 L1365.65 72.576 L1357.99 72.576 Q1349.36 72.576 1346.08 69.3758 Q1342.8 66.1351 1342.8 57.6282 L1342.8 32.9987 L1337.33 32.9987 L1337.33 27.2059 L1342.8 27.2059 L1342.8 14.324 L1350.3 14.324 Z" fill="#000000" fill-rule="nonzero" fill-opacity="1" /><path clip-path="url(#clip600)" d="M1414.26 48.0275 L1414.26 51.6733 L1379.99 51.6733 Q1380.47 59.3701 1384.61 63.421 Q1388.78 67.4314 1396.19 67.4314 Q1400.49 67.4314 1404.5 66.3781 Q1408.55 65.3249 1412.52 63.2184 L1412.52 70.267 Q1408.51 71.9684 1404.29 72.8596 Q1400.08 73.7508 1395.75 73.7508 Q1384.89 73.7508 1378.53 67.4314 Q1372.21 61.1119 1372.21 50.3365 Q1372.21 39.1965 1378.21 32.6746 Q1384.24 26.1121 1394.45 26.1121 Q1403.61 26.1121 1408.91 32.0264 Q1414.26 37.9003 1414.26 48.0275 M1406.81 45.84 Q1406.72 39.7232 1403.36 36.0774 Q1400.04 32.4315 1394.53 32.4315 Q1388.29 32.4315 1384.53 35.9558 Q1380.8 39.4801 1380.23 45.8805 L1406.81 45.84 Z" fill="#000000" fill-rule="nonzero" fill-opacity="1" /><path clip-path="url(#clip600)" d="M1447.52 27.2059 L1455.42 27.2059 L1469.59 65.2844 L1483.77 27.2059 L1491.67 27.2059 L1474.66 72.576 L1464.53 72.576 L1447.52 27.2059 Z" fill="#000000" fill-rule="nonzero" fill-opacity="1" /><path clip-path="url(#clip600)" d="M1530.88 28.5427 L1530.88 35.5912 Q1527.72 33.9709 1524.32 33.1607 Q1520.92 32.3505 1517.27 32.3505 Q1511.72 32.3505 1508.93 34.0519 Q1506.17 35.7533 1506.17 39.156 Q1506.17 41.7486 1508.16 43.2475 Q1510.14 44.7058 1516.14 46.0426 L1518.69 46.6097 Q1526.63 48.3111 1529.95 51.4303 Q1533.31 54.509 1533.31 60.0587 Q1533.31 66.3781 1528.29 70.0644 Q1523.31 73.7508 1514.56 73.7508 Q1510.91 73.7508 1506.94 73.0216 Q1503.01 72.3329 1498.64 70.9151 L1498.64 63.2184 Q1502.77 65.3654 1506.78 66.4591 Q1510.79 67.5124 1514.72 67.5124 Q1519.99 67.5124 1522.82 65.73 Q1525.66 63.9071 1525.66 60.6258 Q1525.66 57.5877 1523.59 55.9673 Q1521.57 54.3469 1514.64 52.8481 L1512.05 52.2405 Q1505.12 50.7821 1502.04 47.7845 Q1498.96 44.7463 1498.96 39.4801 Q1498.96 33.0797 1503.5 29.5959 Q1508.04 26.1121 1516.38 26.1121 Q1520.51 26.1121 1524.16 26.7198 Q1527.81 27.3274 1530.88 28.5427 Z" fill="#000000" fill-rule="nonzero" fill-opacity="1" /><path clip-path="url(#clip600)" d="M1546.24 62.2867 L1554.78 62.2867 L1554.78 72.576 L1546.24 72.576 L1546.24 62.2867 Z" fill="#000000" fill-rule="nonzero" fill-opacity="1" /><path clip-path="url(#clip600)" d="M1636.73 48.0275 L1636.73 51.6733 L1602.46 51.6733 Q1602.95 59.3701 1607.08 63.421 Q1611.25 67.4314 1618.67 67.4314 Q1622.96 67.4314 1626.97 66.3781 Q1631.02 65.3249 1634.99 63.2184 L1634.99 70.267 Q1630.98 71.9684 1626.77 72.8596 Q1622.56 73.7508 1618.22 73.7508 Q1607.37 73.7508 1601.01 67.4314 Q1594.69 61.1119 1594.69 50.3365 Q1594.69 39.1965 1600.68 32.6746 Q1606.72 26.1121 1616.93 26.1121 Q1626.08 26.1121 1631.39 32.0264 Q1636.73 37.9003 1636.73 48.0275 M1629.28 45.84 Q1629.2 39.7232 1625.84 36.0774 Q1622.52 32.4315 1617.01 32.4315 Q1610.77 32.4315 1607 35.9558 Q1603.27 39.4801 1602.71 45.8805 L1629.28 45.84 Z" fill="#000000" fill-rule="nonzero" fill-opacity="1" /><path clip-path="url(#clip600)" d="M1685.22 27.2059 L1668.82 49.2833 L1686.07 72.576 L1677.28 72.576 L1664.08 54.752 L1650.87 72.576 L1642.08 72.576 L1659.7 48.8377 L1643.58 27.2059 L1652.37 27.2059 L1664.4 43.369 L1676.43 27.2059 L1685.22 27.2059 Z" fill="#000000" fill-rule="nonzero" fill-opacity="1" /><path clip-path="url(#clip600)" d="M1727.8 28.9478 L1727.8 35.9153 Q1724.64 34.1734 1721.44 33.3227 Q1718.28 32.4315 1715.04 32.4315 Q1707.79 32.4315 1703.78 37.0496 Q1699.77 41.6271 1699.77 49.9314 Q1699.77 58.2358 1703.78 62.8538 Q1707.79 67.4314 1715.04 67.4314 Q1718.28 67.4314 1721.44 66.5807 Q1724.64 65.6895 1727.8 63.9476 L1727.8 70.8341 Q1724.68 72.2924 1721.32 73.0216 Q1718 73.7508 1714.23 73.7508 Q1703.98 73.7508 1697.94 67.3098 Q1691.91 60.8689 1691.91 49.9314 Q1691.91 38.832 1697.98 32.472 Q1704.1 26.1121 1714.71 26.1121 Q1718.16 26.1121 1721.44 26.8413 Q1724.72 27.5299 1727.8 28.9478 Z" fill="#000000" fill-rule="nonzero" fill-opacity="1" /><path clip-path="url(#clip600)" d="M1740.76 27.2059 L1748.22 27.2059 L1748.22 72.576 L1740.76 72.576 L1740.76 27.2059 M1740.76 9.54393 L1748.22 9.54393 L1748.22 18.9825 L1740.76 18.9825 L1740.76 9.54393 Z" fill="#000000" fill-rule="nonzero" fill-opacity="1" /><path clip-path="url(#clip600)" d="M1771.18 14.324 L1771.18 27.2059 L1786.54 27.2059 L1786.54 32.9987 L1771.18 32.9987 L1771.18 57.6282 Q1771.18 63.1779 1772.68 64.7578 Q1774.22 66.3376 1778.88 66.3376 L1786.54 66.3376 L1786.54 72.576 L1778.88 72.576 Q1770.25 72.576 1766.97 69.3758 Q1763.69 66.1351 1763.69 57.6282 L1763.69 32.9987 L1758.22 32.9987 L1758.22 27.2059 L1763.69 27.2059 L1763.69 14.324 L1771.18 14.324 Z" fill="#000000" fill-rule="nonzero" fill-opacity="1" /><path clip-path="url(#clip600)" d="M1816.96 49.7694 Q1807.93 49.7694 1804.44 51.8354 Q1800.96 53.9013 1800.96 58.8839 Q1800.96 62.8538 1803.55 65.2034 Q1806.18 67.5124 1810.68 67.5124 Q1816.88 67.5124 1820.61 63.1374 Q1824.37 58.7219 1824.37 51.4303 L1824.37 49.7694 L1816.96 49.7694 M1831.83 46.6907 L1831.83 72.576 L1824.37 72.576 L1824.37 65.6895 Q1821.82 69.8214 1818.01 71.8063 Q1814.2 73.7508 1808.7 73.7508 Q1801.73 73.7508 1797.6 69.8619 Q1793.5 65.9325 1793.5 59.3701 Q1793.5 51.7138 1798.61 47.825 Q1803.75 43.9361 1813.92 43.9361 L1824.37 43.9361 L1824.37 43.2069 Q1824.37 38.0623 1820.97 35.2672 Q1817.61 32.4315 1811.49 32.4315 Q1807.6 32.4315 1803.92 33.3632 Q1800.23 34.295 1796.83 36.1584 L1796.83 29.2718 Q1800.92 27.692 1804.77 26.9223 Q1808.61 26.1121 1812.26 26.1121 Q1822.1 26.1121 1826.97 31.2163 Q1831.83 36.3204 1831.83 46.6907 Z" fill="#000000" fill-rule="nonzero" fill-opacity="1" /><path clip-path="url(#clip600)" d="M1854.55 14.324 L1854.55 27.2059 L1869.9 27.2059 L1869.9 32.9987 L1854.55 32.9987 L1854.55 57.6282 Q1854.55 63.1779 1856.05 64.7578 Q1857.59 66.3376 1862.25 66.3376 L1869.9 66.3376 L1869.9 72.576 L1862.25 72.576 Q1853.62 72.576 1850.34 69.3758 Q1847.06 66.1351 1847.06 57.6282 L1847.06 32.9987 L1841.59 32.9987 L1841.59 27.2059 L1847.06 27.2059 L1847.06 14.324 L1854.55 14.324 Z" fill="#000000" fill-rule="nonzero" fill-opacity="1" /><path clip-path="url(#clip600)" d="M1879.71 27.2059 L1887.16 27.2059 L1887.16 72.576 L1879.71 72.576 L1879.71 27.2059 M1879.71 9.54393 L1887.16 9.54393 L1887.16 18.9825 L1879.71 18.9825 L1879.71 9.54393 Z" fill="#000000" fill-rule="nonzero" fill-opacity="1" /><path clip-path="url(#clip600)" d="M1920.34 32.4315 Q1914.34 32.4315 1910.86 37.1306 Q1907.38 41.7891 1907.38 49.9314 Q1907.38 58.0738 1910.82 62.7728 Q1914.3 67.4314 1920.34 67.4314 Q1926.29 67.4314 1929.78 62.7323 Q1933.26 58.0333 1933.26 49.9314 Q1933.26 41.8701 1929.78 37.1711 Q1926.29 32.4315 1920.34 32.4315 M1920.34 26.1121 Q1930.06 26.1121 1935.61 32.4315 Q1941.16 38.7509 1941.16 49.9314 Q1941.16 61.0714 1935.61 67.4314 Q1930.06 73.7508 1920.34 73.7508 Q1910.58 73.7508 1905.03 67.4314 Q1899.52 61.0714 1899.52 49.9314 Q1899.52 38.7509 1905.03 32.4315 Q1910.58 26.1121 1920.34 26.1121 Z" fill="#000000" fill-rule="nonzero" fill-opacity="1" /><path clip-path="url(#clip600)" d="M1991.23 45.1919 L1991.23 72.576 L1983.78 72.576 L1983.78 45.4349 Q1983.78 38.994 1981.26 35.7938 Q1978.75 32.5936 1973.73 32.5936 Q1967.69 32.5936 1964.21 36.4419 Q1960.73 40.2903 1960.73 46.9338 L1960.73 72.576 L1953.23 72.576 L1953.23 27.2059 L1960.73 27.2059 L1960.73 34.2544 Q1963.4 30.163 1967 28.1376 Q1970.65 26.1121 1975.39 26.1121 Q1983.21 26.1121 1987.22 30.9732 Q1991.23 35.7938 1991.23 45.1919 Z" fill="#000000" fill-rule="nonzero" fill-opacity="1" /><path clip-path="url(#clip600)" d="M2035.02 28.5427 L2035.02 35.5912 Q2031.86 33.9709 2028.46 33.1607 Q2025.05 32.3505 2021.41 32.3505 Q2015.86 32.3505 2013.06 34.0519 Q2010.31 35.7533 2010.31 39.156 Q2010.31 41.7486 2012.29 43.2475 Q2014.28 44.7058 2020.27 46.0426 L2022.83 46.6097 Q2030.77 48.3111 2034.09 51.4303 Q2037.45 54.509 2037.45 60.0587 Q2037.45 66.3781 2032.43 70.0644 Q2027.44 73.7508 2018.69 73.7508 Q2015.05 73.7508 2011.08 73.0216 Q2007.15 72.3329 2002.77 70.9151 L2002.77 63.2184 Q2006.91 65.3654 2010.92 66.4591 Q2014.93 67.5124 2018.86 67.5124 Q2024.12 67.5124 2026.96 65.73 Q2029.79 63.9071 2029.79 60.6258 Q2029.79 57.5877 2027.73 55.9673 Q2025.7 54.3469 2018.78 52.8481 L2016.18 52.2405 Q2009.26 50.7821 2006.18 47.7845 Q2003.1 44.7463 2003.1 39.4801 Q2003.1 33.0797 2007.64 29.5959 Q2012.17 26.1121 2020.52 26.1121 Q2024.65 26.1121 2028.29 26.7198 Q2031.94 27.3274 2035.02 28.5427 Z" fill="#000000" fill-rule="nonzero" fill-opacity="1" /><polyline clip-path="url(#clip601)" style="stroke:#009af9; stroke-linecap:round; stroke-linejoin:round; stroke-width:8; stroke-opacity:1; fill:none" points="280.231,830.089 425.27,885.472 501.354,873.589 562.93,730.993 616.518,823.086 664.865,748.817 709.455,696.829 751.201,845.367 790.712,770.249 828.424,711.683 864.659,738.42 899.664,889.928 933.636,933.004 966.734,829.028 999.092,827.542 1030.82,824.572 1062.01,771.098 1092.76,746.695 1123.13,750.303 1153.2,762.186 1183.03,777.039 1212.67,725.051 1242.18,791.893 1271.61,821.601 1301.01,722.08 1330.45,879.531 1359.96,846.852 1389.6,848.125 1419.42,849.823 1449.49,748.817 1479.86,885.472 1510.61,858.735 1541.8,792.105 1573.53,785.315 1605.89,800.806 1638.99,818.63 1672.96,824.572 1707.96,723.566 1744.2,735.449 1781.91,824.147 1821.42,858.735 1863.17,873.165 1907.76,735.449 1956.1,800.806 2009.69,918.151 2071.27,798.259 2147.35,777.039 2292.39,794.864 "/>
<polyline clip-path="url(#clip601)" style="stroke:#e26f46; stroke-linecap:round; stroke-linejoin:round; stroke-width:8; stroke-opacity:1; fill:none" points="280.231,1354.85 425.27,1253.85 501.354,1096.4 562.93,1001.08 616.518,950.829 664.865,846.852 709.455,763.671 751.201,913.694 790.712,802.291 828.424,782.981 864.659,750.303 899.664,794.864 933.636,707.227 966.734,681.975 999.092,720.595 1030.82,736.934 1062.01,719.11 1092.76,715.891 1123.13,765.652 1153.2,787.437 1183.03,732.478 1212.67,800.806 1242.18,759.215 1271.61,603.25 1301.01,821.601 1330.45,713.168 1359.96,733.963 1389.6,720.595 1419.42,688.907 1449.49,792.141 1479.86,751.788 1510.61,854.527 1541.8,803.776 1573.53,821.601 1605.89,629.987 1638.99,778.525 1672.96,857.25 1707.96,790.408 1744.2,745.846 1781.91,943.402 1821.42,836.702 1863.17,721.833 1907.76,799.32 1956.1,757.729 2009.69,640.384 2071.27,762.186 2147.35,775.554 2292.39,821.601 "/>
<polyline clip-path="url(#clip601)" style="stroke:#3da44d; stroke-linecap:round; stroke-linejoin:round; stroke-width:8; stroke-opacity:1; fill:none" points="280.231,864.677 425.27,659.694 501.354,715.767 562.93,444.314 616.518,635.928 664.865,527.124 709.455,600.279 751.201,679.004 790.712,722.08 828.424,862.449 864.659,722.08 899.664,825.871 933.636,754.759 966.734,769.613 999.092,803.219 1030.82,910.724 1062.01,802.291 1092.76,963.455 1123.13,955.285 1153.2,866.162 1183.03,782.981 1212.67,744.361 1242.18,882.501 1271.61,915.18 1301.01,800.806 1330.45,846.852 1359.96,827.542 1389.6,854.279 1419.42,930.034 1449.49,692.93 1479.86,784.466 1510.61,954.542 1541.8,782.981 1573.53,919.636 1605.89,901.811 1638.99,851.494 1672.96,855.765 1707.96,829.028 1744.2,872.289 1781.91,854.279 1821.42,901.811 1863.17,866.534 1907.76,875.075 1956.1,777.039 2009.69,915.18 2071.27,700.728 2147.35,751.788 2292.39,848.338 "/>
<polyline clip-path="url(#clip601)" style="stroke:#000000; stroke-linecap:round; stroke-linejoin:round; stroke-width:4; stroke-opacity:1; fill:none" stroke-dasharray="16, 10" points="-1913.02,804.271 4485.65,804.271 "/>
<path clip-path="url(#clip600)" d="M1029.31 1379.86 L1543.31 1379.86 L1543.31 1120.66 L1029.31 1120.66  Z" fill="#ffffff" fill-rule="evenodd" fill-opacity="1"/>
<polyline clip-path="url(#clip600)" style="stroke:#000000; stroke-linecap:round; stroke-linejoin:round; stroke-width:4; stroke-opacity:1; fill:none" points="1029.31,1379.86 1543.31,1379.86 1543.31,1120.66 1029.31,1120.66 1029.31,1379.86 "/>
<polyline clip-path="url(#clip600)" style="stroke:#009af9; stroke-linecap:round; stroke-linejoin:round; stroke-width:8; stroke-opacity:1; fill:none" points="1053.01,1172.5 1195.2,1172.5 "/>
<path clip-path="url(#clip600)" d="M1237.81 1176.51 Q1237.81 1171.88 1235.89 1169.34 Q1233.99 1166.79 1230.54 1166.79 Q1227.12 1166.79 1225.2 1169.34 Q1223.3 1171.88 1223.3 1176.51 Q1223.3 1181.12 1225.2 1183.67 Q1227.12 1186.21 1230.54 1186.21 Q1233.99 1186.21 1235.89 1183.67 Q1237.81 1181.12 1237.81 1176.51 M1242.07 1186.56 Q1242.07 1193.18 1239.13 1196.4 Q1236.19 1199.64 1230.13 1199.64 Q1227.88 1199.64 1225.89 1199.29 Q1223.9 1198.97 1222.02 1198.27 L1222.02 1194.13 Q1223.9 1195.15 1225.73 1195.63 Q1227.56 1196.12 1229.45 1196.12 Q1233.64 1196.12 1235.73 1193.92 Q1237.81 1191.74 1237.81 1187.32 L1237.81 1185.22 Q1236.49 1187.51 1234.43 1188.64 Q1232.37 1189.78 1229.5 1189.78 Q1224.73 1189.78 1221.82 1186.14 Q1218.9 1182.51 1218.9 1176.51 Q1218.9 1170.49 1221.82 1166.86 Q1224.73 1163.23 1229.5 1163.23 Q1232.37 1163.23 1234.43 1164.36 Q1236.49 1165.49 1237.81 1167.79 L1237.81 1163.85 L1242.07 1163.85 L1242.07 1186.56 Z" fill="#000000" fill-rule="nonzero" fill-opacity="1" /><path clip-path="url(#clip600)" d="M1265.87 1167.83 Q1265.15 1167.42 1264.29 1167.23 Q1263.46 1167.02 1262.44 1167.02 Q1258.83 1167.02 1256.88 1169.38 Q1254.96 1171.72 1254.96 1176.12 L1254.96 1189.78 L1250.68 1189.78 L1250.68 1163.85 L1254.96 1163.85 L1254.96 1167.88 Q1256.31 1165.52 1258.46 1164.38 Q1260.61 1163.23 1263.69 1163.23 Q1264.13 1163.23 1264.66 1163.29 Q1265.19 1163.34 1265.84 1163.46 L1265.87 1167.83 Z" fill="#000000" fill-rule="nonzero" fill-opacity="1" /><path clip-path="url(#clip600)" d="M1279.34 1166.84 Q1275.91 1166.84 1273.92 1169.52 Q1271.93 1172.18 1271.93 1176.84 Q1271.93 1181.49 1273.9 1184.17 Q1275.89 1186.84 1279.34 1186.84 Q1282.74 1186.84 1284.73 1184.15 Q1286.72 1181.47 1286.72 1176.84 Q1286.72 1172.23 1284.73 1169.54 Q1282.74 1166.84 1279.34 1166.84 M1279.34 1163.23 Q1284.89 1163.23 1288.07 1166.84 Q1291.24 1170.45 1291.24 1176.84 Q1291.24 1183.2 1288.07 1186.84 Q1284.89 1190.45 1279.34 1190.45 Q1273.76 1190.45 1270.59 1186.84 Q1267.44 1183.2 1267.44 1176.84 Q1267.44 1170.45 1270.59 1166.84 Q1273.76 1163.23 1279.34 1163.23 Z" fill="#000000" fill-rule="nonzero" fill-opacity="1" /><path clip-path="url(#clip600)" d="M1297.86 1179.54 L1297.86 1163.85 L1302.12 1163.85 L1302.12 1179.38 Q1302.12 1183.06 1303.55 1184.92 Q1304.99 1186.74 1307.86 1186.74 Q1311.31 1186.74 1313.3 1184.54 Q1315.31 1182.35 1315.31 1178.55 L1315.31 1163.85 L1319.57 1163.85 L1319.57 1189.78 L1315.31 1189.78 L1315.31 1185.79 Q1313.76 1188.16 1311.7 1189.31 Q1309.66 1190.45 1306.95 1190.45 Q1302.49 1190.45 1300.17 1187.67 Q1297.86 1184.89 1297.86 1179.54 M1308.57 1163.23 L1308.57 1163.23 Z" fill="#000000" fill-rule="nonzero" fill-opacity="1" /><path clip-path="url(#clip600)" d="M1349.89 1174.13 L1349.89 1189.78 L1345.63 1189.78 L1345.63 1174.27 Q1345.63 1170.59 1344.2 1168.76 Q1342.76 1166.93 1339.89 1166.93 Q1336.44 1166.93 1334.45 1169.13 Q1332.46 1171.33 1332.46 1175.12 L1332.46 1189.78 L1328.18 1189.78 L1328.18 1163.85 L1332.46 1163.85 L1332.46 1167.88 Q1333.99 1165.54 1336.05 1164.38 Q1338.13 1163.23 1340.84 1163.23 Q1345.31 1163.23 1347.6 1166 Q1349.89 1168.76 1349.89 1174.13 Z" fill="#000000" fill-rule="nonzero" fill-opacity="1" /><path clip-path="url(#clip600)" d="M1375.45 1167.79 L1375.45 1153.76 L1379.71 1153.76 L1379.71 1189.78 L1375.45 1189.78 L1375.45 1185.89 Q1374.11 1188.2 1372.05 1189.34 Q1370.01 1190.45 1367.14 1190.45 Q1362.44 1190.45 1359.48 1186.7 Q1356.54 1182.95 1356.54 1176.84 Q1356.54 1170.73 1359.48 1166.98 Q1362.44 1163.23 1367.14 1163.23 Q1370.01 1163.23 1372.05 1164.36 Q1374.11 1165.47 1375.45 1167.79 M1360.94 1176.84 Q1360.94 1181.54 1362.86 1184.22 Q1364.8 1186.88 1368.18 1186.88 Q1371.56 1186.88 1373.5 1184.22 Q1375.45 1181.54 1375.45 1176.84 Q1375.45 1172.14 1373.5 1169.48 Q1371.56 1166.79 1368.18 1166.79 Q1364.8 1166.79 1362.86 1169.48 Q1360.94 1172.14 1360.94 1176.84 Z" fill="#000000" fill-rule="nonzero" fill-opacity="1" /><path clip-path="url(#clip600)" d="M1420.08 1164.61 L1420.08 1168.64 Q1418.27 1167.72 1416.33 1167.25 Q1414.38 1166.79 1412.3 1166.79 Q1409.13 1166.79 1407.53 1167.76 Q1405.96 1168.73 1405.96 1170.68 Q1405.96 1172.16 1407.09 1173.02 Q1408.23 1173.85 1411.65 1174.61 L1413.11 1174.94 Q1417.65 1175.91 1419.55 1177.69 Q1421.47 1179.45 1421.47 1182.62 Q1421.47 1186.23 1418.6 1188.34 Q1415.75 1190.45 1410.75 1190.45 Q1408.67 1190.45 1406.4 1190.03 Q1404.15 1189.64 1401.65 1188.83 L1401.65 1184.43 Q1404.01 1185.66 1406.31 1186.28 Q1408.6 1186.88 1410.84 1186.88 Q1413.85 1186.88 1415.47 1185.86 Q1417.09 1184.82 1417.09 1182.95 Q1417.09 1181.21 1415.91 1180.29 Q1414.75 1179.36 1410.8 1178.5 L1409.31 1178.16 Q1405.36 1177.32 1403.6 1175.61 Q1401.84 1173.87 1401.84 1170.86 Q1401.84 1167.21 1404.43 1165.22 Q1407.02 1163.23 1411.79 1163.23 Q1414.15 1163.23 1416.24 1163.57 Q1418.32 1163.92 1420.08 1164.61 Z" fill="#000000" fill-rule="nonzero" fill-opacity="1" /><path clip-path="url(#clip600)" d="M1432.46 1156.49 L1432.46 1163.85 L1441.24 1163.85 L1441.24 1167.16 L1432.46 1167.16 L1432.46 1181.23 Q1432.46 1184.41 1433.32 1185.31 Q1434.2 1186.21 1436.86 1186.21 L1441.24 1186.21 L1441.24 1189.78 L1436.86 1189.78 Q1431.93 1189.78 1430.06 1187.95 Q1428.18 1186.1 1428.18 1181.23 L1428.18 1167.16 L1425.06 1167.16 L1425.06 1163.85 L1428.18 1163.85 L1428.18 1156.49 L1432.46 1156.49 Z" fill="#000000" fill-rule="nonzero" fill-opacity="1" /><path clip-path="url(#clip600)" d="M1458.62 1176.74 Q1453.46 1176.74 1451.47 1177.92 Q1449.48 1179.11 1449.48 1181.95 Q1449.48 1184.22 1450.96 1185.56 Q1452.46 1186.88 1455.03 1186.88 Q1458.57 1186.88 1460.7 1184.38 Q1462.86 1181.86 1462.86 1177.69 L1462.86 1176.74 L1458.62 1176.74 M1467.12 1174.98 L1467.12 1189.78 L1462.86 1189.78 L1462.86 1185.84 Q1461.4 1188.2 1459.22 1189.34 Q1457.05 1190.45 1453.9 1190.45 Q1449.92 1190.45 1447.55 1188.23 Q1445.22 1185.98 1445.22 1182.23 Q1445.22 1177.86 1448.13 1175.63 Q1451.07 1173.41 1456.88 1173.41 L1462.86 1173.41 L1462.86 1172.99 Q1462.86 1170.05 1460.91 1168.46 Q1458.99 1166.84 1455.49 1166.84 Q1453.27 1166.84 1451.17 1167.37 Q1449.06 1167.9 1447.12 1168.97 L1447.12 1165.03 Q1449.45 1164.13 1451.65 1163.69 Q1453.85 1163.23 1455.93 1163.23 Q1461.56 1163.23 1464.34 1166.14 Q1467.12 1169.06 1467.12 1174.98 Z" fill="#000000" fill-rule="nonzero" fill-opacity="1" /><path clip-path="url(#clip600)" d="M1480.1 1156.49 L1480.1 1163.85 L1488.87 1163.85 L1488.87 1167.16 L1480.1 1167.16 L1480.1 1181.23 Q1480.1 1184.41 1480.96 1185.31 Q1481.84 1186.21 1484.5 1186.21 L1488.87 1186.21 L1488.87 1189.78 L1484.5 1189.78 Q1479.57 1189.78 1477.69 1187.95 Q1475.82 1186.1 1475.82 1181.23 L1475.82 1167.16 L1472.69 1167.16 L1472.69 1163.85 L1475.82 1163.85 L1475.82 1156.49 L1480.1 1156.49 Z" fill="#000000" fill-rule="nonzero" fill-opacity="1" /><path clip-path="url(#clip600)" d="M1516.65 1175.75 L1516.65 1177.83 L1497.07 1177.83 Q1497.35 1182.23 1499.71 1184.54 Q1502.09 1186.84 1506.33 1186.84 Q1508.78 1186.84 1511.07 1186.23 Q1513.39 1185.63 1515.66 1184.43 L1515.66 1188.46 Q1513.36 1189.43 1510.96 1189.94 Q1508.55 1190.45 1506.07 1190.45 Q1499.87 1190.45 1496.24 1186.84 Q1492.62 1183.23 1492.62 1177.07 Q1492.62 1170.7 1496.05 1166.98 Q1499.5 1163.23 1505.33 1163.23 Q1510.56 1163.23 1513.6 1166.61 Q1516.65 1169.96 1516.65 1175.75 M1512.39 1174.5 Q1512.35 1171 1510.43 1168.92 Q1508.53 1166.84 1505.38 1166.84 Q1501.81 1166.84 1499.66 1168.85 Q1497.53 1170.86 1497.21 1174.52 L1512.39 1174.5 Z" fill="#000000" fill-rule="nonzero" fill-opacity="1" /><polyline clip-path="url(#clip600)" style="stroke:#e26f46; stroke-linecap:round; stroke-linejoin:round; stroke-width:8; stroke-opacity:1; fill:none" points="1053.01,1224.34 1195.2,1224.34 "/>
<path clip-path="url(#clip600)" d="M1223.3 1228.68 Q1223.3 1233.38 1225.22 1236.06 Q1227.16 1238.72 1230.54 1238.72 Q1233.92 1238.72 1235.87 1236.06 Q1237.81 1233.38 1237.81 1228.68 Q1237.81 1223.98 1235.87 1221.32 Q1233.92 1218.63 1230.54 1218.63 Q1227.16 1218.63 1225.22 1221.32 Q1223.3 1223.98 1223.3 1228.68 M1237.81 1237.73 Q1236.47 1240.04 1234.41 1241.18 Q1232.37 1242.29 1229.5 1242.29 Q1224.8 1242.29 1221.84 1238.54 Q1218.9 1234.79 1218.9 1228.68 Q1218.9 1222.57 1221.84 1218.82 Q1224.8 1215.07 1229.5 1215.07 Q1232.37 1215.07 1234.41 1216.2 Q1236.47 1217.31 1237.81 1219.63 L1237.81 1215.69 L1242.07 1215.69 L1242.07 1251.48 L1237.81 1251.48 L1237.81 1237.73 Z" fill="#000000" fill-rule="nonzero" fill-opacity="1" /><path clip-path="url(#clip600)" d="M1250.4 1231.38 L1250.4 1215.69 L1254.66 1215.69 L1254.66 1231.22 Q1254.66 1234.9 1256.1 1236.76 Q1257.53 1238.58 1260.4 1238.58 Q1263.85 1238.58 1265.84 1236.38 Q1267.86 1234.19 1267.86 1230.39 L1267.86 1215.69 L1272.12 1215.69 L1272.12 1241.62 L1267.86 1241.62 L1267.86 1237.63 Q1266.31 1240 1264.25 1241.15 Q1262.21 1242.29 1259.5 1242.29 Q1255.03 1242.29 1252.72 1239.51 Q1250.4 1236.73 1250.4 1231.38 M1261.12 1215.07 L1261.12 1215.07 Z" fill="#000000" fill-rule="nonzero" fill-opacity="1" /><path clip-path="url(#clip600)" d="M1292.67 1228.58 Q1287.51 1228.58 1285.52 1229.76 Q1283.53 1230.95 1283.53 1233.79 Q1283.53 1236.06 1285.01 1237.4 Q1286.51 1238.72 1289.08 1238.72 Q1292.63 1238.72 1294.75 1236.22 Q1296.91 1233.7 1296.91 1229.53 L1296.91 1228.58 L1292.67 1228.58 M1301.17 1226.82 L1301.17 1241.62 L1296.91 1241.62 L1296.91 1237.68 Q1295.45 1240.04 1293.27 1241.18 Q1291.1 1242.29 1287.95 1242.29 Q1283.97 1242.29 1281.61 1240.07 Q1279.27 1237.82 1279.27 1234.07 Q1279.27 1229.7 1282.19 1227.47 Q1285.13 1225.25 1290.94 1225.25 L1296.91 1225.25 L1296.91 1224.83 Q1296.91 1221.89 1294.96 1220.3 Q1293.04 1218.68 1289.55 1218.68 Q1287.32 1218.68 1285.22 1219.21 Q1283.11 1219.74 1281.17 1220.81 L1281.17 1216.87 Q1283.5 1215.97 1285.7 1215.53 Q1287.9 1215.07 1289.99 1215.07 Q1295.61 1215.07 1298.39 1217.98 Q1301.17 1220.9 1301.17 1226.82 Z" fill="#000000" fill-rule="nonzero" fill-opacity="1" /><path clip-path="url(#clip600)" d="M1326.47 1216.45 L1326.47 1220.48 Q1324.66 1219.56 1322.72 1219.09 Q1320.77 1218.63 1318.69 1218.63 Q1315.52 1218.63 1313.92 1219.6 Q1312.35 1220.57 1312.35 1222.52 Q1312.35 1224 1313.48 1224.86 Q1314.62 1225.69 1318.04 1226.45 L1319.5 1226.78 Q1324.04 1227.75 1325.94 1229.53 Q1327.86 1231.29 1327.86 1234.46 Q1327.86 1238.07 1324.99 1240.18 Q1322.14 1242.29 1317.14 1242.29 Q1315.06 1242.29 1312.79 1241.87 Q1310.54 1241.48 1308.04 1240.67 L1308.04 1236.27 Q1310.4 1237.5 1312.69 1238.12 Q1314.99 1238.72 1317.23 1238.72 Q1320.24 1238.72 1321.86 1237.7 Q1323.48 1236.66 1323.48 1234.79 Q1323.48 1233.05 1322.3 1232.13 Q1321.14 1231.2 1317.19 1230.34 L1315.7 1230 Q1311.75 1229.16 1309.99 1227.45 Q1308.23 1225.71 1308.23 1222.7 Q1308.23 1219.05 1310.82 1217.06 Q1313.41 1215.07 1318.18 1215.07 Q1320.54 1215.07 1322.63 1215.41 Q1324.71 1215.76 1326.47 1216.45 Z" fill="#000000" fill-rule="nonzero" fill-opacity="1" /><path clip-path="url(#clip600)" d="M1334.64 1215.69 L1338.9 1215.69 L1338.9 1241.62 L1334.64 1241.62 L1334.64 1215.69 M1334.64 1205.6 L1338.9 1205.6 L1338.9 1210.99 L1334.64 1210.99 L1334.64 1205.6 Z" fill="#000000" fill-rule="nonzero" fill-opacity="1" /><path clip-path="url(#clip600)" d="M1369.36 1225.97 L1369.36 1241.62 L1365.1 1241.62 L1365.1 1226.11 Q1365.1 1222.43 1363.67 1220.6 Q1362.23 1218.77 1359.36 1218.77 Q1355.91 1218.77 1353.92 1220.97 Q1351.93 1223.17 1351.93 1226.96 L1351.93 1241.62 L1347.65 1241.62 L1347.65 1205.6 L1351.93 1205.6 L1351.93 1219.72 Q1353.46 1217.38 1355.52 1216.22 Q1357.6 1215.07 1360.31 1215.07 Q1364.78 1215.07 1367.07 1217.84 Q1369.36 1220.6 1369.36 1225.97 Z" fill="#000000" fill-rule="nonzero" fill-opacity="1" /><path clip-path="url(#clip600)" d="M1387.9 1218.68 Q1384.48 1218.68 1382.49 1221.36 Q1380.5 1224.02 1380.5 1228.68 Q1380.5 1233.33 1382.46 1236.01 Q1384.45 1238.68 1387.9 1238.68 Q1391.31 1238.68 1393.3 1235.99 Q1395.29 1233.31 1395.29 1228.68 Q1395.29 1224.07 1393.3 1221.38 Q1391.31 1218.68 1387.9 1218.68 M1387.9 1215.07 Q1393.46 1215.07 1396.63 1218.68 Q1399.8 1222.29 1399.8 1228.68 Q1399.8 1235.04 1396.63 1238.68 Q1393.46 1242.29 1387.9 1242.29 Q1382.32 1242.29 1379.15 1238.68 Q1376 1235.04 1376 1228.68 Q1376 1222.29 1379.15 1218.68 Q1382.32 1215.07 1387.9 1215.07 Z" fill="#000000" fill-rule="nonzero" fill-opacity="1" /><path clip-path="url(#clip600)" d="M1406.86 1205.6 L1411.12 1205.6 L1411.12 1241.62 L1406.86 1241.62 L1406.86 1205.6 Z" fill="#000000" fill-rule="nonzero" fill-opacity="1" /><path clip-path="url(#clip600)" d="M1442.21 1227.59 L1442.21 1229.67 L1422.62 1229.67 Q1422.9 1234.07 1425.26 1236.38 Q1427.65 1238.68 1431.88 1238.68 Q1434.34 1238.68 1436.63 1238.07 Q1438.94 1237.47 1441.21 1236.27 L1441.21 1240.3 Q1438.92 1241.27 1436.51 1241.78 Q1434.11 1242.29 1431.63 1242.29 Q1425.43 1242.29 1421.79 1238.68 Q1418.18 1235.07 1418.18 1228.91 Q1418.18 1222.54 1421.61 1218.82 Q1425.06 1215.07 1430.89 1215.07 Q1436.12 1215.07 1439.15 1218.45 Q1442.21 1221.8 1442.21 1227.59 M1437.95 1226.34 Q1437.9 1222.84 1435.98 1220.76 Q1434.08 1218.68 1430.93 1218.68 Q1427.37 1218.68 1425.22 1220.69 Q1423.09 1222.7 1422.76 1226.36 L1437.95 1226.34 Z" fill="#000000" fill-rule="nonzero" fill-opacity="1" /><polyline clip-path="url(#clip600)" style="stroke:#3da44d; stroke-linecap:round; stroke-linejoin:round; stroke-width:8; stroke-opacity:1; fill:none" points="1053.01,1276.18 1195.2,1276.18 "/>
<path clip-path="url(#clip600)" d="M1223.3 1280.52 Q1223.3 1285.22 1225.22 1287.9 Q1227.16 1290.56 1230.54 1290.56 Q1233.92 1290.56 1235.87 1287.9 Q1237.81 1285.22 1237.81 1280.52 Q1237.81 1275.82 1235.87 1273.16 Q1233.92 1270.47 1230.54 1270.47 Q1227.16 1270.47 1225.22 1273.16 Q1223.3 1275.82 1223.3 1280.52 M1237.81 1289.57 Q1236.47 1291.88 1234.41 1293.02 Q1232.37 1294.13 1229.5 1294.13 Q1224.8 1294.13 1221.84 1290.38 Q1218.9 1286.63 1218.9 1280.52 Q1218.9 1274.41 1221.84 1270.66 Q1224.8 1266.91 1229.5 1266.91 Q1232.37 1266.91 1234.41 1268.04 Q1236.47 1269.15 1237.81 1271.47 L1237.81 1267.53 L1242.07 1267.53 L1242.07 1303.32 L1237.81 1303.32 L1237.81 1289.57 Z" fill="#000000" fill-rule="nonzero" fill-opacity="1" /><path clip-path="url(#clip600)" d="M1250.4 1283.22 L1250.4 1267.53 L1254.66 1267.53 L1254.66 1283.06 Q1254.66 1286.74 1256.1 1288.6 Q1257.53 1290.42 1260.4 1290.42 Q1263.85 1290.42 1265.84 1288.22 Q1267.86 1286.03 1267.86 1282.23 L1267.86 1267.53 L1272.12 1267.53 L1272.12 1293.46 L1267.86 1293.46 L1267.86 1289.47 Q1266.31 1291.84 1264.25 1292.99 Q1262.21 1294.13 1259.5 1294.13 Q1255.03 1294.13 1252.72 1291.35 Q1250.4 1288.57 1250.4 1283.22 M1261.12 1266.91 L1261.12 1266.91 Z" fill="#000000" fill-rule="nonzero" fill-opacity="1" /><path clip-path="url(#clip600)" d="M1292.67 1280.42 Q1287.51 1280.42 1285.52 1281.6 Q1283.53 1282.79 1283.53 1285.63 Q1283.53 1287.9 1285.01 1289.24 Q1286.51 1290.56 1289.08 1290.56 Q1292.63 1290.56 1294.75 1288.06 Q1296.91 1285.54 1296.91 1281.37 L1296.91 1280.42 L1292.67 1280.42 M1301.17 1278.66 L1301.17 1293.46 L1296.91 1293.46 L1296.91 1289.52 Q1295.45 1291.88 1293.27 1293.02 Q1291.1 1294.13 1287.95 1294.13 Q1283.97 1294.13 1281.61 1291.91 Q1279.27 1289.66 1279.27 1285.91 Q1279.27 1281.54 1282.19 1279.31 Q1285.13 1277.09 1290.94 1277.09 L1296.91 1277.09 L1296.91 1276.67 Q1296.91 1273.73 1294.96 1272.14 Q1293.04 1270.52 1289.55 1270.52 Q1287.32 1270.52 1285.22 1271.05 Q1283.11 1271.58 1281.17 1272.65 L1281.17 1268.71 Q1283.5 1267.81 1285.7 1267.37 Q1287.9 1266.91 1289.99 1266.91 Q1295.61 1266.91 1298.39 1269.82 Q1301.17 1272.74 1301.17 1278.66 Z" fill="#000000" fill-rule="nonzero" fill-opacity="1" /><path clip-path="url(#clip600)" d="M1326.47 1268.29 L1326.47 1272.32 Q1324.66 1271.4 1322.72 1270.93 Q1320.77 1270.47 1318.69 1270.47 Q1315.52 1270.47 1313.92 1271.44 Q1312.35 1272.41 1312.35 1274.36 Q1312.35 1275.84 1313.48 1276.7 Q1314.62 1277.53 1318.04 1278.29 L1319.5 1278.62 Q1324.04 1279.59 1325.94 1281.37 Q1327.86 1283.13 1327.86 1286.3 Q1327.86 1289.91 1324.99 1292.02 Q1322.14 1294.13 1317.14 1294.13 Q1315.06 1294.13 1312.79 1293.71 Q1310.54 1293.32 1308.04 1292.51 L1308.04 1288.11 Q1310.4 1289.34 1312.69 1289.96 Q1314.99 1290.56 1317.23 1290.56 Q1320.24 1290.56 1321.86 1289.54 Q1323.48 1288.5 1323.48 1286.63 Q1323.48 1284.89 1322.3 1283.97 Q1321.14 1283.04 1317.19 1282.18 L1315.7 1281.84 Q1311.75 1281 1309.99 1279.29 Q1308.23 1277.55 1308.23 1274.54 Q1308.23 1270.89 1310.82 1268.9 Q1313.41 1266.91 1318.18 1266.91 Q1320.54 1266.91 1322.63 1267.25 Q1324.71 1267.6 1326.47 1268.29 Z" fill="#000000" fill-rule="nonzero" fill-opacity="1" /><path clip-path="url(#clip600)" d="M1334.64 1267.53 L1338.9 1267.53 L1338.9 1293.46 L1334.64 1293.46 L1334.64 1267.53 M1334.64 1257.44 L1338.9 1257.44 L1338.9 1262.83 L1334.64 1262.83 L1334.64 1257.44 Z" fill="#000000" fill-rule="nonzero" fill-opacity="1" /><path clip-path="url(#clip600)" d="M1351.93 1289.57 L1351.93 1303.32 L1347.65 1303.32 L1347.65 1267.53 L1351.93 1267.53 L1351.93 1271.47 Q1353.27 1269.15 1355.31 1268.04 Q1357.37 1266.91 1360.22 1266.91 Q1364.94 1266.91 1367.88 1270.66 Q1370.84 1274.41 1370.84 1280.52 Q1370.84 1286.63 1367.88 1290.38 Q1364.94 1294.13 1360.22 1294.13 Q1357.37 1294.13 1355.31 1293.02 Q1353.27 1291.88 1351.93 1289.57 M1366.42 1280.52 Q1366.42 1275.82 1364.48 1273.16 Q1362.56 1270.47 1359.18 1270.47 Q1355.8 1270.47 1353.85 1273.16 Q1351.93 1275.82 1351.93 1280.52 Q1351.93 1285.22 1353.85 1287.9 Q1355.8 1290.56 1359.18 1290.56 Q1362.56 1290.56 1364.48 1287.9 Q1366.42 1285.22 1366.42 1280.52 Z" fill="#000000" fill-rule="nonzero" fill-opacity="1" /><path clip-path="url(#clip600)" d="M1389.68 1280.42 Q1384.52 1280.42 1382.53 1281.6 Q1380.54 1282.79 1380.54 1285.63 Q1380.54 1287.9 1382.02 1289.24 Q1383.53 1290.56 1386.1 1290.56 Q1389.64 1290.56 1391.77 1288.06 Q1393.92 1285.54 1393.92 1281.37 L1393.92 1280.42 L1389.68 1280.42 M1398.18 1278.66 L1398.18 1293.46 L1393.92 1293.46 L1393.92 1289.52 Q1392.46 1291.88 1390.29 1293.02 Q1388.11 1294.13 1384.96 1294.13 Q1380.98 1294.13 1378.62 1291.91 Q1376.28 1289.66 1376.28 1285.91 Q1376.28 1281.54 1379.2 1279.31 Q1382.14 1277.09 1387.95 1277.09 L1393.92 1277.09 L1393.92 1276.67 Q1393.92 1273.73 1391.98 1272.14 Q1390.06 1270.52 1386.56 1270.52 Q1384.34 1270.52 1382.23 1271.05 Q1380.12 1271.58 1378.18 1272.65 L1378.18 1268.71 Q1380.52 1267.81 1382.72 1267.37 Q1384.92 1266.91 1387 1266.91 Q1392.62 1266.91 1395.4 1269.82 Q1398.18 1272.74 1398.18 1278.66 Z" fill="#000000" fill-rule="nonzero" fill-opacity="1" /><path clip-path="url(#clip600)" d="M1421.98 1271.51 Q1421.26 1271.1 1420.4 1270.91 Q1419.57 1270.7 1418.55 1270.7 Q1414.94 1270.7 1412.99 1273.06 Q1411.07 1275.4 1411.07 1279.8 L1411.07 1293.46 L1406.79 1293.46 L1406.79 1267.53 L1411.07 1267.53 L1411.07 1271.56 Q1412.42 1269.2 1414.57 1268.06 Q1416.72 1266.91 1419.8 1266.91 Q1420.24 1266.91 1420.77 1266.97 Q1421.31 1267.02 1421.95 1267.14 L1421.98 1271.51 Z" fill="#000000" fill-rule="nonzero" fill-opacity="1" /><path clip-path="url(#clip600)" d="M1430.66 1260.17 L1430.66 1267.53 L1439.43 1267.53 L1439.43 1270.84 L1430.66 1270.84 L1430.66 1284.91 Q1430.66 1288.09 1431.51 1288.99 Q1432.39 1289.89 1435.06 1289.89 L1439.43 1289.89 L1439.43 1293.46 L1435.06 1293.46 Q1430.12 1293.46 1428.25 1291.63 Q1426.37 1289.78 1426.37 1284.91 L1426.37 1270.84 L1423.25 1270.84 L1423.25 1267.53 L1426.37 1267.53 L1426.37 1260.17 L1430.66 1260.17 Z" fill="#000000" fill-rule="nonzero" fill-opacity="1" /><path clip-path="url(#clip600)" d="M1445.03 1267.53 L1449.29 1267.53 L1449.29 1293.46 L1445.03 1293.46 L1445.03 1267.53 M1445.03 1257.44 L1449.29 1257.44 L1449.29 1262.83 L1445.03 1262.83 L1445.03 1257.44 Z" fill="#000000" fill-rule="nonzero" fill-opacity="1" /><path clip-path="url(#clip600)" d="M1476.86 1268.53 L1476.86 1272.51 Q1475.05 1271.51 1473.23 1271.03 Q1471.42 1270.52 1469.57 1270.52 Q1465.43 1270.52 1463.13 1273.16 Q1460.84 1275.77 1460.84 1280.52 Q1460.84 1285.26 1463.13 1287.9 Q1465.43 1290.52 1469.57 1290.52 Q1471.42 1290.52 1473.23 1290.03 Q1475.05 1289.52 1476.86 1288.53 L1476.86 1292.46 Q1475.08 1293.29 1473.16 1293.71 Q1471.26 1294.13 1469.11 1294.13 Q1463.25 1294.13 1459.8 1290.45 Q1456.35 1286.77 1456.35 1280.52 Q1456.35 1274.17 1459.82 1270.54 Q1463.32 1266.91 1469.38 1266.91 Q1471.35 1266.91 1473.23 1267.32 Q1475.1 1267.72 1476.86 1268.53 Z" fill="#000000" fill-rule="nonzero" fill-opacity="1" /><path clip-path="url(#clip600)" d="M1484.27 1257.44 L1488.53 1257.44 L1488.53 1293.46 L1484.27 1293.46 L1484.27 1257.44 Z" fill="#000000" fill-rule="nonzero" fill-opacity="1" /><path clip-path="url(#clip600)" d="M1519.61 1279.43 L1519.61 1281.51 L1500.03 1281.51 Q1500.31 1285.91 1502.67 1288.22 Q1505.05 1290.52 1509.29 1290.52 Q1511.74 1290.52 1514.04 1289.91 Q1516.35 1289.31 1518.62 1288.11 L1518.62 1292.14 Q1516.33 1293.11 1513.92 1293.62 Q1511.51 1294.13 1509.04 1294.13 Q1502.83 1294.13 1499.2 1290.52 Q1495.59 1286.91 1495.59 1280.75 Q1495.59 1274.38 1499.01 1270.66 Q1502.46 1266.91 1508.3 1266.91 Q1513.53 1266.91 1516.56 1270.29 Q1519.61 1273.64 1519.61 1279.43 M1515.36 1278.18 Q1515.31 1274.68 1513.39 1272.6 Q1511.49 1270.52 1508.34 1270.52 Q1504.78 1270.52 1502.62 1272.53 Q1500.49 1274.54 1500.17 1278.2 L1515.36 1278.18 Z" fill="#000000" fill-rule="nonzero" fill-opacity="1" /><polyline clip-path="url(#clip600)" style="stroke:#000000; stroke-linecap:round; stroke-linejoin:round; stroke-width:4; stroke-opacity:1; fill:none" stroke-dasharray="16, 10" points="1053.01,1328.02 1195.2,1328.02 "/>
<path clip-path="url(#clip600)" d="M1226.82 1345.3 L1218.9 1319.37 L1223.48 1319.37 L1230.17 1341.13 Q1232.95 1338.26 1235.26 1334.28 Q1237.02 1331.29 1237.12 1328.7 Q1237.16 1327.47 1236.61 1325.16 Q1235.96 1322.4 1233.51 1319.37 L1237.81 1319.37 L1237.81 1319.37 Q1239.41 1321.43 1240.47 1324.3 Q1241.44 1326.94 1241.44 1328.75 Q1241.44 1333.28 1238.3 1337.33 Q1234.2 1342.61 1231.35 1345.3 L1226.82 1345.3 Z" fill="#000000" fill-rule="nonzero" fill-opacity="1" /><path clip-path="url(#clip600)" d="M1263.76 1323.77 L1293.44 1323.77 L1293.44 1327.66 L1263.76 1327.66 L1263.76 1323.77 M1263.76 1333.21 L1293.44 1333.21 L1293.44 1337.15 L1263.76 1337.15 L1263.76 1333.21 Z" fill="#000000" fill-rule="nonzero" fill-opacity="1" /><path clip-path="url(#clip600)" d="M1319.41 1341.36 L1327.05 1341.36 L1327.05 1315 L1318.74 1316.66 L1318.74 1312.4 L1327 1310.74 L1331.68 1310.74 L1331.68 1341.36 L1339.31 1341.36 L1339.31 1345.3 L1319.41 1345.3 L1319.41 1341.36 Z" fill="#000000" fill-rule="nonzero" fill-opacity="1" /><path clip-path="url(#clip600)" d="M1355.73 1310.74 L1359.66 1310.74 L1347.62 1349.69 L1343.69 1349.69 L1355.73 1310.74 Z" fill="#000000" fill-rule="nonzero" fill-opacity="1" /><path clip-path="url(#clip600)" d="M1378.9 1326.66 Q1382.25 1327.38 1384.13 1329.65 Q1386.03 1331.92 1386.03 1335.25 Q1386.03 1340.37 1382.51 1343.17 Q1378.99 1345.97 1372.51 1345.97 Q1370.33 1345.97 1368.02 1345.53 Q1365.73 1345.11 1363.27 1344.25 L1363.27 1339.74 Q1365.22 1340.87 1367.53 1341.45 Q1369.85 1342.03 1372.37 1342.03 Q1376.77 1342.03 1379.06 1340.3 Q1381.37 1338.56 1381.37 1335.25 Q1381.37 1332.19 1379.22 1330.48 Q1377.09 1328.75 1373.27 1328.75 L1369.25 1328.75 L1369.25 1324.9 L1373.46 1324.9 Q1376.91 1324.9 1378.74 1323.54 Q1380.56 1322.15 1380.56 1319.56 Q1380.56 1316.89 1378.67 1315.48 Q1376.79 1314.05 1373.27 1314.05 Q1371.35 1314.05 1369.15 1314.46 Q1366.95 1314.88 1364.31 1315.76 L1364.31 1311.59 Q1366.98 1310.85 1369.29 1310.48 Q1371.63 1310.11 1373.69 1310.11 Q1379.01 1310.11 1382.12 1312.54 Q1385.22 1314.95 1385.22 1319.07 Q1385.22 1321.94 1383.57 1323.93 Q1381.93 1325.9 1378.9 1326.66 Z" fill="#000000" fill-rule="nonzero" fill-opacity="1" /></svg>
