<?xml version="1.0" encoding="utf-8"?>
<svg xmlns="http://www.w3.org/2000/svg" xmlns:xlink="http://www.w3.org/1999/xlink" width="600" height="400" viewBox="0 0 2400 1600">
<defs>
  <clipPath id="clip100">
    <rect x="0" y="0" width="2400" height="1600"/>
  </clipPath>
</defs>
<path clip-path="url(#clip100)" d="M0 1600 L2400 1600 L2400 0 L0 0  Z" fill="#ffffff" fill-rule="evenodd" fill-opacity="1"/>
<defs>
  <clipPath id="clip101">
    <rect x="219" y="123" width="2134" height="1301"/>
  </clipPath>
</defs>
<path clip-path="url(#clip100)" d="M219.866 1423.18 L2352.76 1423.18 L2352.76 123.472 L219.866 123.472  Z" fill="#ffffff" fill-rule="evenodd" fill-opacity="1"/>
<polyline clip-path="url(#clip101)" style="stroke:#000000; stroke-linecap:round; stroke-linejoin:round; stroke-width:2; stroke-opacity:0.1; fill:none" points="530.811,1423.18 530.811,123.472 "/>
<polyline clip-path="url(#clip101)" style="stroke:#000000; stroke-linecap:round; stroke-linejoin:round; stroke-width:2; stroke-opacity:0.1; fill:none" points="883.586,1423.18 883.586,123.472 "/>
<polyline clip-path="url(#clip101)" style="stroke:#000000; stroke-linecap:round; stroke-linejoin:round; stroke-width:2; stroke-opacity:0.1; fill:none" points="1236.36,1423.18 1236.36,123.472 "/>
<polyline clip-path="url(#clip101)" style="stroke:#000000; stroke-linecap:round; stroke-linejoin:round; stroke-width:2; stroke-opacity:0.1; fill:none" points="1589.14,1423.18 1589.14,123.472 "/>
<polyline clip-path="url(#clip101)" style="stroke:#000000; stroke-linecap:round; stroke-linejoin:round; stroke-width:2; stroke-opacity:0.1; fill:none" points="1941.91,1423.18 1941.91,123.472 "/>
<polyline clip-path="url(#clip101)" style="stroke:#000000; stroke-linecap:round; stroke-linejoin:round; stroke-width:2; stroke-opacity:0.1; fill:none" points="2294.68,1423.18 2294.68,123.472 "/>
<polyline clip-path="url(#clip101)" style="stroke:#000000; stroke-linecap:round; stroke-linejoin:round; stroke-width:2; stroke-opacity:0.1; fill:none" points="219.866,1220.07 2352.76,1220.07 "/>
<polyline clip-path="url(#clip101)" style="stroke:#000000; stroke-linecap:round; stroke-linejoin:round; stroke-width:2; stroke-opacity:0.1; fill:none" points="219.866,922.431 2352.76,922.431 "/>
<polyline clip-path="url(#clip101)" style="stroke:#000000; stroke-linecap:round; stroke-linejoin:round; stroke-width:2; stroke-opacity:0.1; fill:none" points="219.866,624.793 2352.76,624.793 "/>
<polyline clip-path="url(#clip101)" style="stroke:#000000; stroke-linecap:round; stroke-linejoin:round; stroke-width:2; stroke-opacity:0.1; fill:none" points="219.866,327.155 2352.76,327.155 "/>
<polyline clip-path="url(#clip100)" style="stroke:#000000; stroke-linecap:round; stroke-linejoin:round; stroke-width:4; stroke-opacity:1; fill:none" points="219.866,1423.18 2352.76,1423.18 "/>
<polyline clip-path="url(#clip100)" style="stroke:#000000; stroke-linecap:round; stroke-linejoin:round; stroke-width:4; stroke-opacity:1; fill:none" points="530.811,1423.18 530.811,1404.28 "/>
<polyline clip-path="url(#clip100)" style="stroke:#000000; stroke-linecap:round; stroke-linejoin:round; stroke-width:4; stroke-opacity:1; fill:none" points="883.586,1423.18 883.586,1404.28 "/>
<polyline clip-path="url(#clip100)" style="stroke:#000000; stroke-linecap:round; stroke-linejoin:round; stroke-width:4; stroke-opacity:1; fill:none" points="1236.36,1423.18 1236.36,1404.28 "/>
<polyline clip-path="url(#clip100)" style="stroke:#000000; stroke-linecap:round; stroke-linejoin:round; stroke-width:4; stroke-opacity:1; fill:none" points="1589.14,1423.18 1589.14,1404.28 "/>
<polyline clip-path="url(#clip100)" style="stroke:#000000; stroke-linecap:round; stroke-linejoin:round; stroke-width:4; stroke-opacity:1; fill:none" points="1941.91,1423.18 1941.91,1404.28 "/>
<polyline clip-path="url(#clip100)" style="stroke:#000000; stroke-linecap:round; stroke-linejoin:round; stroke-width:4; stroke-opacity:1; fill:none" points="2294.68,1423.18 2294.68,1404.28 "/>
<path clip-path="url(#clip100)" d="M508.694 1454.1 Q505.082 1454.1 503.254 1457.66 Q501.448 1461.2 501.448 1468.33 Q501.448 1475.44 503.254 1479.01 Q505.082 1482.55 508.694 1482.55 Q512.328 1482.55 514.133 1479.01 Q515.962 1475.44 515.962 1468.33 Q515.962 1461.2 514.133 1457.66 Q512.328 1454.1 508.694 1454.1 M508.694 1450.39 Q514.504 1450.39 517.559 1455 Q520.638 1459.58 520.638 1468.33 Q520.638 1477.06 517.559 1481.67 Q514.504 1486.25 508.694 1486.25 Q502.883 1486.25 499.805 1481.67 Q496.749 1477.06 496.749 1468.33 Q496.749 1459.58 499.805 1455 Q502.883 1450.39 508.694 1450.39 Z" fill="#000000" fill-rule="nonzero" fill-opacity="1" /><path clip-path="url(#clip100)" d="M528.855 1479.7 L533.74 1479.7 L533.74 1485.58 L528.855 1485.58 L528.855 1479.7 Z" fill="#000000" fill-rule="nonzero" fill-opacity="1" /><path clip-path="url(#clip100)" d="M543.971 1451.02 L562.328 1451.02 L562.328 1454.96 L548.254 1454.96 L548.254 1463.43 Q549.272 1463.08 550.291 1462.92 Q551.309 1462.73 552.328 1462.73 Q558.115 1462.73 561.494 1465.9 Q564.874 1469.08 564.874 1474.49 Q564.874 1480.07 561.402 1483.17 Q557.929 1486.25 551.61 1486.25 Q549.434 1486.25 547.166 1485.88 Q544.92 1485.51 542.513 1484.77 L542.513 1480.07 Q544.596 1481.2 546.818 1481.76 Q549.041 1482.32 551.517 1482.32 Q555.522 1482.32 557.86 1480.21 Q560.198 1478.1 560.198 1474.49 Q560.198 1470.88 557.86 1468.77 Q555.522 1466.67 551.517 1466.67 Q549.642 1466.67 547.767 1467.08 Q545.916 1467.5 543.971 1468.38 L543.971 1451.02 Z" fill="#000000" fill-rule="nonzero" fill-opacity="1" /><path clip-path="url(#clip100)" d="M850.739 1481.64 L858.378 1481.64 L858.378 1455.28 L850.068 1456.95 L850.068 1452.69 L858.332 1451.02 L863.008 1451.02 L863.008 1481.64 L870.646 1481.64 L870.646 1485.58 L850.739 1485.58 L850.739 1481.64 Z" fill="#000000" fill-rule="nonzero" fill-opacity="1" /><path clip-path="url(#clip100)" d="M880.091 1479.7 L884.975 1479.7 L884.975 1485.58 L880.091 1485.58 L880.091 1479.7 Z" fill="#000000" fill-rule="nonzero" fill-opacity="1" /><path clip-path="url(#clip100)" d="M905.16 1454.1 Q901.549 1454.1 899.72 1457.66 Q897.915 1461.2 897.915 1468.33 Q897.915 1475.44 899.72 1479.01 Q901.549 1482.55 905.16 1482.55 Q908.794 1482.55 910.6 1479.01 Q912.429 1475.44 912.429 1468.33 Q912.429 1461.2 910.6 1457.66 Q908.794 1454.1 905.16 1454.1 M905.16 1450.39 Q910.97 1450.39 914.026 1455 Q917.104 1459.58 917.104 1468.33 Q917.104 1477.06 914.026 1481.67 Q910.97 1486.25 905.16 1486.25 Q899.35 1486.25 896.271 1481.67 Q893.216 1477.06 893.216 1468.33 Q893.216 1459.58 896.271 1455 Q899.35 1450.39 905.16 1450.39 Z" fill="#000000" fill-rule="nonzero" fill-opacity="1" /><path clip-path="url(#clip100)" d="M1204.01 1481.64 L1211.65 1481.64 L1211.65 1455.28 L1203.34 1456.95 L1203.34 1452.69 L1211.6 1451.02 L1216.28 1451.02 L1216.28 1481.64 L1223.92 1481.64 L1223.92 1485.58 L1204.01 1485.58 L1204.01 1481.64 Z" fill="#000000" fill-rule="nonzero" fill-opacity="1" /><path clip-path="url(#clip100)" d="M1233.36 1479.7 L1238.25 1479.7 L1238.25 1485.58 L1233.36 1485.58 L1233.36 1479.7 Z" fill="#000000" fill-rule="nonzero" fill-opacity="1" /><path clip-path="url(#clip100)" d="M1248.48 1451.02 L1266.84 1451.02 L1266.84 1454.96 L1252.76 1454.96 L1252.76 1463.43 Q1253.78 1463.08 1254.8 1462.92 Q1255.82 1462.73 1256.84 1462.73 Q1262.62 1462.73 1266 1465.9 Q1269.38 1469.08 1269.38 1474.49 Q1269.38 1480.07 1265.91 1483.17 Q1262.44 1486.25 1256.12 1486.25 Q1253.94 1486.25 1251.67 1485.88 Q1249.43 1485.51 1247.02 1484.77 L1247.02 1480.07 Q1249.1 1481.2 1251.33 1481.76 Q1253.55 1482.32 1256.03 1482.32 Q1260.03 1482.32 1262.37 1480.21 Q1264.71 1478.1 1264.71 1474.49 Q1264.71 1470.88 1262.37 1468.77 Q1260.03 1466.67 1256.03 1466.67 Q1254.15 1466.67 1252.28 1467.08 Q1250.42 1467.5 1248.48 1468.38 L1248.48 1451.02 Z" fill="#000000" fill-rule="nonzero" fill-opacity="1" /><path clip-path="url(#clip100)" d="M1560.37 1481.64 L1576.69 1481.64 L1576.69 1485.58 L1554.75 1485.58 L1554.75 1481.64 Q1557.41 1478.89 1561.99 1474.26 Q1566.6 1469.61 1567.78 1468.27 Q1570.03 1465.74 1570.91 1464.01 Q1571.81 1462.25 1571.81 1460.56 Q1571.81 1457.8 1569.86 1456.07 Q1567.94 1454.33 1564.84 1454.33 Q1562.64 1454.33 1560.19 1455.09 Q1557.76 1455.86 1554.98 1457.41 L1554.98 1452.69 Q1557.8 1451.55 1560.26 1450.97 Q1562.71 1450.39 1564.75 1450.39 Q1570.12 1450.39 1573.31 1453.08 Q1576.51 1455.77 1576.51 1460.26 Q1576.51 1462.39 1575.7 1464.31 Q1574.91 1466.2 1572.8 1468.8 Q1572.23 1469.47 1569.12 1472.69 Q1566.02 1475.88 1560.37 1481.64 Z" fill="#000000" fill-rule="nonzero" fill-opacity="1" /><path clip-path="url(#clip100)" d="M1586.51 1479.7 L1591.39 1479.7 L1591.39 1485.58 L1586.51 1485.58 L1586.51 1479.7 Z" fill="#000000" fill-rule="nonzero" fill-opacity="1" /><path clip-path="url(#clip100)" d="M1611.58 1454.1 Q1607.97 1454.1 1606.14 1457.66 Q1604.33 1461.2 1604.33 1468.33 Q1604.33 1475.44 1606.14 1479.01 Q1607.97 1482.55 1611.58 1482.55 Q1615.21 1482.55 1617.02 1479.01 Q1618.85 1475.44 1618.85 1468.33 Q1618.85 1461.2 1617.02 1457.66 Q1615.21 1454.1 1611.58 1454.1 M1611.58 1450.39 Q1617.39 1450.39 1620.44 1455 Q1623.52 1459.58 1623.52 1468.33 Q1623.52 1477.06 1620.44 1481.67 Q1617.39 1486.25 1611.58 1486.25 Q1605.77 1486.25 1602.69 1481.67 Q1599.63 1477.06 1599.63 1468.33 Q1599.63 1459.58 1602.69 1455 Q1605.77 1450.39 1611.58 1450.39 Z" fill="#000000" fill-rule="nonzero" fill-opacity="1" /><path clip-path="url(#clip100)" d="M1913.65 1481.64 L1929.97 1481.64 L1929.97 1485.58 L1908.02 1485.58 L1908.02 1481.64 Q1910.68 1478.89 1915.27 1474.26 Q1919.87 1469.61 1921.05 1468.27 Q1923.3 1465.74 1924.18 1464.01 Q1925.08 1462.25 1925.08 1460.56 Q1925.08 1457.8 1923.14 1456.07 Q1921.22 1454.33 1918.11 1454.33 Q1915.91 1454.33 1913.46 1455.09 Q1911.03 1455.86 1908.25 1457.41 L1908.25 1452.69 Q1911.08 1451.55 1913.53 1450.97 Q1915.98 1450.39 1918.02 1450.39 Q1923.39 1450.39 1926.59 1453.08 Q1929.78 1455.77 1929.78 1460.26 Q1929.78 1462.39 1928.97 1464.31 Q1928.18 1466.2 1926.08 1468.8 Q1925.5 1469.47 1922.4 1472.69 Q1919.29 1475.88 1913.65 1481.64 Z" fill="#000000" fill-rule="nonzero" fill-opacity="1" /><path clip-path="url(#clip100)" d="M1939.78 1479.7 L1944.66 1479.7 L1944.66 1485.58 L1939.78 1485.58 L1939.78 1479.7 Z" fill="#000000" fill-rule="nonzero" fill-opacity="1" /><path clip-path="url(#clip100)" d="M1954.9 1451.02 L1973.25 1451.02 L1973.25 1454.96 L1959.18 1454.96 L1959.18 1463.43 Q1960.2 1463.08 1961.22 1462.92 Q1962.23 1462.73 1963.25 1462.73 Q1969.04 1462.73 1972.42 1465.9 Q1975.8 1469.08 1975.8 1474.49 Q1975.8 1480.07 1972.33 1483.17 Q1968.85 1486.25 1962.53 1486.25 Q1960.36 1486.25 1958.09 1485.88 Q1955.85 1485.51 1953.44 1484.77 L1953.44 1480.07 Q1955.52 1481.2 1957.74 1481.76 Q1959.97 1482.32 1962.44 1482.32 Q1966.45 1482.32 1968.78 1480.21 Q1971.12 1478.1 1971.12 1474.49 Q1971.12 1470.88 1968.78 1468.77 Q1966.45 1466.67 1962.44 1466.67 Q1960.57 1466.67 1958.69 1467.08 Q1956.84 1467.5 1954.9 1468.38 L1954.9 1451.02 Z" fill="#000000" fill-rule="nonzero" fill-opacity="1" /><path clip-path="url(#clip100)" d="M2275.99 1466.95 Q2279.35 1467.66 2281.22 1469.93 Q2283.12 1472.2 2283.12 1475.53 Q2283.12 1480.65 2279.6 1483.45 Q2276.09 1486.25 2269.6 1486.25 Q2267.43 1486.25 2265.11 1485.81 Q2262.82 1485.39 2260.37 1484.54 L2260.37 1480.02 Q2262.31 1481.16 2264.63 1481.74 Q2266.94 1482.32 2269.46 1482.32 Q2273.86 1482.32 2276.15 1480.58 Q2278.47 1478.84 2278.47 1475.53 Q2278.47 1472.48 2276.32 1470.77 Q2274.19 1469.03 2270.37 1469.03 L2266.34 1469.03 L2266.34 1465.19 L2270.55 1465.19 Q2274 1465.19 2275.83 1463.82 Q2277.66 1462.43 2277.66 1459.84 Q2277.66 1457.18 2275.76 1455.77 Q2273.89 1454.33 2270.37 1454.33 Q2268.45 1454.33 2266.25 1454.75 Q2264.05 1455.16 2261.41 1456.04 L2261.41 1451.88 Q2264.07 1451.14 2266.39 1450.77 Q2268.72 1450.39 2270.78 1450.39 Q2276.11 1450.39 2279.21 1452.83 Q2282.31 1455.23 2282.31 1459.35 Q2282.31 1462.22 2280.67 1464.21 Q2279.03 1466.18 2275.99 1466.95 Z" fill="#000000" fill-rule="nonzero" fill-opacity="1" /><path clip-path="url(#clip100)" d="M2291.99 1479.7 L2296.87 1479.7 L2296.87 1485.58 L2291.99 1485.58 L2291.99 1479.7 Z" fill="#000000" fill-rule="nonzero" fill-opacity="1" /><path clip-path="url(#clip100)" d="M2317.06 1454.1 Q2313.45 1454.1 2311.62 1457.66 Q2309.81 1461.2 2309.81 1468.33 Q2309.81 1475.44 2311.62 1479.01 Q2313.45 1482.55 2317.06 1482.55 Q2320.69 1482.55 2322.5 1479.01 Q2324.33 1475.44 2324.33 1468.33 Q2324.33 1461.2 2322.5 1457.66 Q2320.69 1454.1 2317.06 1454.1 M2317.06 1450.39 Q2322.87 1450.39 2325.92 1455 Q2329 1459.58 2329 1468.33 Q2329 1477.06 2325.92 1481.67 Q2322.87 1486.25 2317.06 1486.25 Q2311.25 1486.25 2308.17 1481.67 Q2305.11 1477.06 2305.11 1468.33 Q2305.11 1459.58 2308.17 1455 Q2311.25 1450.39 2317.06 1450.39 Z" fill="#000000" fill-rule="nonzero" fill-opacity="1" /><path clip-path="url(#clip100)" d="M1296.43 1545.45 L1276.16 1545.45 Q1276.64 1554.96 1278.83 1559 Q1281.57 1563.97 1286.31 1563.97 Q1291.09 1563.97 1293.73 1558.97 Q1296.05 1554.58 1296.43 1545.45 M1296.34 1540.03 Q1295.45 1531 1293.73 1527.81 Q1290.99 1522.78 1286.31 1522.78 Q1281.44 1522.78 1278.86 1527.75 Q1276.83 1531.76 1276.22 1540.03 L1296.34 1540.03 M1286.31 1518.01 Q1293.95 1518.01 1298.31 1524.76 Q1302.67 1531.47 1302.67 1543.38 Q1302.67 1555.25 1298.31 1562 Q1293.95 1568.78 1286.31 1568.78 Q1278.64 1568.78 1274.31 1562 Q1269.95 1555.25 1269.95 1543.38 Q1269.95 1531.47 1274.31 1524.76 Q1278.64 1518.01 1286.31 1518.01 Z" fill="#000000" fill-rule="nonzero" fill-opacity="1" /><polyline clip-path="url(#clip100)" style="stroke:#000000; stroke-linecap:round; stroke-linejoin:round; stroke-width:4; stroke-opacity:1; fill:none" points="219.866,1423.18 219.866,123.472 "/>
<polyline clip-path="url(#clip100)" style="stroke:#000000; stroke-linecap:round; stroke-linejoin:round; stroke-width:4; stroke-opacity:1; fill:none" points="219.866,1220.07 238.764,1220.07 "/>
<polyline clip-path="url(#clip100)" style="stroke:#000000; stroke-linecap:round; stroke-linejoin:round; stroke-width:4; stroke-opacity:1; fill:none" points="219.866,922.431 238.764,922.431 "/>
<polyline clip-path="url(#clip100)" style="stroke:#000000; stroke-linecap:round; stroke-linejoin:round; stroke-width:4; stroke-opacity:1; fill:none" points="219.866,624.793 238.764,624.793 "/>
<polyline clip-path="url(#clip100)" style="stroke:#000000; stroke-linecap:round; stroke-linejoin:round; stroke-width:4; stroke-opacity:1; fill:none" points="219.866,327.155 238.764,327.155 "/>
<path clip-path="url(#clip100)" d="M128.288 1205.87 Q124.677 1205.87 122.848 1209.43 Q121.043 1212.97 121.043 1220.1 Q121.043 1227.21 122.848 1230.77 Q124.677 1234.32 128.288 1234.32 Q131.922 1234.32 133.728 1230.77 Q135.556 1227.21 135.556 1220.1 Q135.556 1212.97 133.728 1209.43 Q131.922 1205.87 128.288 1205.87 M128.288 1202.16 Q134.098 1202.16 137.154 1206.77 Q140.232 1211.35 140.232 1220.1 Q140.232 1228.83 137.154 1233.44 Q134.098 1238.02 128.288 1238.02 Q122.478 1238.02 119.399 1233.44 Q116.343 1228.83 116.343 1220.1 Q116.343 1211.35 119.399 1206.77 Q122.478 1202.16 128.288 1202.16 Z" fill="#000000" fill-rule="nonzero" fill-opacity="1" /><path clip-path="url(#clip100)" d="M148.45 1231.47 L153.334 1231.47 L153.334 1237.35 L148.45 1237.35 L148.45 1231.47 Z" fill="#000000" fill-rule="nonzero" fill-opacity="1" /><path clip-path="url(#clip100)" d="M167.547 1233.41 L183.866 1233.41 L183.866 1237.35 L161.922 1237.35 L161.922 1233.41 Q164.584 1230.66 169.167 1226.03 Q173.774 1221.38 174.954 1220.03 Q177.2 1217.51 178.079 1215.77 Q178.982 1214.02 178.982 1212.33 Q178.982 1209.57 177.038 1207.84 Q175.116 1206.1 172.014 1206.1 Q169.815 1206.1 167.362 1206.86 Q164.931 1207.63 162.153 1209.18 L162.153 1204.46 Q164.977 1203.32 167.431 1202.74 Q169.885 1202.16 171.922 1202.16 Q177.292 1202.16 180.487 1204.85 Q183.681 1207.53 183.681 1212.02 Q183.681 1214.15 182.871 1216.08 Q182.084 1217.97 179.977 1220.57 Q179.399 1221.24 176.297 1224.46 Q173.195 1227.65 167.547 1233.41 Z" fill="#000000" fill-rule="nonzero" fill-opacity="1" /><path clip-path="url(#clip100)" d="M126.205 908.23 Q122.593 908.23 120.765 911.794 Q118.959 915.336 118.959 922.466 Q118.959 929.572 120.765 933.137 Q122.593 936.679 126.205 936.679 Q129.839 936.679 131.644 933.137 Q133.473 929.572 133.473 922.466 Q133.473 915.336 131.644 911.794 Q129.839 908.23 126.205 908.23 M126.205 904.526 Q132.015 904.526 135.07 909.132 Q138.149 913.716 138.149 922.466 Q138.149 931.192 135.07 935.799 Q132.015 940.382 126.205 940.382 Q120.394 940.382 117.316 935.799 Q114.26 931.192 114.26 922.466 Q114.26 913.716 117.316 909.132 Q120.394 904.526 126.205 904.526 Z" fill="#000000" fill-rule="nonzero" fill-opacity="1" /><path clip-path="url(#clip100)" d="M146.366 933.831 L151.251 933.831 L151.251 939.711 L146.366 939.711 L146.366 933.831 Z" fill="#000000" fill-rule="nonzero" fill-opacity="1" /><path clip-path="url(#clip100)" d="M174.283 909.225 L162.477 927.674 L174.283 927.674 L174.283 909.225 M173.056 905.151 L178.936 905.151 L178.936 927.674 L183.866 927.674 L183.866 931.563 L178.936 931.563 L178.936 939.711 L174.283 939.711 L174.283 931.563 L158.681 931.563 L158.681 927.049 L173.056 905.151 Z" fill="#000000" fill-rule="nonzero" fill-opacity="1" /><path clip-path="url(#clip100)" d="M126.529 610.592 Q122.918 610.592 121.089 614.156 Q119.283 617.698 119.283 624.828 Q119.283 631.934 121.089 635.499 Q122.918 639.041 126.529 639.041 Q130.163 639.041 131.968 635.499 Q133.797 631.934 133.797 624.828 Q133.797 617.698 131.968 614.156 Q130.163 610.592 126.529 610.592 M126.529 606.888 Q132.339 606.888 135.394 611.494 Q138.473 616.078 138.473 624.828 Q138.473 633.554 135.394 638.161 Q132.339 642.744 126.529 642.744 Q120.718 642.744 117.64 638.161 Q114.584 633.554 114.584 624.828 Q114.584 616.078 117.64 611.494 Q120.718 606.888 126.529 606.888 Z" fill="#000000" fill-rule="nonzero" fill-opacity="1" /><path clip-path="url(#clip100)" d="M146.691 636.193 L151.575 636.193 L151.575 642.073 L146.691 642.073 L146.691 636.193 Z" fill="#000000" fill-rule="nonzero" fill-opacity="1" /><path clip-path="url(#clip100)" d="M172.339 622.93 Q169.19 622.93 167.339 625.082 Q165.51 627.235 165.51 630.985 Q165.51 634.712 167.339 636.888 Q169.19 639.041 172.339 639.041 Q175.487 639.041 177.315 636.888 Q179.167 634.712 179.167 630.985 Q179.167 627.235 177.315 625.082 Q175.487 622.93 172.339 622.93 M181.621 608.277 L181.621 612.536 Q179.862 611.703 178.056 611.263 Q176.274 610.823 174.514 610.823 Q169.885 610.823 167.431 613.948 Q165.001 617.073 164.653 623.393 Q166.019 621.379 168.079 620.314 Q170.139 619.226 172.616 619.226 Q177.825 619.226 180.834 622.397 Q183.866 625.545 183.866 630.985 Q183.866 636.309 180.718 639.527 Q177.57 642.744 172.339 642.744 Q166.343 642.744 163.172 638.161 Q160.001 633.554 160.001 624.828 Q160.001 616.633 163.89 611.772 Q167.778 606.888 174.329 606.888 Q176.089 606.888 177.871 607.235 Q179.676 607.582 181.621 608.277 Z" fill="#000000" fill-rule="nonzero" fill-opacity="1" /><path clip-path="url(#clip100)" d="M126.783 312.954 Q123.172 312.954 121.343 316.519 Q119.538 320.06 119.538 327.19 Q119.538 334.296 121.343 337.861 Q123.172 341.403 126.783 341.403 Q130.417 341.403 132.223 337.861 Q134.052 334.296 134.052 327.19 Q134.052 320.06 132.223 316.519 Q130.417 312.954 126.783 312.954 M126.783 309.25 Q132.593 309.25 135.649 313.856 Q138.728 318.44 138.728 327.19 Q138.728 335.917 135.649 340.523 Q132.593 345.106 126.783 345.106 Q120.973 345.106 117.894 340.523 Q114.839 335.917 114.839 327.19 Q114.839 318.44 117.894 313.856 Q120.973 309.25 126.783 309.25 Z" fill="#000000" fill-rule="nonzero" fill-opacity="1" /><path clip-path="url(#clip100)" d="M146.945 338.555 L151.829 338.555 L151.829 344.435 L146.945 344.435 L146.945 338.555 Z" fill="#000000" fill-rule="nonzero" fill-opacity="1" /><path clip-path="url(#clip100)" d="M172.014 328.023 Q168.681 328.023 166.76 329.805 Q164.862 331.588 164.862 334.713 Q164.862 337.838 166.76 339.62 Q168.681 341.403 172.014 341.403 Q175.348 341.403 177.269 339.62 Q179.19 337.815 179.19 334.713 Q179.19 331.588 177.269 329.805 Q175.371 328.023 172.014 328.023 M167.339 326.032 Q164.329 325.292 162.64 323.231 Q160.973 321.171 160.973 318.208 Q160.973 314.065 163.913 311.657 Q166.876 309.25 172.014 309.25 Q177.176 309.25 180.116 311.657 Q183.056 314.065 183.056 318.208 Q183.056 321.171 181.366 323.231 Q179.7 325.292 176.714 326.032 Q180.093 326.819 181.968 329.111 Q183.866 331.403 183.866 334.713 Q183.866 339.736 180.788 342.421 Q177.732 345.106 172.014 345.106 Q166.297 345.106 163.218 342.421 Q160.163 339.736 160.163 334.713 Q160.163 331.403 162.061 329.111 Q163.959 326.819 167.339 326.032 M165.626 318.648 Q165.626 321.333 167.292 322.838 Q168.982 324.343 172.014 324.343 Q175.024 324.343 176.714 322.838 Q178.426 321.333 178.426 318.648 Q178.426 315.963 176.714 314.458 Q175.024 312.954 172.014 312.954 Q168.982 312.954 167.292 314.458 Q165.626 315.963 165.626 318.648 Z" fill="#000000" fill-rule="nonzero" fill-opacity="1" /><path clip-path="url(#clip100)" d="M33.7671 948.972 L14.479 948.972 L14.479 943.115 L64.0042 943.115 L64.0042 948.972 L58.657 948.972 Q61.8398 950.818 63.3994 953.651 Q64.9272 956.451 64.9272 960.398 Q64.9272 966.859 59.771 970.933 Q54.6147 974.976 46.212 974.976 Q37.8093 974.976 32.6531 970.933 Q27.4968 966.859 27.4968 960.398 Q27.4968 956.451 29.0564 953.651 Q30.5842 950.818 33.7671 948.972 M46.212 968.928 Q52.6732 968.928 56.3653 966.286 Q60.0256 963.613 60.0256 958.966 Q60.0256 954.319 56.3653 951.645 Q52.6732 948.972 46.212 948.972 Q39.7508 948.972 36.0905 951.645 Q32.3984 954.319 32.3984 958.966 Q32.3984 963.613 36.0905 966.286 Q39.7508 968.928 46.212 968.928 Z" fill="#000000" fill-rule="nonzero" fill-opacity="1" /><path clip-path="url(#clip100)" d="M44.7161 900.561 L47.5806 900.561 L47.5806 927.487 Q53.6281 927.106 56.8109 923.859 Q59.9619 920.581 59.9619 914.756 Q59.9619 911.382 59.1344 908.231 Q58.3069 905.048 56.6518 901.929 L62.1899 901.929 Q63.5267 905.08 64.227 908.39 Q64.9272 911.701 64.9272 915.106 Q64.9272 923.636 59.9619 928.633 Q54.9967 933.599 46.5303 933.599 Q37.7774 933.599 32.6531 928.888 Q27.4968 924.145 27.4968 916.125 Q27.4968 908.931 32.1438 904.762 Q36.7589 900.561 44.7161 900.561 M42.9973 906.417 Q38.1912 906.481 35.3266 909.122 Q32.4621 911.732 32.4621 916.061 Q32.4621 920.963 35.2312 923.923 Q38.0002 926.851 43.0292 927.297 L42.9973 906.417 Z" fill="#000000" fill-rule="nonzero" fill-opacity="1" /><path clip-path="url(#clip100)" d="M42.4881 861.316 L64.0042 861.316 L64.0042 867.172 L42.679 867.172 Q37.6183 867.172 35.1038 869.146 Q32.5894 871.119 32.5894 875.066 Q32.5894 879.808 35.6131 882.546 Q38.6368 885.283 43.8567 885.283 L64.0042 885.283 L64.0042 891.171 L28.3562 891.171 L28.3562 885.283 L33.8944 885.283 Q30.6797 883.182 29.0883 880.349 Q27.4968 877.485 27.4968 873.761 Q27.4968 867.618 31.3163 864.467 Q35.1038 861.316 42.4881 861.316 Z" fill="#000000" fill-rule="nonzero" fill-opacity="1" /><path clip-path="url(#clip100)" d="M29.4065 826.909 L34.9447 826.909 Q33.6716 829.392 33.035 832.066 Q32.3984 834.739 32.3984 837.604 Q32.3984 841.964 33.7352 844.16 Q35.072 846.325 37.7456 846.325 Q39.7826 846.325 40.9603 844.765 Q42.1061 843.206 43.1565 838.495 L43.6021 836.49 Q44.9389 830.251 47.3897 827.641 Q49.8086 825 54.1691 825 Q59.1344 825 62.0308 828.946 Q64.9272 832.861 64.9272 839.736 Q64.9272 842.601 64.3543 845.72 Q63.8132 848.807 62.6992 852.245 L56.6518 852.245 Q58.3387 848.998 59.198 845.847 Q60.0256 842.696 60.0256 839.609 Q60.0256 835.471 58.6251 833.243 Q57.1929 831.015 54.6147 831.015 Q52.2276 831.015 50.9545 832.638 Q49.6813 834.23 48.5037 839.673 L48.0262 841.71 Q46.8804 847.152 44.5251 849.571 Q42.138 851.99 38.0002 851.99 Q32.9713 851.99 30.2341 848.425 Q27.4968 844.861 27.4968 838.304 Q27.4968 835.057 27.9743 832.193 Q28.4517 829.328 29.4065 826.909 Z" fill="#000000" fill-rule="nonzero" fill-opacity="1" /><path clip-path="url(#clip100)" d="M28.3562 815.674 L28.3562 809.817 L64.0042 809.817 L64.0042 815.674 L28.3562 815.674 M14.479 815.674 L14.479 809.817 L21.895 809.817 L21.895 815.674 L14.479 815.674 Z" fill="#000000" fill-rule="nonzero" fill-opacity="1" /><path clip-path="url(#clip100)" d="M18.2347 791.771 L28.3562 791.771 L28.3562 779.708 L32.9077 779.708 L32.9077 791.771 L52.2594 791.771 Q56.6199 791.771 57.8613 790.593 Q59.1026 789.383 59.1026 785.723 L59.1026 779.708 L64.0042 779.708 L64.0042 785.723 Q64.0042 792.503 61.4897 795.081 Q58.9434 797.659 52.2594 797.659 L32.9077 797.659 L32.9077 801.956 L28.3562 801.956 L28.3562 797.659 L18.2347 797.659 L18.2347 791.771 Z" fill="#000000" fill-rule="nonzero" fill-opacity="1" /><path clip-path="url(#clip100)" d="M67.3143 757.173 Q73.68 759.656 75.6216 762.011 Q77.5631 764.366 77.5631 768.313 L77.5631 772.992 L72.6615 772.992 L72.6615 769.554 Q72.6615 767.135 71.5157 765.799 Q70.3699 764.462 66.1048 762.838 L63.4312 761.788 L28.3562 776.206 L28.3562 770 L56.238 758.86 L28.3562 747.72 L28.3562 741.513 L67.3143 757.173 Z" fill="#000000" fill-rule="nonzero" fill-opacity="1" /><path clip-path="url(#clip100)" d="M42.4881 662.356 L64.0042 662.356 L64.0042 668.212 L42.679 668.212 Q37.6183 668.212 35.1038 670.186 Q32.5894 672.159 32.5894 676.106 Q32.5894 680.848 35.6131 683.585 Q38.6368 686.323 43.8567 686.323 L64.0042 686.323 L64.0042 692.211 L28.3562 692.211 L28.3562 686.323 L33.8944 686.323 Q30.6797 684.222 29.0883 681.389 Q27.4968 678.525 27.4968 674.801 Q27.4968 668.658 31.3163 665.507 Q35.1038 662.356 42.4881 662.356 Z" fill="#000000" fill-rule="nonzero" fill-opacity="1" /><path clip-path="url(#clip100)" d="M14.5426 636.607 Q21.8632 640.872 29.0246 642.94 Q36.186 645.009 43.5384 645.009 Q50.8908 645.009 58.1159 642.94 Q65.3091 640.84 72.5979 636.607 L72.5979 641.699 Q65.1182 646.473 57.8931 648.861 Q50.668 651.216 43.5384 651.216 Q36.4406 651.216 29.2474 648.861 Q22.0542 646.505 14.5426 641.699 L14.5426 636.607 Z" fill="#000000" fill-rule="nonzero" fill-opacity="1" /><path clip-path="url(#clip100)" d="M41.4059 601.309 L41.4059 621.583 Q50.9226 621.106 54.9649 618.91 Q59.9301 616.173 59.9301 611.43 Q59.9301 606.656 54.933 604.014 Q50.5407 601.691 41.4059 601.309 M35.995 601.404 Q26.9557 602.295 23.7729 604.014 Q18.744 606.751 18.744 611.43 Q18.744 616.3 23.7092 618.878 Q27.7196 620.915 35.995 621.52 L35.995 601.404 M13.9697 611.43 Q13.9697 603.791 20.7174 599.431 Q27.4332 595.07 39.337 595.07 Q51.2091 595.07 57.9567 599.431 Q64.7362 603.791 64.7362 611.43 Q64.7362 619.101 57.9567 623.43 Q51.2091 627.79 39.337 627.79 Q27.4332 627.79 20.7174 623.43 Q13.9697 619.101 13.9697 611.43 Z" fill="#000000" fill-rule="nonzero" fill-opacity="1" /><path clip-path="url(#clip100)" d="M14.5426 586.286 L14.5426 581.193 Q22.0542 576.419 29.2474 574.063 Q36.4406 571.676 43.5384 571.676 Q50.668 571.676 57.8931 574.063 Q65.1182 576.419 72.5979 581.193 L72.5979 586.286 Q65.3091 582.052 58.1159 579.984 Q50.8908 577.883 43.5384 577.883 Q36.186 577.883 29.0246 579.984 Q21.8632 582.052 14.5426 586.286 Z" fill="#000000" fill-rule="nonzero" fill-opacity="1" /><path clip-path="url(#clip100)" d="M549.026 72.576 L535.172 27.2059 L543.193 27.2059 L554.9 65.2844 Q559.761 60.2613 563.812 53.2937 Q566.891 48.068 567.053 43.531 Q567.134 41.384 566.162 37.3331 Q565.027 32.5126 560.733 27.2059 L568.268 27.2059 L568.268 27.2059 Q571.063 30.8112 572.927 35.8343 Q574.628 40.4523 574.628 43.612 Q574.628 51.5518 569.119 58.6409 Q561.949 67.877 556.966 72.576 L549.026 72.576 Z" fill="#000000" fill-rule="nonzero" fill-opacity="1" /><path clip-path="url(#clip100)" d="M613.679 34.9026 L665.611 34.9026 L665.611 41.7081 L613.679 41.7081 L613.679 34.9026 M613.679 51.4303 L665.611 51.4303 L665.611 58.3168 L613.679 58.3168 L613.679 51.4303 Z" fill="#000000" fill-rule="nonzero" fill-opacity="1" /><path clip-path="url(#clip100)" d="M711.062 65.6895 L724.43 65.6895 L724.43 19.5497 L709.888 22.4663 L709.888 15.0127 L724.349 12.096 L732.532 12.096 L732.532 65.6895 L745.9 65.6895 L745.9 72.576 L711.062 72.576 L711.062 65.6895 Z" fill="#000000" fill-rule="nonzero" fill-opacity="1" /><path clip-path="url(#clip100)" d="M774.621 12.096 L781.508 12.096 L760.443 80.2727 L753.556 80.2727 L774.621 12.096 Z" fill="#000000" fill-rule="nonzero" fill-opacity="1" /><path clip-path="url(#clip100)" d="M815.171 39.9662 Q821.044 41.222 824.326 45.1919 Q827.647 49.1618 827.647 54.9951 Q827.647 63.9476 821.49 68.8492 Q815.333 73.7508 803.99 73.7508 Q800.182 73.7508 796.131 72.9811 Q792.121 72.2519 787.827 70.7531 L787.827 62.8538 Q791.23 64.8388 795.281 65.8515 Q799.332 66.8642 803.747 66.8642 Q811.444 66.8642 815.454 63.826 Q819.505 60.7879 819.505 54.9951 Q819.505 49.6479 815.738 46.6502 Q812.011 43.612 805.327 43.612 L798.278 43.612 L798.278 36.8875 L805.651 36.8875 Q811.687 36.8875 814.887 34.4975 Q818.087 32.067 818.087 27.5299 Q818.087 22.8714 814.766 20.4004 Q811.484 17.8888 805.327 17.8888 Q801.965 17.8888 798.116 18.618 Q794.268 19.3471 789.65 20.8865 L789.65 13.5948 Q794.309 12.2985 798.359 11.6504 Q802.451 11.0023 806.056 11.0023 Q815.373 11.0023 820.801 15.2557 Q826.23 19.4686 826.23 26.6793 Q826.23 31.7024 823.353 35.1862 Q820.477 38.6294 815.171 39.9662 Z" fill="#000000" fill-rule="nonzero" fill-opacity="1" /><path clip-path="url(#clip100)" d="M844.013 62.2867 L852.561 62.2867 L852.561 72.576 L844.013 72.576 L844.013 62.2867 M844.013 29.6769 L852.561 29.6769 L852.561 39.9662 L844.013 39.9662 L844.013 29.6769 Z" fill="#000000" fill-rule="nonzero" fill-opacity="1" /><path clip-path="url(#clip100)" d="M926.287 49.3643 Q926.287 41.2625 922.925 36.8065 Q919.603 32.3505 913.567 32.3505 Q907.572 32.3505 904.21 36.8065 Q900.888 41.2625 900.888 49.3643 Q900.888 57.4256 904.21 61.8816 Q907.572 66.3376 913.567 66.3376 Q919.603 66.3376 922.925 61.8816 Q926.287 57.4256 926.287 49.3643 M933.741 66.9452 Q933.741 78.5308 928.596 84.1616 Q923.451 89.8329 912.838 89.8329 Q908.909 89.8329 905.425 89.2252 Q901.941 88.6581 898.66 87.4428 L898.66 80.1917 Q901.941 81.9741 905.141 82.8248 Q908.341 83.6755 911.663 83.6755 Q918.995 83.6755 922.641 79.8271 Q926.287 76.0193 926.287 68.282 L926.287 64.5957 Q923.978 68.6061 920.373 70.5911 Q916.767 72.576 911.744 72.576 Q903.399 72.576 898.295 66.2161 Q893.191 59.8562 893.191 49.3643 Q893.191 38.832 898.295 32.472 Q903.399 26.1121 911.744 26.1121 Q916.767 26.1121 920.373 28.0971 Q923.978 30.082 926.287 34.0924 L926.287 27.2059 L933.741 27.2059 L933.741 66.9452 Z" fill="#000000" fill-rule="nonzero" fill-opacity="1" /><path clip-path="url(#clip100)" d="M975.384 34.1734 Q974.128 33.4443 972.629 33.1202 Q971.171 32.7556 969.389 32.7556 Q963.069 32.7556 959.666 36.8875 Q956.304 40.9789 956.304 48.6757 L956.304 72.576 L948.81 72.576 L948.81 27.2059 L956.304 27.2059 L956.304 34.2544 Q958.654 30.1225 962.421 28.1376 Q966.188 26.1121 971.576 26.1121 Q972.346 26.1121 973.277 26.2337 Q974.209 26.3147 975.343 26.5172 L975.384 34.1734 Z" fill="#000000" fill-rule="nonzero" fill-opacity="1" /><path clip-path="url(#clip100)" d="M998.96 32.4315 Q992.965 32.4315 989.481 37.1306 Q985.997 41.7891 985.997 49.9314 Q985.997 58.0738 989.441 62.7728 Q992.924 67.4314 998.96 67.4314 Q1004.92 67.4314 1008.4 62.7323 Q1011.88 58.0333 1011.88 49.9314 Q1011.88 41.8701 1008.4 37.1711 Q1004.92 32.4315 998.96 32.4315 M998.96 26.1121 Q1008.68 26.1121 1014.23 32.4315 Q1019.78 38.7509 1019.78 49.9314 Q1019.78 61.0714 1014.23 67.4314 Q1008.68 73.7508 998.96 73.7508 Q989.198 73.7508 983.648 67.4314 Q978.139 61.0714 978.139 49.9314 Q978.139 38.7509 983.648 32.4315 Q989.198 26.1121 998.96 26.1121 Z" fill="#000000" fill-rule="nonzero" fill-opacity="1" /><path clip-path="url(#clip100)" d="M1031.37 54.671 L1031.37 27.2059 L1038.82 27.2059 L1038.82 54.3874 Q1038.82 60.8284 1041.33 64.0691 Q1043.84 67.2693 1048.87 67.2693 Q1054.9 67.2693 1058.39 63.421 Q1061.91 59.5726 1061.91 52.9291 L1061.91 27.2059 L1069.36 27.2059 L1069.36 72.576 L1061.91 72.576 L1061.91 65.6084 Q1059.2 69.7404 1055.59 71.7658 Q1052.03 73.7508 1047.29 73.7508 Q1039.47 73.7508 1035.42 68.8897 Q1031.37 64.0286 1031.37 54.671 M1050.12 26.1121 L1050.12 26.1121 Z" fill="#000000" fill-rule="nonzero" fill-opacity="1" /><path clip-path="url(#clip100)" d="M1122.43 45.1919 L1122.43 72.576 L1114.98 72.576 L1114.98 45.4349 Q1114.98 38.994 1112.47 35.7938 Q1109.95 32.5936 1104.93 32.5936 Q1098.9 32.5936 1095.41 36.4419 Q1091.93 40.2903 1091.93 46.9338 L1091.93 72.576 L1084.43 72.576 L1084.43 27.2059 L1091.93 27.2059 L1091.93 34.2544 Q1094.6 30.163 1098.21 28.1376 Q1101.85 26.1121 1106.59 26.1121 Q1114.41 26.1121 1118.42 30.9732 Q1122.43 35.7938 1122.43 45.1919 Z" fill="#000000" fill-rule="nonzero" fill-opacity="1" /><path clip-path="url(#clip100)" d="M1167.15 34.0924 L1167.15 9.54393 L1174.61 9.54393 L1174.61 72.576 L1167.15 72.576 L1167.15 65.7705 Q1164.8 69.8214 1161.2 71.8063 Q1157.63 73.7508 1152.61 73.7508 Q1144.39 73.7508 1139.2 67.1883 Q1134.06 60.6258 1134.06 49.9314 Q1134.06 39.2371 1139.2 32.6746 Q1144.39 26.1121 1152.61 26.1121 Q1157.63 26.1121 1161.2 28.0971 Q1164.8 30.0415 1167.15 34.0924 M1141.75 49.9314 Q1141.75 58.1548 1145.12 62.8538 Q1148.52 67.5124 1154.43 67.5124 Q1160.35 67.5124 1163.75 62.8538 Q1167.15 58.1548 1167.15 49.9314 Q1167.15 41.7081 1163.75 37.0496 Q1160.35 32.3505 1154.43 32.3505 Q1148.52 32.3505 1145.12 37.0496 Q1141.75 41.7081 1141.75 49.9314 Z" fill="#000000" fill-rule="nonzero" fill-opacity="1" /><path clip-path="url(#clip100)" d="M1245.26 28.5427 L1245.26 35.5912 Q1242.1 33.9709 1238.69 33.1607 Q1235.29 32.3505 1231.64 32.3505 Q1226.09 32.3505 1223.3 34.0519 Q1220.54 35.7533 1220.54 39.156 Q1220.54 41.7486 1222.53 43.2475 Q1224.51 44.7058 1230.51 46.0426 L1233.06 46.6097 Q1241 48.3111 1244.32 51.4303 Q1247.69 54.509 1247.69 60.0587 Q1247.69 66.3781 1242.66 70.0644 Q1237.68 73.7508 1228.93 73.7508 Q1225.28 73.7508 1221.31 73.0216 Q1217.38 72.3329 1213.01 70.9151 L1213.01 63.2184 Q1217.14 65.3654 1221.15 66.4591 Q1225.16 67.5124 1229.09 67.5124 Q1234.36 67.5124 1237.19 65.73 Q1240.03 63.9071 1240.03 60.6258 Q1240.03 57.5877 1237.96 55.9673 Q1235.94 54.3469 1229.01 52.8481 L1226.42 52.2405 Q1219.49 50.7821 1216.41 47.7845 Q1213.33 44.7463 1213.33 39.4801 Q1213.33 33.0797 1217.87 29.5959 Q1222.41 26.1121 1230.75 26.1121 Q1234.88 26.1121 1238.53 26.7198 Q1242.18 27.3274 1245.26 28.5427 Z" fill="#000000" fill-rule="nonzero" fill-opacity="1" /><path clip-path="url(#clip100)" d="M1266.93 14.324 L1266.93 27.2059 L1282.28 27.2059 L1282.28 32.9987 L1266.93 32.9987 L1266.93 57.6282 Q1266.93 63.1779 1268.43 64.7578 Q1269.97 66.3376 1274.62 66.3376 L1282.28 66.3376 L1282.28 72.576 L1274.62 72.576 Q1266 72.576 1262.71 69.3758 Q1259.43 66.1351 1259.43 57.6282 L1259.43 32.9987 L1253.96 32.9987 L1253.96 27.2059 L1259.43 27.2059 L1259.43 14.324 L1266.93 14.324 Z" fill="#000000" fill-rule="nonzero" fill-opacity="1" /><path clip-path="url(#clip100)" d="M1312.7 49.7694 Q1303.67 49.7694 1300.19 51.8354 Q1296.7 53.9013 1296.7 58.8839 Q1296.7 62.8538 1299.29 65.2034 Q1301.93 67.5124 1306.42 67.5124 Q1312.62 67.5124 1316.35 63.1374 Q1320.12 58.7219 1320.12 51.4303 L1320.12 49.7694 L1312.7 49.7694 M1327.57 46.6907 L1327.57 72.576 L1320.12 72.576 L1320.12 65.6895 Q1317.56 69.8214 1313.76 71.8063 Q1309.95 73.7508 1304.44 73.7508 Q1297.47 73.7508 1293.34 69.8619 Q1289.25 65.9325 1289.25 59.3701 Q1289.25 51.7138 1294.35 47.825 Q1299.5 43.9361 1309.66 43.9361 L1320.12 43.9361 L1320.12 43.2069 Q1320.12 38.0623 1316.71 35.2672 Q1313.35 32.4315 1307.23 32.4315 Q1303.35 32.4315 1299.66 33.3632 Q1295.97 34.295 1292.57 36.1584 L1292.57 29.2718 Q1296.66 27.692 1300.51 26.9223 Q1304.36 26.1121 1308 26.1121 Q1317.85 26.1121 1322.71 31.2163 Q1327.57 36.3204 1327.57 46.6907 Z" fill="#000000" fill-rule="nonzero" fill-opacity="1" /><path clip-path="url(#clip100)" d="M1350.3 14.324 L1350.3 27.2059 L1365.65 27.2059 L1365.65 32.9987 L1350.3 32.9987 L1350.3 57.6282 Q1350.3 63.1779 1351.79 64.7578 Q1353.33 66.3376 1357.99 66.3376 L1365.65 66.3376 L1365.65 72.576 L1357.99 72.576 Q1349.36 72.576 1346.08 69.3758 Q1342.8 66.1351 1342.8 57.6282 L1342.8 32.9987 L1337.33 32.9987 L1337.33 27.2059 L1342.8 27.2059 L1342.8 14.324 L1350.3 14.324 Z" fill="#000000" fill-rule="nonzero" fill-opacity="1" /><path clip-path="url(#clip100)" d="M1414.26 48.0275 L1414.26 51.6733 L1379.99 51.6733 Q1380.47 59.3701 1384.61 63.421 Q1388.78 67.4314 1396.19 67.4314 Q1400.49 67.4314 1404.5 66.3781 Q1408.55 65.3249 1412.52 63.2184 L1412.52 70.267 Q1408.51 71.9684 1404.29 72.8596 Q1400.08 73.7508 1395.75 73.7508 Q1384.89 73.7508 1378.53 67.4314 Q1372.21 61.1119 1372.21 50.3365 Q1372.21 39.1965 1378.21 32.6746 Q1384.24 26.1121 1394.45 26.1121 Q1403.61 26.1121 1408.91 32.0264 Q1414.26 37.9003 1414.26 48.0275 M1406.81 45.84 Q1406.72 39.7232 1403.36 36.0774 Q1400.04 32.4315 1394.53 32.4315 Q1388.29 32.4315 1384.53 35.9558 Q1380.8 39.4801 1380.23 45.8805 L1406.81 45.84 Z" fill="#000000" fill-rule="nonzero" fill-opacity="1" /><path clip-path="url(#clip100)" d="M1447.52 27.2059 L1455.42 27.2059 L1469.59 65.2844 L1483.77 27.2059 L1491.67 27.2059 L1474.66 72.576 L1464.53 72.576 L1447.52 27.2059 Z" fill="#000000" fill-rule="nonzero" fill-opacity="1" /><path clip-path="url(#clip100)" d="M1530.88 28.5427 L1530.88 35.5912 Q1527.72 33.9709 1524.32 33.1607 Q1520.92 32.3505 1517.27 32.3505 Q1511.72 32.3505 1508.93 34.0519 Q1506.17 35.7533 1506.17 39.156 Q1506.17 41.7486 1508.16 43.2475 Q1510.14 44.7058 1516.14 46.0426 L1518.69 46.6097 Q1526.63 48.3111 1529.95 51.4303 Q1533.31 54.509 1533.31 60.0587 Q1533.31 66.3781 1528.29 70.0644 Q1523.31 73.7508 1514.56 73.7508 Q1510.91 73.7508 1506.94 73.0216 Q1503.01 72.3329 1498.64 70.9151 L1498.64 63.2184 Q1502.77 65.3654 1506.78 66.4591 Q1510.79 67.5124 1514.72 67.5124 Q1519.99 67.5124 1522.82 65.73 Q1525.66 63.9071 1525.66 60.6258 Q1525.66 57.5877 1523.59 55.9673 Q1521.57 54.3469 1514.64 52.8481 L1512.05 52.2405 Q1505.12 50.7821 1502.04 47.7845 Q1498.96 44.7463 1498.96 39.4801 Q1498.96 33.0797 1503.5 29.5959 Q1508.04 26.1121 1516.38 26.1121 Q1520.51 26.1121 1524.16 26.7198 Q1527.81 27.3274 1530.88 28.5427 Z" fill="#000000" fill-rule="nonzero" fill-opacity="1" /><path clip-path="url(#clip100)" d="M1546.24 62.2867 L1554.78 62.2867 L1554.78 72.576 L1546.24 72.576 L1546.24 62.2867 Z" fill="#000000" fill-rule="nonzero" fill-opacity="1" /><path clip-path="url(#clip100)" d="M1636.73 48.0275 L1636.73 51.6733 L1602.46 51.6733 Q1602.95 59.3701 1607.08 63.421 Q1611.25 67.4314 1618.67 67.4314 Q1622.96 67.4314 1626.97 66.3781 Q1631.02 65.3249 1634.99 63.2184 L1634.99 70.267 Q1630.98 71.9684 1626.77 72.8596 Q1622.56 73.7508 1618.22 73.7508 Q1607.37 73.7508 1601.01 67.4314 Q1594.69 61.1119 1594.69 50.3365 Q1594.69 39.1965 1600.68 32.6746 Q1606.72 26.1121 1616.93 26.1121 Q1626.08 26.1121 1631.39 32.0264 Q1636.73 37.9003 1636.73 48.0275 M1629.28 45.84 Q1629.2 39.7232 1625.84 36.0774 Q1622.52 32.4315 1617.01 32.4315 Q1610.77 32.4315 1607 35.9558 Q1603.27 39.4801 1602.71 45.8805 L1629.28 45.84 Z" fill="#000000" fill-rule="nonzero" fill-opacity="1" /><path clip-path="url(#clip100)" d="M1685.22 27.2059 L1668.82 49.2833 L1686.07 72.576 L1677.28 72.576 L1664.08 54.752 L1650.87 72.576 L1642.08 72.576 L1659.7 48.8377 L1643.58 27.2059 L1652.37 27.2059 L1664.4 43.369 L1676.43 27.2059 L1685.22 27.2059 Z" fill="#000000" fill-rule="nonzero" fill-opacity="1" /><path clip-path="url(#clip100)" d="M1727.8 28.9478 L1727.8 35.9153 Q1724.64 34.1734 1721.44 33.3227 Q1718.28 32.4315 1715.04 32.4315 Q1707.79 32.4315 1703.78 37.0496 Q1699.77 41.6271 1699.77 49.9314 Q1699.77 58.2358 1703.78 62.8538 Q1707.79 67.4314 1715.04 67.4314 Q1718.28 67.4314 1721.44 66.5807 Q1724.64 65.6895 1727.8 63.9476 L1727.8 70.8341 Q1724.68 72.2924 1721.32 73.0216 Q1718 73.7508 1714.23 73.7508 Q1703.98 73.7508 1697.94 67.3098 Q1691.91 60.8689 1691.91 49.9314 Q1691.91 38.832 1697.98 32.472 Q1704.1 26.1121 1714.71 26.1121 Q1718.16 26.1121 1721.44 26.8413 Q1724.72 27.5299 1727.8 28.9478 Z" fill="#000000" fill-rule="nonzero" fill-opacity="1" /><path clip-path="url(#clip100)" d="M1740.76 27.2059 L1748.22 27.2059 L1748.22 72.576 L1740.76 72.576 L1740.76 27.2059 M1740.76 9.54393 L1748.22 9.54393 L1748.22 18.9825 L1740.76 18.9825 L1740.76 9.54393 Z" fill="#000000" fill-rule="nonzero" fill-opacity="1" /><path clip-path="url(#clip100)" d="M1771.18 14.324 L1771.18 27.2059 L1786.54 27.2059 L1786.54 32.9987 L1771.18 32.9987 L1771.18 57.6282 Q1771.18 63.1779 1772.68 64.7578 Q1774.22 66.3376 1778.88 66.3376 L1786.54 66.3376 L1786.54 72.576 L1778.88 72.576 Q1770.25 72.576 1766.97 69.3758 Q1763.69 66.1351 1763.69 57.6282 L1763.69 32.9987 L1758.22 32.9987 L1758.22 27.2059 L1763.69 27.2059 L1763.69 14.324 L1771.18 14.324 Z" fill="#000000" fill-rule="nonzero" fill-opacity="1" /><path clip-path="url(#clip100)" d="M1816.96 49.7694 Q1807.93 49.7694 1804.44 51.8354 Q1800.96 53.9013 1800.96 58.8839 Q1800.96 62.8538 1803.55 65.2034 Q1806.18 67.5124 1810.68 67.5124 Q1816.88 67.5124 1820.61 63.1374 Q1824.37 58.7219 1824.37 51.4303 L1824.37 49.7694 L1816.96 49.7694 M1831.83 46.6907 L1831.83 72.576 L1824.37 72.576 L1824.37 65.6895 Q1821.82 69.8214 1818.01 71.8063 Q1814.2 73.7508 1808.7 73.7508 Q1801.73 73.7508 1797.6 69.8619 Q1793.5 65.9325 1793.5 59.3701 Q1793.5 51.7138 1798.61 47.825 Q1803.75 43.9361 1813.92 43.9361 L1824.37 43.9361 L1824.37 43.2069 Q1824.37 38.0623 1820.97 35.2672 Q1817.61 32.4315 1811.49 32.4315 Q1807.6 32.4315 1803.92 33.3632 Q1800.23 34.295 1796.83 36.1584 L1796.83 29.2718 Q1800.92 27.692 1804.77 26.9223 Q1808.61 26.1121 1812.26 26.1121 Q1822.1 26.1121 1826.97 31.2163 Q1831.83 36.3204 1831.83 46.6907 Z" fill="#000000" fill-rule="nonzero" fill-opacity="1" /><path clip-path="url(#clip100)" d="M1854.55 14.324 L1854.55 27.2059 L1869.9 27.2059 L1869.9 32.9987 L1854.55 32.9987 L1854.55 57.6282 Q1854.55 63.1779 1856.05 64.7578 Q1857.59 66.3376 1862.25 66.3376 L1869.9 66.3376 L1869.9 72.576 L1862.25 72.576 Q1853.62 72.576 1850.34 69.3758 Q1847.06 66.1351 1847.06 57.6282 L1847.06 32.9987 L1841.59 32.9987 L1841.59 27.2059 L1847.06 27.2059 L1847.06 14.324 L1854.55 14.324 Z" fill="#000000" fill-rule="nonzero" fill-opacity="1" /><path clip-path="url(#clip100)" d="M1879.71 27.2059 L1887.16 27.2059 L1887.16 72.576 L1879.71 72.576 L1879.71 27.2059 M1879.71 9.54393 L1887.16 9.54393 L1887.16 18.9825 L1879.71 18.9825 L1879.71 9.54393 Z" fill="#000000" fill-rule="nonzero" fill-opacity="1" /><path clip-path="url(#clip100)" d="M1920.34 32.4315 Q1914.34 32.4315 1910.86 37.1306 Q1907.38 41.7891 1907.38 49.9314 Q1907.38 58.0738 1910.82 62.7728 Q1914.3 67.4314 1920.34 67.4314 Q1926.29 67.4314 1929.78 62.7323 Q1933.26 58.0333 1933.26 49.9314 Q1933.26 41.8701 1929.78 37.1711 Q1926.29 32.4315 1920.34 32.4315 M1920.34 26.1121 Q1930.06 26.1121 1935.61 32.4315 Q1941.16 38.7509 1941.16 49.9314 Q1941.16 61.0714 1935.61 67.4314 Q1930.06 73.7508 1920.34 73.7508 Q1910.58 73.7508 1905.03 67.4314 Q1899.52 61.0714 1899.52 49.9314 Q1899.52 38.7509 1905.03 32.4315 Q1910.58 26.1121 1920.34 26.1121 Z" fill="#000000" fill-rule="nonzero" fill-opacity="1" /><path clip-path="url(#clip100)" d="M1991.23 45.1919 L1991.23 72.576 L1983.78 72.576 L1983.78 45.4349 Q1983.78 38.994 1981.26 35.7938 Q1978.75 32.5936 1973.73 32.5936 Q1967.69 32.5936 1964.21 36.4419 Q1960.73 40.2903 1960.73 46.9338 L1960.73 72.576 L1953.23 72.576 L1953.23 27.2059 L1960.73 27.2059 L1960.73 34.2544 Q1963.4 30.163 1967 28.1376 Q1970.65 26.1121 1975.39 26.1121 Q1983.21 26.1121 1987.22 30.9732 Q1991.23 35.7938 1991.23 45.1919 Z" fill="#000000" fill-rule="nonzero" fill-opacity="1" /><path clip-path="url(#clip100)" d="M2035.02 28.5427 L2035.02 35.5912 Q2031.86 33.9709 2028.46 33.1607 Q2025.05 32.3505 2021.41 32.3505 Q2015.86 32.3505 2013.06 34.0519 Q2010.31 35.7533 2010.31 39.156 Q2010.31 41.7486 2012.29 43.2475 Q2014.28 44.7058 2020.27 46.0426 L2022.83 46.6097 Q2030.77 48.3111 2034.09 51.4303 Q2037.45 54.509 2037.45 60.0587 Q2037.45 66.3781 2032.43 70.0644 Q2027.44 73.7508 2018.69 73.7508 Q2015.05 73.7508 2011.08 73.0216 Q2007.15 72.3329 2002.77 70.9151 L2002.77 63.2184 Q2006.91 65.3654 2010.92 66.4591 Q2014.93 67.5124 2018.86 67.5124 Q2024.12 67.5124 2026.96 65.73 Q2029.79 63.9071 2029.79 60.6258 Q2029.79 57.5877 2027.73 55.9673 Q2025.7 54.3469 2018.78 52.8481 L2016.18 52.2405 Q2009.26 50.7821 2006.18 47.7845 Q2003.1 44.7463 2003.1 39.4801 Q2003.1 33.0797 2007.64 29.5959 Q2012.17 26.1121 2020.52 26.1121 Q2024.65 26.1121 2028.29 26.7198 Q2031.94 27.3274 2035.02 28.5427 Z" fill="#000000" fill-rule="nonzero" fill-opacity="1" /><polyline clip-path="url(#clip101)" style="stroke:#009af9; stroke-linecap:round; stroke-linejoin:round; stroke-width:8; stroke-opacity:1; fill:none" points="280.231,713.923 425.27,622.403 501.354,819.37 562.93,664.184 616.518,636.33 664.865,719.892 709.455,658.216 751.201,713.639 790.712,698.007 828.424,711.934 864.659,619.845 899.664,560.727 933.636,670.153 966.734,670.153 999.092,574.654 1030.82,793.79 1062.01,701.986 1092.76,694.028 1123.13,652.247 1153.2,699.428 1183.03,793.506 1212.67,542.821 1242.18,682.09 1271.61,721.882 1301.01,690.617 1330.45,755.704 1359.96,781.568 1389.6,658.216 1419.42,622.403 1449.49,676.122 1479.86,751.725 1510.61,648.552 1541.8,630.362 1573.53,719.892 1605.89,777.589 1638.99,676.122 1672.96,664.184 1707.96,692.607 1744.2,775.6 1781.91,614.445 1821.42,725.861 1863.17,642.299 1907.76,692.038 1956.1,801.464 2009.69,566.696 2071.27,739.503 2147.35,640.309 2292.39,779.579 "/>
<polyline clip-path="url(#clip101)" style="stroke:#e26f46; stroke-linecap:round; stroke-linejoin:round; stroke-width:8; stroke-opacity:1; fill:none" points="280.231,1386.4 425.27,1270.43 501.354,1120.36 562.93,1033.39 616.518,1007.81 664.865,917.427 709.455,938.176 751.201,774.179 790.712,751.725 828.424,816.812 864.659,811.696 899.664,731.545 933.636,594.55 966.734,629.225 999.092,850.919 1030.82,615.582 1062.01,627.519 1092.76,661.626 1123.13,738.367 1153.2,709.092 1183.03,721.313 1212.67,661.626 1242.18,849.214 1271.61,854.33 1301.01,629.225 1330.45,830.455 1359.96,700.849 1389.6,740.356 1419.42,866.267 1449.49,825.339 1479.86,804.022 1510.61,840.687 1541.8,839.55 1573.53,850.919 1605.89,721.313 1638.99,733.25 1672.96,742.346 1707.96,876.499 1744.2,697.438 1781.91,777.589 1821.42,849.214 1863.17,827.044 1907.76,864.846 1956.1,827.044 2009.69,763.947 2071.27,786.116 2147.35,591.707 2292.39,683.796 "/>
<polyline clip-path="url(#clip101)" style="stroke:#3da44d; stroke-linecap:round; stroke-linejoin:round; stroke-width:8; stroke-opacity:1; fill:none" points="280.231,467.217 425.27,414.068 501.354,423.731 562.93,269.114 616.518,187.542 664.865,160.256 709.455,271.672 751.201,317.716 790.712,478.586 828.424,417.194 864.659,590.002 899.664,371.718 933.636,649.12 966.734,626.951 999.092,683.227 1030.82,600.802 1062.01,762.81 1092.76,715.06 1123.13,644.573 1153.2,710.513 1183.03,708.239 1212.67,665.89 1242.18,765.084 1271.61,594.55 1301.01,795.78 1330.45,564.99 1359.96,596.823 1389.6,587.728 1419.42,560.443 1449.49,769.631 1479.86,582.612 1510.61,576.359 1541.8,485.408 1573.53,635.478 1605.89,683.511 1638.99,576.359 1672.96,553.621 1707.96,533.157 1744.2,806.012 1781.91,611.603 1821.42,578.633 1863.17,520.936 1907.76,751.441 1956.1,655.942 2009.69,742.346 2071.27,624.109 2147.35,501.609 2292.39,584.033 "/>
<path clip-path="url(#clip100)" d="M1029.31 1379.86 L1543.31 1379.86 L1543.31 1172.5 L1029.31 1172.5  Z" fill="#ffffff" fill-rule="evenodd" fill-opacity="1"/>
<polyline clip-path="url(#clip100)" style="stroke:#000000; stroke-linecap:round; stroke-linejoin:round; stroke-width:4; stroke-opacity:1; fill:none" points="1029.31,1379.86 1543.31,1379.86 1543.31,1172.5 1029.31,1172.5 1029.31,1379.86 "/>
<polyline clip-path="url(#clip100)" style="stroke:#009af9; stroke-linecap:round; stroke-linejoin:round; stroke-width:8; stroke-opacity:1; fill:none" points="1053.01,1224.34 1195.2,1224.34 "/>
<path clip-path="url(#clip100)" d="M1237.81 1228.35 Q1237.81 1223.72 1235.89 1221.18 Q1233.99 1218.63 1230.54 1218.63 Q1227.12 1218.63 1225.2 1221.18 Q1223.3 1223.72 1223.3 1228.35 Q1223.3 1232.96 1225.2 1235.51 Q1227.12 1238.05 1230.54 1238.05 Q1233.99 1238.05 1235.89 1235.51 Q1237.81 1232.96 1237.81 1228.35 M1242.07 1238.4 Q1242.07 1245.02 1239.13 1248.24 Q1236.19 1251.48 1230.13 1251.48 Q1227.88 1251.48 1225.89 1251.13 Q1223.9 1250.81 1222.02 1250.11 L1222.02 1245.97 Q1223.9 1246.99 1225.73 1247.47 Q1227.56 1247.96 1229.45 1247.96 Q1233.64 1247.96 1235.73 1245.76 Q1237.81 1243.58 1237.81 1239.16 L1237.81 1237.06 Q1236.49 1239.35 1234.43 1240.48 Q1232.37 1241.62 1229.5 1241.62 Q1224.73 1241.62 1221.82 1237.98 Q1218.9 1234.35 1218.9 1228.35 Q1218.9 1222.33 1221.82 1218.7 Q1224.73 1215.07 1229.5 1215.07 Q1232.37 1215.07 1234.43 1216.2 Q1236.49 1217.33 1237.81 1219.63 L1237.81 1215.69 L1242.07 1215.69 L1242.07 1238.4 Z" fill="#000000" fill-rule="nonzero" fill-opacity="1" /><path clip-path="url(#clip100)" d="M1265.87 1219.67 Q1265.15 1219.26 1264.29 1219.07 Q1263.46 1218.86 1262.44 1218.86 Q1258.83 1218.86 1256.88 1221.22 Q1254.96 1223.56 1254.96 1227.96 L1254.96 1241.62 L1250.68 1241.62 L1250.68 1215.69 L1254.96 1215.69 L1254.96 1219.72 Q1256.31 1217.36 1258.46 1216.22 Q1260.61 1215.07 1263.69 1215.07 Q1264.13 1215.07 1264.66 1215.13 Q1265.19 1215.18 1265.84 1215.3 L1265.87 1219.67 Z" fill="#000000" fill-rule="nonzero" fill-opacity="1" /><path clip-path="url(#clip100)" d="M1279.34 1218.68 Q1275.91 1218.68 1273.92 1221.36 Q1271.93 1224.02 1271.93 1228.68 Q1271.93 1233.33 1273.9 1236.01 Q1275.89 1238.68 1279.34 1238.68 Q1282.74 1238.68 1284.73 1235.99 Q1286.72 1233.31 1286.72 1228.68 Q1286.72 1224.07 1284.73 1221.38 Q1282.74 1218.68 1279.34 1218.68 M1279.34 1215.07 Q1284.89 1215.07 1288.07 1218.68 Q1291.24 1222.29 1291.24 1228.68 Q1291.24 1235.04 1288.07 1238.68 Q1284.89 1242.29 1279.34 1242.29 Q1273.76 1242.29 1270.59 1238.68 Q1267.44 1235.04 1267.44 1228.68 Q1267.44 1222.29 1270.59 1218.68 Q1273.76 1215.07 1279.34 1215.07 Z" fill="#000000" fill-rule="nonzero" fill-opacity="1" /><path clip-path="url(#clip100)" d="M1297.86 1231.38 L1297.86 1215.69 L1302.12 1215.69 L1302.12 1231.22 Q1302.12 1234.9 1303.55 1236.76 Q1304.99 1238.58 1307.86 1238.58 Q1311.31 1238.58 1313.3 1236.38 Q1315.31 1234.19 1315.31 1230.39 L1315.31 1215.69 L1319.57 1215.69 L1319.57 1241.62 L1315.31 1241.62 L1315.31 1237.63 Q1313.76 1240 1311.7 1241.15 Q1309.66 1242.29 1306.95 1242.29 Q1302.49 1242.29 1300.17 1239.51 Q1297.86 1236.73 1297.86 1231.38 M1308.57 1215.07 L1308.57 1215.07 Z" fill="#000000" fill-rule="nonzero" fill-opacity="1" /><path clip-path="url(#clip100)" d="M1349.89 1225.97 L1349.89 1241.62 L1345.63 1241.62 L1345.63 1226.11 Q1345.63 1222.43 1344.2 1220.6 Q1342.76 1218.77 1339.89 1218.77 Q1336.44 1218.77 1334.45 1220.97 Q1332.46 1223.17 1332.46 1226.96 L1332.46 1241.62 L1328.18 1241.62 L1328.18 1215.69 L1332.46 1215.69 L1332.46 1219.72 Q1333.99 1217.38 1336.05 1216.22 Q1338.13 1215.07 1340.84 1215.07 Q1345.31 1215.07 1347.6 1217.84 Q1349.89 1220.6 1349.89 1225.97 Z" fill="#000000" fill-rule="nonzero" fill-opacity="1" /><path clip-path="url(#clip100)" d="M1375.45 1219.63 L1375.45 1205.6 L1379.71 1205.6 L1379.71 1241.62 L1375.45 1241.62 L1375.45 1237.73 Q1374.11 1240.04 1372.05 1241.18 Q1370.01 1242.29 1367.14 1242.29 Q1362.44 1242.29 1359.48 1238.54 Q1356.54 1234.79 1356.54 1228.68 Q1356.54 1222.57 1359.48 1218.82 Q1362.44 1215.07 1367.14 1215.07 Q1370.01 1215.07 1372.05 1216.2 Q1374.11 1217.31 1375.45 1219.63 M1360.94 1228.68 Q1360.94 1233.38 1362.86 1236.06 Q1364.8 1238.72 1368.18 1238.72 Q1371.56 1238.72 1373.5 1236.06 Q1375.45 1233.38 1375.45 1228.68 Q1375.45 1223.98 1373.5 1221.32 Q1371.56 1218.63 1368.18 1218.63 Q1364.8 1218.63 1362.86 1221.32 Q1360.94 1223.98 1360.94 1228.68 Z" fill="#000000" fill-rule="nonzero" fill-opacity="1" /><path clip-path="url(#clip100)" d="M1420.08 1216.45 L1420.08 1220.48 Q1418.27 1219.56 1416.33 1219.09 Q1414.38 1218.63 1412.3 1218.63 Q1409.13 1218.63 1407.53 1219.6 Q1405.96 1220.57 1405.96 1222.52 Q1405.96 1224 1407.09 1224.86 Q1408.23 1225.69 1411.65 1226.45 L1413.11 1226.78 Q1417.65 1227.75 1419.55 1229.53 Q1421.47 1231.29 1421.47 1234.46 Q1421.47 1238.07 1418.6 1240.18 Q1415.75 1242.29 1410.75 1242.29 Q1408.67 1242.29 1406.4 1241.87 Q1404.15 1241.48 1401.65 1240.67 L1401.65 1236.27 Q1404.01 1237.5 1406.31 1238.12 Q1408.6 1238.72 1410.84 1238.72 Q1413.85 1238.72 1415.47 1237.7 Q1417.09 1236.66 1417.09 1234.79 Q1417.09 1233.05 1415.91 1232.13 Q1414.75 1231.2 1410.8 1230.34 L1409.31 1230 Q1405.36 1229.16 1403.6 1227.45 Q1401.84 1225.71 1401.84 1222.7 Q1401.84 1219.05 1404.43 1217.06 Q1407.02 1215.07 1411.79 1215.07 Q1414.15 1215.07 1416.24 1215.41 Q1418.32 1215.76 1420.08 1216.45 Z" fill="#000000" fill-rule="nonzero" fill-opacity="1" /><path clip-path="url(#clip100)" d="M1432.46 1208.33 L1432.46 1215.69 L1441.24 1215.69 L1441.24 1219 L1432.46 1219 L1432.46 1233.07 Q1432.46 1236.25 1433.32 1237.15 Q1434.2 1238.05 1436.86 1238.05 L1441.24 1238.05 L1441.24 1241.62 L1436.86 1241.62 Q1431.93 1241.62 1430.06 1239.79 Q1428.18 1237.94 1428.18 1233.07 L1428.18 1219 L1425.06 1219 L1425.06 1215.69 L1428.18 1215.69 L1428.18 1208.33 L1432.46 1208.33 Z" fill="#000000" fill-rule="nonzero" fill-opacity="1" /><path clip-path="url(#clip100)" d="M1458.62 1228.58 Q1453.46 1228.58 1451.47 1229.76 Q1449.48 1230.95 1449.48 1233.79 Q1449.48 1236.06 1450.96 1237.4 Q1452.46 1238.72 1455.03 1238.72 Q1458.57 1238.72 1460.7 1236.22 Q1462.86 1233.7 1462.86 1229.53 L1462.86 1228.58 L1458.62 1228.58 M1467.12 1226.82 L1467.12 1241.62 L1462.86 1241.62 L1462.86 1237.68 Q1461.4 1240.04 1459.22 1241.18 Q1457.05 1242.29 1453.9 1242.29 Q1449.92 1242.29 1447.55 1240.07 Q1445.22 1237.82 1445.22 1234.07 Q1445.22 1229.7 1448.13 1227.47 Q1451.07 1225.25 1456.88 1225.25 L1462.86 1225.25 L1462.86 1224.83 Q1462.86 1221.89 1460.91 1220.3 Q1458.99 1218.68 1455.49 1218.68 Q1453.27 1218.68 1451.17 1219.21 Q1449.06 1219.74 1447.12 1220.81 L1447.12 1216.87 Q1449.45 1215.97 1451.65 1215.53 Q1453.85 1215.07 1455.93 1215.07 Q1461.56 1215.07 1464.34 1217.98 Q1467.12 1220.9 1467.12 1226.82 Z" fill="#000000" fill-rule="nonzero" fill-opacity="1" /><path clip-path="url(#clip100)" d="M1480.1 1208.33 L1480.1 1215.69 L1488.87 1215.69 L1488.87 1219 L1480.1 1219 L1480.1 1233.07 Q1480.1 1236.25 1480.96 1237.15 Q1481.84 1238.05 1484.5 1238.05 L1488.87 1238.05 L1488.87 1241.62 L1484.5 1241.62 Q1479.57 1241.62 1477.69 1239.79 Q1475.82 1237.94 1475.82 1233.07 L1475.82 1219 L1472.69 1219 L1472.69 1215.69 L1475.82 1215.69 L1475.82 1208.33 L1480.1 1208.33 Z" fill="#000000" fill-rule="nonzero" fill-opacity="1" /><path clip-path="url(#clip100)" d="M1516.65 1227.59 L1516.65 1229.67 L1497.07 1229.67 Q1497.35 1234.07 1499.71 1236.38 Q1502.09 1238.68 1506.33 1238.68 Q1508.78 1238.68 1511.07 1238.07 Q1513.39 1237.47 1515.66 1236.27 L1515.66 1240.3 Q1513.36 1241.27 1510.96 1241.78 Q1508.55 1242.29 1506.07 1242.29 Q1499.87 1242.29 1496.24 1238.68 Q1492.62 1235.07 1492.62 1228.91 Q1492.62 1222.54 1496.05 1218.82 Q1499.5 1215.07 1505.33 1215.07 Q1510.56 1215.07 1513.6 1218.45 Q1516.65 1221.8 1516.65 1227.59 M1512.39 1226.34 Q1512.35 1222.84 1510.43 1220.76 Q1508.53 1218.68 1505.38 1218.68 Q1501.81 1218.68 1499.66 1220.69 Q1497.53 1222.7 1497.21 1226.36 L1512.39 1226.34 Z" fill="#000000" fill-rule="nonzero" fill-opacity="1" /><polyline clip-path="url(#clip100)" style="stroke:#e26f46; stroke-linecap:round; stroke-linejoin:round; stroke-width:8; stroke-opacity:1; fill:none" points="1053.01,1276.18 1195.2,1276.18 "/>
<path clip-path="url(#clip100)" d="M1223.3 1280.52 Q1223.3 1285.22 1225.22 1287.9 Q1227.16 1290.56 1230.54 1290.56 Q1233.92 1290.56 1235.87 1287.9 Q1237.81 1285.22 1237.81 1280.52 Q1237.81 1275.82 1235.87 1273.16 Q1233.92 1270.47 1230.54 1270.47 Q1227.16 1270.47 1225.22 1273.16 Q1223.3 1275.82 1223.3 1280.52 M1237.81 1289.57 Q1236.47 1291.88 1234.41 1293.02 Q1232.37 1294.13 1229.5 1294.13 Q1224.8 1294.13 1221.84 1290.38 Q1218.9 1286.63 1218.9 1280.52 Q1218.9 1274.41 1221.84 1270.66 Q1224.8 1266.91 1229.5 1266.91 Q1232.37 1266.91 1234.41 1268.04 Q1236.47 1269.15 1237.81 1271.47 L1237.81 1267.53 L1242.07 1267.53 L1242.07 1303.32 L1237.81 1303.32 L1237.81 1289.57 Z" fill="#000000" fill-rule="nonzero" fill-opacity="1" /><path clip-path="url(#clip100)" d="M1250.4 1283.22 L1250.4 1267.53 L1254.66 1267.53 L1254.66 1283.06 Q1254.66 1286.74 1256.1 1288.6 Q1257.53 1290.42 1260.4 1290.42 Q1263.85 1290.42 1265.84 1288.22 Q1267.86 1286.03 1267.86 1282.23 L1267.86 1267.53 L1272.12 1267.53 L1272.12 1293.46 L1267.86 1293.46 L1267.86 1289.47 Q1266.31 1291.84 1264.25 1292.99 Q1262.21 1294.13 1259.5 1294.13 Q1255.03 1294.13 1252.72 1291.35 Q1250.4 1288.57 1250.4 1283.22 M1261.12 1266.91 L1261.12 1266.91 Z" fill="#000000" fill-rule="nonzero" fill-opacity="1" /><path clip-path="url(#clip100)" d="M1292.67 1280.42 Q1287.51 1280.42 1285.52 1281.6 Q1283.53 1282.79 1283.53 1285.63 Q1283.53 1287.9 1285.01 1289.24 Q1286.51 1290.56 1289.08 1290.56 Q1292.63 1290.56 1294.75 1288.06 Q1296.91 1285.54 1296.91 1281.37 L1296.91 1280.42 L1292.67 1280.42 M1301.17 1278.66 L1301.17 1293.46 L1296.91 1293.46 L1296.91 1289.52 Q1295.45 1291.88 1293.27 1293.02 Q1291.1 1294.13 1287.95 1294.13 Q1283.97 1294.13 1281.61 1291.91 Q1279.27 1289.66 1279.27 1285.91 Q1279.27 1281.54 1282.19 1279.31 Q1285.13 1277.09 1290.94 1277.09 L1296.91 1277.09 L1296.91 1276.67 Q1296.91 1273.73 1294.96 1272.14 Q1293.04 1270.52 1289.55 1270.52 Q1287.32 1270.52 1285.22 1271.05 Q1283.11 1271.58 1281.17 1272.65 L1281.17 1268.71 Q1283.5 1267.81 1285.7 1267.37 Q1287.9 1266.91 1289.99 1266.91 Q1295.61 1266.91 1298.39 1269.82 Q1301.17 1272.74 1301.17 1278.66 Z" fill="#000000" fill-rule="nonzero" fill-opacity="1" /><path clip-path="url(#clip100)" d="M1326.47 1268.29 L1326.47 1272.32 Q1324.66 1271.4 1322.72 1270.93 Q1320.77 1270.47 1318.69 1270.47 Q1315.52 1270.47 1313.92 1271.44 Q1312.35 1272.41 1312.35 1274.36 Q1312.35 1275.84 1313.48 1276.7 Q1314.62 1277.53 1318.04 1278.29 L1319.5 1278.62 Q1324.04 1279.59 1325.94 1281.37 Q1327.86 1283.13 1327.86 1286.3 Q1327.86 1289.91 1324.99 1292.02 Q1322.14 1294.13 1317.14 1294.13 Q1315.06 1294.13 1312.79 1293.71 Q1310.54 1293.32 1308.04 1292.51 L1308.04 1288.11 Q1310.4 1289.34 1312.69 1289.96 Q1314.99 1290.56 1317.23 1290.56 Q1320.24 1290.56 1321.86 1289.54 Q1323.48 1288.5 1323.48 1286.63 Q1323.48 1284.89 1322.3 1283.97 Q1321.14 1283.04 1317.19 1282.18 L1315.7 1281.84 Q1311.75 1281 1309.99 1279.29 Q1308.23 1277.55 1308.23 1274.54 Q1308.23 1270.89 1310.82 1268.9 Q1313.41 1266.91 1318.18 1266.91 Q1320.54 1266.91 1322.63 1267.25 Q1324.71 1267.6 1326.47 1268.29 Z" fill="#000000" fill-rule="nonzero" fill-opacity="1" /><path clip-path="url(#clip100)" d="M1334.64 1267.53 L1338.9 1267.53 L1338.9 1293.46 L1334.64 1293.46 L1334.64 1267.53 M1334.64 1257.44 L1338.9 1257.44 L1338.9 1262.83 L1334.64 1262.83 L1334.64 1257.44 Z" fill="#000000" fill-rule="nonzero" fill-opacity="1" /><path clip-path="url(#clip100)" d="M1369.36 1277.81 L1369.36 1293.46 L1365.1 1293.46 L1365.1 1277.95 Q1365.1 1274.27 1363.67 1272.44 Q1362.23 1270.61 1359.36 1270.61 Q1355.91 1270.61 1353.92 1272.81 Q1351.93 1275.01 1351.93 1278.8 L1351.93 1293.46 L1347.65 1293.46 L1347.65 1257.44 L1351.93 1257.44 L1351.93 1271.56 Q1353.46 1269.22 1355.52 1268.06 Q1357.6 1266.91 1360.31 1266.91 Q1364.78 1266.91 1367.07 1269.68 Q1369.36 1272.44 1369.36 1277.81 Z" fill="#000000" fill-rule="nonzero" fill-opacity="1" /><path clip-path="url(#clip100)" d="M1387.9 1270.52 Q1384.48 1270.52 1382.49 1273.2 Q1380.5 1275.86 1380.5 1280.52 Q1380.5 1285.17 1382.46 1287.85 Q1384.45 1290.52 1387.9 1290.52 Q1391.31 1290.52 1393.3 1287.83 Q1395.29 1285.15 1395.29 1280.52 Q1395.29 1275.91 1393.3 1273.22 Q1391.31 1270.52 1387.9 1270.52 M1387.9 1266.91 Q1393.46 1266.91 1396.63 1270.52 Q1399.8 1274.13 1399.8 1280.52 Q1399.8 1286.88 1396.63 1290.52 Q1393.46 1294.13 1387.9 1294.13 Q1382.32 1294.13 1379.15 1290.52 Q1376 1286.88 1376 1280.52 Q1376 1274.13 1379.15 1270.52 Q1382.32 1266.91 1387.9 1266.91 Z" fill="#000000" fill-rule="nonzero" fill-opacity="1" /><path clip-path="url(#clip100)" d="M1406.86 1257.44 L1411.12 1257.44 L1411.12 1293.46 L1406.86 1293.46 L1406.86 1257.44 Z" fill="#000000" fill-rule="nonzero" fill-opacity="1" /><path clip-path="url(#clip100)" d="M1442.21 1279.43 L1442.21 1281.51 L1422.62 1281.51 Q1422.9 1285.91 1425.26 1288.22 Q1427.65 1290.52 1431.88 1290.52 Q1434.34 1290.52 1436.63 1289.91 Q1438.94 1289.31 1441.21 1288.11 L1441.21 1292.14 Q1438.92 1293.11 1436.51 1293.62 Q1434.11 1294.13 1431.63 1294.13 Q1425.43 1294.13 1421.79 1290.52 Q1418.18 1286.91 1418.18 1280.75 Q1418.18 1274.38 1421.61 1270.66 Q1425.06 1266.91 1430.89 1266.91 Q1436.12 1266.91 1439.15 1270.29 Q1442.21 1273.64 1442.21 1279.43 M1437.95 1278.18 Q1437.9 1274.68 1435.98 1272.6 Q1434.08 1270.52 1430.93 1270.52 Q1427.37 1270.52 1425.22 1272.53 Q1423.09 1274.54 1422.76 1278.2 L1437.95 1278.18 Z" fill="#000000" fill-rule="nonzero" fill-opacity="1" /><polyline clip-path="url(#clip100)" style="stroke:#3da44d; stroke-linecap:round; stroke-linejoin:round; stroke-width:8; stroke-opacity:1; fill:none" points="1053.01,1328.02 1195.2,1328.02 "/>
<path clip-path="url(#clip100)" d="M1223.3 1332.36 Q1223.3 1337.06 1225.22 1339.74 Q1227.16 1342.4 1230.54 1342.4 Q1233.92 1342.4 1235.87 1339.74 Q1237.81 1337.06 1237.81 1332.36 Q1237.81 1327.66 1235.87 1325 Q1233.92 1322.31 1230.54 1322.31 Q1227.16 1322.31 1225.22 1325 Q1223.3 1327.66 1223.3 1332.36 M1237.81 1341.41 Q1236.47 1343.72 1234.41 1344.86 Q1232.37 1345.97 1229.5 1345.97 Q1224.8 1345.97 1221.84 1342.22 Q1218.9 1338.47 1218.9 1332.36 Q1218.9 1326.25 1221.84 1322.5 Q1224.8 1318.75 1229.5 1318.75 Q1232.37 1318.75 1234.41 1319.88 Q1236.47 1320.99 1237.81 1323.31 L1237.81 1319.37 L1242.07 1319.37 L1242.07 1355.16 L1237.81 1355.16 L1237.81 1341.41 Z" fill="#000000" fill-rule="nonzero" fill-opacity="1" /><path clip-path="url(#clip100)" d="M1250.4 1335.06 L1250.4 1319.37 L1254.66 1319.37 L1254.66 1334.9 Q1254.66 1338.58 1256.1 1340.44 Q1257.53 1342.26 1260.4 1342.26 Q1263.85 1342.26 1265.84 1340.06 Q1267.86 1337.87 1267.86 1334.07 L1267.86 1319.37 L1272.12 1319.37 L1272.12 1345.3 L1267.86 1345.3 L1267.86 1341.31 Q1266.31 1343.68 1264.25 1344.83 Q1262.21 1345.97 1259.5 1345.97 Q1255.03 1345.97 1252.72 1343.19 Q1250.4 1340.41 1250.4 1335.06 M1261.12 1318.75 L1261.12 1318.75 Z" fill="#000000" fill-rule="nonzero" fill-opacity="1" /><path clip-path="url(#clip100)" d="M1292.67 1332.26 Q1287.51 1332.26 1285.52 1333.44 Q1283.53 1334.63 1283.53 1337.47 Q1283.53 1339.74 1285.01 1341.08 Q1286.51 1342.4 1289.08 1342.4 Q1292.63 1342.4 1294.75 1339.9 Q1296.91 1337.38 1296.91 1333.21 L1296.91 1332.26 L1292.67 1332.26 M1301.17 1330.5 L1301.17 1345.3 L1296.91 1345.3 L1296.91 1341.36 Q1295.45 1343.72 1293.27 1344.86 Q1291.1 1345.97 1287.95 1345.97 Q1283.97 1345.97 1281.61 1343.75 Q1279.27 1341.5 1279.27 1337.75 Q1279.27 1333.38 1282.19 1331.15 Q1285.13 1328.93 1290.94 1328.93 L1296.91 1328.93 L1296.91 1328.51 Q1296.91 1325.57 1294.96 1323.98 Q1293.04 1322.36 1289.55 1322.36 Q1287.32 1322.36 1285.22 1322.89 Q1283.11 1323.42 1281.17 1324.49 L1281.17 1320.55 Q1283.5 1319.65 1285.7 1319.21 Q1287.9 1318.75 1289.99 1318.75 Q1295.61 1318.75 1298.39 1321.66 Q1301.17 1324.58 1301.17 1330.5 Z" fill="#000000" fill-rule="nonzero" fill-opacity="1" /><path clip-path="url(#clip100)" d="M1326.47 1320.13 L1326.47 1324.16 Q1324.66 1323.24 1322.72 1322.77 Q1320.77 1322.31 1318.69 1322.31 Q1315.52 1322.31 1313.92 1323.28 Q1312.35 1324.25 1312.35 1326.2 Q1312.35 1327.68 1313.48 1328.54 Q1314.62 1329.37 1318.04 1330.13 L1319.5 1330.46 Q1324.04 1331.43 1325.94 1333.21 Q1327.86 1334.97 1327.86 1338.14 Q1327.86 1341.75 1324.99 1343.86 Q1322.14 1345.97 1317.14 1345.97 Q1315.06 1345.97 1312.79 1345.55 Q1310.54 1345.16 1308.04 1344.35 L1308.04 1339.95 Q1310.4 1341.18 1312.69 1341.8 Q1314.99 1342.4 1317.23 1342.4 Q1320.24 1342.4 1321.86 1341.38 Q1323.48 1340.34 1323.48 1338.47 Q1323.48 1336.73 1322.3 1335.81 Q1321.14 1334.88 1317.19 1334.02 L1315.7 1333.68 Q1311.75 1332.84 1309.99 1331.13 Q1308.23 1329.39 1308.23 1326.38 Q1308.23 1322.73 1310.82 1320.74 Q1313.41 1318.75 1318.18 1318.75 Q1320.54 1318.75 1322.63 1319.09 Q1324.71 1319.44 1326.47 1320.13 Z" fill="#000000" fill-rule="nonzero" fill-opacity="1" /><path clip-path="url(#clip100)" d="M1334.64 1319.37 L1338.9 1319.37 L1338.9 1345.3 L1334.64 1345.3 L1334.64 1319.37 M1334.64 1309.28 L1338.9 1309.28 L1338.9 1314.67 L1334.64 1314.67 L1334.64 1309.28 Z" fill="#000000" fill-rule="nonzero" fill-opacity="1" /><path clip-path="url(#clip100)" d="M1351.93 1341.41 L1351.93 1355.16 L1347.65 1355.16 L1347.65 1319.37 L1351.93 1319.37 L1351.93 1323.31 Q1353.27 1320.99 1355.31 1319.88 Q1357.37 1318.75 1360.22 1318.75 Q1364.94 1318.75 1367.88 1322.5 Q1370.84 1326.25 1370.84 1332.36 Q1370.84 1338.47 1367.88 1342.22 Q1364.94 1345.97 1360.22 1345.97 Q1357.37 1345.97 1355.31 1344.86 Q1353.27 1343.72 1351.93 1341.41 M1366.42 1332.36 Q1366.42 1327.66 1364.48 1325 Q1362.56 1322.31 1359.18 1322.31 Q1355.8 1322.31 1353.85 1325 Q1351.93 1327.66 1351.93 1332.36 Q1351.93 1337.06 1353.85 1339.74 Q1355.8 1342.4 1359.18 1342.4 Q1362.56 1342.4 1364.48 1339.74 Q1366.42 1337.06 1366.42 1332.36 Z" fill="#000000" fill-rule="nonzero" fill-opacity="1" /><path clip-path="url(#clip100)" d="M1389.68 1332.26 Q1384.52 1332.26 1382.53 1333.44 Q1380.54 1334.63 1380.54 1337.47 Q1380.54 1339.74 1382.02 1341.08 Q1383.53 1342.4 1386.1 1342.4 Q1389.64 1342.4 1391.77 1339.9 Q1393.92 1337.38 1393.92 1333.21 L1393.92 1332.26 L1389.68 1332.26 M1398.18 1330.5 L1398.18 1345.3 L1393.92 1345.3 L1393.92 1341.36 Q1392.46 1343.72 1390.29 1344.86 Q1388.11 1345.97 1384.96 1345.97 Q1380.98 1345.97 1378.62 1343.75 Q1376.28 1341.5 1376.28 1337.75 Q1376.28 1333.38 1379.2 1331.15 Q1382.14 1328.93 1387.95 1328.93 L1393.92 1328.93 L1393.92 1328.51 Q1393.92 1325.57 1391.98 1323.98 Q1390.06 1322.36 1386.56 1322.36 Q1384.34 1322.36 1382.23 1322.89 Q1380.12 1323.42 1378.18 1324.49 L1378.18 1320.55 Q1380.52 1319.65 1382.72 1319.21 Q1384.92 1318.75 1387 1318.75 Q1392.62 1318.75 1395.4 1321.66 Q1398.18 1324.58 1398.18 1330.5 Z" fill="#000000" fill-rule="nonzero" fill-opacity="1" /><path clip-path="url(#clip100)" d="M1421.98 1323.35 Q1421.26 1322.94 1420.4 1322.75 Q1419.57 1322.54 1418.55 1322.54 Q1414.94 1322.54 1412.99 1324.9 Q1411.07 1327.24 1411.07 1331.64 L1411.07 1345.3 L1406.79 1345.3 L1406.79 1319.37 L1411.07 1319.37 L1411.07 1323.4 Q1412.42 1321.04 1414.57 1319.9 Q1416.72 1318.75 1419.8 1318.75 Q1420.24 1318.75 1420.77 1318.81 Q1421.31 1318.86 1421.95 1318.98 L1421.98 1323.35 Z" fill="#000000" fill-rule="nonzero" fill-opacity="1" /><path clip-path="url(#clip100)" d="M1430.66 1312.01 L1430.66 1319.37 L1439.43 1319.37 L1439.43 1322.68 L1430.66 1322.68 L1430.66 1336.75 Q1430.66 1339.93 1431.51 1340.83 Q1432.39 1341.73 1435.06 1341.73 L1439.43 1341.73 L1439.43 1345.3 L1435.06 1345.3 Q1430.12 1345.3 1428.25 1343.47 Q1426.37 1341.62 1426.37 1336.75 L1426.37 1322.68 L1423.25 1322.68 L1423.25 1319.37 L1426.37 1319.37 L1426.37 1312.01 L1430.66 1312.01 Z" fill="#000000" fill-rule="nonzero" fill-opacity="1" /><path clip-path="url(#clip100)" d="M1445.03 1319.37 L1449.29 1319.37 L1449.29 1345.3 L1445.03 1345.3 L1445.03 1319.37 M1445.03 1309.28 L1449.29 1309.28 L1449.29 1314.67 L1445.03 1314.67 L1445.03 1309.28 Z" fill="#000000" fill-rule="nonzero" fill-opacity="1" /><path clip-path="url(#clip100)" d="M1476.86 1320.37 L1476.86 1324.35 Q1475.05 1323.35 1473.23 1322.87 Q1471.42 1322.36 1469.57 1322.36 Q1465.43 1322.36 1463.13 1325 Q1460.84 1327.61 1460.84 1332.36 Q1460.84 1337.1 1463.13 1339.74 Q1465.43 1342.36 1469.57 1342.36 Q1471.42 1342.36 1473.23 1341.87 Q1475.05 1341.36 1476.86 1340.37 L1476.86 1344.3 Q1475.08 1345.13 1473.16 1345.55 Q1471.26 1345.97 1469.11 1345.97 Q1463.25 1345.97 1459.8 1342.29 Q1456.35 1338.61 1456.35 1332.36 Q1456.35 1326.01 1459.82 1322.38 Q1463.32 1318.75 1469.38 1318.75 Q1471.35 1318.75 1473.23 1319.16 Q1475.1 1319.56 1476.86 1320.37 Z" fill="#000000" fill-rule="nonzero" fill-opacity="1" /><path clip-path="url(#clip100)" d="M1484.27 1309.28 L1488.53 1309.28 L1488.53 1345.3 L1484.27 1345.3 L1484.27 1309.28 Z" fill="#000000" fill-rule="nonzero" fill-opacity="1" /><path clip-path="url(#clip100)" d="M1519.61 1331.27 L1519.61 1333.35 L1500.03 1333.35 Q1500.31 1337.75 1502.67 1340.06 Q1505.05 1342.36 1509.29 1342.36 Q1511.74 1342.36 1514.04 1341.75 Q1516.35 1341.15 1518.62 1339.95 L1518.62 1343.98 Q1516.33 1344.95 1513.92 1345.46 Q1511.51 1345.97 1509.04 1345.97 Q1502.83 1345.97 1499.2 1342.36 Q1495.59 1338.75 1495.59 1332.59 Q1495.59 1326.22 1499.01 1322.5 Q1502.46 1318.75 1508.3 1318.75 Q1513.53 1318.75 1516.56 1322.13 Q1519.61 1325.48 1519.61 1331.27 M1515.36 1330.02 Q1515.31 1326.52 1513.39 1324.44 Q1511.49 1322.36 1508.34 1322.36 Q1504.78 1322.36 1502.62 1324.37 Q1500.49 1326.38 1500.17 1330.04 L1515.36 1330.02 Z" fill="#000000" fill-rule="nonzero" fill-opacity="1" /></svg>
