<?xml version="1.0" encoding="utf-8"?>
<svg xmlns="http://www.w3.org/2000/svg" xmlns:xlink="http://www.w3.org/1999/xlink" width="600" height="400" viewBox="0 0 2400 1600">
<defs>
  <clipPath id="clip660">
    <rect x="0" y="0" width="2400" height="1600"/>
  </clipPath>
</defs>
<path clip-path="url(#clip660)" d="M0 1600 L2400 1600 L2400 0 L0 0  Z" fill="#ffffff" fill-rule="evenodd" fill-opacity="1"/>
<defs>
  <clipPath id="clip661">
    <rect x="219" y="123" width="2134" height="1301"/>
  </clipPath>
</defs>
<path clip-path="url(#clip660)" d="M219.866 1423.18 L2352.76 1423.18 L2352.76 123.472 L219.866 123.472  Z" fill="#ffffff" fill-rule="evenodd" fill-opacity="1"/>
<polyline clip-path="url(#clip661)" style="stroke:#000000; stroke-linecap:round; stroke-linejoin:round; stroke-width:2; stroke-opacity:0.1; fill:none" points="530.811,1423.18 530.811,123.472 "/>
<polyline clip-path="url(#clip661)" style="stroke:#000000; stroke-linecap:round; stroke-linejoin:round; stroke-width:2; stroke-opacity:0.1; fill:none" points="883.586,1423.18 883.586,123.472 "/>
<polyline clip-path="url(#clip661)" style="stroke:#000000; stroke-linecap:round; stroke-linejoin:round; stroke-width:2; stroke-opacity:0.1; fill:none" points="1236.36,1423.18 1236.36,123.472 "/>
<polyline clip-path="url(#clip661)" style="stroke:#000000; stroke-linecap:round; stroke-linejoin:round; stroke-width:2; stroke-opacity:0.1; fill:none" points="1589.14,1423.18 1589.14,123.472 "/>
<polyline clip-path="url(#clip661)" style="stroke:#000000; stroke-linecap:round; stroke-linejoin:round; stroke-width:2; stroke-opacity:0.1; fill:none" points="1941.91,1423.18 1941.91,123.472 "/>
<polyline clip-path="url(#clip661)" style="stroke:#000000; stroke-linecap:round; stroke-linejoin:round; stroke-width:2; stroke-opacity:0.1; fill:none" points="2294.68,1423.18 2294.68,123.472 "/>
<polyline clip-path="url(#clip661)" style="stroke:#000000; stroke-linecap:round; stroke-linejoin:round; stroke-width:2; stroke-opacity:0.1; fill:none" points="219.866,1423.18 2352.76,1423.18 "/>
<polyline clip-path="url(#clip661)" style="stroke:#000000; stroke-linecap:round; stroke-linejoin:round; stroke-width:2; stroke-opacity:0.1; fill:none" points="219.866,1206.56 2352.76,1206.56 "/>
<polyline clip-path="url(#clip661)" style="stroke:#000000; stroke-linecap:round; stroke-linejoin:round; stroke-width:2; stroke-opacity:0.1; fill:none" points="219.866,989.944 2352.76,989.944 "/>
<polyline clip-path="url(#clip661)" style="stroke:#000000; stroke-linecap:round; stroke-linejoin:round; stroke-width:2; stroke-opacity:0.1; fill:none" points="219.866,773.326 2352.76,773.326 "/>
<polyline clip-path="url(#clip661)" style="stroke:#000000; stroke-linecap:round; stroke-linejoin:round; stroke-width:2; stroke-opacity:0.1; fill:none" points="219.866,556.708 2352.76,556.708 "/>
<polyline clip-path="url(#clip661)" style="stroke:#000000; stroke-linecap:round; stroke-linejoin:round; stroke-width:2; stroke-opacity:0.1; fill:none" points="219.866,340.09 2352.76,340.09 "/>
<polyline clip-path="url(#clip660)" style="stroke:#000000; stroke-linecap:round; stroke-linejoin:round; stroke-width:4; stroke-opacity:1; fill:none" points="219.866,1423.18 2352.76,1423.18 "/>
<polyline clip-path="url(#clip660)" style="stroke:#000000; stroke-linecap:round; stroke-linejoin:round; stroke-width:4; stroke-opacity:1; fill:none" points="530.811,1423.18 530.811,1404.28 "/>
<polyline clip-path="url(#clip660)" style="stroke:#000000; stroke-linecap:round; stroke-linejoin:round; stroke-width:4; stroke-opacity:1; fill:none" points="883.586,1423.18 883.586,1404.28 "/>
<polyline clip-path="url(#clip660)" style="stroke:#000000; stroke-linecap:round; stroke-linejoin:round; stroke-width:4; stroke-opacity:1; fill:none" points="1236.36,1423.18 1236.36,1404.28 "/>
<polyline clip-path="url(#clip660)" style="stroke:#000000; stroke-linecap:round; stroke-linejoin:round; stroke-width:4; stroke-opacity:1; fill:none" points="1589.14,1423.18 1589.14,1404.28 "/>
<polyline clip-path="url(#clip660)" style="stroke:#000000; stroke-linecap:round; stroke-linejoin:round; stroke-width:4; stroke-opacity:1; fill:none" points="1941.91,1423.18 1941.91,1404.28 "/>
<polyline clip-path="url(#clip660)" style="stroke:#000000; stroke-linecap:round; stroke-linejoin:round; stroke-width:4; stroke-opacity:1; fill:none" points="2294.68,1423.18 2294.68,1404.28 "/>
<path clip-path="url(#clip660)" d="M508.694 1454.1 Q505.082 1454.1 503.254 1457.66 Q501.448 1461.2 501.448 1468.33 Q501.448 1475.44 503.254 1479.01 Q505.082 1482.55 508.694 1482.55 Q512.328 1482.55 514.133 1479.01 Q515.962 1475.44 515.962 1468.33 Q515.962 1461.2 514.133 1457.66 Q512.328 1454.1 508.694 1454.1 M508.694 1450.39 Q514.504 1450.39 517.559 1455 Q520.638 1459.58 520.638 1468.33 Q520.638 1477.06 517.559 1481.67 Q514.504 1486.25 508.694 1486.25 Q502.883 1486.25 499.805 1481.67 Q496.749 1477.06 496.749 1468.33 Q496.749 1459.58 499.805 1455 Q502.883 1450.39 508.694 1450.39 Z" fill="#000000" fill-rule="nonzero" fill-opacity="1" /><path clip-path="url(#clip660)" d="M528.855 1479.7 L533.74 1479.7 L533.74 1485.58 L528.855 1485.58 L528.855 1479.7 Z" fill="#000000" fill-rule="nonzero" fill-opacity="1" /><path clip-path="url(#clip660)" d="M543.971 1451.02 L562.328 1451.02 L562.328 1454.96 L548.254 1454.96 L548.254 1463.43 Q549.272 1463.08 550.291 1462.92 Q551.309 1462.73 552.328 1462.73 Q558.115 1462.73 561.494 1465.9 Q564.874 1469.08 564.874 1474.49 Q564.874 1480.07 561.402 1483.17 Q557.929 1486.25 551.61 1486.25 Q549.434 1486.25 547.166 1485.88 Q544.92 1485.51 542.513 1484.77 L542.513 1480.07 Q544.596 1481.2 546.818 1481.76 Q549.041 1482.32 551.517 1482.32 Q555.522 1482.32 557.86 1480.21 Q560.198 1478.1 560.198 1474.49 Q560.198 1470.88 557.86 1468.77 Q555.522 1466.67 551.517 1466.67 Q549.642 1466.67 547.767 1467.08 Q545.916 1467.5 543.971 1468.38 L543.971 1451.02 Z" fill="#000000" fill-rule="nonzero" fill-opacity="1" /><path clip-path="url(#clip660)" d="M850.739 1481.64 L858.378 1481.64 L858.378 1455.28 L850.068 1456.95 L850.068 1452.69 L858.332 1451.02 L863.008 1451.02 L863.008 1481.64 L870.646 1481.64 L870.646 1485.58 L850.739 1485.58 L850.739 1481.64 Z" fill="#000000" fill-rule="nonzero" fill-opacity="1" /><path clip-path="url(#clip660)" d="M880.091 1479.7 L884.975 1479.7 L884.975 1485.58 L880.091 1485.58 L880.091 1479.7 Z" fill="#000000" fill-rule="nonzero" fill-opacity="1" /><path clip-path="url(#clip660)" d="M905.16 1454.1 Q901.549 1454.1 899.72 1457.66 Q897.915 1461.2 897.915 1468.33 Q897.915 1475.44 899.72 1479.01 Q901.549 1482.55 905.16 1482.55 Q908.794 1482.55 910.6 1479.01 Q912.429 1475.44 912.429 1468.33 Q912.429 1461.2 910.6 1457.66 Q908.794 1454.1 905.16 1454.1 M905.16 1450.39 Q910.97 1450.39 914.026 1455 Q917.104 1459.58 917.104 1468.33 Q917.104 1477.06 914.026 1481.67 Q910.97 1486.25 905.16 1486.25 Q899.35 1486.25 896.271 1481.67 Q893.216 1477.06 893.216 1468.33 Q893.216 1459.58 896.271 1455 Q899.35 1450.39 905.16 1450.39 Z" fill="#000000" fill-rule="nonzero" fill-opacity="1" /><path clip-path="url(#clip660)" d="M1204.01 1481.64 L1211.65 1481.64 L1211.65 1455.28 L1203.34 1456.95 L1203.34 1452.69 L1211.6 1451.02 L1216.28 1451.02 L1216.28 1481.64 L1223.92 1481.64 L1223.92 1485.58 L1204.01 1485.58 L1204.01 1481.64 Z" fill="#000000" fill-rule="nonzero" fill-opacity="1" /><path clip-path="url(#clip660)" d="M1233.36 1479.7 L1238.25 1479.7 L1238.25 1485.58 L1233.36 1485.58 L1233.36 1479.7 Z" fill="#000000" fill-rule="nonzero" fill-opacity="1" /><path clip-path="url(#clip660)" d="M1248.48 1451.02 L1266.84 1451.02 L1266.84 1454.96 L1252.76 1454.96 L1252.76 1463.43 Q1253.78 1463.08 1254.8 1462.92 Q1255.82 1462.73 1256.84 1462.73 Q1262.62 1462.73 1266 1465.9 Q1269.38 1469.08 1269.38 1474.49 Q1269.38 1480.07 1265.91 1483.17 Q1262.44 1486.25 1256.12 1486.25 Q1253.94 1486.25 1251.67 1485.88 Q1249.43 1485.51 1247.02 1484.77 L1247.02 1480.07 Q1249.1 1481.2 1251.33 1481.76 Q1253.55 1482.32 1256.03 1482.32 Q1260.03 1482.32 1262.37 1480.21 Q1264.71 1478.1 1264.71 1474.49 Q1264.71 1470.88 1262.37 1468.77 Q1260.03 1466.67 1256.03 1466.67 Q1254.15 1466.67 1252.28 1467.08 Q1250.42 1467.5 1248.48 1468.38 L1248.48 1451.02 Z" fill="#000000" fill-rule="nonzero" fill-opacity="1" /><path clip-path="url(#clip660)" d="M1560.37 1481.64 L1576.69 1481.64 L1576.69 1485.58 L1554.75 1485.58 L1554.75 1481.64 Q1557.41 1478.89 1561.99 1474.26 Q1566.6 1469.61 1567.78 1468.27 Q1570.03 1465.74 1570.91 1464.01 Q1571.81 1462.25 1571.81 1460.56 Q1571.81 1457.8 1569.86 1456.07 Q1567.94 1454.33 1564.84 1454.33 Q1562.64 1454.33 1560.19 1455.09 Q1557.76 1455.86 1554.98 1457.41 L1554.98 1452.69 Q1557.8 1451.55 1560.26 1450.97 Q1562.71 1450.39 1564.75 1450.39 Q1570.12 1450.39 1573.31 1453.08 Q1576.51 1455.77 1576.51 1460.26 Q1576.51 1462.39 1575.7 1464.31 Q1574.91 1466.2 1572.8 1468.8 Q1572.23 1469.47 1569.12 1472.69 Q1566.02 1475.88 1560.37 1481.64 Z" fill="#000000" fill-rule="nonzero" fill-opacity="1" /><path clip-path="url(#clip660)" d="M1586.51 1479.7 L1591.39 1479.7 L1591.39 1485.58 L1586.51 1485.58 L1586.51 1479.7 Z" fill="#000000" fill-rule="nonzero" fill-opacity="1" /><path clip-path="url(#clip660)" d="M1611.58 1454.1 Q1607.97 1454.1 1606.14 1457.66 Q1604.33 1461.2 1604.33 1468.33 Q1604.33 1475.44 1606.14 1479.01 Q1607.97 1482.55 1611.58 1482.55 Q1615.21 1482.55 1617.02 1479.01 Q1618.85 1475.44 1618.85 1468.33 Q1618.85 1461.2 1617.02 1457.66 Q1615.21 1454.1 1611.58 1454.1 M1611.58 1450.39 Q1617.39 1450.39 1620.44 1455 Q1623.52 1459.58 1623.52 1468.33 Q1623.52 1477.06 1620.44 1481.67 Q1617.39 1486.25 1611.58 1486.25 Q1605.77 1486.25 1602.69 1481.67 Q1599.63 1477.06 1599.63 1468.33 Q1599.63 1459.58 1602.69 1455 Q1605.77 1450.39 1611.58 1450.39 Z" fill="#000000" fill-rule="nonzero" fill-opacity="1" /><path clip-path="url(#clip660)" d="M1913.65 1481.64 L1929.97 1481.64 L1929.97 1485.58 L1908.02 1485.58 L1908.02 1481.64 Q1910.68 1478.89 1915.27 1474.26 Q1919.87 1469.61 1921.05 1468.27 Q1923.3 1465.74 1924.18 1464.01 Q1925.08 1462.25 1925.08 1460.56 Q1925.08 1457.8 1923.14 1456.07 Q1921.22 1454.33 1918.11 1454.33 Q1915.91 1454.33 1913.46 1455.09 Q1911.03 1455.86 1908.25 1457.41 L1908.25 1452.69 Q1911.08 1451.55 1913.53 1450.97 Q1915.98 1450.39 1918.02 1450.39 Q1923.39 1450.39 1926.59 1453.08 Q1929.78 1455.77 1929.78 1460.26 Q1929.78 1462.39 1928.97 1464.31 Q1928.18 1466.2 1926.08 1468.8 Q1925.5 1469.47 1922.4 1472.69 Q1919.29 1475.88 1913.65 1481.64 Z" fill="#000000" fill-rule="nonzero" fill-opacity="1" /><path clip-path="url(#clip660)" d="M1939.78 1479.7 L1944.66 1479.7 L1944.66 1485.58 L1939.78 1485.58 L1939.78 1479.7 Z" fill="#000000" fill-rule="nonzero" fill-opacity="1" /><path clip-path="url(#clip660)" d="M1954.9 1451.02 L1973.25 1451.02 L1973.25 1454.96 L1959.18 1454.96 L1959.18 1463.43 Q1960.2 1463.08 1961.22 1462.92 Q1962.23 1462.73 1963.25 1462.73 Q1969.04 1462.73 1972.42 1465.9 Q1975.8 1469.08 1975.8 1474.49 Q1975.8 1480.07 1972.33 1483.17 Q1968.85 1486.25 1962.53 1486.25 Q1960.36 1486.25 1958.09 1485.88 Q1955.85 1485.51 1953.44 1484.77 L1953.44 1480.07 Q1955.52 1481.2 1957.74 1481.76 Q1959.97 1482.32 1962.44 1482.32 Q1966.45 1482.32 1968.78 1480.21 Q1971.12 1478.1 1971.12 1474.49 Q1971.12 1470.88 1968.78 1468.77 Q1966.45 1466.67 1962.44 1466.67 Q1960.57 1466.67 1958.69 1467.08 Q1956.84 1467.5 1954.9 1468.38 L1954.9 1451.02 Z" fill="#000000" fill-rule="nonzero" fill-opacity="1" /><path clip-path="url(#clip660)" d="M2275.99 1466.95 Q2279.35 1467.66 2281.22 1469.93 Q2283.12 1472.2 2283.12 1475.53 Q2283.12 1480.65 2279.6 1483.45 Q2276.09 1486.25 2269.6 1486.25 Q2267.43 1486.25 2265.11 1485.81 Q2262.82 1485.39 2260.37 1484.54 L2260.37 1480.02 Q2262.31 1481.16 2264.63 1481.74 Q2266.94 1482.32 2269.46 1482.32 Q2273.86 1482.32 2276.15 1480.58 Q2278.47 1478.84 2278.47 1475.53 Q2278.47 1472.48 2276.32 1470.77 Q2274.19 1469.03 2270.37 1469.03 L2266.34 1469.03 L2266.34 1465.19 L2270.55 1465.19 Q2274 1465.19 2275.83 1463.82 Q2277.66 1462.43 2277.66 1459.84 Q2277.66 1457.18 2275.76 1455.77 Q2273.89 1454.33 2270.37 1454.33 Q2268.45 1454.33 2266.25 1454.75 Q2264.05 1455.16 2261.41 1456.04 L2261.41 1451.88 Q2264.07 1451.14 2266.39 1450.77 Q2268.72 1450.39 2270.78 1450.39 Q2276.11 1450.39 2279.21 1452.83 Q2282.31 1455.23 2282.31 1459.35 Q2282.31 1462.22 2280.67 1464.21 Q2279.03 1466.18 2275.99 1466.95 Z" fill="#000000" fill-rule="nonzero" fill-opacity="1" /><path clip-path="url(#clip660)" d="M2291.99 1479.7 L2296.87 1479.7 L2296.87 1485.58 L2291.99 1485.58 L2291.99 1479.7 Z" fill="#000000" fill-rule="nonzero" fill-opacity="1" /><path clip-path="url(#clip660)" d="M2317.06 1454.1 Q2313.45 1454.1 2311.62 1457.66 Q2309.81 1461.2 2309.81 1468.33 Q2309.81 1475.44 2311.62 1479.01 Q2313.45 1482.55 2317.06 1482.55 Q2320.69 1482.55 2322.5 1479.01 Q2324.33 1475.44 2324.33 1468.33 Q2324.33 1461.2 2322.5 1457.66 Q2320.69 1454.1 2317.06 1454.1 M2317.06 1450.39 Q2322.87 1450.39 2325.92 1455 Q2329 1459.58 2329 1468.33 Q2329 1477.06 2325.92 1481.67 Q2322.87 1486.25 2317.06 1486.25 Q2311.25 1486.25 2308.17 1481.67 Q2305.11 1477.06 2305.11 1468.33 Q2305.11 1459.58 2308.17 1455 Q2311.25 1450.39 2317.06 1450.39 Z" fill="#000000" fill-rule="nonzero" fill-opacity="1" /><path clip-path="url(#clip660)" d="M1296.43 1545.45 L1276.16 1545.45 Q1276.64 1554.96 1278.83 1559 Q1281.57 1563.97 1286.31 1563.97 Q1291.09 1563.97 1293.73 1558.97 Q1296.05 1554.58 1296.43 1545.45 M1296.34 1540.03 Q1295.45 1531 1293.73 1527.81 Q1290.99 1522.78 1286.31 1522.78 Q1281.44 1522.78 1278.86 1527.75 Q1276.83 1531.76 1276.22 1540.03 L1296.34 1540.03 M1286.31 1518.01 Q1293.95 1518.01 1298.31 1524.76 Q1302.67 1531.47 1302.67 1543.38 Q1302.67 1555.25 1298.31 1562 Q1293.95 1568.78 1286.31 1568.78 Q1278.64 1568.78 1274.31 1562 Q1269.95 1555.25 1269.95 1543.38 Q1269.95 1531.47 1274.31 1524.76 Q1278.64 1518.01 1286.31 1518.01 Z" fill="#000000" fill-rule="nonzero" fill-opacity="1" /><polyline clip-path="url(#clip660)" style="stroke:#000000; stroke-linecap:round; stroke-linejoin:round; stroke-width:4; stroke-opacity:1; fill:none" points="219.866,1423.18 219.866,123.472 "/>
<polyline clip-path="url(#clip660)" style="stroke:#000000; stroke-linecap:round; stroke-linejoin:round; stroke-width:4; stroke-opacity:1; fill:none" points="219.866,1423.18 238.764,1423.18 "/>
<polyline clip-path="url(#clip660)" style="stroke:#000000; stroke-linecap:round; stroke-linejoin:round; stroke-width:4; stroke-opacity:1; fill:none" points="219.866,1206.56 238.764,1206.56 "/>
<polyline clip-path="url(#clip660)" style="stroke:#000000; stroke-linecap:round; stroke-linejoin:round; stroke-width:4; stroke-opacity:1; fill:none" points="219.866,989.944 238.764,989.944 "/>
<polyline clip-path="url(#clip660)" style="stroke:#000000; stroke-linecap:round; stroke-linejoin:round; stroke-width:4; stroke-opacity:1; fill:none" points="219.866,773.326 238.764,773.326 "/>
<polyline clip-path="url(#clip660)" style="stroke:#000000; stroke-linecap:round; stroke-linejoin:round; stroke-width:4; stroke-opacity:1; fill:none" points="219.866,556.708 238.764,556.708 "/>
<polyline clip-path="url(#clip660)" style="stroke:#000000; stroke-linecap:round; stroke-linejoin:round; stroke-width:4; stroke-opacity:1; fill:none" points="219.866,340.09 238.764,340.09 "/>
<path clip-path="url(#clip660)" d="M126.691 1408.98 Q123.08 1408.98 121.251 1412.54 Q119.445 1416.08 119.445 1423.21 Q119.445 1430.32 121.251 1433.89 Q123.08 1437.43 126.691 1437.43 Q130.325 1437.43 132.13 1433.89 Q133.959 1430.32 133.959 1423.21 Q133.959 1416.08 132.13 1412.54 Q130.325 1408.98 126.691 1408.98 M126.691 1405.27 Q132.501 1405.27 135.556 1409.88 Q138.635 1414.46 138.635 1423.21 Q138.635 1431.94 135.556 1436.55 Q132.501 1441.13 126.691 1441.13 Q120.88 1441.13 117.802 1436.55 Q114.746 1431.94 114.746 1423.21 Q114.746 1414.46 117.802 1409.88 Q120.88 1405.27 126.691 1405.27 Z" fill="#000000" fill-rule="nonzero" fill-opacity="1" /><path clip-path="url(#clip660)" d="M146.853 1434.58 L151.737 1434.58 L151.737 1440.46 L146.853 1440.46 L146.853 1434.58 Z" fill="#000000" fill-rule="nonzero" fill-opacity="1" /><path clip-path="url(#clip660)" d="M171.922 1408.98 Q168.311 1408.98 166.482 1412.54 Q164.677 1416.08 164.677 1423.21 Q164.677 1430.32 166.482 1433.89 Q168.311 1437.43 171.922 1437.43 Q175.556 1437.43 177.362 1433.89 Q179.19 1430.32 179.19 1423.21 Q179.19 1416.08 177.362 1412.54 Q175.556 1408.98 171.922 1408.98 M171.922 1405.27 Q177.732 1405.27 180.788 1409.88 Q183.866 1414.46 183.866 1423.21 Q183.866 1431.94 180.788 1436.55 Q177.732 1441.13 171.922 1441.13 Q166.112 1441.13 163.033 1436.55 Q159.978 1431.94 159.978 1423.21 Q159.978 1414.46 163.033 1409.88 Q166.112 1405.27 171.922 1405.27 Z" fill="#000000" fill-rule="nonzero" fill-opacity="1" /><path clip-path="url(#clip660)" d="M127.917 1192.36 Q124.306 1192.36 122.478 1195.93 Q120.672 1199.47 120.672 1206.6 Q120.672 1213.7 122.478 1217.27 Q124.306 1220.81 127.917 1220.81 Q131.552 1220.81 133.357 1217.27 Q135.186 1213.7 135.186 1206.6 Q135.186 1199.47 133.357 1195.93 Q131.552 1192.36 127.917 1192.36 M127.917 1188.66 Q133.728 1188.66 136.783 1193.26 Q139.862 1197.85 139.862 1206.6 Q139.862 1215.32 136.783 1219.93 Q133.728 1224.51 127.917 1224.51 Q122.107 1224.51 119.029 1219.93 Q115.973 1215.32 115.973 1206.6 Q115.973 1197.85 119.029 1193.26 Q122.107 1188.66 127.917 1188.66 Z" fill="#000000" fill-rule="nonzero" fill-opacity="1" /><path clip-path="url(#clip660)" d="M148.079 1217.96 L152.964 1217.96 L152.964 1223.84 L148.079 1223.84 L148.079 1217.96 Z" fill="#000000" fill-rule="nonzero" fill-opacity="1" /><path clip-path="url(#clip660)" d="M163.959 1219.91 L171.598 1219.91 L171.598 1193.54 L163.288 1195.21 L163.288 1190.95 L171.552 1189.28 L176.227 1189.28 L176.227 1219.91 L183.866 1219.91 L183.866 1223.84 L163.959 1223.84 L163.959 1219.91 Z" fill="#000000" fill-rule="nonzero" fill-opacity="1" /><path clip-path="url(#clip660)" d="M128.288 975.743 Q124.677 975.743 122.848 979.307 Q121.043 982.849 121.043 989.979 Q121.043 997.085 122.848 1000.65 Q124.677 1004.19 128.288 1004.19 Q131.922 1004.19 133.728 1000.65 Q135.556 997.085 135.556 989.979 Q135.556 982.849 133.728 979.307 Q131.922 975.743 128.288 975.743 M128.288 972.039 Q134.098 972.039 137.154 976.645 Q140.232 981.229 140.232 989.979 Q140.232 998.705 137.154 1003.31 Q134.098 1007.9 128.288 1007.9 Q122.478 1007.9 119.399 1003.31 Q116.343 998.705 116.343 989.979 Q116.343 981.229 119.399 976.645 Q122.478 972.039 128.288 972.039 Z" fill="#000000" fill-rule="nonzero" fill-opacity="1" /><path clip-path="url(#clip660)" d="M148.45 1001.34 L153.334 1001.34 L153.334 1007.22 L148.45 1007.22 L148.45 1001.34 Z" fill="#000000" fill-rule="nonzero" fill-opacity="1" /><path clip-path="url(#clip660)" d="M167.547 1003.29 L183.866 1003.29 L183.866 1007.22 L161.922 1007.22 L161.922 1003.29 Q164.584 1000.53 169.167 995.905 Q173.774 991.252 174.954 989.909 Q177.2 987.386 178.079 985.65 Q178.982 983.891 178.982 982.201 Q178.982 979.446 177.038 977.71 Q175.116 975.974 172.014 975.974 Q169.815 975.974 167.362 976.738 Q164.931 977.502 162.153 979.053 L162.153 974.331 Q164.977 973.196 167.431 972.618 Q169.885 972.039 171.922 972.039 Q177.292 972.039 180.487 974.724 Q183.681 977.409 183.681 981.9 Q183.681 984.03 182.871 985.951 Q182.084 987.849 179.977 990.442 Q179.399 991.113 176.297 994.33 Q173.195 997.525 167.547 1003.29 Z" fill="#000000" fill-rule="nonzero" fill-opacity="1" /><path clip-path="url(#clip660)" d="M127.339 759.125 Q123.728 759.125 121.899 762.689 Q120.093 766.231 120.093 773.361 Q120.093 780.467 121.899 784.032 Q123.728 787.574 127.339 787.574 Q130.973 787.574 132.779 784.032 Q134.607 780.467 134.607 773.361 Q134.607 766.231 132.779 762.689 Q130.973 759.125 127.339 759.125 M127.339 755.421 Q133.149 755.421 136.204 760.027 Q139.283 764.611 139.283 773.361 Q139.283 782.088 136.204 786.694 Q133.149 791.277 127.339 791.277 Q121.529 791.277 118.45 786.694 Q115.394 782.088 115.394 773.361 Q115.394 764.611 118.45 760.027 Q121.529 755.421 127.339 755.421 Z" fill="#000000" fill-rule="nonzero" fill-opacity="1" /><path clip-path="url(#clip660)" d="M147.501 784.726 L152.385 784.726 L152.385 790.606 L147.501 790.606 L147.501 784.726 Z" fill="#000000" fill-rule="nonzero" fill-opacity="1" /><path clip-path="url(#clip660)" d="M176.737 771.972 Q180.093 772.689 181.968 774.958 Q183.866 777.226 183.866 780.56 Q183.866 785.675 180.348 788.476 Q176.829 791.277 170.348 791.277 Q168.172 791.277 165.857 790.837 Q163.565 790.421 161.112 789.564 L161.112 785.05 Q163.056 786.185 165.371 786.763 Q167.686 787.342 170.209 787.342 Q174.607 787.342 176.899 785.606 Q179.214 783.87 179.214 780.56 Q179.214 777.504 177.061 775.791 Q174.931 774.055 171.112 774.055 L167.084 774.055 L167.084 770.213 L171.297 770.213 Q174.746 770.213 176.575 768.847 Q178.403 767.458 178.403 764.865 Q178.403 762.203 176.505 760.791 Q174.63 759.356 171.112 759.356 Q169.19 759.356 166.991 759.773 Q164.792 760.189 162.153 761.069 L162.153 756.902 Q164.815 756.162 167.13 755.791 Q169.468 755.421 171.528 755.421 Q176.852 755.421 179.954 757.852 Q183.056 760.259 183.056 764.379 Q183.056 767.25 181.413 769.24 Q179.769 771.208 176.737 771.972 Z" fill="#000000" fill-rule="nonzero" fill-opacity="1" /><path clip-path="url(#clip660)" d="M126.205 542.507 Q122.593 542.507 120.765 546.072 Q118.959 549.613 118.959 556.743 Q118.959 563.849 120.765 567.414 Q122.593 570.956 126.205 570.956 Q129.839 570.956 131.644 567.414 Q133.473 563.849 133.473 556.743 Q133.473 549.613 131.644 546.072 Q129.839 542.507 126.205 542.507 M126.205 538.803 Q132.015 538.803 135.07 543.409 Q138.149 547.993 138.149 556.743 Q138.149 565.47 135.07 570.076 Q132.015 574.659 126.205 574.659 Q120.394 574.659 117.316 570.076 Q114.26 565.47 114.26 556.743 Q114.26 547.993 117.316 543.409 Q120.394 538.803 126.205 538.803 Z" fill="#000000" fill-rule="nonzero" fill-opacity="1" /><path clip-path="url(#clip660)" d="M146.366 568.108 L151.251 568.108 L151.251 573.988 L146.366 573.988 L146.366 568.108 Z" fill="#000000" fill-rule="nonzero" fill-opacity="1" /><path clip-path="url(#clip660)" d="M174.283 543.502 L162.477 561.951 L174.283 561.951 L174.283 543.502 M173.056 539.428 L178.936 539.428 L178.936 561.951 L183.866 561.951 L183.866 565.84 L178.936 565.84 L178.936 573.988 L174.283 573.988 L174.283 565.84 L158.681 565.84 L158.681 561.326 L173.056 539.428 Z" fill="#000000" fill-rule="nonzero" fill-opacity="1" /><path clip-path="url(#clip660)" d="M127.686 325.889 Q124.075 325.889 122.246 329.454 Q120.441 332.995 120.441 340.125 Q120.441 347.231 122.246 350.796 Q124.075 354.338 127.686 354.338 Q131.32 354.338 133.126 350.796 Q134.954 347.231 134.954 340.125 Q134.954 332.995 133.126 329.454 Q131.32 325.889 127.686 325.889 M127.686 322.185 Q133.496 322.185 136.552 326.792 Q139.63 331.375 139.63 340.125 Q139.63 348.852 136.552 353.458 Q133.496 358.041 127.686 358.041 Q121.876 358.041 118.797 353.458 Q115.742 348.852 115.742 340.125 Q115.742 331.375 118.797 326.792 Q121.876 322.185 127.686 322.185 Z" fill="#000000" fill-rule="nonzero" fill-opacity="1" /><path clip-path="url(#clip660)" d="M147.848 351.49 L152.732 351.49 L152.732 357.37 L147.848 357.37 L147.848 351.49 Z" fill="#000000" fill-rule="nonzero" fill-opacity="1" /><path clip-path="url(#clip660)" d="M162.964 322.81 L181.32 322.81 L181.32 326.745 L167.246 326.745 L167.246 335.217 Q168.264 334.87 169.283 334.708 Q170.302 334.523 171.32 334.523 Q177.107 334.523 180.487 337.694 Q183.866 340.866 183.866 346.282 Q183.866 351.861 180.394 354.963 Q176.922 358.041 170.602 358.041 Q168.427 358.041 166.158 357.671 Q163.913 357.301 161.505 356.56 L161.505 351.861 Q163.589 352.995 165.811 353.551 Q168.033 354.106 170.51 354.106 Q174.514 354.106 176.852 352 Q179.19 349.893 179.19 346.282 Q179.19 342.671 176.852 340.565 Q174.514 338.458 170.51 338.458 Q168.635 338.458 166.76 338.875 Q164.908 339.291 162.964 340.171 L162.964 322.81 Z" fill="#000000" fill-rule="nonzero" fill-opacity="1" /><path clip-path="url(#clip660)" d="M14.479 1027.09 L14.479 1021.24 L64.0042 1021.24 L64.0042 1027.09 L14.479 1027.09 Z" fill="#000000" fill-rule="nonzero" fill-opacity="1" /><path clip-path="url(#clip660)" d="M32.4621 995.171 Q32.4621 999.881 36.1542 1002.62 Q39.8145 1005.36 46.212 1005.36 Q52.6095 1005.36 56.3017 1002.65 Q59.9619 999.913 59.9619 995.171 Q59.9619 990.492 56.2698 987.755 Q52.5777 985.018 46.212 985.018 Q39.8781 985.018 36.186 987.755 Q32.4621 990.492 32.4621 995.171 M27.4968 995.171 Q27.4968 987.532 32.4621 983.172 Q37.4273 978.811 46.212 978.811 Q54.9649 978.811 59.9619 983.172 Q64.9272 987.532 64.9272 995.171 Q64.9272 1002.84 59.9619 1007.2 Q54.9649 1011.53 46.212 1011.53 Q37.4273 1011.53 32.4621 1007.2 Q27.4968 1002.84 27.4968 995.171 Z" fill="#000000" fill-rule="nonzero" fill-opacity="1" /><path clip-path="url(#clip660)" d="M29.7248 943.449 L35.1993 943.449 Q33.8307 945.932 33.1623 948.447 Q32.4621 950.929 32.4621 953.475 Q32.4621 959.173 36.0905 962.324 Q39.6872 965.475 46.212 965.475 Q52.7369 965.475 56.3653 962.324 Q59.9619 959.173 59.9619 953.475 Q59.9619 950.929 59.2935 948.447 Q58.5933 945.932 57.2247 943.449 L62.6355 943.449 Q63.7814 945.9 64.3543 948.542 Q64.9272 951.152 64.9272 954.112 Q64.9272 962.165 59.8664 966.907 Q54.8057 971.65 46.212 971.65 Q37.491 971.65 32.4939 966.875 Q27.4968 962.069 27.4968 953.73 Q27.4968 951.025 28.0697 948.447 Q28.6108 945.868 29.7248 943.449 Z" fill="#000000" fill-rule="nonzero" fill-opacity="1" /><path clip-path="url(#clip660)" d="M46.0847 917.064 Q46.0847 924.161 47.7079 926.899 Q49.3312 929.636 53.2461 929.636 Q56.3653 929.636 58.2114 927.599 Q60.0256 925.53 60.0256 921.997 Q60.0256 917.127 56.5881 914.199 Q53.1188 911.239 47.3897 911.239 L46.0847 911.239 L46.0847 917.064 M43.6657 905.383 L64.0042 905.383 L64.0042 911.239 L58.5933 911.239 Q61.8398 913.244 63.3994 916.236 Q64.9272 919.228 64.9272 923.557 Q64.9272 929.031 61.8716 932.278 Q58.7843 935.492 53.6281 935.492 Q47.6125 935.492 44.5569 931.482 Q41.5014 927.44 41.5014 919.451 L41.5014 911.239 L40.9285 911.239 Q36.8862 911.239 34.6901 913.913 Q32.4621 916.554 32.4621 921.36 Q32.4621 924.416 33.1941 927.312 Q33.9262 930.209 35.3903 932.882 L29.9795 932.882 Q28.7381 929.668 28.1334 926.644 Q27.4968 923.62 27.4968 920.756 Q27.4968 913.021 31.5072 909.202 Q35.5176 905.383 43.6657 905.383 Z" fill="#000000" fill-rule="nonzero" fill-opacity="1" /><path clip-path="url(#clip660)" d="M14.479 893.32 L14.479 887.463 L64.0042 887.463 L64.0042 893.32 L14.479 893.32 Z" fill="#000000" fill-rule="nonzero" fill-opacity="1" /><path clip-path="url(#clip660)" d="M14.479 836.442 L19.3487 836.442 L19.3487 842.044 Q19.3487 845.195 20.6219 846.436 Q21.895 847.646 25.2052 847.646 L28.3562 847.646 L28.3562 838.002 L32.9077 838.002 L32.9077 847.646 L64.0042 847.646 L64.0042 853.534 L32.9077 853.534 L32.9077 859.136 L28.3562 859.136 L28.3562 853.534 L25.8736 853.534 Q19.9216 853.534 17.2162 850.765 Q14.479 847.996 14.479 841.98 L14.479 836.442 Z" fill="#000000" fill-rule="nonzero" fill-opacity="1" /><path clip-path="url(#clip660)" d="M28.3562 831.54 L28.3562 825.684 L64.0042 825.684 L64.0042 831.54 L28.3562 831.54 M14.479 831.54 L14.479 825.684 L21.895 825.684 L21.895 831.54 L14.479 831.54 Z" fill="#000000" fill-rule="nonzero" fill-opacity="1" /><path clip-path="url(#clip660)" d="M14.479 813.43 L14.479 807.573 L64.0042 807.573 L64.0042 813.43 L14.479 813.43 Z" fill="#000000" fill-rule="nonzero" fill-opacity="1" /><path clip-path="url(#clip660)" d="M14.479 795.32 L14.479 789.463 L64.0042 789.463 L64.0042 795.32 L14.479 795.32 Z" fill="#000000" fill-rule="nonzero" fill-opacity="1" /><path clip-path="url(#clip660)" d="M28.3562 777.209 L28.3562 771.353 L64.0042 771.353 L64.0042 777.209 L28.3562 777.209 M14.479 777.209 L14.479 771.353 L21.895 771.353 L21.895 777.209 L14.479 777.209 Z" fill="#000000" fill-rule="nonzero" fill-opacity="1" /><path clip-path="url(#clip660)" d="M42.4881 729.466 L64.0042 729.466 L64.0042 735.323 L42.679 735.323 Q37.6183 735.323 35.1038 737.296 Q32.5894 739.269 32.5894 743.216 Q32.5894 747.959 35.6131 750.696 Q38.6368 753.433 43.8567 753.433 L64.0042 753.433 L64.0042 759.321 L28.3562 759.321 L28.3562 753.433 L33.8944 753.433 Q30.6797 751.332 29.0883 748.5 Q27.4968 745.635 27.4968 741.911 Q27.4968 735.768 31.3163 732.617 Q35.1038 729.466 42.4881 729.466 Z" fill="#000000" fill-rule="nonzero" fill-opacity="1" /><path clip-path="url(#clip660)" d="M45.7664 694.328 Q39.4007 694.328 35.8996 696.969 Q32.3984 699.579 32.3984 704.322 Q32.3984 709.032 35.8996 711.674 Q39.4007 714.284 45.7664 714.284 Q52.1003 714.284 55.6014 711.674 Q59.1026 709.032 59.1026 704.322 Q59.1026 699.579 55.6014 696.969 Q52.1003 694.328 45.7664 694.328 M59.58 688.471 Q68.683 688.471 73.1071 692.513 Q77.5631 696.556 77.5631 704.895 Q77.5631 707.982 77.0857 710.719 Q76.6401 713.457 75.6852 716.035 L69.9879 716.035 Q71.3884 713.457 72.0568 710.942 Q72.7252 708.428 72.7252 705.818 Q72.7252 700.057 69.7015 697.192 Q66.7096 694.328 60.6303 694.328 L57.7339 694.328 Q60.885 696.142 62.4446 698.975 Q64.0042 701.807 64.0042 705.754 Q64.0042 712.311 59.0071 716.321 Q54.01 720.331 45.7664 720.331 Q37.491 720.331 32.4939 716.321 Q27.4968 712.311 27.4968 705.754 Q27.4968 701.807 29.0564 698.975 Q30.616 696.142 33.7671 694.328 L28.3562 694.328 L28.3562 688.471 L59.58 688.471 Z" fill="#000000" fill-rule="nonzero" fill-opacity="1" /><path clip-path="url(#clip660)" d="M64.0042 627.87 L28.3562 638.755 L28.3562 632.453 L58.275 623.254 Q54.3283 619.435 48.8538 616.252 Q44.7479 613.833 41.1831 613.706 Q39.4962 613.642 36.3133 614.406 Q32.5257 615.297 28.3562 618.671 L28.3562 612.751 L28.3562 612.751 Q31.1889 610.555 35.1357 609.091 Q38.7641 607.754 41.2468 607.754 Q47.4851 607.754 53.0551 612.083 Q60.312 617.716 64.0042 621.631 L64.0042 627.87 Z" fill="#000000" fill-rule="nonzero" fill-opacity="1" /><path clip-path="url(#clip660)" d="M14.5426 584.487 Q21.8632 588.752 29.0246 590.821 Q36.186 592.89 43.5384 592.89 Q50.8908 592.89 58.1159 590.821 Q65.3091 588.72 72.5979 584.487 L72.5979 589.58 Q65.1182 594.354 57.8931 596.741 Q50.668 599.097 43.5384 599.097 Q36.4406 599.097 29.2474 596.741 Q22.0542 594.386 14.5426 589.58 L14.5426 584.487 Z" fill="#000000" fill-rule="nonzero" fill-opacity="1" /><path clip-path="url(#clip660)" d="M41.4059 549.189 L41.4059 569.464 Q50.9226 568.987 54.9649 566.791 Q59.9301 564.053 59.9301 559.311 Q59.9301 554.537 54.933 551.895 Q50.5407 549.571 41.4059 549.189 M35.995 549.285 Q26.9557 550.176 23.7729 551.895 Q18.744 554.632 18.744 559.311 Q18.744 564.181 23.7092 566.759 Q27.7196 568.796 35.995 569.401 L35.995 549.285 M13.9697 559.311 Q13.9697 551.672 20.7174 547.312 Q27.4332 542.951 39.337 542.951 Q51.2091 542.951 57.9567 547.312 Q64.7362 551.672 64.7362 559.311 Q64.7362 566.982 57.9567 571.31 Q51.2091 575.671 39.337 575.671 Q27.4332 575.671 20.7174 571.31 Q13.9697 566.982 13.9697 559.311 Z" fill="#000000" fill-rule="nonzero" fill-opacity="1" /><path clip-path="url(#clip660)" d="M14.5426 534.166 L14.5426 529.074 Q22.0542 524.3 29.2474 521.944 Q36.4406 519.557 43.5384 519.557 Q50.668 519.557 57.8931 521.944 Q65.1182 524.3 72.5979 529.074 L72.5979 534.166 Q65.3091 529.933 58.1159 527.864 Q50.8908 525.764 43.5384 525.764 Q36.186 525.764 29.0246 527.864 Q21.8632 529.933 14.5426 534.166 Z" fill="#000000" fill-rule="nonzero" fill-opacity="1" /><path clip-path="url(#clip660)" d="M299.612 12.096 L307.835 12.096 L307.835 48.8377 Q307.835 58.5599 311.36 62.8538 Q314.884 67.1073 322.783 67.1073 Q330.642 67.1073 334.166 62.8538 Q337.691 58.5599 337.691 48.8377 L337.691 12.096 L345.914 12.096 L345.914 49.8504 Q345.914 61.6791 340.04 67.7149 Q334.207 73.7508 322.783 73.7508 Q311.319 73.7508 305.445 67.7149 Q299.612 61.6791 299.612 49.8504 L299.612 12.096 Z" fill="#000000" fill-rule="nonzero" fill-opacity="1" /><path clip-path="url(#clip660)" d="M398.657 45.1919 L398.657 72.576 L391.203 72.576 L391.203 45.4349 Q391.203 38.994 388.691 35.7938 Q386.18 32.5936 381.157 32.5936 Q375.121 32.5936 371.637 36.4419 Q368.153 40.2903 368.153 46.9338 L368.153 72.576 L360.659 72.576 L360.659 27.2059 L368.153 27.2059 L368.153 34.2544 Q370.827 30.163 374.432 28.1376 Q378.078 26.1121 382.818 26.1121 Q390.636 26.1121 394.646 30.9732 Q398.657 35.7938 398.657 45.1919 Z" fill="#000000" fill-rule="nonzero" fill-opacity="1" /><path clip-path="url(#clip660)" d="M420.734 65.7705 L420.734 89.8329 L413.24 89.8329 L413.24 27.2059 L420.734 27.2059 L420.734 34.0924 Q423.084 30.0415 426.648 28.0971 Q430.254 26.1121 435.236 26.1121 Q443.5 26.1121 448.645 32.6746 Q453.83 39.2371 453.83 49.9314 Q453.83 60.6258 448.645 67.1883 Q443.5 73.7508 435.236 73.7508 Q430.254 73.7508 426.648 71.8063 Q423.084 69.8214 420.734 65.7705 M446.093 49.9314 Q446.093 41.7081 442.69 37.0496 Q439.328 32.3505 433.413 32.3505 Q427.499 32.3505 424.096 37.0496 Q420.734 41.7081 420.734 49.9314 Q420.734 58.1548 424.096 62.8538 Q427.499 67.5124 433.413 67.5124 Q439.328 67.5124 442.69 62.8538 Q446.093 58.1548 446.093 49.9314 Z" fill="#000000" fill-rule="nonzero" fill-opacity="1" /><path clip-path="url(#clip660)" d="M492.476 34.1734 Q491.22 33.4443 489.721 33.1202 Q488.263 32.7556 486.48 32.7556 Q480.161 32.7556 476.758 36.8875 Q473.396 40.9789 473.396 48.6757 L473.396 72.576 L465.902 72.576 L465.902 27.2059 L473.396 27.2059 L473.396 34.2544 Q475.745 30.1225 479.513 28.1376 Q483.28 26.1121 488.668 26.1121 Q489.437 26.1121 490.369 26.2337 Q491.301 26.3147 492.435 26.5172 L492.476 34.1734 Z" fill="#000000" fill-rule="nonzero" fill-opacity="1" /><path clip-path="url(#clip660)" d="M516.052 32.4315 Q510.057 32.4315 506.573 37.1306 Q503.089 41.7891 503.089 49.9314 Q503.089 58.0738 506.532 62.7728 Q510.016 67.4314 516.052 67.4314 Q522.007 67.4314 525.491 62.7323 Q528.974 58.0333 528.974 49.9314 Q528.974 41.8701 525.491 37.1711 Q522.007 32.4315 516.052 32.4315 M516.052 26.1121 Q525.774 26.1121 531.324 32.4315 Q536.874 38.7509 536.874 49.9314 Q536.874 61.0714 531.324 67.4314 Q525.774 73.7508 516.052 73.7508 Q506.289 73.7508 500.739 67.4314 Q495.23 61.0714 495.23 49.9314 Q495.23 38.7509 500.739 32.4315 Q506.289 26.1121 516.052 26.1121 Z" fill="#000000" fill-rule="nonzero" fill-opacity="1" /><path clip-path="url(#clip660)" d="M549.229 27.2059 L556.682 27.2059 L556.682 73.3862 Q556.682 82.0551 553.361 85.944 Q550.079 89.8329 542.747 89.8329 L539.912 89.8329 L539.912 83.5134 L541.897 83.5134 Q546.15 83.5134 547.689 81.5285 Q549.229 79.5841 549.229 73.3862 L549.229 27.2059 M549.229 9.54393 L556.682 9.54393 L556.682 18.9825 L549.229 18.9825 L549.229 9.54393 Z" fill="#000000" fill-rule="nonzero" fill-opacity="1" /><path clip-path="url(#clip660)" d="M611.086 48.0275 L611.086 51.6733 L576.815 51.6733 Q577.302 59.3701 581.433 63.421 Q585.606 67.4314 593.019 67.4314 Q597.313 67.4314 601.323 66.3781 Q605.374 65.3249 609.344 63.2184 L609.344 70.267 Q605.334 71.9684 601.121 72.8596 Q596.908 73.7508 592.573 73.7508 Q581.717 73.7508 575.357 67.4314 Q569.038 61.1119 569.038 50.3365 Q569.038 39.1965 575.033 32.6746 Q581.069 26.1121 591.277 26.1121 Q600.432 26.1121 605.739 32.0264 Q611.086 37.9003 611.086 48.0275 M603.632 45.84 Q603.551 39.7232 600.189 36.0774 Q596.867 32.4315 591.358 32.4315 Q585.12 32.4315 581.352 35.9558 Q577.626 39.4801 577.059 45.8805 L603.632 45.84 Z" fill="#000000" fill-rule="nonzero" fill-opacity="1" /><path clip-path="url(#clip660)" d="M655.97 28.9478 L655.97 35.9153 Q652.81 34.1734 649.61 33.3227 Q646.451 32.4315 643.21 32.4315 Q635.959 32.4315 631.948 37.0496 Q627.938 41.6271 627.938 49.9314 Q627.938 58.2358 631.948 62.8538 Q635.959 67.4314 643.21 67.4314 Q646.451 67.4314 649.61 66.5807 Q652.81 65.6895 655.97 63.9476 L655.97 70.8341 Q652.851 72.2924 649.489 73.0216 Q646.167 73.7508 642.4 73.7508 Q632.151 73.7508 626.115 67.3098 Q620.079 60.8689 620.079 49.9314 Q620.079 38.832 626.155 32.472 Q632.272 26.1121 642.886 26.1121 Q646.329 26.1121 649.61 26.8413 Q652.891 27.5299 655.97 28.9478 Z" fill="#000000" fill-rule="nonzero" fill-opacity="1" /><path clip-path="url(#clip660)" d="M676.306 14.324 L676.306 27.2059 L691.659 27.2059 L691.659 32.9987 L676.306 32.9987 L676.306 57.6282 Q676.306 63.1779 677.805 64.7578 Q679.344 66.3376 684.002 66.3376 L691.659 66.3376 L691.659 72.576 L684.002 72.576 Q675.374 72.576 672.093 69.3758 Q668.812 66.1351 668.812 57.6282 L668.812 32.9987 L663.343 32.9987 L663.343 27.2059 L668.812 27.2059 L668.812 14.324 L676.306 14.324 Z" fill="#000000" fill-rule="nonzero" fill-opacity="1" /><path clip-path="url(#clip660)" d="M740.269 48.0275 L740.269 51.6733 L705.999 51.6733 Q706.485 59.3701 710.617 63.421 Q714.789 67.4314 722.202 67.4314 Q726.496 67.4314 730.507 66.3781 Q734.558 65.3249 738.528 63.2184 L738.528 70.267 Q734.517 71.9684 730.304 72.8596 Q726.091 73.7508 721.757 73.7508 Q710.9 73.7508 704.54 67.4314 Q698.221 61.1119 698.221 50.3365 Q698.221 39.1965 704.216 32.6746 Q710.252 26.1121 720.461 26.1121 Q729.616 26.1121 734.922 32.0264 Q740.269 37.9003 740.269 48.0275 M732.816 45.84 Q732.735 39.7232 729.373 36.0774 Q726.051 32.4315 720.542 32.4315 Q714.303 32.4315 710.536 35.9558 Q706.809 39.4801 706.242 45.8805 L732.816 45.84 Z" fill="#000000" fill-rule="nonzero" fill-opacity="1" /><path clip-path="url(#clip660)" d="M782.358 34.0924 L782.358 9.54393 L789.812 9.54393 L789.812 72.576 L782.358 72.576 L782.358 65.7705 Q780.009 69.8214 776.404 71.8063 Q772.839 73.7508 767.816 73.7508 Q759.592 73.7508 754.407 67.1883 Q749.262 60.6258 749.262 49.9314 Q749.262 39.2371 754.407 32.6746 Q759.592 26.1121 767.816 26.1121 Q772.839 26.1121 776.404 28.0971 Q780.009 30.0415 782.358 34.0924 M756.959 49.9314 Q756.959 58.1548 760.321 62.8538 Q763.724 67.5124 769.639 67.5124 Q775.553 67.5124 778.956 62.8538 Q782.358 58.1548 782.358 49.9314 Q782.358 41.7081 778.956 37.0496 Q775.553 32.3505 769.639 32.3505 Q763.724 32.3505 760.321 37.0496 Q756.959 41.7081 756.959 49.9314 Z" fill="#000000" fill-rule="nonzero" fill-opacity="1" /><path clip-path="url(#clip660)" d="M840.57 72.576 L826.716 27.2059 L834.737 27.2059 L846.444 65.2844 Q851.305 60.2613 855.356 53.2937 Q858.434 48.068 858.596 43.531 Q858.677 41.384 857.705 37.3331 Q856.571 32.5126 852.277 27.2059 L859.812 27.2059 L859.812 27.2059 Q862.607 30.8112 864.47 35.8343 Q866.172 40.4523 866.172 43.612 Q866.172 51.5518 860.662 58.6409 Q853.492 67.877 848.51 72.576 L840.57 72.576 Z" fill="#000000" fill-rule="nonzero" fill-opacity="1" /><path clip-path="url(#clip660)" d="M905.222 34.9026 L957.155 34.9026 L957.155 41.7081 L905.222 41.7081 L905.222 34.9026 M905.222 51.4303 L957.155 51.4303 L957.155 58.3168 L905.222 58.3168 L905.222 51.4303 Z" fill="#000000" fill-rule="nonzero" fill-opacity="1" /><path clip-path="url(#clip660)" d="M1008.24 65.6895 L1036.8 65.6895 L1036.8 72.576 L998.393 72.576 L998.393 65.6895 Q1003.05 60.8689 1011.07 52.7671 Q1019.13 44.6248 1021.2 42.2752 Q1025.13 37.8598 1026.67 34.8216 Q1028.25 31.7429 1028.25 28.7857 Q1028.25 23.9651 1024.85 20.927 Q1021.48 17.8888 1016.06 17.8888 Q1012.21 17.8888 1007.91 19.2256 Q1003.66 20.5624 998.798 23.2765 L998.798 15.0127 Q1003.74 13.0277 1008.03 12.015 Q1012.33 11.0023 1015.89 11.0023 Q1025.29 11.0023 1030.88 15.7013 Q1036.47 20.4004 1036.47 28.2591 Q1036.47 31.9859 1035.05 35.3482 Q1033.68 38.6699 1029.99 43.2069 Q1028.98 44.3817 1023.55 50.0125 Q1018.12 55.6027 1008.24 65.6895 Z" fill="#000000" fill-rule="nonzero" fill-opacity="1" /><path clip-path="url(#clip660)" d="M1066.16 12.096 L1073.05 12.096 L1051.99 80.2727 L1045.1 80.2727 L1066.16 12.096 Z" fill="#000000" fill-rule="nonzero" fill-opacity="1" /><path clip-path="url(#clip660)" d="M1082 12.096 L1114.13 12.096 L1114.13 18.9825 L1089.5 18.9825 L1089.5 33.8088 Q1091.28 33.2012 1093.06 32.9176 Q1094.85 32.5936 1096.63 32.5936 Q1106.75 32.5936 1112.67 38.1433 Q1118.58 43.6931 1118.58 53.1722 Q1118.58 62.9348 1112.51 68.3631 Q1106.43 73.7508 1095.37 73.7508 Q1091.56 73.7508 1087.59 73.1026 Q1083.66 72.4545 1079.45 71.1582 L1079.45 62.9348 Q1083.1 64.9198 1086.99 65.892 Q1090.88 66.8642 1095.21 66.8642 Q1102.22 66.8642 1106.31 63.1779 Q1110.4 59.4916 1110.4 53.1722 Q1110.4 46.8528 1106.31 43.1664 Q1102.22 39.4801 1095.21 39.4801 Q1091.93 39.4801 1088.65 40.2093 Q1085.41 40.9384 1082 42.4778 L1082 12.096 Z" fill="#000000" fill-rule="nonzero" fill-opacity="1" /><path clip-path="url(#clip660)" d="M1177.93 9.62495 Q1172.5 18.942 1169.87 28.0566 Q1167.23 37.1711 1167.23 46.5287 Q1167.23 55.8863 1169.87 65.0818 Q1172.54 74.2369 1177.93 83.5134 L1171.45 83.5134 Q1165.37 73.9938 1162.33 64.7983 Q1159.34 55.6027 1159.34 46.5287 Q1159.34 37.4952 1162.33 28.3401 Q1165.33 19.1851 1171.45 9.62495 L1177.93 9.62495 Z" fill="#000000" fill-rule="nonzero" fill-opacity="1" /><path clip-path="url(#clip660)" d="M1192.71 12.096 L1203.73 12.096 L1230.55 62.6918 L1230.55 12.096 L1238.49 12.096 L1238.49 72.576 L1227.47 72.576 L1200.65 21.9802 L1200.65 72.576 L1192.71 72.576 L1192.71 12.096 Z" fill="#000000" fill-rule="nonzero" fill-opacity="1" /><path clip-path="url(#clip660)" d="M1281.79 34.9026 L1333.73 34.9026 L1333.73 41.7081 L1281.79 41.7081 L1281.79 34.9026 M1281.79 51.4303 L1333.73 51.4303 L1333.73 58.3168 L1281.79 58.3168 L1281.79 51.4303 Z" fill="#000000" fill-rule="nonzero" fill-opacity="1" /><path clip-path="url(#clip660)" d="M1395.26 43.8551 Q1389.43 43.8551 1386.06 46.9743 Q1382.74 50.0935 1382.74 55.5622 Q1382.74 61.0309 1386.06 64.1501 Q1389.43 67.2693 1395.26 67.2693 Q1401.09 67.2693 1404.46 64.1501 Q1407.82 60.9904 1407.82 55.5622 Q1407.82 50.0935 1404.46 46.9743 Q1401.13 43.8551 1395.26 43.8551 M1387.08 40.3713 Q1381.81 39.075 1378.85 35.4697 Q1375.94 31.8644 1375.94 26.6793 Q1375.94 19.4281 1381.08 15.2152 Q1386.27 11.0023 1395.26 11.0023 Q1404.29 11.0023 1409.44 15.2152 Q1414.58 19.4281 1414.58 26.6793 Q1414.58 31.8644 1411.63 35.4697 Q1408.71 39.075 1403.48 40.3713 Q1409.4 41.7486 1412.68 45.759 Q1416 49.7694 1416 55.5622 Q1416 64.3527 1410.61 69.0517 Q1405.27 73.7508 1395.26 73.7508 Q1385.25 73.7508 1379.87 69.0517 Q1374.52 64.3527 1374.52 55.5622 Q1374.52 49.7694 1377.84 45.759 Q1381.16 41.7486 1387.08 40.3713 M1384.08 27.4489 Q1384.08 32.148 1387 34.7811 Q1389.95 37.4142 1395.26 37.4142 Q1400.53 37.4142 1403.48 34.7811 Q1406.48 32.148 1406.48 27.4489 Q1406.48 22.7499 1403.48 20.1168 Q1400.53 17.4837 1395.26 17.4837 Q1389.95 17.4837 1387 20.1168 Q1384.08 22.7499 1384.08 27.4489 Z" fill="#000000" fill-rule="nonzero" fill-opacity="1" /><path clip-path="url(#clip660)" d="M1431.39 62.2867 L1439.94 62.2867 L1439.94 69.2543 L1433.3 82.2172 L1428.07 82.2172 L1431.39 69.2543 L1431.39 62.2867 Z" fill="#000000" fill-rule="nonzero" fill-opacity="1" /><path clip-path="url(#clip660)" d="M1518.81 14.0809 L1518.81 22.0612 Q1514.15 19.8332 1510.02 18.7395 Q1505.89 17.6457 1502.04 17.6457 Q1495.36 17.6457 1491.71 20.2383 Q1488.11 22.8309 1488.11 27.611 Q1488.11 31.6214 1490.5 33.6873 Q1492.93 35.7128 1499.65 36.9686 L1504.59 37.9813 Q1513.75 39.7232 1518.08 44.1387 Q1522.46 48.5136 1522.46 55.8863 Q1522.46 64.6767 1516.54 69.2137 Q1510.67 73.7508 1499.29 73.7508 Q1494.99 73.7508 1490.13 72.7785 Q1485.31 71.8063 1480.13 69.9024 L1480.13 61.4765 Q1485.11 64.2716 1489.89 65.6895 Q1494.67 67.1073 1499.29 67.1073 Q1506.3 67.1073 1510.1 64.3527 Q1513.91 61.598 1513.91 56.4939 Q1513.91 52.0379 1511.16 49.5264 Q1508.44 47.0148 1502.2 45.759 L1497.22 44.7868 Q1488.07 42.9639 1483.97 39.075 Q1479.88 35.1862 1479.88 28.2591 Q1479.88 20.2383 1485.51 15.6203 Q1491.19 11.0023 1501.11 11.0023 Q1505.36 11.0023 1509.78 11.7719 Q1514.19 12.5416 1518.81 14.0809 Z" fill="#000000" fill-rule="nonzero" fill-opacity="1" /><path clip-path="url(#clip660)" d="M1572.61 45.1919 L1572.61 72.576 L1565.16 72.576 L1565.16 45.4349 Q1565.16 38.994 1562.64 35.7938 Q1560.13 32.5936 1555.11 32.5936 Q1549.07 32.5936 1545.59 36.4419 Q1542.11 40.2903 1542.11 46.9338 L1542.11 72.576 L1534.61 72.576 L1534.61 9.54393 L1542.11 9.54393 L1542.11 34.2544 Q1544.78 30.163 1548.38 28.1376 Q1552.03 26.1121 1556.77 26.1121 Q1564.59 26.1121 1568.6 30.9732 Q1572.61 35.7938 1572.61 45.1919 Z" fill="#000000" fill-rule="nonzero" fill-opacity="1" /><path clip-path="url(#clip660)" d="M1626.28 48.0275 L1626.28 51.6733 L1592.01 51.6733 Q1592.5 59.3701 1596.63 63.421 Q1600.8 67.4314 1608.22 67.4314 Q1612.51 67.4314 1616.52 66.3781 Q1620.57 65.3249 1624.54 63.2184 L1624.54 70.267 Q1620.53 71.9684 1616.32 72.8596 Q1612.11 73.7508 1607.77 73.7508 Q1596.91 73.7508 1590.55 67.4314 Q1584.23 61.1119 1584.23 50.3365 Q1584.23 39.1965 1590.23 32.6746 Q1596.27 26.1121 1606.47 26.1121 Q1615.63 26.1121 1620.94 32.0264 Q1626.28 37.9003 1626.28 48.0275 M1618.83 45.84 Q1618.75 39.7232 1615.39 36.0774 Q1612.06 32.4315 1606.56 32.4315 Q1600.32 32.4315 1596.55 35.9558 Q1592.82 39.4801 1592.26 45.8805 L1618.83 45.84 Z" fill="#000000" fill-rule="nonzero" fill-opacity="1" /><path clip-path="url(#clip660)" d="M1664.81 34.1734 Q1663.55 33.4443 1662.05 33.1202 Q1660.59 32.7556 1658.81 32.7556 Q1652.49 32.7556 1649.09 36.8875 Q1645.73 40.9789 1645.73 48.6757 L1645.73 72.576 L1638.23 72.576 L1638.23 27.2059 L1645.73 27.2059 L1645.73 34.2544 Q1648.08 30.1225 1651.84 28.1376 Q1655.61 26.1121 1661 26.1121 Q1661.77 26.1121 1662.7 26.2337 Q1663.63 26.3147 1664.77 26.5172 L1664.81 34.1734 Z" fill="#000000" fill-rule="nonzero" fill-opacity="1" /><path clip-path="url(#clip660)" d="M1706.49 35.9153 Q1709.29 30.8922 1713.18 28.5022 Q1717.06 26.1121 1722.33 26.1121 Q1729.42 26.1121 1733.27 31.0947 Q1737.12 36.0368 1737.12 45.1919 L1737.12 72.576 L1729.62 72.576 L1729.62 45.4349 Q1729.62 38.913 1727.31 35.7533 Q1725 32.5936 1720.26 32.5936 Q1714.47 32.5936 1711.11 36.4419 Q1707.75 40.2903 1707.75 46.9338 L1707.75 72.576 L1700.25 72.576 L1700.25 45.4349 Q1700.25 38.8725 1697.94 35.7533 Q1695.63 32.5936 1690.81 32.5936 Q1685.1 32.5936 1681.74 36.4824 Q1678.38 40.3308 1678.38 46.9338 L1678.38 72.576 L1670.88 72.576 L1670.88 27.2059 L1678.38 27.2059 L1678.38 34.2544 Q1680.93 30.082 1684.49 28.0971 Q1688.06 26.1121 1692.96 26.1121 Q1697.9 26.1121 1701.35 28.6237 Q1704.83 31.1352 1706.49 35.9153 Z" fill="#000000" fill-rule="nonzero" fill-opacity="1" /><path clip-path="url(#clip660)" d="M1772.6 49.7694 Q1763.57 49.7694 1760.08 51.8354 Q1756.6 53.9013 1756.6 58.8839 Q1756.6 62.8538 1759.19 65.2034 Q1761.83 67.5124 1766.32 67.5124 Q1772.52 67.5124 1776.25 63.1374 Q1780.02 58.7219 1780.02 51.4303 L1780.02 49.7694 L1772.6 49.7694 M1787.47 46.6907 L1787.47 72.576 L1780.02 72.576 L1780.02 65.6895 Q1777.46 69.8214 1773.66 71.8063 Q1769.85 73.7508 1764.34 73.7508 Q1757.37 73.7508 1753.24 69.8619 Q1749.15 65.9325 1749.15 59.3701 Q1749.15 51.7138 1754.25 47.825 Q1759.4 43.9361 1769.56 43.9361 L1780.02 43.9361 L1780.02 43.2069 Q1780.02 38.0623 1776.61 35.2672 Q1773.25 32.4315 1767.13 32.4315 Q1763.24 32.4315 1759.56 33.3632 Q1755.87 34.295 1752.47 36.1584 L1752.47 29.2718 Q1756.56 27.692 1760.41 26.9223 Q1764.26 26.1121 1767.9 26.1121 Q1777.75 26.1121 1782.61 31.2163 Q1787.47 36.3204 1787.47 46.6907 Z" fill="#000000" fill-rule="nonzero" fill-opacity="1" /><path clip-path="url(#clip660)" d="M1840.54 45.1919 L1840.54 72.576 L1833.08 72.576 L1833.08 45.4349 Q1833.08 38.994 1830.57 35.7938 Q1828.06 32.5936 1823.04 32.5936 Q1817 32.5936 1813.52 36.4419 Q1810.03 40.2903 1810.03 46.9338 L1810.03 72.576 L1802.54 72.576 L1802.54 27.2059 L1810.03 27.2059 L1810.03 34.2544 Q1812.71 30.163 1816.31 28.1376 Q1819.96 26.1121 1824.7 26.1121 Q1832.51 26.1121 1836.53 30.9732 Q1840.54 35.7938 1840.54 45.1919 Z" fill="#000000" fill-rule="nonzero" fill-opacity="1" /><path clip-path="url(#clip660)" d="M1851.64 46.9338 L1885.01 46.9338 L1885.01 52.7671 L1851.64 52.7671 L1851.64 46.9338 Z" fill="#000000" fill-rule="nonzero" fill-opacity="1" /><path clip-path="url(#clip660)" d="M1897.21 12.096 L1909.4 12.096 L1924.83 53.2532 L1940.35 12.096 L1952.54 12.096 L1952.54 72.576 L1944.56 72.576 L1944.56 19.4686 L1928.97 60.9499 L1920.74 60.9499 L1905.15 19.4686 L1905.15 72.576 L1897.21 72.576 L1897.21 12.096 Z" fill="#000000" fill-rule="nonzero" fill-opacity="1" /><path clip-path="url(#clip660)" d="M1986.04 32.4315 Q1980.05 32.4315 1976.56 37.1306 Q1973.08 41.7891 1973.08 49.9314 Q1973.08 58.0738 1976.52 62.7728 Q1980.01 67.4314 1986.04 67.4314 Q1992 67.4314 1995.48 62.7323 Q1998.97 58.0333 1998.97 49.9314 Q1998.97 41.8701 1995.48 37.1711 Q1992 32.4315 1986.04 32.4315 M1986.04 26.1121 Q1995.77 26.1121 2001.32 32.4315 Q2006.87 38.7509 2006.87 49.9314 Q2006.87 61.0714 2001.32 67.4314 Q1995.77 73.7508 1986.04 73.7508 Q1976.28 73.7508 1970.73 67.4314 Q1965.22 61.0714 1965.22 49.9314 Q1965.22 38.7509 1970.73 32.4315 Q1976.28 26.1121 1986.04 26.1121 Z" fill="#000000" fill-rule="nonzero" fill-opacity="1" /><path clip-path="url(#clip660)" d="M2045.51 34.1734 Q2044.26 33.4443 2042.76 33.1202 Q2041.3 32.7556 2039.52 32.7556 Q2033.2 32.7556 2029.79 36.8875 Q2026.43 40.9789 2026.43 48.6757 L2026.43 72.576 L2018.94 72.576 L2018.94 27.2059 L2026.43 27.2059 L2026.43 34.2544 Q2028.78 30.1225 2032.55 28.1376 Q2036.32 26.1121 2041.7 26.1121 Q2042.47 26.1121 2043.4 26.2337 Q2044.34 26.3147 2045.47 26.5172 L2045.51 34.1734 Z" fill="#000000" fill-rule="nonzero" fill-opacity="1" /><path clip-path="url(#clip660)" d="M2078.16 34.1734 Q2076.91 33.4443 2075.41 33.1202 Q2073.95 32.7556 2072.17 32.7556 Q2065.85 32.7556 2062.44 36.8875 Q2059.08 40.9789 2059.08 48.6757 L2059.08 72.576 L2051.59 72.576 L2051.59 27.2059 L2059.08 27.2059 L2059.08 34.2544 Q2061.43 30.1225 2065.2 28.1376 Q2068.97 26.1121 2074.35 26.1121 Q2075.12 26.1121 2076.06 26.2337 Q2076.99 26.3147 2078.12 26.5172 L2078.16 34.1734 Z" fill="#000000" fill-rule="nonzero" fill-opacity="1" /><path clip-path="url(#clip660)" d="M2085.98 27.2059 L2093.43 27.2059 L2093.43 72.576 L2085.98 72.576 L2085.98 27.2059 M2085.98 9.54393 L2093.43 9.54393 L2093.43 18.9825 L2085.98 18.9825 L2085.98 9.54393 Z" fill="#000000" fill-rule="nonzero" fill-opacity="1" /><path clip-path="url(#clip660)" d="M2137.95 28.5427 L2137.95 35.5912 Q2134.79 33.9709 2131.39 33.1607 Q2127.99 32.3505 2124.34 32.3505 Q2118.79 32.3505 2116 34.0519 Q2113.24 35.7533 2113.24 39.156 Q2113.24 41.7486 2115.23 43.2475 Q2117.21 44.7058 2123.21 46.0426 L2125.76 46.6097 Q2133.7 48.3111 2137.02 51.4303 Q2140.38 54.509 2140.38 60.0587 Q2140.38 66.3781 2135.36 70.0644 Q2130.38 73.7508 2121.63 73.7508 Q2117.98 73.7508 2114.01 73.0216 Q2110.08 72.3329 2105.71 70.9151 L2105.71 63.2184 Q2109.84 65.3654 2113.85 66.4591 Q2117.86 67.5124 2121.79 67.5124 Q2127.06 67.5124 2129.89 65.73 Q2132.73 63.9071 2132.73 60.6258 Q2132.73 57.5877 2130.66 55.9673 Q2128.64 54.3469 2121.71 52.8481 L2119.12 52.2405 Q2112.19 50.7821 2109.11 47.7845 Q2106.03 44.7463 2106.03 39.4801 Q2106.03 33.0797 2110.57 29.5959 Q2115.11 26.1121 2123.45 26.1121 Q2127.58 26.1121 2131.23 26.7198 Q2134.87 27.3274 2137.95 28.5427 Z" fill="#000000" fill-rule="nonzero" fill-opacity="1" /><path clip-path="url(#clip660)" d="M2169.83 32.4315 Q2163.84 32.4315 2160.35 37.1306 Q2156.87 41.7891 2156.87 49.9314 Q2156.87 58.0738 2160.31 62.7728 Q2163.8 67.4314 2169.83 67.4314 Q2175.79 67.4314 2179.27 62.7323 Q2182.76 58.0333 2182.76 49.9314 Q2182.76 41.8701 2179.27 37.1711 Q2175.79 32.4315 2169.83 32.4315 M2169.83 26.1121 Q2179.56 26.1121 2185.11 32.4315 Q2190.66 38.7509 2190.66 49.9314 Q2190.66 61.0714 2185.11 67.4314 Q2179.56 73.7508 2169.83 73.7508 Q2160.07 73.7508 2154.52 67.4314 Q2149.01 61.0714 2149.01 49.9314 Q2149.01 38.7509 2154.52 32.4315 Q2160.07 26.1121 2169.83 26.1121 Z" fill="#000000" fill-rule="nonzero" fill-opacity="1" /><path clip-path="url(#clip660)" d="M2240.72 45.1919 L2240.72 72.576 L2233.27 72.576 L2233.27 45.4349 Q2233.27 38.994 2230.76 35.7938 Q2228.25 32.5936 2223.22 32.5936 Q2217.19 32.5936 2213.7 36.4419 Q2210.22 40.2903 2210.22 46.9338 L2210.22 72.576 L2202.73 72.576 L2202.73 27.2059 L2210.22 27.2059 L2210.22 34.2544 Q2212.89 30.163 2216.5 28.1376 Q2220.15 26.1121 2224.89 26.1121 Q2232.7 26.1121 2236.71 30.9732 Q2240.72 35.7938 2240.72 45.1919 Z" fill="#000000" fill-rule="nonzero" fill-opacity="1" /><path clip-path="url(#clip660)" d="M2254.42 9.62495 L2260.9 9.62495 Q2266.97 19.1851 2269.97 28.3401 Q2273.01 37.4952 2273.01 46.5287 Q2273.01 55.6027 2269.97 64.7983 Q2266.97 73.9938 2260.9 83.5134 L2254.42 83.5134 Q2259.8 74.2369 2262.44 65.0818 Q2265.11 55.8863 2265.11 46.5287 Q2265.11 37.1711 2262.44 28.0566 Q2259.8 18.942 2254.42 9.62495 Z" fill="#000000" fill-rule="nonzero" fill-opacity="1" /><polyline clip-path="url(#clip661)" style="stroke:#009af9; stroke-linecap:round; stroke-linejoin:round; stroke-width:8; stroke-opacity:1; fill:none" points="280.231,441.121 425.27,568.492 501.354,645.435 562.93,724.457 616.518,508.186 664.865,602.025 709.455,537.299 751.201,684.946 790.712,547.697 828.424,458.277 864.659,522.742 899.664,539.639 933.636,487.13 966.734,518.583 999.092,497.788 1030.82,645.435 1062.01,663.111 1092.76,547.697 1123.13,508.186 1153.2,551.076 1183.03,601.765 1212.67,525.342 1242.18,639.196 1271.61,545.617 1301.01,508.186 1330.45,639.976 1359.96,732.775 1389.6,401.09 1419.42,468.415 1449.49,558.094 1479.86,487.39 1510.61,470.754 1541.8,632.958 1573.53,464.515 1605.89,512.345 1638.99,595.526 1672.96,534.96 1707.96,526.901 1744.2,561.734 1781.91,597.606 1821.42,504.027 1863.17,614.242 1907.76,449.959 1956.1,720.298 2009.69,539.379 2071.27,576.81 2147.35,583.829 2292.39,528.981 "/>
<circle clip-path="url(#clip661)" cx="280.231" cy="441.121" r="10.8" fill="#009af9" fill-rule="evenodd" fill-opacity="1" stroke="#000000" stroke-opacity="1" stroke-width="3.2"/>
<circle clip-path="url(#clip661)" cx="425.27" cy="568.492" r="10.8" fill="#009af9" fill-rule="evenodd" fill-opacity="1" stroke="#000000" stroke-opacity="1" stroke-width="3.2"/>
<circle clip-path="url(#clip661)" cx="501.354" cy="645.435" r="10.8" fill="#009af9" fill-rule="evenodd" fill-opacity="1" stroke="#000000" stroke-opacity="1" stroke-width="3.2"/>
<circle clip-path="url(#clip661)" cx="562.93" cy="724.457" r="10.8" fill="#009af9" fill-rule="evenodd" fill-opacity="1" stroke="#000000" stroke-opacity="1" stroke-width="3.2"/>
<circle clip-path="url(#clip661)" cx="616.518" cy="508.186" r="10.8" fill="#009af9" fill-rule="evenodd" fill-opacity="1" stroke="#000000" stroke-opacity="1" stroke-width="3.2"/>
<circle clip-path="url(#clip661)" cx="664.865" cy="602.025" r="10.8" fill="#009af9" fill-rule="evenodd" fill-opacity="1" stroke="#000000" stroke-opacity="1" stroke-width="3.2"/>
<circle clip-path="url(#clip661)" cx="709.455" cy="537.299" r="10.8" fill="#009af9" fill-rule="evenodd" fill-opacity="1" stroke="#000000" stroke-opacity="1" stroke-width="3.2"/>
<circle clip-path="url(#clip661)" cx="751.201" cy="684.946" r="10.8" fill="#009af9" fill-rule="evenodd" fill-opacity="1" stroke="#000000" stroke-opacity="1" stroke-width="3.2"/>
<circle clip-path="url(#clip661)" cx="790.712" cy="547.697" r="10.8" fill="#009af9" fill-rule="evenodd" fill-opacity="1" stroke="#000000" stroke-opacity="1" stroke-width="3.2"/>
<circle clip-path="url(#clip661)" cx="828.424" cy="458.277" r="10.8" fill="#009af9" fill-rule="evenodd" fill-opacity="1" stroke="#000000" stroke-opacity="1" stroke-width="3.2"/>
<circle clip-path="url(#clip661)" cx="864.659" cy="522.742" r="10.8" fill="#009af9" fill-rule="evenodd" fill-opacity="1" stroke="#000000" stroke-opacity="1" stroke-width="3.2"/>
<circle clip-path="url(#clip661)" cx="899.664" cy="539.639" r="10.8" fill="#009af9" fill-rule="evenodd" fill-opacity="1" stroke="#000000" stroke-opacity="1" stroke-width="3.2"/>
<circle clip-path="url(#clip661)" cx="933.636" cy="487.13" r="10.8" fill="#009af9" fill-rule="evenodd" fill-opacity="1" stroke="#000000" stroke-opacity="1" stroke-width="3.2"/>
<circle clip-path="url(#clip661)" cx="966.734" cy="518.583" r="10.8" fill="#009af9" fill-rule="evenodd" fill-opacity="1" stroke="#000000" stroke-opacity="1" stroke-width="3.2"/>
<circle clip-path="url(#clip661)" cx="999.092" cy="497.788" r="10.8" fill="#009af9" fill-rule="evenodd" fill-opacity="1" stroke="#000000" stroke-opacity="1" stroke-width="3.2"/>
<circle clip-path="url(#clip661)" cx="1030.82" cy="645.435" r="10.8" fill="#009af9" fill-rule="evenodd" fill-opacity="1" stroke="#000000" stroke-opacity="1" stroke-width="3.2"/>
<circle clip-path="url(#clip661)" cx="1062.01" cy="663.111" r="10.8" fill="#009af9" fill-rule="evenodd" fill-opacity="1" stroke="#000000" stroke-opacity="1" stroke-width="3.2"/>
<circle clip-path="url(#clip661)" cx="1092.76" cy="547.697" r="10.8" fill="#009af9" fill-rule="evenodd" fill-opacity="1" stroke="#000000" stroke-opacity="1" stroke-width="3.2"/>
<circle clip-path="url(#clip661)" cx="1123.13" cy="508.186" r="10.8" fill="#009af9" fill-rule="evenodd" fill-opacity="1" stroke="#000000" stroke-opacity="1" stroke-width="3.2"/>
<circle clip-path="url(#clip661)" cx="1153.2" cy="551.076" r="10.8" fill="#009af9" fill-rule="evenodd" fill-opacity="1" stroke="#000000" stroke-opacity="1" stroke-width="3.2"/>
<circle clip-path="url(#clip661)" cx="1183.03" cy="601.765" r="10.8" fill="#009af9" fill-rule="evenodd" fill-opacity="1" stroke="#000000" stroke-opacity="1" stroke-width="3.2"/>
<circle clip-path="url(#clip661)" cx="1212.67" cy="525.342" r="10.8" fill="#009af9" fill-rule="evenodd" fill-opacity="1" stroke="#000000" stroke-opacity="1" stroke-width="3.2"/>
<circle clip-path="url(#clip661)" cx="1242.18" cy="639.196" r="10.8" fill="#009af9" fill-rule="evenodd" fill-opacity="1" stroke="#000000" stroke-opacity="1" stroke-width="3.2"/>
<circle clip-path="url(#clip661)" cx="1271.61" cy="545.617" r="10.8" fill="#009af9" fill-rule="evenodd" fill-opacity="1" stroke="#000000" stroke-opacity="1" stroke-width="3.2"/>
<circle clip-path="url(#clip661)" cx="1301.01" cy="508.186" r="10.8" fill="#009af9" fill-rule="evenodd" fill-opacity="1" stroke="#000000" stroke-opacity="1" stroke-width="3.2"/>
<circle clip-path="url(#clip661)" cx="1330.45" cy="639.976" r="10.8" fill="#009af9" fill-rule="evenodd" fill-opacity="1" stroke="#000000" stroke-opacity="1" stroke-width="3.2"/>
<circle clip-path="url(#clip661)" cx="1359.96" cy="732.775" r="10.8" fill="#009af9" fill-rule="evenodd" fill-opacity="1" stroke="#000000" stroke-opacity="1" stroke-width="3.2"/>
<circle clip-path="url(#clip661)" cx="1389.6" cy="401.09" r="10.8" fill="#009af9" fill-rule="evenodd" fill-opacity="1" stroke="#000000" stroke-opacity="1" stroke-width="3.2"/>
<circle clip-path="url(#clip661)" cx="1419.42" cy="468.415" r="10.8" fill="#009af9" fill-rule="evenodd" fill-opacity="1" stroke="#000000" stroke-opacity="1" stroke-width="3.2"/>
<circle clip-path="url(#clip661)" cx="1449.49" cy="558.094" r="10.8" fill="#009af9" fill-rule="evenodd" fill-opacity="1" stroke="#000000" stroke-opacity="1" stroke-width="3.2"/>
<circle clip-path="url(#clip661)" cx="1479.86" cy="487.39" r="10.8" fill="#009af9" fill-rule="evenodd" fill-opacity="1" stroke="#000000" stroke-opacity="1" stroke-width="3.2"/>
<circle clip-path="url(#clip661)" cx="1510.61" cy="470.754" r="10.8" fill="#009af9" fill-rule="evenodd" fill-opacity="1" stroke="#000000" stroke-opacity="1" stroke-width="3.2"/>
<circle clip-path="url(#clip661)" cx="1541.8" cy="632.958" r="10.8" fill="#009af9" fill-rule="evenodd" fill-opacity="1" stroke="#000000" stroke-opacity="1" stroke-width="3.2"/>
<circle clip-path="url(#clip661)" cx="1573.53" cy="464.515" r="10.8" fill="#009af9" fill-rule="evenodd" fill-opacity="1" stroke="#000000" stroke-opacity="1" stroke-width="3.2"/>
<circle clip-path="url(#clip661)" cx="1605.89" cy="512.345" r="10.8" fill="#009af9" fill-rule="evenodd" fill-opacity="1" stroke="#000000" stroke-opacity="1" stroke-width="3.2"/>
<circle clip-path="url(#clip661)" cx="1638.99" cy="595.526" r="10.8" fill="#009af9" fill-rule="evenodd" fill-opacity="1" stroke="#000000" stroke-opacity="1" stroke-width="3.2"/>
<circle clip-path="url(#clip661)" cx="1672.96" cy="534.96" r="10.8" fill="#009af9" fill-rule="evenodd" fill-opacity="1" stroke="#000000" stroke-opacity="1" stroke-width="3.2"/>
<circle clip-path="url(#clip661)" cx="1707.96" cy="526.901" r="10.8" fill="#009af9" fill-rule="evenodd" fill-opacity="1" stroke="#000000" stroke-opacity="1" stroke-width="3.2"/>
<circle clip-path="url(#clip661)" cx="1744.2" cy="561.734" r="10.8" fill="#009af9" fill-rule="evenodd" fill-opacity="1" stroke="#000000" stroke-opacity="1" stroke-width="3.2"/>
<circle clip-path="url(#clip661)" cx="1781.91" cy="597.606" r="10.8" fill="#009af9" fill-rule="evenodd" fill-opacity="1" stroke="#000000" stroke-opacity="1" stroke-width="3.2"/>
<circle clip-path="url(#clip661)" cx="1821.42" cy="504.027" r="10.8" fill="#009af9" fill-rule="evenodd" fill-opacity="1" stroke="#000000" stroke-opacity="1" stroke-width="3.2"/>
<circle clip-path="url(#clip661)" cx="1863.17" cy="614.242" r="10.8" fill="#009af9" fill-rule="evenodd" fill-opacity="1" stroke="#000000" stroke-opacity="1" stroke-width="3.2"/>
<circle clip-path="url(#clip661)" cx="1907.76" cy="449.959" r="10.8" fill="#009af9" fill-rule="evenodd" fill-opacity="1" stroke="#000000" stroke-opacity="1" stroke-width="3.2"/>
<circle clip-path="url(#clip661)" cx="1956.1" cy="720.298" r="10.8" fill="#009af9" fill-rule="evenodd" fill-opacity="1" stroke="#000000" stroke-opacity="1" stroke-width="3.2"/>
<circle clip-path="url(#clip661)" cx="2009.69" cy="539.379" r="10.8" fill="#009af9" fill-rule="evenodd" fill-opacity="1" stroke="#000000" stroke-opacity="1" stroke-width="3.2"/>
<circle clip-path="url(#clip661)" cx="2071.27" cy="576.81" r="10.8" fill="#009af9" fill-rule="evenodd" fill-opacity="1" stroke="#000000" stroke-opacity="1" stroke-width="3.2"/>
<circle clip-path="url(#clip661)" cx="2147.35" cy="583.829" r="10.8" fill="#009af9" fill-rule="evenodd" fill-opacity="1" stroke="#000000" stroke-opacity="1" stroke-width="3.2"/>
<circle clip-path="url(#clip661)" cx="2292.39" cy="528.981" r="10.8" fill="#009af9" fill-rule="evenodd" fill-opacity="1" stroke="#000000" stroke-opacity="1" stroke-width="3.2"/>
<polyline clip-path="url(#clip661)" style="stroke:#e26f46; stroke-linecap:round; stroke-linejoin:round; stroke-width:4; stroke-opacity:1; fill:none" stroke-dasharray="16, 10" points="-1913.02,556.708 4485.65,556.708 "/>
<path clip-path="url(#clip660)" d="M1840.13 322.316 L2281.66 322.316 L2281.66 166.796 L1840.13 166.796  Z" fill="#ffffff" fill-rule="evenodd" fill-opacity="1"/>
<polyline clip-path="url(#clip660)" style="stroke:#000000; stroke-linecap:round; stroke-linejoin:round; stroke-width:4; stroke-opacity:1; fill:none" points="1840.13,322.316 2281.66,322.316 2281.66,166.796 1840.13,166.796 1840.13,322.316 "/>
<polyline clip-path="url(#clip660)" style="stroke:#009af9; stroke-linecap:round; stroke-linejoin:round; stroke-width:8; stroke-opacity:1; fill:none" points="1863.83,218.636 2006.02,218.636 "/>
<circle clip-path="url(#clip660)" cx="1934.93" cy="218.636" r="19.7486" fill="#009af9" fill-rule="evenodd" fill-opacity="1" stroke="#000000" stroke-opacity="1" stroke-width="5.85143"/>
<path clip-path="url(#clip660)" d="M2050.07 214.967 Q2051.67 212.096 2053.89 210.731 Q2056.11 209.365 2059.12 209.365 Q2063.17 209.365 2065.37 212.212 Q2067.57 215.036 2067.57 220.268 L2067.57 235.916 L2063.29 235.916 L2063.29 220.407 Q2063.29 216.68 2061.97 214.874 Q2060.65 213.069 2057.94 213.069 Q2054.63 213.069 2052.71 215.268 Q2050.79 217.467 2050.79 221.263 L2050.79 235.916 L2046.5 235.916 L2046.5 220.407 Q2046.5 216.657 2045.18 214.874 Q2043.86 213.069 2041.11 213.069 Q2037.85 213.069 2035.92 215.291 Q2034 217.49 2034 221.263 L2034 235.916 L2029.72 235.916 L2029.72 209.99 L2034 209.99 L2034 214.018 Q2035.46 211.633 2037.5 210.499 Q2039.54 209.365 2042.34 209.365 Q2045.16 209.365 2047.13 210.8 Q2049.12 212.235 2050.07 214.967 Z" fill="#000000" fill-rule="nonzero" fill-opacity="1" /><path clip-path="url(#clip660)" d="M2098.24 221.888 L2098.24 223.971 L2078.66 223.971 Q2078.93 228.369 2081.3 230.684 Q2083.68 232.976 2087.92 232.976 Q2090.37 232.976 2092.66 232.374 Q2094.98 231.772 2097.24 230.569 L2097.24 234.596 Q2094.95 235.568 2092.55 236.078 Q2090.14 236.587 2087.66 236.587 Q2081.46 236.587 2077.82 232.976 Q2074.21 229.365 2074.21 223.207 Q2074.21 216.842 2077.64 213.115 Q2081.09 209.365 2086.92 209.365 Q2092.15 209.365 2095.18 212.745 Q2098.24 216.101 2098.24 221.888 M2093.98 220.638 Q2093.93 217.143 2092.01 215.059 Q2090.11 212.976 2086.97 212.976 Q2083.4 212.976 2081.25 214.99 Q2079.12 217.004 2078.8 220.661 L2093.98 220.638 Z" fill="#000000" fill-rule="nonzero" fill-opacity="1" /><path clip-path="url(#clip660)" d="M2117.01 222.883 Q2111.85 222.883 2109.86 224.064 Q2107.87 225.244 2107.87 228.092 Q2107.87 230.36 2109.35 231.703 Q2110.86 233.022 2113.42 233.022 Q2116.97 233.022 2119.1 230.522 Q2121.25 227.999 2121.25 223.832 L2121.25 222.883 L2117.01 222.883 M2125.51 221.124 L2125.51 235.916 L2121.25 235.916 L2121.25 231.981 Q2119.79 234.342 2117.61 235.476 Q2115.44 236.587 2112.29 236.587 Q2108.31 236.587 2105.95 234.365 Q2103.61 232.119 2103.61 228.369 Q2103.61 223.994 2106.53 221.772 Q2109.47 219.55 2115.28 219.55 L2121.25 219.55 L2121.25 219.133 Q2121.25 216.194 2119.3 214.596 Q2117.38 212.976 2113.89 212.976 Q2111.67 212.976 2109.56 213.508 Q2107.45 214.041 2105.51 215.106 L2105.51 211.17 Q2107.85 210.268 2110.04 209.828 Q2112.24 209.365 2114.33 209.365 Q2119.95 209.365 2122.73 212.282 Q2125.51 215.198 2125.51 221.124 Z" fill="#000000" fill-rule="nonzero" fill-opacity="1" /><path clip-path="url(#clip660)" d="M2150.81 210.754 L2150.81 214.782 Q2149 213.856 2147.06 213.393 Q2145.11 212.93 2143.03 212.93 Q2139.86 212.93 2138.26 213.902 Q2136.69 214.874 2136.69 216.819 Q2136.69 218.3 2137.82 219.157 Q2138.96 219.99 2142.38 220.754 L2143.84 221.078 Q2148.38 222.05 2150.28 223.832 Q2152.2 225.592 2152.2 228.763 Q2152.2 232.374 2149.33 234.481 Q2146.48 236.587 2141.48 236.587 Q2139.4 236.587 2137.13 236.17 Q2134.88 235.777 2132.38 234.967 L2132.38 230.569 Q2134.74 231.795 2137.04 232.42 Q2139.33 233.022 2141.57 233.022 Q2144.58 233.022 2146.2 232.004 Q2147.82 230.962 2147.82 229.087 Q2147.82 227.351 2146.64 226.425 Q2145.48 225.499 2141.53 224.643 L2140.04 224.295 Q2136.09 223.462 2134.33 221.749 Q2132.57 220.013 2132.57 217.004 Q2132.57 213.346 2135.16 211.356 Q2137.75 209.365 2142.52 209.365 Q2144.88 209.365 2146.97 209.712 Q2149.05 210.059 2150.81 210.754 Z" fill="#000000" fill-rule="nonzero" fill-opacity="1" /><path clip-path="url(#clip660)" d="M2158.54 225.684 L2158.54 209.99 L2162.8 209.99 L2162.8 225.522 Q2162.8 229.203 2164.23 231.055 Q2165.67 232.883 2168.54 232.883 Q2171.99 232.883 2173.98 230.684 Q2175.99 228.485 2175.99 224.689 L2175.99 209.99 L2180.25 209.99 L2180.25 235.916 L2175.99 235.916 L2175.99 231.934 Q2174.44 234.295 2172.38 235.453 Q2170.35 236.587 2167.64 236.587 Q2163.17 236.587 2160.85 233.809 Q2158.54 231.031 2158.54 225.684 M2169.26 209.365 L2169.26 209.365 Z" fill="#000000" fill-rule="nonzero" fill-opacity="1" /><path clip-path="url(#clip660)" d="M2204.05 213.971 Q2203.33 213.555 2202.47 213.37 Q2201.64 213.161 2200.62 213.161 Q2197.01 213.161 2195.07 215.522 Q2193.15 217.86 2193.15 222.258 L2193.15 235.916 L2188.86 235.916 L2188.86 209.99 L2193.15 209.99 L2193.15 214.018 Q2194.49 211.657 2196.64 210.522 Q2198.79 209.365 2201.87 209.365 Q2202.31 209.365 2202.85 209.434 Q2203.38 209.481 2204.03 209.596 L2204.05 213.971 Z" fill="#000000" fill-rule="nonzero" fill-opacity="1" /><path clip-path="url(#clip660)" d="M2229.65 221.888 L2229.65 223.971 L2210.07 223.971 Q2210.35 228.369 2212.71 230.684 Q2215.09 232.976 2219.33 232.976 Q2221.78 232.976 2224.07 232.374 Q2226.39 231.772 2228.66 230.569 L2228.66 234.596 Q2226.36 235.568 2223.96 236.078 Q2221.55 236.587 2219.07 236.587 Q2212.87 236.587 2209.23 232.976 Q2205.62 229.365 2205.62 223.207 Q2205.62 216.842 2209.05 213.115 Q2212.5 209.365 2218.33 209.365 Q2223.56 209.365 2226.6 212.745 Q2229.65 216.101 2229.65 221.888 M2225.39 220.638 Q2225.35 217.143 2223.42 215.059 Q2221.53 212.976 2218.38 212.976 Q2214.81 212.976 2212.66 214.99 Q2210.53 217.004 2210.21 220.661 L2225.39 220.638 Z" fill="#000000" fill-rule="nonzero" fill-opacity="1" /><path clip-path="url(#clip660)" d="M2253.7 213.925 L2253.7 199.897 L2257.96 199.897 L2257.96 235.916 L2253.7 235.916 L2253.7 232.027 Q2252.36 234.342 2250.3 235.476 Q2248.26 236.587 2245.39 236.587 Q2240.69 236.587 2237.73 232.837 Q2234.79 229.087 2234.79 222.976 Q2234.79 216.865 2237.73 213.115 Q2240.69 209.365 2245.39 209.365 Q2248.26 209.365 2250.3 210.499 Q2252.36 211.61 2253.7 213.925 M2239.19 222.976 Q2239.19 227.675 2241.11 230.36 Q2243.05 233.022 2246.43 233.022 Q2249.81 233.022 2251.76 230.36 Q2253.7 227.675 2253.7 222.976 Q2253.7 218.277 2251.76 215.615 Q2249.81 212.93 2246.43 212.93 Q2243.05 212.93 2241.11 215.615 Q2239.19 218.277 2239.19 222.976 Z" fill="#000000" fill-rule="nonzero" fill-opacity="1" /><polyline clip-path="url(#clip660)" style="stroke:#e26f46; stroke-linecap:round; stroke-linejoin:round; stroke-width:4; stroke-opacity:1; fill:none" stroke-dasharray="16, 10" points="1863.83,270.476 2006.02,270.476 "/>
<path clip-path="url(#clip660)" d="M2037.64 287.756 L2029.72 261.83 L2034.3 261.83 L2040.99 283.589 Q2043.77 280.719 2046.09 276.737 Q2047.85 273.751 2047.94 271.159 Q2047.99 269.932 2047.43 267.617 Q2046.78 264.862 2044.33 261.83 L2048.63 261.83 L2048.63 261.83 Q2050.23 263.89 2051.3 266.76 Q2052.27 269.399 2052.27 271.205 Q2052.27 275.742 2049.12 279.793 Q2045.02 285.071 2042.17 287.756 L2037.64 287.756 Z" fill="#000000" fill-rule="nonzero" fill-opacity="1" /><path clip-path="url(#clip660)" d="M2074.58 266.228 L2104.26 266.228 L2104.26 270.117 L2074.58 270.117 L2074.58 266.228 M2074.58 275.672 L2104.26 275.672 L2104.26 279.608 L2074.58 279.608 L2074.58 275.672 Z" fill="#000000" fill-rule="nonzero" fill-opacity="1" /><path clip-path="url(#clip660)" d="M2133.45 283.821 L2149.77 283.821 L2149.77 287.756 L2127.82 287.756 L2127.82 283.821 Q2130.48 281.066 2135.07 276.436 Q2139.67 271.784 2140.85 270.441 Q2143.1 267.918 2143.98 266.182 Q2144.88 264.423 2144.88 262.733 Q2144.88 259.978 2142.94 258.242 Q2141.02 256.506 2137.92 256.506 Q2135.72 256.506 2133.26 257.27 Q2130.83 258.034 2128.05 259.585 L2128.05 254.862 Q2130.88 253.728 2133.33 253.149 Q2135.79 252.571 2137.82 252.571 Q2143.19 252.571 2146.39 255.256 Q2149.58 257.941 2149.58 262.432 Q2149.58 264.561 2148.77 266.483 Q2147.98 268.381 2145.88 270.973 Q2145.3 271.645 2142.2 274.862 Q2139.1 278.057 2133.45 283.821 Z" fill="#000000" fill-rule="nonzero" fill-opacity="1" /><path clip-path="url(#clip660)" d="M2166.55 253.196 L2170.48 253.196 L2158.45 292.154 L2154.51 292.154 L2166.55 253.196 Z" fill="#000000" fill-rule="nonzero" fill-opacity="1" /><path clip-path="url(#clip660)" d="M2175.6 253.196 L2193.96 253.196 L2193.96 257.131 L2179.88 257.131 L2179.88 265.603 Q2180.9 265.256 2181.92 265.094 Q2182.94 264.909 2183.96 264.909 Q2189.74 264.909 2193.12 268.08 Q2196.5 271.251 2196.5 276.668 Q2196.5 282.246 2193.03 285.348 Q2189.56 288.427 2183.24 288.427 Q2181.06 288.427 2178.79 288.057 Q2176.55 287.686 2174.14 286.946 L2174.14 282.246 Q2176.23 283.381 2178.45 283.936 Q2180.67 284.492 2183.15 284.492 Q2187.15 284.492 2189.49 282.385 Q2191.83 280.279 2191.83 276.668 Q2191.83 273.057 2189.49 270.95 Q2187.15 268.844 2183.15 268.844 Q2181.27 268.844 2179.4 269.26 Q2177.54 269.677 2175.6 270.557 L2175.6 253.196 Z" fill="#000000" fill-rule="nonzero" fill-opacity="1" /></svg>
