<?xml version="1.0" encoding="utf-8"?>
<svg xmlns="http://www.w3.org/2000/svg" xmlns:xlink="http://www.w3.org/1999/xlink" width="600" height="400" viewBox="0 0 2400 1600">
<defs>
  <clipPath id="clip080">
    <rect x="0" y="0" width="2400" height="1600"/>
  </clipPath>
</defs>
<path clip-path="url(#clip080)" d="M0 1600 L2400 1600 L2400 0 L0 0  Z" fill="#ffffff" fill-rule="evenodd" fill-opacity="1"/>
<defs>
  <clipPath id="clip081">
    <rect x="249" y="123" width="2104" height="1301"/>
  </clipPath>
</defs>
<path clip-path="url(#clip080)" d="M249.542 1423.18 L2352.76 1423.18 L2352.76 123.472 L249.542 123.472  Z" fill="#ffffff" fill-rule="evenodd" fill-opacity="1"/>
<polyline clip-path="url(#clip081)" style="stroke:#000000; stroke-linecap:round; stroke-linejoin:round; stroke-width:2; stroke-opacity:0.1; fill:none" points="556.161,1423.18 556.161,123.472 "/>
<polyline clip-path="url(#clip081)" style="stroke:#000000; stroke-linecap:round; stroke-linejoin:round; stroke-width:2; stroke-opacity:0.1; fill:none" points="904.027,1423.18 904.027,123.472 "/>
<polyline clip-path="url(#clip081)" style="stroke:#000000; stroke-linecap:round; stroke-linejoin:round; stroke-width:2; stroke-opacity:0.1; fill:none" points="1251.89,1423.18 1251.89,123.472 "/>
<polyline clip-path="url(#clip081)" style="stroke:#000000; stroke-linecap:round; stroke-linejoin:round; stroke-width:2; stroke-opacity:0.1; fill:none" points="1599.76,1423.18 1599.76,123.472 "/>
<polyline clip-path="url(#clip081)" style="stroke:#000000; stroke-linecap:round; stroke-linejoin:round; stroke-width:2; stroke-opacity:0.1; fill:none" points="1947.63,1423.18 1947.63,123.472 "/>
<polyline clip-path="url(#clip081)" style="stroke:#000000; stroke-linecap:round; stroke-linejoin:round; stroke-width:2; stroke-opacity:0.1; fill:none" points="2295.49,1423.18 2295.49,123.472 "/>
<polyline clip-path="url(#clip081)" style="stroke:#000000; stroke-linecap:round; stroke-linejoin:round; stroke-width:2; stroke-opacity:0.1; fill:none" points="249.542,1339.61 2352.76,1339.61 "/>
<polyline clip-path="url(#clip081)" style="stroke:#000000; stroke-linecap:round; stroke-linejoin:round; stroke-width:2; stroke-opacity:0.1; fill:none" points="249.542,1128.43 2352.76,1128.43 "/>
<polyline clip-path="url(#clip081)" style="stroke:#000000; stroke-linecap:round; stroke-linejoin:round; stroke-width:2; stroke-opacity:0.1; fill:none" points="249.542,917.242 2352.76,917.242 "/>
<polyline clip-path="url(#clip081)" style="stroke:#000000; stroke-linecap:round; stroke-linejoin:round; stroke-width:2; stroke-opacity:0.1; fill:none" points="249.542,706.056 2352.76,706.056 "/>
<polyline clip-path="url(#clip081)" style="stroke:#000000; stroke-linecap:round; stroke-linejoin:round; stroke-width:2; stroke-opacity:0.1; fill:none" points="249.542,494.87 2352.76,494.87 "/>
<polyline clip-path="url(#clip081)" style="stroke:#000000; stroke-linecap:round; stroke-linejoin:round; stroke-width:2; stroke-opacity:0.1; fill:none" points="249.542,283.684 2352.76,283.684 "/>
<polyline clip-path="url(#clip080)" style="stroke:#000000; stroke-linecap:round; stroke-linejoin:round; stroke-width:4; stroke-opacity:1; fill:none" points="249.542,1423.18 2352.76,1423.18 "/>
<polyline clip-path="url(#clip080)" style="stroke:#000000; stroke-linecap:round; stroke-linejoin:round; stroke-width:4; stroke-opacity:1; fill:none" points="556.161,1423.18 556.161,1404.28 "/>
<polyline clip-path="url(#clip080)" style="stroke:#000000; stroke-linecap:round; stroke-linejoin:round; stroke-width:4; stroke-opacity:1; fill:none" points="904.027,1423.18 904.027,1404.28 "/>
<polyline clip-path="url(#clip080)" style="stroke:#000000; stroke-linecap:round; stroke-linejoin:round; stroke-width:4; stroke-opacity:1; fill:none" points="1251.89,1423.18 1251.89,1404.28 "/>
<polyline clip-path="url(#clip080)" style="stroke:#000000; stroke-linecap:round; stroke-linejoin:round; stroke-width:4; stroke-opacity:1; fill:none" points="1599.76,1423.18 1599.76,1404.28 "/>
<polyline clip-path="url(#clip080)" style="stroke:#000000; stroke-linecap:round; stroke-linejoin:round; stroke-width:4; stroke-opacity:1; fill:none" points="1947.63,1423.18 1947.63,1404.28 "/>
<polyline clip-path="url(#clip080)" style="stroke:#000000; stroke-linecap:round; stroke-linejoin:round; stroke-width:4; stroke-opacity:1; fill:none" points="2295.49,1423.18 2295.49,1404.28 "/>
<path clip-path="url(#clip080)" d="M534.043 1454.1 Q530.432 1454.1 528.603 1457.66 Q526.798 1461.2 526.798 1468.33 Q526.798 1475.44 528.603 1479.01 Q530.432 1482.55 534.043 1482.55 Q537.677 1482.55 539.483 1479.01 Q541.311 1475.44 541.311 1468.33 Q541.311 1461.2 539.483 1457.66 Q537.677 1454.1 534.043 1454.1 M534.043 1450.39 Q539.853 1450.39 542.909 1455 Q545.987 1459.58 545.987 1468.33 Q545.987 1477.06 542.909 1481.67 Q539.853 1486.25 534.043 1486.25 Q528.233 1486.25 525.154 1481.67 Q522.099 1477.06 522.099 1468.33 Q522.099 1459.58 525.154 1455 Q528.233 1450.39 534.043 1450.39 Z" fill="#000000" fill-rule="nonzero" fill-opacity="1" /><path clip-path="url(#clip080)" d="M554.205 1479.7 L559.089 1479.7 L559.089 1485.58 L554.205 1485.58 L554.205 1479.7 Z" fill="#000000" fill-rule="nonzero" fill-opacity="1" /><path clip-path="url(#clip080)" d="M569.321 1451.02 L587.677 1451.02 L587.677 1454.96 L573.603 1454.96 L573.603 1463.43 Q574.621 1463.08 575.64 1462.92 Q576.659 1462.73 577.677 1462.73 Q583.464 1462.73 586.844 1465.9 Q590.223 1469.08 590.223 1474.49 Q590.223 1480.07 586.751 1483.17 Q583.279 1486.25 576.959 1486.25 Q574.784 1486.25 572.515 1485.88 Q570.27 1485.51 567.862 1484.77 L567.862 1480.07 Q569.946 1481.2 572.168 1481.76 Q574.39 1482.32 576.867 1482.32 Q580.871 1482.32 583.209 1480.21 Q585.547 1478.1 585.547 1474.49 Q585.547 1470.88 583.209 1468.77 Q580.871 1466.67 576.867 1466.67 Q574.992 1466.67 573.117 1467.08 Q571.265 1467.5 569.321 1468.38 L569.321 1451.02 Z" fill="#000000" fill-rule="nonzero" fill-opacity="1" /><path clip-path="url(#clip080)" d="M871.18 1481.64 L878.819 1481.64 L878.819 1455.28 L870.509 1456.95 L870.509 1452.69 L878.773 1451.02 L883.449 1451.02 L883.449 1481.64 L891.088 1481.64 L891.088 1485.58 L871.18 1485.58 L871.18 1481.64 Z" fill="#000000" fill-rule="nonzero" fill-opacity="1" /><path clip-path="url(#clip080)" d="M900.532 1479.7 L905.416 1479.7 L905.416 1485.58 L900.532 1485.58 L900.532 1479.7 Z" fill="#000000" fill-rule="nonzero" fill-opacity="1" /><path clip-path="url(#clip080)" d="M925.601 1454.1 Q921.99 1454.1 920.161 1457.66 Q918.356 1461.2 918.356 1468.33 Q918.356 1475.44 920.161 1479.01 Q921.99 1482.55 925.601 1482.55 Q929.235 1482.55 931.041 1479.01 Q932.87 1475.44 932.87 1468.33 Q932.87 1461.2 931.041 1457.66 Q929.235 1454.1 925.601 1454.1 M925.601 1450.39 Q931.411 1450.39 934.467 1455 Q937.546 1459.58 937.546 1468.33 Q937.546 1477.06 934.467 1481.67 Q931.411 1486.25 925.601 1486.25 Q919.791 1486.25 916.712 1481.67 Q913.657 1477.06 913.657 1468.33 Q913.657 1459.58 916.712 1455 Q919.791 1450.39 925.601 1450.39 Z" fill="#000000" fill-rule="nonzero" fill-opacity="1" /><path clip-path="url(#clip080)" d="M1219.54 1481.64 L1227.18 1481.64 L1227.18 1455.28 L1218.87 1456.95 L1218.87 1452.69 L1227.14 1451.02 L1231.81 1451.02 L1231.81 1481.64 L1239.45 1481.64 L1239.45 1485.58 L1219.54 1485.58 L1219.54 1481.64 Z" fill="#000000" fill-rule="nonzero" fill-opacity="1" /><path clip-path="url(#clip080)" d="M1248.9 1479.7 L1253.78 1479.7 L1253.78 1485.58 L1248.9 1485.58 L1248.9 1479.7 Z" fill="#000000" fill-rule="nonzero" fill-opacity="1" /><path clip-path="url(#clip080)" d="M1264.01 1451.02 L1282.37 1451.02 L1282.37 1454.96 L1268.29 1454.96 L1268.29 1463.43 Q1269.31 1463.08 1270.33 1462.92 Q1271.35 1462.73 1272.37 1462.73 Q1278.16 1462.73 1281.53 1465.9 Q1284.91 1469.08 1284.91 1474.49 Q1284.91 1480.07 1281.44 1483.17 Q1277.97 1486.25 1271.65 1486.25 Q1269.47 1486.25 1267.21 1485.88 Q1264.96 1485.51 1262.55 1484.77 L1262.55 1480.07 Q1264.64 1481.2 1266.86 1481.76 Q1269.08 1482.32 1271.56 1482.32 Q1275.56 1482.32 1277.9 1480.21 Q1280.24 1478.1 1280.24 1474.49 Q1280.24 1470.88 1277.9 1468.77 Q1275.56 1466.67 1271.56 1466.67 Q1269.68 1466.67 1267.81 1467.08 Q1265.96 1467.5 1264.01 1468.38 L1264.01 1451.02 Z" fill="#000000" fill-rule="nonzero" fill-opacity="1" /><path clip-path="url(#clip080)" d="M1571 1481.64 L1587.32 1481.64 L1587.32 1485.58 L1565.37 1485.58 L1565.37 1481.64 Q1568.04 1478.89 1572.62 1474.26 Q1577.23 1469.61 1578.41 1468.27 Q1580.65 1465.74 1581.53 1464.01 Q1582.43 1462.25 1582.43 1460.56 Q1582.43 1457.8 1580.49 1456.07 Q1578.57 1454.33 1575.47 1454.33 Q1573.27 1454.33 1570.81 1455.09 Q1568.38 1455.86 1565.61 1457.41 L1565.61 1452.69 Q1568.43 1451.55 1570.88 1450.97 Q1573.34 1450.39 1575.37 1450.39 Q1580.74 1450.39 1583.94 1453.08 Q1587.13 1455.77 1587.13 1460.26 Q1587.13 1462.39 1586.32 1464.31 Q1585.54 1466.2 1583.43 1468.8 Q1582.85 1469.47 1579.75 1472.69 Q1576.65 1475.88 1571 1481.64 Z" fill="#000000" fill-rule="nonzero" fill-opacity="1" /><path clip-path="url(#clip080)" d="M1597.13 1479.7 L1602.02 1479.7 L1602.02 1485.58 L1597.13 1485.58 L1597.13 1479.7 Z" fill="#000000" fill-rule="nonzero" fill-opacity="1" /><path clip-path="url(#clip080)" d="M1622.2 1454.1 Q1618.59 1454.1 1616.76 1457.66 Q1614.96 1461.2 1614.96 1468.33 Q1614.96 1475.44 1616.76 1479.01 Q1618.59 1482.55 1622.2 1482.55 Q1625.84 1482.55 1627.64 1479.01 Q1629.47 1475.44 1629.47 1468.33 Q1629.47 1461.2 1627.64 1457.66 Q1625.84 1454.1 1622.2 1454.1 M1622.2 1450.39 Q1628.01 1450.39 1631.07 1455 Q1634.15 1459.58 1634.15 1468.33 Q1634.15 1477.06 1631.07 1481.67 Q1628.01 1486.25 1622.2 1486.25 Q1616.39 1486.25 1613.31 1481.67 Q1610.26 1477.06 1610.26 1468.33 Q1610.26 1459.58 1613.31 1455 Q1616.39 1450.39 1622.2 1450.39 Z" fill="#000000" fill-rule="nonzero" fill-opacity="1" /><path clip-path="url(#clip080)" d="M1919.36 1481.64 L1935.68 1481.64 L1935.68 1485.58 L1913.74 1485.58 L1913.74 1481.64 Q1916.4 1478.89 1920.98 1474.26 Q1925.59 1469.61 1926.77 1468.27 Q1929.02 1465.74 1929.89 1464.01 Q1930.8 1462.25 1930.8 1460.56 Q1930.8 1457.8 1928.85 1456.07 Q1926.93 1454.33 1923.83 1454.33 Q1921.63 1454.33 1919.18 1455.09 Q1916.75 1455.86 1913.97 1457.41 L1913.97 1452.69 Q1916.79 1451.55 1919.25 1450.97 Q1921.7 1450.39 1923.74 1450.39 Q1929.11 1450.39 1932.3 1453.08 Q1935.5 1455.77 1935.5 1460.26 Q1935.5 1462.39 1934.69 1464.31 Q1933.9 1466.2 1931.79 1468.8 Q1931.21 1469.47 1928.11 1472.69 Q1925.01 1475.88 1919.36 1481.64 Z" fill="#000000" fill-rule="nonzero" fill-opacity="1" /><path clip-path="url(#clip080)" d="M1945.5 1479.7 L1950.38 1479.7 L1950.38 1485.58 L1945.5 1485.58 L1945.5 1479.7 Z" fill="#000000" fill-rule="nonzero" fill-opacity="1" /><path clip-path="url(#clip080)" d="M1960.61 1451.02 L1978.97 1451.02 L1978.97 1454.96 L1964.89 1454.96 L1964.89 1463.43 Q1965.91 1463.08 1966.93 1462.92 Q1967.95 1462.73 1968.97 1462.73 Q1974.76 1462.73 1978.14 1465.9 Q1981.52 1469.08 1981.52 1474.49 Q1981.52 1480.07 1978.04 1483.17 Q1974.57 1486.25 1968.25 1486.25 Q1966.08 1486.25 1963.81 1485.88 Q1961.56 1485.51 1959.15 1484.77 L1959.15 1480.07 Q1961.24 1481.2 1963.46 1481.76 Q1965.68 1482.32 1968.16 1482.32 Q1972.16 1482.32 1974.5 1480.21 Q1976.84 1478.1 1976.84 1474.49 Q1976.84 1470.88 1974.5 1468.77 Q1972.16 1466.67 1968.16 1466.67 Q1966.28 1466.67 1964.41 1467.08 Q1962.56 1467.5 1960.61 1468.38 L1960.61 1451.02 Z" fill="#000000" fill-rule="nonzero" fill-opacity="1" /><path clip-path="url(#clip080)" d="M2276.8 1466.95 Q2280.16 1467.66 2282.03 1469.93 Q2283.93 1472.2 2283.93 1475.53 Q2283.93 1480.65 2280.41 1483.45 Q2276.89 1486.25 2270.41 1486.25 Q2268.24 1486.25 2265.92 1485.81 Q2263.63 1485.39 2261.18 1484.54 L2261.18 1480.02 Q2263.12 1481.16 2265.43 1481.74 Q2267.75 1482.32 2270.27 1482.32 Q2274.67 1482.32 2276.96 1480.58 Q2279.28 1478.84 2279.28 1475.53 Q2279.28 1472.48 2277.12 1470.77 Q2275 1469.03 2271.18 1469.03 L2267.15 1469.03 L2267.15 1465.19 L2271.36 1465.19 Q2274.81 1465.19 2276.64 1463.82 Q2278.47 1462.43 2278.47 1459.84 Q2278.47 1457.18 2276.57 1455.77 Q2274.69 1454.33 2271.18 1454.33 Q2269.25 1454.33 2267.06 1454.75 Q2264.86 1455.16 2262.22 1456.04 L2262.22 1451.88 Q2264.88 1451.14 2267.19 1450.77 Q2269.53 1450.39 2271.59 1450.39 Q2276.92 1450.39 2280.02 1452.83 Q2283.12 1455.23 2283.12 1459.35 Q2283.12 1462.22 2281.48 1464.21 Q2279.83 1466.18 2276.8 1466.95 Z" fill="#000000" fill-rule="nonzero" fill-opacity="1" /><path clip-path="url(#clip080)" d="M2292.8 1479.7 L2297.68 1479.7 L2297.68 1485.58 L2292.8 1485.58 L2292.8 1479.7 Z" fill="#000000" fill-rule="nonzero" fill-opacity="1" /><path clip-path="url(#clip080)" d="M2317.87 1454.1 Q2314.25 1454.1 2312.43 1457.66 Q2310.62 1461.2 2310.62 1468.33 Q2310.62 1475.44 2312.43 1479.01 Q2314.25 1482.55 2317.87 1482.55 Q2321.5 1482.55 2323.31 1479.01 Q2325.13 1475.44 2325.13 1468.33 Q2325.13 1461.2 2323.31 1457.66 Q2321.5 1454.1 2317.87 1454.1 M2317.87 1450.39 Q2323.68 1450.39 2326.73 1455 Q2329.81 1459.58 2329.81 1468.33 Q2329.81 1477.06 2326.73 1481.67 Q2323.68 1486.25 2317.87 1486.25 Q2312.06 1486.25 2308.98 1481.67 Q2305.92 1477.06 2305.92 1468.33 Q2305.92 1459.58 2308.98 1455 Q2312.06 1450.39 2317.87 1450.39 Z" fill="#000000" fill-rule="nonzero" fill-opacity="1" /><path clip-path="url(#clip080)" d="M1311.27 1545.45 L1291 1545.45 Q1291.47 1554.96 1293.67 1559 Q1296.41 1563.97 1301.15 1563.97 Q1305.92 1563.97 1308.57 1558.97 Q1310.89 1554.58 1311.27 1545.45 M1311.17 1540.03 Q1310.28 1531 1308.57 1527.81 Q1305.83 1522.78 1301.15 1522.78 Q1296.28 1522.78 1293.7 1527.75 Q1291.66 1531.76 1291.06 1540.03 L1311.17 1540.03 M1301.15 1518.01 Q1308.79 1518.01 1313.15 1524.76 Q1317.51 1531.47 1317.51 1543.38 Q1317.51 1555.25 1313.15 1562 Q1308.79 1568.78 1301.15 1568.78 Q1293.48 1568.78 1289.15 1562 Q1284.79 1555.25 1284.79 1543.38 Q1284.79 1531.47 1289.15 1524.76 Q1293.48 1518.01 1301.15 1518.01 Z" fill="#000000" fill-rule="nonzero" fill-opacity="1" /><polyline clip-path="url(#clip080)" style="stroke:#000000; stroke-linecap:round; stroke-linejoin:round; stroke-width:4; stroke-opacity:1; fill:none" points="249.542,1423.18 249.542,123.472 "/>
<polyline clip-path="url(#clip080)" style="stroke:#000000; stroke-linecap:round; stroke-linejoin:round; stroke-width:4; stroke-opacity:1; fill:none" points="249.542,1339.61 268.44,1339.61 "/>
<polyline clip-path="url(#clip080)" style="stroke:#000000; stroke-linecap:round; stroke-linejoin:round; stroke-width:4; stroke-opacity:1; fill:none" points="249.542,1128.43 268.44,1128.43 "/>
<polyline clip-path="url(#clip080)" style="stroke:#000000; stroke-linecap:round; stroke-linejoin:round; stroke-width:4; stroke-opacity:1; fill:none" points="249.542,917.242 268.44,917.242 "/>
<polyline clip-path="url(#clip080)" style="stroke:#000000; stroke-linecap:round; stroke-linejoin:round; stroke-width:4; stroke-opacity:1; fill:none" points="249.542,706.056 268.44,706.056 "/>
<polyline clip-path="url(#clip080)" style="stroke:#000000; stroke-linecap:round; stroke-linejoin:round; stroke-width:4; stroke-opacity:1; fill:none" points="249.542,494.87 268.44,494.87 "/>
<polyline clip-path="url(#clip080)" style="stroke:#000000; stroke-linecap:round; stroke-linejoin:round; stroke-width:4; stroke-opacity:1; fill:none" points="249.542,283.684 268.44,283.684 "/>
<path clip-path="url(#clip080)" d="M126.205 1325.41 Q122.593 1325.41 120.765 1328.98 Q118.959 1332.52 118.959 1339.65 Q118.959 1346.75 120.765 1350.32 Q122.593 1353.86 126.205 1353.86 Q129.839 1353.86 131.644 1350.32 Q133.473 1346.75 133.473 1339.65 Q133.473 1332.52 131.644 1328.98 Q129.839 1325.41 126.205 1325.41 M126.205 1321.71 Q132.015 1321.71 135.07 1326.32 Q138.149 1330.9 138.149 1339.65 Q138.149 1348.38 135.07 1352.98 Q132.015 1357.56 126.205 1357.56 Q120.394 1357.56 117.316 1352.98 Q114.26 1348.38 114.26 1339.65 Q114.26 1330.9 117.316 1326.32 Q120.394 1321.71 126.205 1321.71 Z" fill="#000000" fill-rule="nonzero" fill-opacity="1" /><path clip-path="url(#clip080)" d="M146.366 1351.01 L151.251 1351.01 L151.251 1356.89 L146.366 1356.89 L146.366 1351.01 Z" fill="#000000" fill-rule="nonzero" fill-opacity="1" /><path clip-path="url(#clip080)" d="M161.482 1322.33 L179.839 1322.33 L179.839 1326.27 L165.765 1326.27 L165.765 1334.74 Q166.783 1334.39 167.802 1334.23 Q168.82 1334.05 169.839 1334.05 Q175.626 1334.05 179.005 1337.22 Q182.385 1340.39 182.385 1345.81 Q182.385 1351.38 178.913 1354.49 Q175.44 1357.56 169.121 1357.56 Q166.945 1357.56 164.677 1357.19 Q162.431 1356.82 160.024 1356.08 L160.024 1351.38 Q162.107 1352.52 164.329 1353.07 Q166.552 1353.63 169.028 1353.63 Q173.033 1353.63 175.371 1351.52 Q177.709 1349.42 177.709 1345.81 Q177.709 1342.19 175.371 1340.09 Q173.033 1337.98 169.028 1337.98 Q167.153 1337.98 165.278 1338.4 Q163.427 1338.82 161.482 1339.69 L161.482 1322.33 Z" fill="#000000" fill-rule="nonzero" fill-opacity="1" /><path clip-path="url(#clip080)" d="M201.598 1325.41 Q197.987 1325.41 196.158 1328.98 Q194.352 1332.52 194.352 1339.65 Q194.352 1346.75 196.158 1350.32 Q197.987 1353.86 201.598 1353.86 Q205.232 1353.86 207.037 1350.32 Q208.866 1346.75 208.866 1339.65 Q208.866 1332.52 207.037 1328.98 Q205.232 1325.41 201.598 1325.41 M201.598 1321.71 Q207.408 1321.71 210.463 1326.32 Q213.542 1330.9 213.542 1339.65 Q213.542 1348.38 210.463 1352.98 Q207.408 1357.56 201.598 1357.56 Q195.787 1357.56 192.709 1352.98 Q189.653 1348.38 189.653 1339.65 Q189.653 1330.9 192.709 1326.32 Q195.787 1321.71 201.598 1321.71 Z" fill="#000000" fill-rule="nonzero" fill-opacity="1" /><path clip-path="url(#clip080)" d="M127.2 1114.23 Q123.589 1114.23 121.76 1117.79 Q119.955 1121.33 119.955 1128.46 Q119.955 1135.57 121.76 1139.13 Q123.589 1142.68 127.2 1142.68 Q130.834 1142.68 132.64 1139.13 Q134.468 1135.57 134.468 1128.46 Q134.468 1121.33 132.64 1117.79 Q130.834 1114.23 127.2 1114.23 M127.2 1110.52 Q133.01 1110.52 136.066 1115.13 Q139.144 1119.71 139.144 1128.46 Q139.144 1137.19 136.066 1141.8 Q133.01 1146.38 127.2 1146.38 Q121.39 1146.38 118.311 1141.8 Q115.256 1137.19 115.256 1128.46 Q115.256 1119.71 118.311 1115.13 Q121.39 1110.52 127.2 1110.52 Z" fill="#000000" fill-rule="nonzero" fill-opacity="1" /><path clip-path="url(#clip080)" d="M147.362 1139.83 L152.246 1139.83 L152.246 1145.71 L147.362 1145.71 L147.362 1139.83 Z" fill="#000000" fill-rule="nonzero" fill-opacity="1" /><path clip-path="url(#clip080)" d="M162.477 1111.15 L180.834 1111.15 L180.834 1115.08 L166.76 1115.08 L166.76 1123.56 Q167.778 1123.21 168.797 1123.05 Q169.815 1122.86 170.834 1122.86 Q176.621 1122.86 180.001 1126.03 Q183.38 1129.2 183.38 1134.62 Q183.38 1140.2 179.908 1143.3 Q176.436 1146.38 170.116 1146.38 Q167.94 1146.38 165.672 1146.01 Q163.427 1145.64 161.019 1144.9 L161.019 1140.2 Q163.102 1141.33 165.325 1141.89 Q167.547 1142.44 170.024 1142.44 Q174.028 1142.44 176.366 1140.34 Q178.704 1138.23 178.704 1134.62 Q178.704 1131.01 176.366 1128.9 Q174.028 1126.8 170.024 1126.8 Q168.149 1126.8 166.274 1127.21 Q164.422 1127.63 162.477 1128.51 L162.477 1111.15 Z" fill="#000000" fill-rule="nonzero" fill-opacity="1" /><path clip-path="url(#clip080)" d="M192.639 1111.15 L210.996 1111.15 L210.996 1115.08 L196.922 1115.08 L196.922 1123.56 Q197.94 1123.21 198.959 1123.05 Q199.977 1122.86 200.996 1122.86 Q206.783 1122.86 210.162 1126.03 Q213.542 1129.2 213.542 1134.62 Q213.542 1140.2 210.07 1143.3 Q206.598 1146.38 200.278 1146.38 Q198.102 1146.38 195.834 1146.01 Q193.588 1145.64 191.181 1144.9 L191.181 1140.2 Q193.264 1141.33 195.487 1141.89 Q197.709 1142.44 200.186 1142.44 Q204.19 1142.44 206.528 1140.34 Q208.866 1138.23 208.866 1134.62 Q208.866 1131.01 206.528 1128.9 Q204.19 1126.8 200.186 1126.8 Q198.311 1126.8 196.436 1127.21 Q194.584 1127.63 192.639 1128.51 L192.639 1111.15 Z" fill="#000000" fill-rule="nonzero" fill-opacity="1" /><path clip-path="url(#clip080)" d="M126.205 903.041 Q122.593 903.041 120.765 906.605 Q118.959 910.147 118.959 917.277 Q118.959 924.383 120.765 927.948 Q122.593 931.49 126.205 931.49 Q129.839 931.49 131.644 927.948 Q133.473 924.383 133.473 917.277 Q133.473 910.147 131.644 906.605 Q129.839 903.041 126.205 903.041 M126.205 899.337 Q132.015 899.337 135.07 903.943 Q138.149 908.527 138.149 917.277 Q138.149 926.003 135.07 930.61 Q132.015 935.193 126.205 935.193 Q120.394 935.193 117.316 930.61 Q114.26 926.003 114.26 917.277 Q114.26 908.527 117.316 903.943 Q120.394 899.337 126.205 899.337 Z" fill="#000000" fill-rule="nonzero" fill-opacity="1" /><path clip-path="url(#clip080)" d="M146.366 928.642 L151.251 928.642 L151.251 934.522 L146.366 934.522 L146.366 928.642 Z" fill="#000000" fill-rule="nonzero" fill-opacity="1" /><path clip-path="url(#clip080)" d="M172.014 915.379 Q168.866 915.379 167.015 917.531 Q165.186 919.684 165.186 923.434 Q165.186 927.161 167.015 929.337 Q168.866 931.49 172.014 931.49 Q175.163 931.49 176.991 929.337 Q178.843 927.161 178.843 923.434 Q178.843 919.684 176.991 917.531 Q175.163 915.379 172.014 915.379 M181.297 900.726 L181.297 904.985 Q179.538 904.152 177.732 903.712 Q175.95 903.272 174.19 903.272 Q169.561 903.272 167.107 906.397 Q164.677 909.522 164.329 915.841 Q165.695 913.828 167.755 912.763 Q169.815 911.675 172.292 911.675 Q177.501 911.675 180.51 914.846 Q183.542 917.994 183.542 923.434 Q183.542 928.758 180.394 931.976 Q177.246 935.193 172.014 935.193 Q166.019 935.193 162.848 930.61 Q159.677 926.003 159.677 917.277 Q159.677 909.082 163.565 904.221 Q167.454 899.337 174.005 899.337 Q175.764 899.337 177.547 899.684 Q179.352 900.031 181.297 900.726 Z" fill="#000000" fill-rule="nonzero" fill-opacity="1" /><path clip-path="url(#clip080)" d="M201.598 903.041 Q197.987 903.041 196.158 906.605 Q194.352 910.147 194.352 917.277 Q194.352 924.383 196.158 927.948 Q197.987 931.49 201.598 931.49 Q205.232 931.49 207.037 927.948 Q208.866 924.383 208.866 917.277 Q208.866 910.147 207.037 906.605 Q205.232 903.041 201.598 903.041 M201.598 899.337 Q207.408 899.337 210.463 903.943 Q213.542 908.527 213.542 917.277 Q213.542 926.003 210.463 930.61 Q207.408 935.193 201.598 935.193 Q195.787 935.193 192.709 930.61 Q189.653 926.003 189.653 917.277 Q189.653 908.527 192.709 903.943 Q195.787 899.337 201.598 899.337 Z" fill="#000000" fill-rule="nonzero" fill-opacity="1" /><path clip-path="url(#clip080)" d="M127.2 691.855 Q123.589 691.855 121.76 695.42 Q119.955 698.961 119.955 706.091 Q119.955 713.197 121.76 716.762 Q123.589 720.304 127.2 720.304 Q130.834 720.304 132.64 716.762 Q134.468 713.197 134.468 706.091 Q134.468 698.961 132.64 695.42 Q130.834 691.855 127.2 691.855 M127.2 688.151 Q133.01 688.151 136.066 692.758 Q139.144 697.341 139.144 706.091 Q139.144 714.818 136.066 719.424 Q133.01 724.007 127.2 724.007 Q121.39 724.007 118.311 719.424 Q115.256 714.818 115.256 706.091 Q115.256 697.341 118.311 692.758 Q121.39 688.151 127.2 688.151 Z" fill="#000000" fill-rule="nonzero" fill-opacity="1" /><path clip-path="url(#clip080)" d="M147.362 717.456 L152.246 717.456 L152.246 723.336 L147.362 723.336 L147.362 717.456 Z" fill="#000000" fill-rule="nonzero" fill-opacity="1" /><path clip-path="url(#clip080)" d="M173.01 704.193 Q169.862 704.193 168.01 706.345 Q166.181 708.498 166.181 712.248 Q166.181 715.975 168.01 718.151 Q169.862 720.304 173.01 720.304 Q176.158 720.304 177.987 718.151 Q179.839 715.975 179.839 712.248 Q179.839 708.498 177.987 706.345 Q176.158 704.193 173.01 704.193 M182.292 689.54 L182.292 693.799 Q180.533 692.966 178.727 692.526 Q176.945 692.086 175.186 692.086 Q170.556 692.086 168.102 695.211 Q165.672 698.336 165.325 704.656 Q166.69 702.642 168.751 701.577 Q170.811 700.489 173.288 700.489 Q178.496 700.489 181.505 703.66 Q184.538 706.808 184.538 712.248 Q184.538 717.572 181.389 720.79 Q178.241 724.007 173.01 724.007 Q167.015 724.007 163.843 719.424 Q160.672 714.818 160.672 706.091 Q160.672 697.896 164.561 693.035 Q168.45 688.151 175.001 688.151 Q176.76 688.151 178.542 688.498 Q180.348 688.846 182.292 689.54 Z" fill="#000000" fill-rule="nonzero" fill-opacity="1" /><path clip-path="url(#clip080)" d="M192.639 688.776 L210.996 688.776 L210.996 692.711 L196.922 692.711 L196.922 701.183 Q197.94 700.836 198.959 700.674 Q199.977 700.489 200.996 700.489 Q206.783 700.489 210.162 703.66 Q213.542 706.832 213.542 712.248 Q213.542 717.827 210.07 720.929 Q206.598 724.007 200.278 724.007 Q198.102 724.007 195.834 723.637 Q193.588 723.267 191.181 722.526 L191.181 717.827 Q193.264 718.961 195.487 719.517 Q197.709 720.072 200.186 720.072 Q204.19 720.072 206.528 717.966 Q208.866 715.859 208.866 712.248 Q208.866 708.637 206.528 706.531 Q204.19 704.424 200.186 704.424 Q198.311 704.424 196.436 704.841 Q194.584 705.257 192.639 706.137 L192.639 688.776 Z" fill="#000000" fill-rule="nonzero" fill-opacity="1" /><path clip-path="url(#clip080)" d="M126.205 480.669 Q122.593 480.669 120.765 484.234 Q118.959 487.775 118.959 494.905 Q118.959 502.011 120.765 505.576 Q122.593 509.118 126.205 509.118 Q129.839 509.118 131.644 505.576 Q133.473 502.011 133.473 494.905 Q133.473 487.775 131.644 484.234 Q129.839 480.669 126.205 480.669 M126.205 476.965 Q132.015 476.965 135.07 481.572 Q138.149 486.155 138.149 494.905 Q138.149 503.632 135.07 508.238 Q132.015 512.821 126.205 512.821 Q120.394 512.821 117.316 508.238 Q114.26 503.632 114.26 494.905 Q114.26 486.155 117.316 481.572 Q120.394 476.965 126.205 476.965 Z" fill="#000000" fill-rule="nonzero" fill-opacity="1" /><path clip-path="url(#clip080)" d="M146.366 506.271 L151.251 506.271 L151.251 512.15 L146.366 512.15 L146.366 506.271 Z" fill="#000000" fill-rule="nonzero" fill-opacity="1" /><path clip-path="url(#clip080)" d="M160.255 477.59 L182.477 477.59 L182.477 479.581 L169.931 512.15 L165.047 512.15 L176.852 481.525 L160.255 481.525 L160.255 477.59 Z" fill="#000000" fill-rule="nonzero" fill-opacity="1" /><path clip-path="url(#clip080)" d="M201.598 480.669 Q197.987 480.669 196.158 484.234 Q194.352 487.775 194.352 494.905 Q194.352 502.011 196.158 505.576 Q197.987 509.118 201.598 509.118 Q205.232 509.118 207.037 505.576 Q208.866 502.011 208.866 494.905 Q208.866 487.775 207.037 484.234 Q205.232 480.669 201.598 480.669 M201.598 476.965 Q207.408 476.965 210.463 481.572 Q213.542 486.155 213.542 494.905 Q213.542 503.632 210.463 508.238 Q207.408 512.821 201.598 512.821 Q195.787 512.821 192.709 508.238 Q189.653 503.632 189.653 494.905 Q189.653 486.155 192.709 481.572 Q195.787 476.965 201.598 476.965 Z" fill="#000000" fill-rule="nonzero" fill-opacity="1" /><path clip-path="url(#clip080)" d="M127.2 269.483 Q123.589 269.483 121.76 273.048 Q119.955 276.589 119.955 283.719 Q119.955 290.825 121.76 294.39 Q123.589 297.932 127.2 297.932 Q130.834 297.932 132.64 294.39 Q134.468 290.825 134.468 283.719 Q134.468 276.589 132.64 273.048 Q130.834 269.483 127.2 269.483 M127.2 265.779 Q133.01 265.779 136.066 270.386 Q139.144 274.969 139.144 283.719 Q139.144 292.446 136.066 297.052 Q133.01 301.636 127.2 301.636 Q121.39 301.636 118.311 297.052 Q115.256 292.446 115.256 283.719 Q115.256 274.969 118.311 270.386 Q121.39 265.779 127.2 265.779 Z" fill="#000000" fill-rule="nonzero" fill-opacity="1" /><path clip-path="url(#clip080)" d="M147.362 295.085 L152.246 295.085 L152.246 300.964 L147.362 300.964 L147.362 295.085 Z" fill="#000000" fill-rule="nonzero" fill-opacity="1" /><path clip-path="url(#clip080)" d="M161.251 266.404 L183.473 266.404 L183.473 268.395 L170.927 300.964 L166.042 300.964 L177.848 270.339 L161.251 270.339 L161.251 266.404 Z" fill="#000000" fill-rule="nonzero" fill-opacity="1" /><path clip-path="url(#clip080)" d="M192.639 266.404 L210.996 266.404 L210.996 270.339 L196.922 270.339 L196.922 278.812 Q197.94 278.464 198.959 278.302 Q199.977 278.117 200.996 278.117 Q206.783 278.117 210.162 281.288 Q213.542 284.46 213.542 289.876 Q213.542 295.455 210.07 298.557 Q206.598 301.636 200.278 301.636 Q198.102 301.636 195.834 301.265 Q193.588 300.895 191.181 300.154 L191.181 295.455 Q193.264 296.589 195.487 297.145 Q197.709 297.7 200.186 297.7 Q204.19 297.7 206.528 295.594 Q208.866 293.488 208.866 289.876 Q208.866 286.265 206.528 284.159 Q204.19 282.052 200.186 282.052 Q198.311 282.052 196.436 282.469 Q194.584 282.886 192.639 283.765 L192.639 266.404 Z" fill="#000000" fill-rule="nonzero" fill-opacity="1" /><path clip-path="url(#clip080)" d="M33.7671 938.612 L14.479 938.612 L14.479 932.755 L64.0042 932.755 L64.0042 938.612 L58.657 938.612 Q61.8398 940.458 63.3994 943.29 Q64.9272 946.091 64.9272 950.038 Q64.9272 956.499 59.771 960.573 Q54.6147 964.615 46.212 964.615 Q37.8093 964.615 32.6531 960.573 Q27.4968 956.499 27.4968 950.038 Q27.4968 946.091 29.0564 943.29 Q30.5842 940.458 33.7671 938.612 M46.212 958.568 Q52.6732 958.568 56.3653 955.926 Q60.0256 953.253 60.0256 948.606 Q60.0256 943.959 56.3653 941.285 Q52.6732 938.612 46.212 938.612 Q39.7508 938.612 36.0905 941.285 Q32.3984 943.959 32.3984 948.606 Q32.3984 953.253 36.0905 955.926 Q39.7508 958.568 46.212 958.568 Z" fill="#000000" fill-rule="nonzero" fill-opacity="1" /><path clip-path="url(#clip080)" d="M44.7161 890.2 L47.5806 890.2 L47.5806 917.127 Q53.6281 916.745 56.8109 913.499 Q59.9619 910.221 59.9619 904.396 Q59.9619 901.022 59.1344 897.871 Q58.3069 894.688 56.6518 891.569 L62.1899 891.569 Q63.5267 894.72 64.227 898.03 Q64.9272 901.34 64.9272 904.746 Q64.9272 913.276 59.9619 918.273 Q54.9967 923.238 46.5303 923.238 Q37.7774 923.238 32.6531 918.528 Q27.4968 913.785 27.4968 905.765 Q27.4968 898.571 32.1438 894.402 Q36.7589 890.2 44.7161 890.2 M42.9973 896.057 Q38.1912 896.12 35.3266 898.762 Q32.4621 901.372 32.4621 905.701 Q32.4621 910.602 35.2312 913.563 Q38.0002 916.491 43.0292 916.936 L42.9973 896.057 Z" fill="#000000" fill-rule="nonzero" fill-opacity="1" /><path clip-path="url(#clip080)" d="M42.4881 850.956 L64.0042 850.956 L64.0042 856.812 L42.679 856.812 Q37.6183 856.812 35.1038 858.786 Q32.5894 860.759 32.5894 864.706 Q32.5894 869.448 35.6131 872.185 Q38.6368 874.923 43.8567 874.923 L64.0042 874.923 L64.0042 880.811 L28.3562 880.811 L28.3562 874.923 L33.8944 874.923 Q30.6797 872.822 29.0883 869.989 Q27.4968 867.125 27.4968 863.401 Q27.4968 857.258 31.3163 854.107 Q35.1038 850.956 42.4881 850.956 Z" fill="#000000" fill-rule="nonzero" fill-opacity="1" /><path clip-path="url(#clip080)" d="M29.4065 816.549 L34.9447 816.549 Q33.6716 819.032 33.035 821.705 Q32.3984 824.379 32.3984 827.244 Q32.3984 831.604 33.7352 833.8 Q35.072 835.965 37.7456 835.965 Q39.7826 835.965 40.9603 834.405 Q42.1061 832.845 43.1565 828.135 L43.6021 826.13 Q44.9389 819.891 47.3897 817.281 Q49.8086 814.639 54.1691 814.639 Q59.1344 814.639 62.0308 818.586 Q64.9272 822.501 64.9272 829.376 Q64.9272 832.241 64.3543 835.36 Q63.8132 838.447 62.6992 841.885 L56.6518 841.885 Q58.3387 838.638 59.198 835.487 Q60.0256 832.336 60.0256 829.249 Q60.0256 825.111 58.6251 822.883 Q57.1929 820.655 54.6147 820.655 Q52.2276 820.655 50.9545 822.278 Q49.6813 823.87 48.5037 829.312 L48.0262 831.349 Q46.8804 836.792 44.5251 839.211 Q42.138 841.63 38.0002 841.63 Q32.9713 841.63 30.2341 838.065 Q27.4968 834.5 27.4968 827.944 Q27.4968 824.697 27.9743 821.833 Q28.4517 818.968 29.4065 816.549 Z" fill="#000000" fill-rule="nonzero" fill-opacity="1" /><path clip-path="url(#clip080)" d="M28.3562 805.314 L28.3562 799.457 L64.0042 799.457 L64.0042 805.314 L28.3562 805.314 M14.479 805.314 L14.479 799.457 L21.895 799.457 L21.895 805.314 L14.479 805.314 Z" fill="#000000" fill-rule="nonzero" fill-opacity="1" /><path clip-path="url(#clip080)" d="M18.2347 781.41 L28.3562 781.41 L28.3562 769.347 L32.9077 769.347 L32.9077 781.41 L52.2594 781.41 Q56.6199 781.41 57.8613 780.233 Q59.1026 779.023 59.1026 775.363 L59.1026 769.347 L64.0042 769.347 L64.0042 775.363 Q64.0042 782.142 61.4897 784.721 Q58.9434 787.299 52.2594 787.299 L32.9077 787.299 L32.9077 791.596 L28.3562 791.596 L28.3562 787.299 L18.2347 787.299 L18.2347 781.41 Z" fill="#000000" fill-rule="nonzero" fill-opacity="1" /><path clip-path="url(#clip080)" d="M67.3143 746.813 Q73.68 749.295 75.6216 751.651 Q77.5631 754.006 77.5631 757.953 L77.5631 762.632 L72.6615 762.632 L72.6615 759.194 Q72.6615 756.775 71.5157 755.438 Q70.3699 754.102 66.1048 752.478 L63.4312 751.428 L28.3562 765.846 L28.3562 759.64 L56.238 748.5 L28.3562 737.36 L28.3562 731.153 L67.3143 746.813 Z" fill="#000000" fill-rule="nonzero" fill-opacity="1" /><path clip-path="url(#clip080)" d="M42.4881 672.716 L64.0042 672.716 L64.0042 678.572 L42.679 678.572 Q37.6183 678.572 35.1038 680.546 Q32.5894 682.519 32.5894 686.466 Q32.5894 691.208 35.6131 693.946 Q38.6368 696.683 43.8567 696.683 L64.0042 696.683 L64.0042 702.571 L28.3562 702.571 L28.3562 696.683 L33.8944 696.683 Q30.6797 694.582 29.0883 691.749 Q27.4968 688.885 27.4968 685.161 Q27.4968 679.018 31.3163 675.867 Q35.1038 672.716 42.4881 672.716 Z" fill="#000000" fill-rule="nonzero" fill-opacity="1" /><path clip-path="url(#clip080)" d="M14.5426 646.967 Q21.8632 651.232 29.0246 653.301 Q36.186 655.369 43.5384 655.369 Q50.8908 655.369 58.1159 653.301 Q65.3091 651.2 72.5979 646.967 L72.5979 652.059 Q65.1182 656.834 57.8931 659.221 Q50.668 661.576 43.5384 661.576 Q36.4406 661.576 29.2474 659.221 Q22.0542 656.865 14.5426 652.059 L14.5426 646.967 Z" fill="#000000" fill-rule="nonzero" fill-opacity="1" /><path clip-path="url(#clip080)" d="M41.4059 611.669 L41.4059 631.944 Q50.9226 631.466 54.9649 629.27 Q59.9301 626.533 59.9301 621.79 Q59.9301 617.016 54.933 614.374 Q50.5407 612.051 41.4059 611.669 M35.995 611.764 Q26.9557 612.656 23.7729 614.374 Q18.744 617.112 18.744 621.79 Q18.744 626.66 23.7092 629.238 Q27.7196 631.275 35.995 631.88 L35.995 611.764 M13.9697 621.79 Q13.9697 614.151 20.7174 609.791 Q27.4332 605.43 39.337 605.43 Q51.2091 605.43 57.9567 609.791 Q64.7362 614.151 64.7362 621.79 Q64.7362 629.461 57.9567 633.79 Q51.2091 638.15 39.337 638.15 Q27.4332 638.15 20.7174 633.79 Q13.9697 629.461 13.9697 621.79 Z" fill="#000000" fill-rule="nonzero" fill-opacity="1" /><path clip-path="url(#clip080)" d="M14.5426 596.646 L14.5426 591.553 Q22.0542 586.779 29.2474 584.424 Q36.4406 582.036 43.5384 582.036 Q50.668 582.036 57.8931 584.424 Q65.1182 586.779 72.5979 591.553 L72.5979 596.646 Q65.3091 592.413 58.1159 590.344 Q50.8908 588.243 43.5384 588.243 Q36.186 588.243 29.0246 590.344 Q21.8632 592.413 14.5426 596.646 Z" fill="#000000" fill-rule="nonzero" fill-opacity="1" /><path clip-path="url(#clip080)" d="M314.45 12.096 L322.673 12.096 L322.673 48.8377 Q322.673 58.5599 326.198 62.8538 Q329.722 67.1073 337.621 67.1073 Q345.48 67.1073 349.004 62.8538 Q352.528 58.5599 352.528 48.8377 L352.528 12.096 L360.752 12.096 L360.752 49.8504 Q360.752 61.6791 354.878 67.7149 Q349.045 73.7508 337.621 73.7508 Q326.157 73.7508 320.283 67.7149 Q314.45 61.6791 314.45 49.8504 L314.45 12.096 Z" fill="#000000" fill-rule="nonzero" fill-opacity="1" /><path clip-path="url(#clip080)" d="M413.495 45.1919 L413.495 72.576 L406.041 72.576 L406.041 45.4349 Q406.041 38.994 403.529 35.7938 Q401.018 32.5936 395.995 32.5936 Q389.959 32.5936 386.475 36.4419 Q382.991 40.2903 382.991 46.9338 L382.991 72.576 L375.497 72.576 L375.497 27.2059 L382.991 27.2059 L382.991 34.2544 Q385.665 30.163 389.27 28.1376 Q392.916 26.1121 397.656 26.1121 Q405.474 26.1121 409.484 30.9732 Q413.495 35.7938 413.495 45.1919 Z" fill="#000000" fill-rule="nonzero" fill-opacity="1" /><path clip-path="url(#clip080)" d="M435.572 65.7705 L435.572 89.8329 L428.078 89.8329 L428.078 27.2059 L435.572 27.2059 L435.572 34.0924 Q437.922 30.0415 441.486 28.0971 Q445.092 26.1121 450.074 26.1121 Q458.338 26.1121 463.483 32.6746 Q468.668 39.2371 468.668 49.9314 Q468.668 60.6258 463.483 67.1883 Q458.338 73.7508 450.074 73.7508 Q445.092 73.7508 441.486 71.8063 Q437.922 69.8214 435.572 65.7705 M460.931 49.9314 Q460.931 41.7081 457.528 37.0496 Q454.166 32.3505 448.251 32.3505 Q442.337 32.3505 438.934 37.0496 Q435.572 41.7081 435.572 49.9314 Q435.572 58.1548 438.934 62.8538 Q442.337 67.5124 448.251 67.5124 Q454.166 67.5124 457.528 62.8538 Q460.931 58.1548 460.931 49.9314 Z" fill="#000000" fill-rule="nonzero" fill-opacity="1" /><path clip-path="url(#clip080)" d="M507.314 34.1734 Q506.058 33.4443 504.559 33.1202 Q503.101 32.7556 501.318 32.7556 Q494.999 32.7556 491.596 36.8875 Q488.234 40.9789 488.234 48.6757 L488.234 72.576 L480.74 72.576 L480.74 27.2059 L488.234 27.2059 L488.234 34.2544 Q490.583 30.1225 494.351 28.1376 Q498.118 26.1121 503.506 26.1121 Q504.275 26.1121 505.207 26.2337 Q506.139 26.3147 507.273 26.5172 L507.314 34.1734 Z" fill="#000000" fill-rule="nonzero" fill-opacity="1" /><path clip-path="url(#clip080)" d="M530.89 32.4315 Q524.894 32.4315 521.411 37.1306 Q517.927 41.7891 517.927 49.9314 Q517.927 58.0738 521.37 62.7728 Q524.854 67.4314 530.89 67.4314 Q536.845 67.4314 540.328 62.7323 Q543.812 58.0333 543.812 49.9314 Q543.812 41.8701 540.328 37.1711 Q536.845 32.4315 530.89 32.4315 M530.89 26.1121 Q540.612 26.1121 546.162 32.4315 Q551.711 38.7509 551.711 49.9314 Q551.711 61.0714 546.162 67.4314 Q540.612 73.7508 530.89 73.7508 Q521.127 73.7508 515.577 67.4314 Q510.068 61.0714 510.068 49.9314 Q510.068 38.7509 515.577 32.4315 Q521.127 26.1121 530.89 26.1121 Z" fill="#000000" fill-rule="nonzero" fill-opacity="1" /><path clip-path="url(#clip080)" d="M564.067 27.2059 L571.52 27.2059 L571.52 73.3862 Q571.52 82.0551 568.199 85.944 Q564.917 89.8329 557.585 89.8329 L554.75 89.8329 L554.75 83.5134 L556.735 83.5134 Q560.988 83.5134 562.527 81.5285 Q564.067 79.5841 564.067 73.3862 L564.067 27.2059 M564.067 9.54393 L571.52 9.54393 L571.52 18.9825 L564.067 18.9825 L564.067 9.54393 Z" fill="#000000" fill-rule="nonzero" fill-opacity="1" /><path clip-path="url(#clip080)" d="M625.924 48.0275 L625.924 51.6733 L591.653 51.6733 Q592.139 59.3701 596.271 63.421 Q600.444 67.4314 607.857 67.4314 Q612.151 67.4314 616.161 66.3781 Q620.212 65.3249 624.182 63.2184 L624.182 70.267 Q620.172 71.9684 615.959 72.8596 Q611.746 73.7508 607.411 73.7508 Q596.555 73.7508 590.195 67.4314 Q583.876 61.1119 583.876 50.3365 Q583.876 39.1965 589.871 32.6746 Q595.907 26.1121 606.115 26.1121 Q615.27 26.1121 620.577 32.0264 Q625.924 37.9003 625.924 48.0275 M618.47 45.84 Q618.389 39.7232 615.027 36.0774 Q611.705 32.4315 606.196 32.4315 Q599.958 32.4315 596.19 35.9558 Q592.464 39.4801 591.896 45.8805 L618.47 45.84 Z" fill="#000000" fill-rule="nonzero" fill-opacity="1" /><path clip-path="url(#clip080)" d="M670.808 28.9478 L670.808 35.9153 Q667.648 34.1734 664.448 33.3227 Q661.288 32.4315 658.048 32.4315 Q650.797 32.4315 646.786 37.0496 Q642.776 41.6271 642.776 49.9314 Q642.776 58.2358 646.786 62.8538 Q650.797 67.4314 658.048 67.4314 Q661.288 67.4314 664.448 66.5807 Q667.648 65.6895 670.808 63.9476 L670.808 70.8341 Q667.689 72.2924 664.327 73.0216 Q661.005 73.7508 657.237 73.7508 Q646.989 73.7508 640.953 67.3098 Q634.917 60.8689 634.917 49.9314 Q634.917 38.832 640.993 32.472 Q647.11 26.1121 657.724 26.1121 Q661.167 26.1121 664.448 26.8413 Q667.729 27.5299 670.808 28.9478 Z" fill="#000000" fill-rule="nonzero" fill-opacity="1" /><path clip-path="url(#clip080)" d="M691.144 14.324 L691.144 27.2059 L706.496 27.2059 L706.496 32.9987 L691.144 32.9987 L691.144 57.6282 Q691.144 63.1779 692.642 64.7578 Q694.182 66.3376 698.84 66.3376 L706.496 66.3376 L706.496 72.576 L698.84 72.576 Q690.212 72.576 686.931 69.3758 Q683.649 66.1351 683.649 57.6282 L683.649 32.9987 L678.181 32.9987 L678.181 27.2059 L683.649 27.2059 L683.649 14.324 L691.144 14.324 Z" fill="#000000" fill-rule="nonzero" fill-opacity="1" /><path clip-path="url(#clip080)" d="M755.107 48.0275 L755.107 51.6733 L720.837 51.6733 Q721.323 59.3701 725.455 63.421 Q729.627 67.4314 737.04 67.4314 Q741.334 67.4314 745.345 66.3781 Q749.396 65.3249 753.365 63.2184 L753.365 70.267 Q749.355 71.9684 745.142 72.8596 Q740.929 73.7508 736.595 73.7508 Q725.738 73.7508 719.378 67.4314 Q713.059 61.1119 713.059 50.3365 Q713.059 39.1965 719.054 32.6746 Q725.09 26.1121 735.298 26.1121 Q744.453 26.1121 749.76 32.0264 Q755.107 37.9003 755.107 48.0275 M747.654 45.84 Q747.573 39.7232 744.21 36.0774 Q740.889 32.4315 735.379 32.4315 Q729.141 32.4315 725.374 35.9558 Q721.647 39.4801 721.08 45.8805 L747.654 45.84 Z" fill="#000000" fill-rule="nonzero" fill-opacity="1" /><path clip-path="url(#clip080)" d="M797.196 34.0924 L797.196 9.54393 L804.65 9.54393 L804.65 72.576 L797.196 72.576 L797.196 65.7705 Q794.847 69.8214 791.241 71.8063 Q787.677 73.7508 782.653 73.7508 Q774.43 73.7508 769.245 67.1883 Q764.1 60.6258 764.1 49.9314 Q764.1 39.2371 769.245 32.6746 Q774.43 26.1121 782.653 26.1121 Q787.677 26.1121 791.241 28.0971 Q794.847 30.0415 797.196 34.0924 M771.797 49.9314 Q771.797 58.1548 775.159 62.8538 Q778.562 67.5124 784.476 67.5124 Q790.391 67.5124 793.793 62.8538 Q797.196 58.1548 797.196 49.9314 Q797.196 41.7081 793.793 37.0496 Q790.391 32.3505 784.476 32.3505 Q778.562 32.3505 775.159 37.0496 Q771.797 41.7081 771.797 49.9314 Z" fill="#000000" fill-rule="nonzero" fill-opacity="1" /><path clip-path="url(#clip080)" d="M855.408 72.576 L841.554 27.2059 L849.574 27.2059 L861.282 65.2844 Q866.143 60.2613 870.194 53.2937 Q873.272 48.068 873.434 43.531 Q873.515 41.384 872.543 37.3331 Q871.409 32.5126 867.115 27.2059 L874.65 27.2059 L874.65 27.2059 Q877.445 30.8112 879.308 35.8343 Q881.009 40.4523 881.009 43.612 Q881.009 51.5518 875.5 58.6409 Q868.33 67.877 863.347 72.576 L855.408 72.576 Z" fill="#000000" fill-rule="nonzero" fill-opacity="1" /><path clip-path="url(#clip080)" d="M920.06 34.9026 L971.993 34.9026 L971.993 41.7081 L920.06 41.7081 L920.06 34.9026 M920.06 51.4303 L971.993 51.4303 L971.993 58.3168 L920.06 58.3168 L920.06 51.4303 Z" fill="#000000" fill-rule="nonzero" fill-opacity="1" /><path clip-path="url(#clip080)" d="M1023.07 65.6895 L1051.63 65.6895 L1051.63 72.576 L1013.23 72.576 L1013.23 65.6895 Q1017.89 60.8689 1025.91 52.7671 Q1033.97 44.6248 1036.04 42.2752 Q1039.97 37.8598 1041.51 34.8216 Q1043.09 31.7429 1043.09 28.7857 Q1043.09 23.9651 1039.68 20.927 Q1036.32 17.8888 1030.89 17.8888 Q1027.04 17.8888 1022.75 19.2256 Q1018.5 20.5624 1013.64 23.2765 L1013.64 15.0127 Q1018.58 13.0277 1022.87 12.015 Q1027.17 11.0023 1030.73 11.0023 Q1040.13 11.0023 1045.72 15.7013 Q1051.31 20.4004 1051.31 28.2591 Q1051.31 31.9859 1049.89 35.3482 Q1048.51 38.6699 1044.83 43.2069 Q1043.82 44.3817 1038.39 50.0125 Q1032.96 55.6027 1023.07 65.6895 Z" fill="#000000" fill-rule="nonzero" fill-opacity="1" /><path clip-path="url(#clip080)" d="M1081 12.096 L1087.89 12.096 L1066.82 80.2727 L1059.94 80.2727 L1081 12.096 Z" fill="#000000" fill-rule="nonzero" fill-opacity="1" /><path clip-path="url(#clip080)" d="M1096.84 12.096 L1128.97 12.096 L1128.97 18.9825 L1104.34 18.9825 L1104.34 33.8088 Q1106.12 33.2012 1107.9 32.9176 Q1109.68 32.5936 1111.47 32.5936 Q1121.59 32.5936 1127.51 38.1433 Q1133.42 43.6931 1133.42 53.1722 Q1133.42 62.9348 1127.34 68.3631 Q1121.27 73.7508 1110.21 73.7508 Q1106.4 73.7508 1102.43 73.1026 Q1098.5 72.4545 1094.29 71.1582 L1094.29 62.9348 Q1097.94 64.9198 1101.82 65.892 Q1105.71 66.8642 1110.05 66.8642 Q1117.06 66.8642 1121.15 63.1779 Q1125.24 59.4916 1125.24 53.1722 Q1125.24 46.8528 1121.15 43.1664 Q1117.06 39.4801 1110.05 39.4801 Q1106.77 39.4801 1103.49 40.2093 Q1100.24 40.9384 1096.84 42.4778 L1096.84 12.096 Z" fill="#000000" fill-rule="nonzero" fill-opacity="1" /><path clip-path="url(#clip080)" d="M1192.77 9.62495 Q1187.34 18.942 1184.71 28.0566 Q1182.07 37.1711 1182.07 46.5287 Q1182.07 55.8863 1184.71 65.0818 Q1187.38 74.2369 1192.77 83.5134 L1186.29 83.5134 Q1180.21 73.9938 1177.17 64.7983 Q1174.17 55.6027 1174.17 46.5287 Q1174.17 37.4952 1177.17 28.3401 Q1180.17 19.1851 1186.29 9.62495 L1192.77 9.62495 Z" fill="#000000" fill-rule="nonzero" fill-opacity="1" /><path clip-path="url(#clip080)" d="M1207.55 12.096 L1218.57 12.096 L1245.39 62.6918 L1245.39 12.096 L1253.33 12.096 L1253.33 72.576 L1242.31 72.576 L1215.49 21.9802 L1215.49 72.576 L1207.55 72.576 L1207.55 12.096 Z" fill="#000000" fill-rule="nonzero" fill-opacity="1" /><path clip-path="url(#clip080)" d="M1296.63 34.9026 L1348.56 34.9026 L1348.56 41.7081 L1296.63 41.7081 L1296.63 34.9026 M1296.63 51.4303 L1348.56 51.4303 L1348.56 58.3168 L1296.63 58.3168 L1296.63 51.4303 Z" fill="#000000" fill-rule="nonzero" fill-opacity="1" /><path clip-path="url(#clip080)" d="M1410.1 43.8551 Q1404.26 43.8551 1400.9 46.9743 Q1397.58 50.0935 1397.58 55.5622 Q1397.58 61.0309 1400.9 64.1501 Q1404.26 67.2693 1410.1 67.2693 Q1415.93 67.2693 1419.29 64.1501 Q1422.66 60.9904 1422.66 55.5622 Q1422.66 50.0935 1419.29 46.9743 Q1415.97 43.8551 1410.1 43.8551 M1401.92 40.3713 Q1396.65 39.075 1393.69 35.4697 Q1390.78 31.8644 1390.78 26.6793 Q1390.78 19.4281 1395.92 15.2152 Q1401.11 11.0023 1410.1 11.0023 Q1419.13 11.0023 1424.28 15.2152 Q1429.42 19.4281 1429.42 26.6793 Q1429.42 31.8644 1426.46 35.4697 Q1423.55 39.075 1418.32 40.3713 Q1424.24 41.7486 1427.52 45.759 Q1430.84 49.7694 1430.84 55.5622 Q1430.84 64.3527 1425.45 69.0517 Q1420.1 73.7508 1410.1 73.7508 Q1400.09 73.7508 1394.7 69.0517 Q1389.36 64.3527 1389.36 55.5622 Q1389.36 49.7694 1392.68 45.759 Q1396 41.7486 1401.92 40.3713 M1398.92 27.4489 Q1398.92 32.148 1401.83 34.7811 Q1404.79 37.4142 1410.1 37.4142 Q1415.36 37.4142 1418.32 34.7811 Q1421.32 32.148 1421.32 27.4489 Q1421.32 22.7499 1418.32 20.1168 Q1415.36 17.4837 1410.1 17.4837 Q1404.79 17.4837 1401.83 20.1168 Q1398.92 22.7499 1398.92 27.4489 Z" fill="#000000" fill-rule="nonzero" fill-opacity="1" /><path clip-path="url(#clip080)" d="M1446.23 62.2867 L1454.78 62.2867 L1454.78 69.2543 L1448.14 82.2172 L1442.91 82.2172 L1446.23 69.2543 L1446.23 62.2867 Z" fill="#000000" fill-rule="nonzero" fill-opacity="1" /><path clip-path="url(#clip080)" d="M1533.65 14.0809 L1533.65 22.0612 Q1528.99 19.8332 1524.86 18.7395 Q1520.73 17.6457 1516.88 17.6457 Q1510.2 17.6457 1506.55 20.2383 Q1502.94 22.8309 1502.94 27.611 Q1502.94 31.6214 1505.33 33.6873 Q1507.77 35.7128 1514.49 36.9686 L1519.43 37.9813 Q1528.59 39.7232 1532.92 44.1387 Q1537.3 48.5136 1537.3 55.8863 Q1537.3 64.6767 1531.38 69.2137 Q1525.51 73.7508 1514.13 73.7508 Q1509.83 73.7508 1504.97 72.7785 Q1500.15 71.8063 1494.96 69.9024 L1494.96 61.4765 Q1499.95 64.2716 1504.73 65.6895 Q1509.51 67.1073 1514.13 67.1073 Q1521.13 67.1073 1524.94 64.3527 Q1528.75 61.598 1528.75 56.4939 Q1528.75 52.0379 1525.99 49.5264 Q1523.28 47.0148 1517.04 45.759 L1512.06 44.7868 Q1502.9 42.9639 1498.81 39.075 Q1494.72 35.1862 1494.72 28.2591 Q1494.72 20.2383 1500.35 15.6203 Q1506.02 11.0023 1515.95 11.0023 Q1520.2 11.0023 1524.62 11.7719 Q1529.03 12.5416 1533.65 14.0809 Z" fill="#000000" fill-rule="nonzero" fill-opacity="1" /><path clip-path="url(#clip080)" d="M1587.45 45.1919 L1587.45 72.576 L1579.99 72.576 L1579.99 45.4349 Q1579.99 38.994 1577.48 35.7938 Q1574.97 32.5936 1569.95 32.5936 Q1563.91 32.5936 1560.43 36.4419 Q1556.94 40.2903 1556.94 46.9338 L1556.94 72.576 L1549.45 72.576 L1549.45 9.54393 L1556.94 9.54393 L1556.94 34.2544 Q1559.62 30.163 1563.22 28.1376 Q1566.87 26.1121 1571.61 26.1121 Q1579.43 26.1121 1583.44 30.9732 Q1587.45 35.7938 1587.45 45.1919 Z" fill="#000000" fill-rule="nonzero" fill-opacity="1" /><path clip-path="url(#clip080)" d="M1641.12 48.0275 L1641.12 51.6733 L1606.85 51.6733 Q1607.34 59.3701 1611.47 63.421 Q1615.64 67.4314 1623.05 67.4314 Q1627.35 67.4314 1631.36 66.3781 Q1635.41 65.3249 1639.38 63.2184 L1639.38 70.267 Q1635.37 71.9684 1631.16 72.8596 Q1626.94 73.7508 1622.61 73.7508 Q1611.75 73.7508 1605.39 67.4314 Q1599.07 61.1119 1599.07 50.3365 Q1599.07 39.1965 1605.07 32.6746 Q1611.1 26.1121 1621.31 26.1121 Q1630.47 26.1121 1635.77 32.0264 Q1641.12 37.9003 1641.12 48.0275 M1633.67 45.84 Q1633.59 39.7232 1630.22 36.0774 Q1626.9 32.4315 1621.39 32.4315 Q1615.15 32.4315 1611.39 35.9558 Q1607.66 39.4801 1607.09 45.8805 L1633.67 45.84 Z" fill="#000000" fill-rule="nonzero" fill-opacity="1" /><path clip-path="url(#clip080)" d="M1679.65 34.1734 Q1678.39 33.4443 1676.89 33.1202 Q1675.43 32.7556 1673.65 32.7556 Q1667.33 32.7556 1663.93 36.8875 Q1660.57 40.9789 1660.57 48.6757 L1660.57 72.576 L1653.07 72.576 L1653.07 27.2059 L1660.57 27.2059 L1660.57 34.2544 Q1662.91 30.1225 1666.68 28.1376 Q1670.45 26.1121 1675.84 26.1121 Q1676.61 26.1121 1677.54 26.2337 Q1678.47 26.3147 1679.6 26.5172 L1679.65 34.1734 Z" fill="#000000" fill-rule="nonzero" fill-opacity="1" /><path clip-path="url(#clip080)" d="M1721.33 35.9153 Q1724.12 30.8922 1728.01 28.5022 Q1731.9 26.1121 1737.17 26.1121 Q1744.26 26.1121 1748.11 31.0947 Q1751.95 36.0368 1751.95 45.1919 L1751.95 72.576 L1744.46 72.576 L1744.46 45.4349 Q1744.46 38.913 1742.15 35.7533 Q1739.84 32.5936 1735.1 32.5936 Q1729.31 32.5936 1725.95 36.4419 Q1722.58 40.2903 1722.58 46.9338 L1722.58 72.576 L1715.09 72.576 L1715.09 45.4349 Q1715.09 38.8725 1712.78 35.7533 Q1710.47 32.5936 1705.65 32.5936 Q1699.94 32.5936 1696.58 36.4824 Q1693.22 40.3308 1693.22 46.9338 L1693.22 72.576 L1685.72 72.576 L1685.72 27.2059 L1693.22 27.2059 L1693.22 34.2544 Q1695.77 30.082 1699.33 28.0971 Q1702.9 26.1121 1707.8 26.1121 Q1712.74 26.1121 1716.18 28.6237 Q1719.67 31.1352 1721.33 35.9153 Z" fill="#000000" fill-rule="nonzero" fill-opacity="1" /><path clip-path="url(#clip080)" d="M1787.44 49.7694 Q1778.41 49.7694 1774.92 51.8354 Q1771.44 53.9013 1771.44 58.8839 Q1771.44 62.8538 1774.03 65.2034 Q1776.66 67.5124 1781.16 67.5124 Q1787.36 67.5124 1791.09 63.1374 Q1794.85 58.7219 1794.85 51.4303 L1794.85 49.7694 L1787.44 49.7694 M1802.31 46.6907 L1802.31 72.576 L1794.85 72.576 L1794.85 65.6895 Q1792.3 69.8214 1788.49 71.8063 Q1784.69 73.7508 1779.18 73.7508 Q1772.21 73.7508 1768.08 69.8619 Q1763.99 65.9325 1763.99 59.3701 Q1763.99 51.7138 1769.09 47.825 Q1774.23 43.9361 1784.4 43.9361 L1794.85 43.9361 L1794.85 43.2069 Q1794.85 38.0623 1791.45 35.2672 Q1788.09 32.4315 1781.97 32.4315 Q1778.08 32.4315 1774.4 33.3632 Q1770.71 34.295 1767.31 36.1584 L1767.31 29.2718 Q1771.4 27.692 1775.25 26.9223 Q1779.09 26.1121 1782.74 26.1121 Q1792.58 26.1121 1797.45 31.2163 Q1802.31 36.3204 1802.31 46.6907 Z" fill="#000000" fill-rule="nonzero" fill-opacity="1" /><path clip-path="url(#clip080)" d="M1855.37 45.1919 L1855.37 72.576 L1847.92 72.576 L1847.92 45.4349 Q1847.92 38.994 1845.41 35.7938 Q1842.9 32.5936 1837.87 32.5936 Q1831.84 32.5936 1828.35 36.4419 Q1824.87 40.2903 1824.87 46.9338 L1824.87 72.576 L1817.38 72.576 L1817.38 27.2059 L1824.87 27.2059 L1824.87 34.2544 Q1827.54 30.163 1831.15 28.1376 Q1834.79 26.1121 1839.53 26.1121 Q1847.35 26.1121 1851.36 30.9732 Q1855.37 35.7938 1855.37 45.1919 Z" fill="#000000" fill-rule="nonzero" fill-opacity="1" /><path clip-path="url(#clip080)" d="M1866.47 46.9338 L1899.85 46.9338 L1899.85 52.7671 L1866.47 52.7671 L1866.47 46.9338 Z" fill="#000000" fill-rule="nonzero" fill-opacity="1" /><path clip-path="url(#clip080)" d="M1912.05 12.096 L1924.24 12.096 L1939.67 53.2532 L1955.19 12.096 L1967.38 12.096 L1967.38 72.576 L1959.4 72.576 L1959.4 19.4686 L1943.8 60.9499 L1935.58 60.9499 L1919.99 19.4686 L1919.99 72.576 L1912.05 72.576 L1912.05 12.096 Z" fill="#000000" fill-rule="nonzero" fill-opacity="1" /><path clip-path="url(#clip080)" d="M2000.88 32.4315 Q1994.89 32.4315 1991.4 37.1306 Q1987.92 41.7891 1987.92 49.9314 Q1987.92 58.0738 1991.36 62.7728 Q1994.85 67.4314 2000.88 67.4314 Q2006.84 67.4314 2010.32 62.7323 Q2013.8 58.0333 2013.8 49.9314 Q2013.8 41.8701 2010.32 37.1711 Q2006.84 32.4315 2000.88 32.4315 M2000.88 26.1121 Q2010.6 26.1121 2016.15 32.4315 Q2021.7 38.7509 2021.7 49.9314 Q2021.7 61.0714 2016.15 67.4314 Q2010.6 73.7508 2000.88 73.7508 Q1991.12 73.7508 1985.57 67.4314 Q1980.06 61.0714 1980.06 49.9314 Q1980.06 38.7509 1985.57 32.4315 Q1991.12 26.1121 2000.88 26.1121 Z" fill="#000000" fill-rule="nonzero" fill-opacity="1" /><path clip-path="url(#clip080)" d="M2060.35 34.1734 Q2059.09 33.4443 2057.59 33.1202 Q2056.14 32.7556 2054.35 32.7556 Q2048.03 32.7556 2044.63 36.8875 Q2041.27 40.9789 2041.27 48.6757 L2041.27 72.576 L2033.78 72.576 L2033.78 27.2059 L2041.27 27.2059 L2041.27 34.2544 Q2043.62 30.1225 2047.39 28.1376 Q2051.15 26.1121 2056.54 26.1121 Q2057.31 26.1121 2058.24 26.2337 Q2059.17 26.3147 2060.31 26.5172 L2060.35 34.1734 Z" fill="#000000" fill-rule="nonzero" fill-opacity="1" /><path clip-path="url(#clip080)" d="M2093 34.1734 Q2091.74 33.4443 2090.24 33.1202 Q2088.79 32.7556 2087 32.7556 Q2080.68 32.7556 2077.28 36.8875 Q2073.92 40.9789 2073.92 48.6757 L2073.92 72.576 L2066.43 72.576 L2066.43 27.2059 L2073.92 27.2059 L2073.92 34.2544 Q2076.27 30.1225 2080.04 28.1376 Q2083.8 26.1121 2089.19 26.1121 Q2089.96 26.1121 2090.89 26.2337 Q2091.82 26.3147 2092.96 26.5172 L2093 34.1734 Z" fill="#000000" fill-rule="nonzero" fill-opacity="1" /><path clip-path="url(#clip080)" d="M2100.82 27.2059 L2108.27 27.2059 L2108.27 72.576 L2100.82 72.576 L2100.82 27.2059 M2100.82 9.54393 L2108.27 9.54393 L2108.27 18.9825 L2100.82 18.9825 L2100.82 9.54393 Z" fill="#000000" fill-rule="nonzero" fill-opacity="1" /><path clip-path="url(#clip080)" d="M2152.79 28.5427 L2152.79 35.5912 Q2149.63 33.9709 2146.23 33.1607 Q2142.83 32.3505 2139.18 32.3505 Q2133.63 32.3505 2130.83 34.0519 Q2128.08 35.7533 2128.08 39.156 Q2128.08 41.7486 2130.07 43.2475 Q2132.05 44.7058 2138.05 46.0426 L2140.6 46.6097 Q2148.54 48.3111 2151.86 51.4303 Q2155.22 54.509 2155.22 60.0587 Q2155.22 66.3781 2150.2 70.0644 Q2145.22 73.7508 2136.47 73.7508 Q2132.82 73.7508 2128.85 73.0216 Q2124.92 72.3329 2120.55 70.9151 L2120.55 63.2184 Q2124.68 65.3654 2128.69 66.4591 Q2132.7 67.5124 2136.63 67.5124 Q2141.89 67.5124 2144.73 65.73 Q2147.57 63.9071 2147.57 60.6258 Q2147.57 57.5877 2145.5 55.9673 Q2143.47 54.3469 2136.55 52.8481 L2133.95 52.2405 Q2127.03 50.7821 2123.95 47.7845 Q2120.87 44.7463 2120.87 39.4801 Q2120.87 33.0797 2125.41 29.5959 Q2129.94 26.1121 2138.29 26.1121 Q2142.42 26.1121 2146.07 26.7198 Q2149.71 27.3274 2152.79 28.5427 Z" fill="#000000" fill-rule="nonzero" fill-opacity="1" /><path clip-path="url(#clip080)" d="M2184.67 32.4315 Q2178.68 32.4315 2175.19 37.1306 Q2171.71 41.7891 2171.71 49.9314 Q2171.71 58.0738 2175.15 62.7728 Q2178.64 67.4314 2184.67 67.4314 Q2190.63 67.4314 2194.11 62.7323 Q2197.59 58.0333 2197.59 49.9314 Q2197.59 41.8701 2194.11 37.1711 Q2190.63 32.4315 2184.67 32.4315 M2184.67 26.1121 Q2194.39 26.1121 2199.94 32.4315 Q2205.49 38.7509 2205.49 49.9314 Q2205.49 61.0714 2199.94 67.4314 Q2194.39 73.7508 2184.67 73.7508 Q2174.91 73.7508 2169.36 67.4314 Q2163.85 61.0714 2163.85 49.9314 Q2163.85 38.7509 2169.36 32.4315 Q2174.91 26.1121 2184.67 26.1121 Z" fill="#000000" fill-rule="nonzero" fill-opacity="1" /><path clip-path="url(#clip080)" d="M2255.56 45.1919 L2255.56 72.576 L2248.11 72.576 L2248.11 45.4349 Q2248.11 38.994 2245.6 35.7938 Q2243.09 32.5936 2238.06 32.5936 Q2232.03 32.5936 2228.54 36.4419 Q2225.06 40.2903 2225.06 46.9338 L2225.06 72.576 L2217.56 72.576 L2217.56 27.2059 L2225.06 27.2059 L2225.06 34.2544 Q2227.73 30.163 2231.34 28.1376 Q2234.98 26.1121 2239.72 26.1121 Q2247.54 26.1121 2251.55 30.9732 Q2255.56 35.7938 2255.56 45.1919 Z" fill="#000000" fill-rule="nonzero" fill-opacity="1" /><path clip-path="url(#clip080)" d="M2269.25 9.62495 L2275.74 9.62495 Q2281.81 19.1851 2284.81 28.3401 Q2287.85 37.4952 2287.85 46.5287 Q2287.85 55.6027 2284.81 64.7983 Q2281.81 73.9938 2275.74 83.5134 L2269.25 83.5134 Q2274.64 74.2369 2277.28 65.0818 Q2279.95 55.8863 2279.95 46.5287 Q2279.95 37.1711 2277.28 28.0566 Q2274.64 18.942 2269.25 9.62495 Z" fill="#000000" fill-rule="nonzero" fill-opacity="1" /><polyline clip-path="url(#clip081)" style="stroke:#009af9; stroke-linecap:round; stroke-linejoin:round; stroke-width:8; stroke-opacity:1; fill:none" points="309.067,1296.05 452.088,649.099 527.114,446.624 587.833,399.031 640.675,1134.71 688.35,1167.79 732.319,689.432 773.484,553.912 812.446,444.204 849.633,895.94 885.363,215.11 919.881,815.273 953.381,482.925 986.019,999.194 1017.93,605.538 1049.21,1093.57 1079.97,938.693 1110.29,824.953 1140.24,231.243 1169.89,1013.71 1199.3,1386.4 1228.53,947.567 1257.63,695.886 1286.65,928.207 1315.65,986.287 1344.67,908.847 1373.77,160.256 1403,328.044 1432.41,1244.42 1462.05,644.259 1492.01,515.191 1522.32,586.178 1553.09,747.513 1584.37,833.826 1616.28,360.311 1648.92,644.259 1682.42,941.113 1716.93,541.005 1752.66,618.445 1789.85,979.834 1828.81,1166.98 1869.98,547.458 1913.95,721.699 1961.62,910.46 2014.47,1171.82 2075.18,695.886 2150.21,657.165 2293.23,837.053 "/>
<circle clip-path="url(#clip081)" cx="309.067" cy="1296.05" r="10.8" fill="#009af9" fill-rule="evenodd" fill-opacity="1" stroke="#000000" stroke-opacity="1" stroke-width="3.2"/>
<circle clip-path="url(#clip081)" cx="452.088" cy="649.099" r="10.8" fill="#009af9" fill-rule="evenodd" fill-opacity="1" stroke="#000000" stroke-opacity="1" stroke-width="3.2"/>
<circle clip-path="url(#clip081)" cx="527.114" cy="446.624" r="10.8" fill="#009af9" fill-rule="evenodd" fill-opacity="1" stroke="#000000" stroke-opacity="1" stroke-width="3.2"/>
<circle clip-path="url(#clip081)" cx="587.833" cy="399.031" r="10.8" fill="#009af9" fill-rule="evenodd" fill-opacity="1" stroke="#000000" stroke-opacity="1" stroke-width="3.2"/>
<circle clip-path="url(#clip081)" cx="640.675" cy="1134.71" r="10.8" fill="#009af9" fill-rule="evenodd" fill-opacity="1" stroke="#000000" stroke-opacity="1" stroke-width="3.2"/>
<circle clip-path="url(#clip081)" cx="688.35" cy="1167.79" r="10.8" fill="#009af9" fill-rule="evenodd" fill-opacity="1" stroke="#000000" stroke-opacity="1" stroke-width="3.2"/>
<circle clip-path="url(#clip081)" cx="732.319" cy="689.432" r="10.8" fill="#009af9" fill-rule="evenodd" fill-opacity="1" stroke="#000000" stroke-opacity="1" stroke-width="3.2"/>
<circle clip-path="url(#clip081)" cx="773.484" cy="553.912" r="10.8" fill="#009af9" fill-rule="evenodd" fill-opacity="1" stroke="#000000" stroke-opacity="1" stroke-width="3.2"/>
<circle clip-path="url(#clip081)" cx="812.446" cy="444.204" r="10.8" fill="#009af9" fill-rule="evenodd" fill-opacity="1" stroke="#000000" stroke-opacity="1" stroke-width="3.2"/>
<circle clip-path="url(#clip081)" cx="849.633" cy="895.94" r="10.8" fill="#009af9" fill-rule="evenodd" fill-opacity="1" stroke="#000000" stroke-opacity="1" stroke-width="3.2"/>
<circle clip-path="url(#clip081)" cx="885.363" cy="215.11" r="10.8" fill="#009af9" fill-rule="evenodd" fill-opacity="1" stroke="#000000" stroke-opacity="1" stroke-width="3.2"/>
<circle clip-path="url(#clip081)" cx="919.881" cy="815.273" r="10.8" fill="#009af9" fill-rule="evenodd" fill-opacity="1" stroke="#000000" stroke-opacity="1" stroke-width="3.2"/>
<circle clip-path="url(#clip081)" cx="953.381" cy="482.925" r="10.8" fill="#009af9" fill-rule="evenodd" fill-opacity="1" stroke="#000000" stroke-opacity="1" stroke-width="3.2"/>
<circle clip-path="url(#clip081)" cx="986.019" cy="999.194" r="10.8" fill="#009af9" fill-rule="evenodd" fill-opacity="1" stroke="#000000" stroke-opacity="1" stroke-width="3.2"/>
<circle clip-path="url(#clip081)" cx="1017.93" cy="605.538" r="10.8" fill="#009af9" fill-rule="evenodd" fill-opacity="1" stroke="#000000" stroke-opacity="1" stroke-width="3.2"/>
<circle clip-path="url(#clip081)" cx="1049.21" cy="1093.57" r="10.8" fill="#009af9" fill-rule="evenodd" fill-opacity="1" stroke="#000000" stroke-opacity="1" stroke-width="3.2"/>
<circle clip-path="url(#clip081)" cx="1079.97" cy="938.693" r="10.8" fill="#009af9" fill-rule="evenodd" fill-opacity="1" stroke="#000000" stroke-opacity="1" stroke-width="3.2"/>
<circle clip-path="url(#clip081)" cx="1110.29" cy="824.953" r="10.8" fill="#009af9" fill-rule="evenodd" fill-opacity="1" stroke="#000000" stroke-opacity="1" stroke-width="3.2"/>
<circle clip-path="url(#clip081)" cx="1140.24" cy="231.243" r="10.8" fill="#009af9" fill-rule="evenodd" fill-opacity="1" stroke="#000000" stroke-opacity="1" stroke-width="3.2"/>
<circle clip-path="url(#clip081)" cx="1169.89" cy="1013.71" r="10.8" fill="#009af9" fill-rule="evenodd" fill-opacity="1" stroke="#000000" stroke-opacity="1" stroke-width="3.2"/>
<circle clip-path="url(#clip081)" cx="1199.3" cy="1386.4" r="10.8" fill="#009af9" fill-rule="evenodd" fill-opacity="1" stroke="#000000" stroke-opacity="1" stroke-width="3.2"/>
<circle clip-path="url(#clip081)" cx="1228.53" cy="947.567" r="10.8" fill="#009af9" fill-rule="evenodd" fill-opacity="1" stroke="#000000" stroke-opacity="1" stroke-width="3.2"/>
<circle clip-path="url(#clip081)" cx="1257.63" cy="695.886" r="10.8" fill="#009af9" fill-rule="evenodd" fill-opacity="1" stroke="#000000" stroke-opacity="1" stroke-width="3.2"/>
<circle clip-path="url(#clip081)" cx="1286.65" cy="928.207" r="10.8" fill="#009af9" fill-rule="evenodd" fill-opacity="1" stroke="#000000" stroke-opacity="1" stroke-width="3.2"/>
<circle clip-path="url(#clip081)" cx="1315.65" cy="986.287" r="10.8" fill="#009af9" fill-rule="evenodd" fill-opacity="1" stroke="#000000" stroke-opacity="1" stroke-width="3.2"/>
<circle clip-path="url(#clip081)" cx="1344.67" cy="908.847" r="10.8" fill="#009af9" fill-rule="evenodd" fill-opacity="1" stroke="#000000" stroke-opacity="1" stroke-width="3.2"/>
<circle clip-path="url(#clip081)" cx="1373.77" cy="160.256" r="10.8" fill="#009af9" fill-rule="evenodd" fill-opacity="1" stroke="#000000" stroke-opacity="1" stroke-width="3.2"/>
<circle clip-path="url(#clip081)" cx="1403" cy="328.044" r="10.8" fill="#009af9" fill-rule="evenodd" fill-opacity="1" stroke="#000000" stroke-opacity="1" stroke-width="3.2"/>
<circle clip-path="url(#clip081)" cx="1432.41" cy="1244.42" r="10.8" fill="#009af9" fill-rule="evenodd" fill-opacity="1" stroke="#000000" stroke-opacity="1" stroke-width="3.2"/>
<circle clip-path="url(#clip081)" cx="1462.05" cy="644.259" r="10.8" fill="#009af9" fill-rule="evenodd" fill-opacity="1" stroke="#000000" stroke-opacity="1" stroke-width="3.2"/>
<circle clip-path="url(#clip081)" cx="1492.01" cy="515.191" r="10.8" fill="#009af9" fill-rule="evenodd" fill-opacity="1" stroke="#000000" stroke-opacity="1" stroke-width="3.2"/>
<circle clip-path="url(#clip081)" cx="1522.32" cy="586.178" r="10.8" fill="#009af9" fill-rule="evenodd" fill-opacity="1" stroke="#000000" stroke-opacity="1" stroke-width="3.2"/>
<circle clip-path="url(#clip081)" cx="1553.09" cy="747.513" r="10.8" fill="#009af9" fill-rule="evenodd" fill-opacity="1" stroke="#000000" stroke-opacity="1" stroke-width="3.2"/>
<circle clip-path="url(#clip081)" cx="1584.37" cy="833.826" r="10.8" fill="#009af9" fill-rule="evenodd" fill-opacity="1" stroke="#000000" stroke-opacity="1" stroke-width="3.2"/>
<circle clip-path="url(#clip081)" cx="1616.28" cy="360.311" r="10.8" fill="#009af9" fill-rule="evenodd" fill-opacity="1" stroke="#000000" stroke-opacity="1" stroke-width="3.2"/>
<circle clip-path="url(#clip081)" cx="1648.92" cy="644.259" r="10.8" fill="#009af9" fill-rule="evenodd" fill-opacity="1" stroke="#000000" stroke-opacity="1" stroke-width="3.2"/>
<circle clip-path="url(#clip081)" cx="1682.42" cy="941.113" r="10.8" fill="#009af9" fill-rule="evenodd" fill-opacity="1" stroke="#000000" stroke-opacity="1" stroke-width="3.2"/>
<circle clip-path="url(#clip081)" cx="1716.93" cy="541.005" r="10.8" fill="#009af9" fill-rule="evenodd" fill-opacity="1" stroke="#000000" stroke-opacity="1" stroke-width="3.2"/>
<circle clip-path="url(#clip081)" cx="1752.66" cy="618.445" r="10.8" fill="#009af9" fill-rule="evenodd" fill-opacity="1" stroke="#000000" stroke-opacity="1" stroke-width="3.2"/>
<circle clip-path="url(#clip081)" cx="1789.85" cy="979.834" r="10.8" fill="#009af9" fill-rule="evenodd" fill-opacity="1" stroke="#000000" stroke-opacity="1" stroke-width="3.2"/>
<circle clip-path="url(#clip081)" cx="1828.81" cy="1166.98" r="10.8" fill="#009af9" fill-rule="evenodd" fill-opacity="1" stroke="#000000" stroke-opacity="1" stroke-width="3.2"/>
<circle clip-path="url(#clip081)" cx="1869.98" cy="547.458" r="10.8" fill="#009af9" fill-rule="evenodd" fill-opacity="1" stroke="#000000" stroke-opacity="1" stroke-width="3.2"/>
<circle clip-path="url(#clip081)" cx="1913.95" cy="721.699" r="10.8" fill="#009af9" fill-rule="evenodd" fill-opacity="1" stroke="#000000" stroke-opacity="1" stroke-width="3.2"/>
<circle clip-path="url(#clip081)" cx="1961.62" cy="910.46" r="10.8" fill="#009af9" fill-rule="evenodd" fill-opacity="1" stroke="#000000" stroke-opacity="1" stroke-width="3.2"/>
<circle clip-path="url(#clip081)" cx="2014.47" cy="1171.82" r="10.8" fill="#009af9" fill-rule="evenodd" fill-opacity="1" stroke="#000000" stroke-opacity="1" stroke-width="3.2"/>
<circle clip-path="url(#clip081)" cx="2075.18" cy="695.886" r="10.8" fill="#009af9" fill-rule="evenodd" fill-opacity="1" stroke="#000000" stroke-opacity="1" stroke-width="3.2"/>
<circle clip-path="url(#clip081)" cx="2150.21" cy="657.165" r="10.8" fill="#009af9" fill-rule="evenodd" fill-opacity="1" stroke="#000000" stroke-opacity="1" stroke-width="3.2"/>
<circle clip-path="url(#clip081)" cx="2293.23" cy="837.053" r="10.8" fill="#009af9" fill-rule="evenodd" fill-opacity="1" stroke="#000000" stroke-opacity="1" stroke-width="3.2"/>
<polyline clip-path="url(#clip081)" style="stroke:#e26f46; stroke-linecap:round; stroke-linejoin:round; stroke-width:4; stroke-opacity:1; fill:none" stroke-dasharray="16, 10" points="-1853.67,762.57 4455.97,762.57 "/>
<path clip-path="url(#clip080)" d="M1844.09 322.316 L2282.65 322.316 L2282.65 166.796 L1844.09 166.796  Z" fill="#ffffff" fill-rule="evenodd" fill-opacity="1"/>
<polyline clip-path="url(#clip080)" style="stroke:#000000; stroke-linecap:round; stroke-linejoin:round; stroke-width:4; stroke-opacity:1; fill:none" points="1844.09,322.316 2282.65,322.316 2282.65,166.796 1844.09,166.796 1844.09,322.316 "/>
<polyline clip-path="url(#clip080)" style="stroke:#009af9; stroke-linecap:round; stroke-linejoin:round; stroke-width:8; stroke-opacity:1; fill:none" points="1867.46,218.636 2007.67,218.636 "/>
<circle clip-path="url(#clip080)" cx="1937.56" cy="218.636" r="19.4742" fill="#009af9" fill-rule="evenodd" fill-opacity="1" stroke="#000000" stroke-opacity="1" stroke-width="5.85143"/>
<path clip-path="url(#clip080)" d="M2051.39 214.967 Q2052.98 212.096 2055.21 210.731 Q2057.43 209.365 2060.44 209.365 Q2064.49 209.365 2066.69 212.212 Q2068.89 215.036 2068.89 220.268 L2068.89 235.916 L2064.6 235.916 L2064.6 220.407 Q2064.6 216.68 2063.29 214.874 Q2061.97 213.069 2059.26 213.069 Q2055.95 213.069 2054.03 215.268 Q2052.1 217.467 2052.1 221.263 L2052.1 235.916 L2047.82 235.916 L2047.82 220.407 Q2047.82 216.657 2046.5 214.874 Q2045.18 213.069 2042.43 213.069 Q2039.17 213.069 2037.24 215.291 Q2035.32 217.49 2035.32 221.263 L2035.32 235.916 L2031.04 235.916 L2031.04 209.99 L2035.32 209.99 L2035.32 214.018 Q2036.78 211.633 2038.82 210.499 Q2040.85 209.365 2043.66 209.365 Q2046.48 209.365 2048.45 210.8 Q2050.44 212.235 2051.39 214.967 Z" fill="#000000" fill-rule="nonzero" fill-opacity="1" /><path clip-path="url(#clip080)" d="M2099.56 221.888 L2099.56 223.971 L2079.98 223.971 Q2080.25 228.369 2082.61 230.684 Q2085 232.976 2089.23 232.976 Q2091.69 232.976 2093.98 232.374 Q2096.29 231.772 2098.56 230.569 L2098.56 234.596 Q2096.27 235.568 2093.86 236.078 Q2091.46 236.587 2088.98 236.587 Q2082.78 236.587 2079.14 232.976 Q2075.53 229.365 2075.53 223.207 Q2075.53 216.842 2078.96 213.115 Q2082.41 209.365 2088.24 209.365 Q2093.47 209.365 2096.5 212.745 Q2099.56 216.101 2099.56 221.888 M2095.3 220.638 Q2095.25 217.143 2093.33 215.059 Q2091.43 212.976 2088.29 212.976 Q2084.72 212.976 2082.57 214.99 Q2080.44 217.004 2080.11 220.661 L2095.3 220.638 Z" fill="#000000" fill-rule="nonzero" fill-opacity="1" /><path clip-path="url(#clip080)" d="M2118.33 222.883 Q2113.17 222.883 2111.18 224.064 Q2109.19 225.244 2109.19 228.092 Q2109.19 230.36 2110.67 231.703 Q2112.17 233.022 2114.74 233.022 Q2118.29 233.022 2120.41 230.522 Q2122.57 227.999 2122.57 223.832 L2122.57 222.883 L2118.33 222.883 M2126.83 221.124 L2126.83 235.916 L2122.57 235.916 L2122.57 231.981 Q2121.11 234.342 2118.93 235.476 Q2116.76 236.587 2113.61 236.587 Q2109.63 236.587 2107.27 234.365 Q2104.93 232.119 2104.93 228.369 Q2104.93 223.994 2107.85 221.772 Q2110.79 219.55 2116.6 219.55 L2122.57 219.55 L2122.57 219.133 Q2122.57 216.194 2120.62 214.596 Q2118.7 212.976 2115.21 212.976 Q2112.98 212.976 2110.88 213.508 Q2108.77 214.041 2106.83 215.106 L2106.83 211.17 Q2109.16 210.268 2111.36 209.828 Q2113.56 209.365 2115.65 209.365 Q2121.27 209.365 2124.05 212.282 Q2126.83 215.198 2126.83 221.124 Z" fill="#000000" fill-rule="nonzero" fill-opacity="1" /><path clip-path="url(#clip080)" d="M2152.13 210.754 L2152.13 214.782 Q2150.32 213.856 2148.38 213.393 Q2146.43 212.93 2144.35 212.93 Q2141.18 212.93 2139.58 213.902 Q2138.01 214.874 2138.01 216.819 Q2138.01 218.3 2139.14 219.157 Q2140.28 219.99 2143.7 220.754 L2145.16 221.078 Q2149.7 222.05 2151.6 223.832 Q2153.52 225.592 2153.52 228.763 Q2153.52 232.374 2150.65 234.481 Q2147.8 236.587 2142.8 236.587 Q2140.72 236.587 2138.45 236.17 Q2136.2 235.777 2133.7 234.967 L2133.7 230.569 Q2136.06 231.795 2138.35 232.42 Q2140.65 233.022 2142.89 233.022 Q2145.9 233.022 2147.52 232.004 Q2149.14 230.962 2149.14 229.087 Q2149.14 227.351 2147.96 226.425 Q2146.8 225.499 2142.85 224.643 L2141.36 224.295 Q2137.41 223.462 2135.65 221.749 Q2133.89 220.013 2133.89 217.004 Q2133.89 213.346 2136.48 211.356 Q2139.07 209.365 2143.84 209.365 Q2146.2 209.365 2148.28 209.712 Q2150.37 210.059 2152.13 210.754 Z" fill="#000000" fill-rule="nonzero" fill-opacity="1" /><path clip-path="url(#clip080)" d="M2159.86 225.684 L2159.86 209.99 L2164.12 209.99 L2164.12 225.522 Q2164.12 229.203 2165.55 231.055 Q2166.99 232.883 2169.86 232.883 Q2173.31 232.883 2175.3 230.684 Q2177.31 228.485 2177.31 224.689 L2177.31 209.99 L2181.57 209.99 L2181.57 235.916 L2177.31 235.916 L2177.31 231.934 Q2175.76 234.295 2173.7 235.453 Q2171.66 236.587 2168.96 236.587 Q2164.49 236.587 2162.17 233.809 Q2159.86 231.031 2159.86 225.684 M2170.58 209.365 L2170.58 209.365 Z" fill="#000000" fill-rule="nonzero" fill-opacity="1" /><path clip-path="url(#clip080)" d="M2205.37 213.971 Q2204.65 213.555 2203.79 213.37 Q2202.96 213.161 2201.94 213.161 Q2198.33 213.161 2196.39 215.522 Q2194.47 217.86 2194.47 222.258 L2194.47 235.916 L2190.18 235.916 L2190.18 209.99 L2194.47 209.99 L2194.47 214.018 Q2195.81 211.657 2197.96 210.522 Q2200.11 209.365 2203.19 209.365 Q2203.63 209.365 2204.16 209.434 Q2204.7 209.481 2205.34 209.596 L2205.37 213.971 Z" fill="#000000" fill-rule="nonzero" fill-opacity="1" /><path clip-path="url(#clip080)" d="M2230.97 221.888 L2230.97 223.971 L2211.39 223.971 Q2211.66 228.369 2214.03 230.684 Q2216.41 232.976 2220.65 232.976 Q2223.1 232.976 2225.39 232.374 Q2227.71 231.772 2229.97 230.569 L2229.97 234.596 Q2227.68 235.568 2225.28 236.078 Q2222.87 236.587 2220.39 236.587 Q2214.19 236.587 2210.55 232.976 Q2206.94 229.365 2206.94 223.207 Q2206.94 216.842 2210.37 213.115 Q2213.82 209.365 2219.65 209.365 Q2224.88 209.365 2227.91 212.745 Q2230.97 216.101 2230.97 221.888 M2226.71 220.638 Q2226.66 217.143 2224.74 215.059 Q2222.84 212.976 2219.7 212.976 Q2216.13 212.976 2213.98 214.99 Q2211.85 217.004 2211.53 220.661 L2226.71 220.638 Z" fill="#000000" fill-rule="nonzero" fill-opacity="1" /><path clip-path="url(#clip080)" d="M2255.02 213.925 L2255.02 199.897 L2259.28 199.897 L2259.28 235.916 L2255.02 235.916 L2255.02 232.027 Q2253.68 234.342 2251.62 235.476 Q2249.58 236.587 2246.71 236.587 Q2242.01 236.587 2239.05 232.837 Q2236.11 229.087 2236.11 222.976 Q2236.11 216.865 2239.05 213.115 Q2242.01 209.365 2246.71 209.365 Q2249.58 209.365 2251.62 210.499 Q2253.68 211.61 2255.02 213.925 M2240.51 222.976 Q2240.51 227.675 2242.43 230.36 Q2244.37 233.022 2247.75 233.022 Q2251.13 233.022 2253.08 230.36 Q2255.02 227.675 2255.02 222.976 Q2255.02 218.277 2253.08 215.615 Q2251.13 212.93 2247.75 212.93 Q2244.37 212.93 2242.43 215.615 Q2240.51 218.277 2240.51 222.976 Z" fill="#000000" fill-rule="nonzero" fill-opacity="1" /><polyline clip-path="url(#clip080)" style="stroke:#e26f46; stroke-linecap:round; stroke-linejoin:round; stroke-width:4; stroke-opacity:1; fill:none" stroke-dasharray="16, 10" points="1867.46,270.476 2007.67,270.476 "/>
<path clip-path="url(#clip080)" d="M2031.04 253.196 L2037.34 253.196 L2052.66 282.108 L2052.66 253.196 L2057.2 253.196 L2057.2 287.756 L2050.9 287.756 L2035.58 258.844 L2035.58 287.756 L2031.04 287.756 L2031.04 253.196 Z" fill="#000000" fill-rule="nonzero" fill-opacity="1" /><path clip-path="url(#clip080)" d="M2088.96 253.196 L2092.89 253.196 L2080.85 292.154 L2076.92 292.154 L2088.96 253.196 Z" fill="#000000" fill-rule="nonzero" fill-opacity="1" /><path clip-path="url(#clip080)" d="M2125.88 257.27 L2114.07 275.719 L2125.88 275.719 L2125.88 257.27 M2124.65 253.196 L2130.53 253.196 L2130.53 275.719 L2135.46 275.719 L2135.46 279.608 L2130.53 279.608 L2130.53 287.756 L2125.88 287.756 L2125.88 279.608 L2110.28 279.608 L2110.28 275.094 L2124.65 253.196 Z" fill="#000000" fill-rule="nonzero" fill-opacity="1" /><path clip-path="url(#clip080)" d="M2139.84 261.83 L2164.67 261.83 L2164.67 266.089 L2161.41 266.089 L2161.41 282.015 Q2161.41 283.682 2161.97 284.422 Q2162.54 285.14 2163.82 285.14 Q2164.16 285.14 2164.67 285.094 Q2165.18 285.024 2165.35 285.001 L2165.35 288.08 Q2164.53 288.381 2163.68 288.52 Q2162.82 288.658 2161.97 288.658 Q2159.19 288.658 2158.12 287.154 Q2157.06 285.626 2157.06 281.552 L2157.06 266.089 L2147.5 266.089 L2147.5 287.756 L2143.15 287.756 L2143.15 266.089 L2139.84 266.089 L2139.84 261.83 Z" fill="#000000" fill-rule="nonzero" fill-opacity="1" /></svg>
